<svg fill="none" height="32" viewBox="0 0 152 32" width="152" xmlns="http://www.w3.org/2000/svg"><g fill="#4a4a4a"><path d="m112.14 0c.042.0415045.085.0415045.127.0830091.254.2075229.676.3735409.719.6225679.084.456553-.381.622573-.761.747083-1.522.45655-2.832 1.32814-4.143 2.15823-1.141.70558-2.325 1.41116-3.381 2.28275-.972.78859-1.86 1.7432-2.705 2.6978-1.269 1.45266-2.4944 2.98836-3.6779 4.52396-.8031 1.0376-1.2681 2.1998-.8877 3.5694.2114.8301.465 1.0376 1.3527 1.0791 1.8599.0415 3.6769.0415 5.5369.1246.465 0 .93.083 1.353.166s.719 0 1.057-.3321c.338-.332.803-.6225 1.183-.9546.423-.3735.803-.8301 1.184-1.2451 1.521-1.4942 3.001-3.0298 4.565-4.524 1.141-1.07911 2.325-2.11673 3.55-3.15434.761-.66407 1.649-1.24514 2.452-1.86771.676-.53956 1.395-1.03761 2.071-1.57717.465-.33203.888-.74708 1.353-1.03761.888-.49806 1.226-1.28664 1.395-2.15824.845-.332035 1.564-.12451 2.282.24903.465.24903.508.45655.338.9546-.422.99611-.76 2.03373-1.141 3.07134-.634 1.78469-1.226 3.56939-1.817 5.3956.634-.166 1.268-.2905 1.902-.4566 2.536-.53952 5.072-1.07908 7.608-1.61864.972-.20752 2.029-.24902 3.001-.41504.803-.12452 1.564-.29053 2.325-.45655.169-.04151.296-.04151.465-.04151 1.818-.12451 3.635-.24902 5.453-.37354.761-.0415 1.479-.16602 2.24-.20752.296 0 .592.08301.845.12451 0 .04151.043.12452.043.16602-.212.08301-.423.24903-.677.29053-.887.16602-1.775.29053-2.663.41505-1.902.33203-3.846.66407-5.748.9546-1.268.20752-2.536.37354-3.762.62257-1.733.37352-3.424.83012-5.157 1.20362-2.071.4981-4.1.9961-6.171 1.4942-.55.1245-.677.5395-.803.9131-.254.664-.465 1.3281-.719 1.9922-.338.8716-.676 1.7017-1.014 2.5318-.381.9546-.761 1.9092-1.184 2.8638-.254.6226-.676 1.1621-.888 1.7847-.422 1.1621-1.352 2.0337-1.564 3.3203-.084.5811-.38 1.1622-.634 1.7017-.338.7886-.76 1.5772-1.056 2.3658-.169.3735-.169.8301-.212 1.3281-.211-.166-.338-.249-.591-.415v1.0376c-.761-.7471-.043-4.8145.929-5.8106-.169-.0415-.295-.083-.422-.1245.972-.7471 1.014-1.8678 1.31-2.8639.042-.166.127-.332.169-.5395.042-.1245.169-.2906.212-.4151.042-1.5356 1.056-2.7808 1.394-4.2749.212-1.0376.761-1.9923 1.142-2.9884.042-.1245 0-.2905 0-.415.042-.249.126-.4566.211-.6641.042-.1245.127-.249.211-.3735-.169-.0415-.296-.083-.465-.083-.549.0415-1.141.1245-1.69.1245-.761 0-1.184-.4981-1.099-1.2036 1.225.2075 2.324-.4151 3.466-.5396.422-.0415.549-.2905.676-.6641.169-.6225.465-1.20361.676-1.82618.127-.33204.127-.66407.254-.99611.338-.83009.676-1.70168 1.014-2.53177.169-.45655.381-.95461.127-1.49417-5.453 4.19196-10.567 8.67443-14.794 14.19453.634.2491 1.099.4151 1.606.6226 1.015.415 2.029.9131 2.663 1.8677.55.8301.381 2.3243-.253 3.1958-.381.4566-.719.9547-1.057 1.4527-.719 1.1621-1.818 1.9507-2.874 2.7393-1.269.9546-2.748 1.4527-4.312 1.7017-.93.166-1.648-.2075-2.325-.7056-.169-.1245-.253-.5395-.211-.7886.169-1.9922.888-3.8184 1.944-5.5201.677-1.1206 1.395-2.2412 2.071-3.3203.043-.083.043-.1661.127-.3321-.549-.0415-1.014-.083-1.479-.1245-1.691-.0415-3.424-.0415-5.1147-.1245-1.4372-.083-2.6207-.5811-3.4238-1.8262-.3804-.6226-.5072-1.2451-.2536-1.9092.6763-1.9092 1.8598-3.5279 3.1279-5.0221.6763-.78855 1.3102-1.66014 2.0712-2.40722.634-.66408 1.395-1.16213 2.113-1.7847 1.269-1.12062 2.537-2.24124 3.805-3.36187.126-.12451.296-.24902.465-.37354.507-.41504 1.014-.87159 1.564-1.24513.718-.498058 1.394-1.1621309 2.409-1.120626.169 0 .296-.0415049.465-.0830095.169-.0415045.338-.0415045.507-.0415045zm-8.073 29.5097c.507-.166 1.014-.2905 1.479-.498.634-.3321 1.268-.7056 1.818-1.1206.845-.7056 1.648-1.4112 2.367-2.2413.845-.9131 1.141-2.1167 1.395-3.2789.169-.7055-.043-1.2036-.677-1.5771-.465-.2906-1.014-.4981-1.521-.6641-1.48-.5396-1.184-.4981-1.902.5811-.085.1245-.17.2075-.212.332-.845 1.4112-1.775 2.7808-2.536 4.2335-.465.9546-.676 1.9922-1.057 3.0298-.296.7886-.084 1.0791.846 1.2036z"/><path d="m137.671 20.6277c.253-.0415.422-.0415.507-.083.169-.083.296-.249.423-.3735 1.521-1.6602 3.339-3.0298 5.283-4.2335.634-.415 1.268-.8301 2.071-.7055.465.083.888.2075 1.353.3735.338.1245.296.7056.042 1.3696-.211.6226-.591 1.1622-.761 1.7847-.126.4151-.211.7471-.591.7886-.085.4151-.127.7886-.212 1.1622-.253.83-.549 1.6186-.76 2.4487-.085.2905.042.6641.042 1.0376.127-.083.253-.1245.38-.2075.042.0415.085.0415.127.083-.127.2075-.254.4151-.338.5396.127.2905.211.498.296.7471.084.249.127.498.211.7885.254-.083.55-.1245.719-.2905.887-.6226 1.775-1.1621 2.578-1.8677.803-.7471 1.48-1.6187 2.198-2.4488.169-.166.296-.3735.423-.5395.042.0415.127.083.169.166-.127.2905-.254.6226-.423 1.0791.254-.2075.381-.2905.507-.415.043.0415.043.0415.085.083-.338.4565-.676.8716-.972 1.3696-.296.4981-.55 1.0376-.888 1.4942-.296.3735-.634.7471-1.014 1.0376-.973.7056-1.945 1.4112-3.171 1.6187-1.479.2905-2.789-.8716-2.705-2.3658.042-.498-.127-1.0791 0-1.5356.127-.4566-.127-1.0377.381-1.4112.084-.0415-.043-.332 0-.4981 0-.2905-.043-.581.042-.83.211-.6641.507-1.2452.718-1.9092.254-.7886.465-1.6187.719-2.5733-.38.2075-.719.3735-.972.581-1.015.7471-2.029 1.4527-2.959 2.3243-.803.7471-1.691 1.4526-1.944 2.6148-.043.1245-.169.249-.254.3735-.803 1.1621-1.606 2.2828-2.367 3.4864-.338.5396-1.31.8716-1.987.6226-.803-.2906-1.183-.9131-.972-1.7017.254-1.0791.507-2.1583.761-3.2374-.296.3321-.634.6641-.93 1.0376-1.141 1.2037-2.283 2.3658-3.424 3.5694-.465.4981-.845 1.0376-1.395 1.4112-.634.4565-1.395.7886-2.155 1.0791-1.184.4565-2.494-.249-2.959-1.4112-.55-1.4111-.169-2.7808.211-4.1089.296-.9546.676-1.9507 1.141-2.8223.634-1.2451 1.395-2.4488 2.156-3.6109.465-.7056 1.057-1.2866 1.606-1.9507.381-.4566.888-.7471 1.522-.5811.55.1245 1.099.249 1.564.4981.549.2905.634.6225.254 1.1621-.339.4981-.677.9961-1.142 1.4112-.718.7055-1.479 1.4111-2.282 2.0752-.677.5395-1.437.9546-2.114 1.4941-.338.2906-.549.7471-.761 1.1622-.169.2905-.253.664-.338.9961-.126.498-.211.9546-.253 1.4526-.043.5811-.043 1.2037-.085 1.7847v.2906c0 1.2036.465 1.4526 1.48.8301.76-.4981 1.394-1.1207 2.113-1.6187 1.479-1.0376 2.663-2.3243 3.847-3.6109 1.099-1.2036 2.24-2.3658 3.043-3.7769.38-.6641.465-1.3697.803-2.0338.169-.3735.254-.4565.719-.415.591.0415 1.141.2075 1.606.4981.507.2905.592.581.338 1.0791-.465.9131-.888 1.8262-.972 2.8638-.042.0415-.169.2075-.338.498zm-10.99-1.7016c.042.0415.084.083.126.1245.127-.083.296-.2076.423-.3321.676-.664 1.353-1.3281 1.987-2.0337.296-.332.592-.6641.845-.9961.085-.1245.042-.332.042-.4565-.169.0415-.338.0415-.422.1245-.423.3735-.888.7886-1.268 1.2451-.592.7471-1.142 1.5357-1.733 2.3243z"/><path d="m9.17241 22.9105h-5.03003l-1.099 3.4034h-3.04338l4.9455-14.0286h3.50834l4.98776 14.0286h-3.1702zm-4.35372-2.1997h3.71969l-1.81758-5.7692h-.08454z"/><path d="m18.9789 26.3139v-14.0286h2.4939l6.6785 9.131h.0845v-9.131h2.8743v14.0286h-2.4938l-6.6786-9.1725h-.0845v9.1725z"/><path d="m40.9166 26.3139v-11.6213h-4.1424v-2.4073h11.2436v2.4073h-4.1423v11.6213z"/><path d="m66.3204 19.2996c0 4.4825-2.663 7.2633-6.8899 7.2633s-6.8899-2.7808-6.8899-7.2633 2.663-7.2633 6.8899-7.2633 6.8899 2.8223 6.8899 7.2633zm-10.7364 0c0 2.9468 1.4795 4.8145 3.8465 4.8145 2.3248 0 3.8465-1.8677 3.8465-4.8145s-1.4794-4.8145-3.8465-4.8145c-2.367 0-3.8465 1.8677-3.8465 4.8145z"/><path d="m72.3226 26.3139v-14.0286h2.4939l6.6785 9.131h.0845v-9.131h2.8743v14.0286h-2.4939l-6.6785-9.1725h-.0845v9.1725z"/></g></svg>