<svg fill="none" height="22" viewBox="0 0 115 22" width="115" xmlns="http://www.w3.org/2000/svg"><path d="m32.4824 1.09108c-.3024.60489-.3024 1.18961-.3024 1.7945v7.56112s4.0527-5.26255 4.9802-6.51265c.7057-.9275 1.5727-2.23808 1.5727-2.84297h13.2269c-.9074.60489-1.9155 1.69368-2.7422 2.70183-.7259.88717-4.8391 5.90773-4.8391 5.90773s6.1094 9.29506 6.8957 10.48466c.4436.6453.9275 1.2501 1.4921 1.7945h-15.223c0-.6048-.5847-1.8348-1.2299-2.8026-.6453-.9678-4.1334-6.2707-4.1334-6.2707v7.2788c0 .6049 0 1.1897.3024 1.7945h-12.6824c.3024-.6048.3024-1.1896.3024-1.7945v-17.29972c0-.60489 0-1.18961-.3024-1.7945zm46.9594 0h-24.4778c.3025.60489.3025 1.18961.3025 1.7945v17.29972c0 .6049 0 1.1897-.3025 1.7945h24.4778v-5.7867c-.6049.3024-1.1896.3024-1.7945.3024h-10.3033v-2.7421h9.9v-4.4157h-9.9v-2.76231h10.3033c.6049 0 1.1896 0 1.7945.28228zm33.9142 19.09422c.201.6654.544 1.2703.988 1.7945h-13.267c.06-.6048-.162-1.1896-.404-1.7945 0 0-.201-.4839-.484-1.1896l-.121-.3024h-7.6413l-.121.3226s-.2218.5847-.4234 1.1896-.4234 1.1896-.3428 1.7945h-10.4645c.4234-.5242.746-1.1291.9476-1.7945l6.2707-17.29976c.2218-.60488.4436-1.18961.3629-1.79449h17.6828c-.161.60488.161 1.18961.383 1.79449.524 1.31059 6.19 16.11016 6.634 17.27956zm-14.9611-5.9077-1.855-4.83908c-.1613-.44358-.3024-.90733-.4032-1.37108-.0807.46375-.2017.9275-.363 1.37108-.0605.20163-.8468 2.31868-1.7541 4.83908zm-84.9059-11.39202c0-.60489 0-1.18961.3024-1.7945h-13.7914c.302444.60489.302444 1.18961.302444 1.7945v17.29972c0 .6049 0 1.1897-.302444 1.7945h13.7914c-.3024-.6048-.3024-1.1896-.3024-1.7945zm95.633-.14114c-.041 1.51222 1.149 2.78248 2.681 2.8228 1.512.04032 2.783-1.14928 2.823-2.68166 0-.04031 0-.10082 0-.14114.02-1.49205-1.149-2.7219931-2.641-2.74215657-.041 0-.061 0-.101 0-1.472-.06050333-2.702 1.08879657-2.742 2.56068657-.041.0605-.041.12098-.02.18147zm4.939 0c.041 1.20977-.927 2.23808-2.137 2.25824-1.21.04032-2.238-.92749-2.258-2.13726 0-.04032 0-.08066 0-.14114-.04-1.16945.867-2.157437 2.036-2.197757h.162c1.189-.02019 2.177.927487 2.197 2.117097zm-.846 1.65335h-.545l-.645-1.16944h-.706v1.16944h-.484v-3.30671h1.23c.585.02019 1.029.48391 1.029 1.06863 0 .40326-.222.7662-.585.96783zm-1.23-1.65335c.322.02019.605-.22179.605-.5444 0-.3226-.222-.60489-.545-.60489-.02 0-.04 0-.06 0h-.666v1.16945h.666" fill="#282828"/></svg>