<?xml version="1.0" encoding="UTF-8"?><svg width="64" height="64" version="1.1" viewBox="0 0 64 64" xmlns="http://www.w3.org/2000/svg" xmlns:xlink="http://www.w3.org/1999/xlink"><!--Generated by IJSVG (https://github.com/iconjar/IJSVG)--><g transform="scale(3.2)"><path fill="#000" d="M5,3c0,1.062 -0.71,1.976 -2.001,1.976c-1.215,0 -1.999,-0.862 -1.999,-1.924c0,-1.09 0.76,-2.052 2,-2.052c1.24,0 1.976,0.91 2,2Zm-4,16v-13h4v13h-4Z"></path><path fill="#000" d="M7,10.444c0,-1.545 -0.051,-2.836 -0.102,-3.951h3.594l0.178,1.723h0.076c0.506,-0.811 1.746,-2 3.822,-2c2.532,0 4.432,1.695 4.432,5.342v7.442h-4v-6.861c0,-1.594 -0.607,-2.81 -2,-2.81c-1.062,0 -1.594,0.86 -1.873,1.569c-0.102,0.254 -0.127,0.608 -0.127,0.963v7.139h-4v-8.556Z"></path></g></svg>