<svg fill="none" height="20" viewBox="0 0 20 20" width="20" xmlns="http://www.w3.org/2000/svg"><path d="m10 .400024c-5.30198 0-9.599976 4.297996-9.599976 9.599976 0 5.302 4.297996 9.6 9.599976 9.6 5.302 0 9.6-4.298 9.6-9.6 0-5.30198-4.298-9.599976-9.6-9.599976zm3.905 7.863996c.004.082.005.16401.005.24401 0 2.49997-1.901 5.38097-5.37898 5.38097-1.068 0-2.062-.312-2.898-.85.147.018.298.025.451.025.886 0 1.701-.301 2.348-.809-.827-.016-1.525-.562-1.766-1.312.115.021.233.033.355.033.172 0 .34-.023.498-.066-.865-.174-1.517-.93798-1.517-1.85398v-.023c.255.141.547.22701.857.23701-.508-.34-.841-.91801-.841-1.57501 0-.346.093-.672.256-.951.933 1.144 2.325 1.896 3.89698 1.977-.033-.139-.049-.283-.049-.432 0-1.043.846-1.891 1.891-1.891.543 0 1.035.23 1.38.598.431-.086.835-.242 1.2-.459-.141.441-.44.812-.831 1.047.383-.047.747-.148 1.086-.299-.253.379-.574.713-.943.979z" fill="#E0E0E0"/></svg>