<svg width="32" height="32" viewBox="0 0 32 32" fill="none" xmlns="http://www.w3.org/2000/svg">
<path d="M15.9999 0.640015C7.51669 0.640015 0.639893 7.51682 0.639893 16C0.639893 24.4832 7.51669 31.36 15.9999 31.36C24.4831 31.36 31.3599 24.4832 31.3599 16C31.3599 7.51682 24.4831 0.640015 15.9999 0.640015ZM22.2479 13.2224C22.2543 13.3536 22.2559 13.4848 22.2559 13.6128C22.2559 17.6128 19.2143 22.2224 13.6495 22.2224C11.9407 22.2224 10.3503 21.7232 9.01269 20.8624C9.24789 20.8912 9.48949 20.9024 9.73429 20.9024C11.1519 20.9024 12.4559 20.4208 13.4911 19.608C12.1679 19.5824 11.0511 18.7088 10.6655 17.5088C10.8495 17.5424 11.0383 17.5616 11.2335 17.5616C11.5087 17.5616 11.7775 17.5248 12.0303 17.456C10.6463 17.1776 9.60309 15.9552 9.60309 14.4896V14.4528C10.0111 14.6784 10.4783 14.816 10.9743 14.832C10.1615 14.288 9.62869 13.3632 9.62869 12.312C9.62869 11.7584 9.77749 11.2368 10.0383 10.7904C11.5311 12.6208 13.7583 13.824 16.2735 13.9536C16.2207 13.7312 16.1951 13.5008 16.1951 13.2624C16.1951 11.5936 17.5487 10.2368 19.2207 10.2368C20.0895 10.2368 20.8767 10.6048 21.4287 11.1936C22.1183 11.056 22.7647 10.8064 23.3487 10.4592C23.1231 11.1648 22.6447 11.7584 22.0191 12.1344C22.6319 12.0592 23.2143 11.8976 23.7567 11.656C23.3519 12.2624 22.8383 12.7968 22.2479 13.2224Z" fill="#E0E0E0"/>
</svg>
