<svg enable-background="new 0 0 32 32" viewBox="0 0 32 32" xmlns="http://www.w3.org/2000/svg"><path d="m16 .6c-8.5 0-15.4 6.9-15.4 15.4s6.9 15.4 15.4 15.4 15.4-6.9 15.4-15.4-6.9-15.4-15.4-15.4zm6.2 12.6v.4c0 4-3 8.6-8.6 8.6-1.7 0-3.3-.5-4.6-1.4h.7c1.4 0 2.7-.5 3.8-1.3-1.3 0-2.4-.9-2.8-2.1.2 0 .4.1.6.1.3 0 .5 0 .8-.1-1.4-.3-2.4-1.5-2.4-3 .4.2.9.4 1.4.4-.8-.5-1.3-1.5-1.3-2.5 0-.6.1-1.1.4-1.5 1.5 1.8 3.7 3 6.2 3.2-.1-.2-.1-.5-.1-.7 0-1.7 1.4-3 3-3 .9 0 1.7.4 2.2 1 .7-.1 1.3-.4 1.9-.7-.2.7-.7 1.3-1.3 1.7.6-.1 1.2-.2 1.7-.5-.4.5-1 1-1.6 1.4z" fill="#ffea34"/></svg>