<svg width="20" height="20" viewBox="0 0 20 20" fill="none" xmlns="http://www.w3.org/2000/svg">
<path d="M10 0.400024C4.69802 0.400024 0.400024 4.69802 0.400024 10C0.400024 15.302 4.69802 19.6 10 19.6C15.302 19.6 19.6 15.302 19.6 10C19.6 4.69802 15.302 0.400024 10 0.400024ZM13.905 8.26402C13.909 8.34602 13.91 8.42803 13.91 8.50803C13.91 11.008 12.009 13.889 8.53102 13.889C7.46302 13.889 6.46902 13.577 5.63302 13.039C5.78002 13.057 5.93102 13.064 6.08402 13.064C6.97002 13.064 7.78502 12.763 8.43202 12.255C7.60502 12.239 6.90702 11.693 6.66602 10.943C6.78102 10.964 6.89902 10.976 7.02102 10.976C7.19302 10.976 7.36102 10.953 7.51902 10.91C6.65402 10.736 6.00202 9.97202 6.00202 9.05602V9.03302C6.25702 9.17402 6.54902 9.26003 6.85902 9.27003C6.35102 8.93003 6.01802 8.35202 6.01802 7.69502C6.01802 7.34902 6.11102 7.02302 6.27402 6.74402C7.20702 7.88802 8.59902 8.64002 10.171 8.72102C10.138 8.58202 10.122 8.43802 10.122 8.28902C10.122 7.24602 10.968 6.39802 12.013 6.39802C12.556 6.39802 13.048 6.62802 13.393 6.99602C13.824 6.91002 14.228 6.75402 14.593 6.53702C14.452 6.97802 14.153 7.34902 13.762 7.58402C14.145 7.53702 14.509 7.43602 14.848 7.28502C14.595 7.66402 14.274 7.99802 13.905 8.26402Z" fill="#737373"/>
</svg>
