<svg width="117" height="460" viewBox="0 0 117 460" fill="none" xmlns="http://www.w3.org/2000/svg">
<path fill-rule="evenodd" clip-rule="evenodd" d="M45.5564 432.87L30 448.426L41.3137 459.74L56.8701 444.184L72.5564 459.87L83.8701 448.556L68.1838 432.87L83.7401 417.314L72.4264 406L56.8701 421.556L41.4437 406.13L30.13 417.444L45.5564 432.87Z" fill="#8890A0"/>
<path d="M56 397C56 391.802 55.6358 379.693 61 376.222C63.8012 374.41 65.5584 370.953 67.6111 368.444C70.3572 365.088 73.9303 362.324 77.5 359.944C89.4859 351.954 99.1794 341.398 109 331C118.226 321.231 115 306.13 115 294.556C115 281.028 101.965 269.806 92.5 262.444C86.0716 257.445 77.6747 251.568 69.4445 250C62.6246 248.701 55.9365 244.385 49 244C45.9919 243.833 43.058 242.381 40 241.944C35.8016 241.345 30.2727 240.596 26.5 238.5C22.2954 236.164 16.5073 236.608 12 234.222C1.46851 228.647 2.00001 212.965 2.00001 202.5C2.00001 186.97 9.95277 178.605 22 170C30.2292 164.122 37.6317 157.427 46.5 152.5C52.4453 149.197 58.2808 149 65 149C76.5844 149 84.0106 155.192 81.9445 166.556C79.3372 180.895 58.908 180.888 48.2222 176.778C34.7006 171.577 31.4149 157.078 34.7778 144C40.7051 120.949 55.2213 103.766 75.5 92.5C84.9755 87.2358 102.347 78.1903 104.944 66.5C106.229 60.719 108 54.9185 108 48.5556C108 42.2794 107.333 35.9874 107 30C106.452 20.1408 100.387 9.77427 96 1" stroke="#A0A0A0" stroke-width="2" stroke-linecap="round" stroke-linejoin="round" stroke-dasharray="6 6"/>
</svg>
