<?xml version="1.0" encoding="utf-8"?>
<!DOCTYPE svg PUBLIC "-//W3C//DTD SVG 1.1//EN" "http://www.w3.org/Graphics/SVG/1.1/DTD/svg11.dtd">
<svg version="1.1" id="VARG" xmlns="http://www.w3.org/2000/svg" xmlns:xlink="http://www.w3.org/1999/xlink" x="0px" y="0px"
 width="217px" height="105px" viewBox="0 0 217 105" enable-background="new 0 0 217 105" xml:space="preserve">
<g>
<g>
<path fill="#0060A9" d="M50.831,40.964c0,0-7.649-35.696-7.814-36.591c-0.166-0.894,0.132-1.226,0.132-1.226H30.665
c0.43,0.332,0.132,1.192,0.132,1.192s-8.079,35.3-8.344,36.426c-0.265,1.125-0.861,1.357-0.861,1.357s5.662,0,11.755,0
c-0.298-0.265-0.232-1.093-0.232-1.093l0.762-5.166h5.828c0,0,0.596,4.206,0.695,5.133s-0.232,1.126-0.232,1.126s7.053,0,11.391,0
C51.129,41.958,50.831,40.964,50.831,40.964z M34.97,28.745l1.888-12.583l1.821,12.583H34.97z"/>
<path fill="#0060A9" d="M70.302,21.989c0,0,6.888-0.761,6.656-9.603c-0.331-9.669-12.219-9.173-12.219-9.173H51.726
c0.298,0.331,0.397,1.457,0.397,1.457s0,35.333,0,36.062s-0.364,1.457-0.364,1.457s10.762,0,14.471,0s12.352-1.59,12.12-10.696
S70.302,21.989,70.302,21.989z M66.825,14.671c0.199,4.239-3.676,3.941-3.94,3.941c0-3.875-0.066-7.517-0.066-7.517
S66.627,10.433,66.825,14.671z M62.786,33.712v-8.014c0,0,4.404-0.729,4.404,4.04S62.786,33.712,62.786,33.712z"/>
<path fill="#0060A9" d="M92.688,16.427c-2.055-1.646-3.113-4.636,0.729-4.967c4.072,0.032,6.722,2.649,6.722,2.649V3.81
c-0.298,0.265-0.794,0.298-1.424,0.033s-2.053-0.794-3.577-1.093c-4.9-0.927-8.775,0.166-11.027,1.821
c-2.251,1.656-3.841,3.411-4.106,8.875c-0.265,5.464,2.037,7.795,5.199,10.961c3.702,2.837,4.769,3.874,5.729,5.066
c1.126,1.126,1.192,3.741-2.517,4.106c-3.841,0.132-8.377-3.841-8.377-3.841s0,5.63,0,11.093c0.397-0.265,1.093,0,2.616,0.828
c3.676,2.053,10.53,2.053,14.868-0.894c4.338-2.947,5.696-10.199,4.404-14.504C100.635,21.957,96.229,19.261,92.688,16.427z"/>
<path fill="#0060A9" d="M117.589,2.353c0,0-14.454-2.022-14.454,20.23c0,22.251,14.454,20.457,14.454,20.457
s14.484,1.257,14.484-20.457C132.073,0.868,117.589,2.353,117.589,2.353z M117.589,33.901c0,0-3.461,1.332-3.461-11.318
c0-12.651,3.461-11.657,3.461-11.657s3.293-0.986,3.293,11.657C120.882,35.226,117.589,33.901,117.589,33.901z"/>
<path fill="#0060A9" d="M145.306,33.017c0,0,0-27.518,0-28.478s0.298-1.358,0.298-1.358h-11.557
c0.497,0.696,0.364,1.457,0.364,1.457s0,34.472,0,35.863c0,1.391-0.364,1.589-0.364,1.589h19.107c0,0,0-7.152,0-9.471
c-0.331,0.331-1.391,0.397-1.391,0.397H145.306z"/>
<path fill="#0060A9" d="M170.539,4.737v26.624c0,0,0.05,2.815-2.764,2.815s-3.104-2.815-3.104-2.815s0-25.696,0-26.789
s0.364-1.391,0.364-1.391h-11.251c0.298,0.166,0.431,1.391,0.431,1.391v26.789c0,0,0.274,11.689,13.354,11.689
s13.27-11.755,13.27-11.755s0-26.027,0-26.79c0-0.761,0.332-1.258,0.332-1.258s-7.286,0-11.06,0
C170.473,3.645,170.539,4.737,170.539,4.737z"/>
<path fill="#0060A9" d="M182.427,12.651c0.563-0.364,1.424-0.331,1.424-0.331h4.934c0,0,0,27.286,0,28.379
s-0.331,1.424-0.331,1.424s8.146,0,11.59,0c-0.364-0.364-0.364-1.49-0.364-1.49V12.32c0,0,4.206,0,5.034,0
s1.258,0.331,1.258,0.331V3.214h-23.544V12.651z"/>
<path fill="#0060A9" d="M211.6,2.488c-2.075,0-3.83,1.597-3.83,3.762c0,2.185,1.755,3.78,3.83,3.78
c2.056,0,3.811-1.596,3.811-3.78C215.411,4.085,213.655,2.488,211.6,2.488z M211.6,9.402c-1.726,0-3.072-1.337-3.072-3.152
c0-1.786,1.346-3.132,3.072-3.132c1.706,0,3.053,1.346,3.053,3.132C214.652,8.065,213.306,9.402,211.6,9.402z"/>
<path fill="#0060A9" d="M213.336,5.322c0-0.858-0.509-1.237-1.536-1.237h-1.656v4.35h0.658V6.549h0.759l1.146,1.886h0.738
l-1.236-1.916C212.847,6.439,213.336,6.1,213.336,5.322z M210.802,5.99V4.644h0.898c0.458,0,0.947,0.1,0.947,0.638
c0,0.668-0.499,0.708-1.058,0.708H210.802z"/>
</g>
<g>
<path fill="#0060A9" d="M177.041,102.833c0,0,7.053,0,11.391,0c-0.431-0.166-0.729-1.159-0.729-1.159s-7.649-35.697-7.814-36.591
c-0.166-0.894,0.132-1.225,0.132-1.225h-12.484c0.43,0.331,0.132,1.192,0.132,1.192s-8.08,35.299-8.345,36.425
s-0.861,1.358-0.861,1.358s5.662,0,11.755,0c-0.298-0.265-0.232-1.093-0.232-1.093l0.762-5.166h5.828c0,0,0.596,4.205,0.695,5.132
S177.041,102.833,177.041,102.833z M171.842,89.454l1.888-12.583l1.821,12.583H171.842z"/>
<path fill="#0060A9" d="M84.107,63.063c0,0-14.455-2.022-14.455,20.229c0,22.252,14.455,20.457,14.455,20.457
s14.483,1.258,14.483-20.457C98.591,61.578,84.107,63.063,84.107,63.063z M84.107,94.61c0,0-3.462,1.332-3.462-11.318
s3.462-11.657,3.462-11.657S87.4,70.648,87.4,83.292S84.107,94.61,84.107,94.61z"/>
<path fill="#0060A9" d="M112.158,63.879h-11.59c0.364,0.497,0.397,1.159,0.397,1.159s0,35.829,0,36.524s-0.298,1.391-0.298,1.391
s1.225,0,11.888,0c10.663,0,13.643-9.438,13.643-9.438s3.443-8.576,0.298-19.371C123.351,63.349,112.158,63.879,112.158,63.879z
 M111.298,94.874v-23.18c0,0,5.331-0.762,5.331,11.524C116.629,95.503,111.298,94.874,111.298,94.874z"/>
<path fill="#0060A9" d="M157.591,101.927l-7.55-19.968c0,0,7.352-15.994,7.716-16.723s0.927-1.324,0.927-1.324s-7.152,0-12.285,0
c0.199,0.199,0.133,1.026,0.133,1.026l-5.563,14.968c0,0,0-13.941,0-14.802s0.364-1.159,0.364-1.159h-11.59
c0.298,0.166,0.431,1.125,0.431,1.125s0,35.399,0,36.425s-0.397,1.457-0.397,1.457s7.119,0,11.656,0
c-0.364-0.364-0.397-1.556-0.397-1.556V85.171c0,0,4.934,15.563,5.199,16.358s-0.199,1.391-0.199,1.391s9.04,0,12.186,0
C157.909,102.712,157.591,101.927,157.591,101.927z"/>
<path fill="#0060A9" d="M62.517,101.611c0.166-0.894,7.815-36.591,7.815-36.591s0.298-0.994,0.729-1.159
c-4.338,0-11.392,0-11.392,0S60,64.06,59.9,64.987c-0.099,0.927-0.695,5.133-0.695,5.133l-2.848,19.703l-2.98-19.703l-0.761-5.166
c0,0-0.066-0.828,0.232-1.093c-6.093,0-11.756,0-11.756,0s0.596,0.232,0.861,1.358c0.265,1.125,8.345,36.425,8.345,36.425
s0.298,0.861-0.133,1.192h12.484C62.649,102.837,62.351,102.506,62.517,101.611z"/>
</g>
<g>
<path d="M100.966,53.439c-5.033,3.842-7.086,5.332-7.086,5.332l6.027-11.027c-0.013,0-0.209,0-2.45,0
c-2.583,4.802-3.709,6.49-4.471,7.517s-1.258,2.053-2.781,2.881c-1.523,0.828-1.424-0.198-1.424-0.463s0.563-1.292,1.622-2.782
s1.656-2.152,2.384-4.105c0.729-1.954-0.033-3.113-0.629-3.246c-0.596-0.132-1.822,0-2.98,1.126
c-1.159,1.126-6.16,7.55-6.921,8.279c-0.762,0.729-1.027,0.761-1.921,1.126c-0.894,0.364-0.894-0.166-0.861-0.596
c0.033-0.431,1.06-2.384,2.219-3.907c1.159-1.523,2.583-2.749,3.212-4.371c0.63-1.623-0.265-2.285-1.589-2.02
c-1.325,0.265-1.689-0.066-1.689-0.066s0.927-1.391,1.391-2.021c0.463-0.629,0.794-1.722,0.265-1.953
c-0.53-0.232-1.258,0.298-1.987,1.258c-0.729,0.961-0.828,2.086-0.861,2.947c-1.623,2.616-4.702,6.424-6.358,8.411
c-1.655,1.986-2.947,2.483-3.609,2.285s-0.431-2.053,0.133-3.344c0.563-1.292,4.47-7.451,4.47-7.451h2.318l0.331-0.794h-2.251
l3.212-5.696h-2.251l-3.543,5.861h-2.55L70.07,47.28c0,0,1.126,0.033,2.384,0c-4.271,7.849-6.292,9.371-7.186,10.166
s-1.49,1.027-2.02,0.795s-0.265-1.06,0.166-1.722c0.431-0.663,2.947-4.272,3.377-6.523c0.431-2.252-0.331-2.583-1.788-2.55
s-3.576,2.317-4.205,2.814c0.331-3.974-2.219-3.278-4.007-1.424s-5.199,6.623-6.06,7.616c-0.861,0.993-1.954,1.623-2.251,1.523
c-0.298-0.099-0.232-0.43,0.165-1.689c0.397-1.258,4.404-8.444,4.404-8.444c-0.023,0-0.265,0-2.186,0
c-3.473,5.968-5.895,8.543-6.755,9.372c-0.861,0.828-1.623,1.159-2.086,0.993c-0.463-0.166,0.033-0.927,0.397-1.49
c0.364-0.563,2.549-3.907,3.245-4.967c0.695-1.06,1.523-3.312,0.397-3.841c-1.126-0.53-2.484,0.331-3.841,1.192
c-1.357,0.861-2.814,2.782-3.51,2.848c1.687-3.251,0.629-4.636-0.099-4.834c-0.729-0.199-1.987,0.099-3.94,1.522
c-1.954,1.424-7.054,6.689-8.378,7.749c-1.325,1.06-7.881,5.033-11.193,1.921c-3.312-3.113,0.265-10.266,1.225-12.054
c10.63-1.689,16.16-8.113,16.723-10.397c0.563-2.285-1.258-3.08-2.384-2.98C20.664,34.3,14.704,42.976,13.147,45.36
c-2.583-0.033-9.604-1.855-7.848-8.709c1.755-6.855,9.603-6.888,9.603-6.888s-0.033-0.099,0-0.298
C8.18,28.273,2.684,33.737,3.577,39.134c0.895,5.398,5.861,6.325,9.106,7.153c-3.245,9.106-0.662,13.609,4.702,13.941
c5.365,0.331,9.901-3.344,11.789-4.603c-0.199,0.563-0.397,3.908,1.954,3.908s5.861-5.265,6.523-6.225
c0.663-0.033,0.794-0.298,1.457-0.696c0.662-0.397,3.411-2.815,3.94-3.179c0.53-0.365,1.358-0.861,1.822-0.696
c0.463,0.166,0.331,0.596-1.027,2.285c-1.358,1.688-2.649,3.51-3.212,4.769c-0.563,1.258-0.762,3.046,0.994,3.51
c1.754,0.464,4.834-3.212,4.834-3.212s-0.331,2.914,1.06,3.113c1.391,0.199,2.583-0.563,5.1-3.875s4.438-5.629,5.266-6.457
c0.827-0.828,1.92-0.431,1.06,1.159c-0.861,1.59-4.967,8.974-4.967,8.974c0.195,0,0.806,0,2.517,0
c3.311-5.695,5.861-9.272,7.583-10.133c1.722-0.861,1.093,0.198,0.496,1.291c-2.152,3.378-2.615,4.57-2.914,5.497
s-0.663,3.278,1.391,3.543c2.053,0.265,3.609-1.987,5.132-3.477c0.794,4.636,3.377,3.278,4.934,2.152
c1.556-1.126,6.292-7.815,8.014-10.1c2.417-0.066,1.821,0.828,1.291,1.688c-0.529,0.861-2.715,3.378-3.312,4.172
c-0.596,0.795-2.351,3.643-0.331,5.166c2.021,1.523,4.901-2.351,6.822-4.669c1.92-2.317,3.411-4.934,4.834-5.397
c1.424-0.463,1.259,0.232,0.928,1.026c-0.332,0.795-2.782,3.974-3.809,5.497c-1.026,1.523-1.093,3.543,0.232,4.073
s3.742-0.795,3.742-0.795s-0.066,0.232-1.258,2.053c-10.994,6.126-11.027,10.166-11.027,10.166s-0.596,3.444,3.245,2.02
c6.192-2.947,9.404-10.266,10.663-12.617c3.543-2.649,8.113-6.391,8.113-6.391S101.264,53.671,100.966,53.439z M28.711,34.068
c0.861-0.298,2.716-0.795,3.312,0.099c0.596,0.895-0.066,2.318-0.497,3.014c-0.43,0.695-6.424,7.252-14.669,7.914
C16.856,45.095,21.062,37.445,28.711,34.068z M37.486,52.082c-0.629-0.298-1.226-0.729-1.589-0.364
c-0.365,0.364-0.132,1.258,0.662,1.655c-0.894,1.723-3.212,5.365-5.199,5.299c0,0-1.093-0.166-0.563-1.325
c0.53-1.159,3.113-5.994,6.292-9.206c0.397-0.332,1.357-0.894,1.623,0.496C38.977,50.029,37.784,51.651,37.486,52.082z
 M80.998,72.381c-2.583-0.199,0.166-4.007,0.166-4.007s3.344-4.007,8.477-6.424C89.641,61.95,84.308,72.634,80.998,72.381z"/>
<path d="M131.265,39.201c-4.342,2.144-6.788,6.325-9.537,10.53c-0.96,0.63-2.749,1.59-3.609,2.087
c-0.861,0.496-1.026,0.198-1.192,0.099c1.755-3.212,1.854-4.669,0.762-5.199s-2.748,0.397-4.636,1.523
c-1.888,1.126-7.417,7.616-8.146,8.312c-0.729,0.695-2.649,2.317-2.649,2.317l0.265,0.397c1.821-1.324,4.669-3.874,4.669-3.874
s-0.397,3.576,1.722,4.106c2.914,0.695,6.325-4.702,7.517-6.523c0.596,0.265,2.053-0.497,4.305-1.755
c-1.259,2.285-3.478,7.054-5.199,10.729c-1.722,3.675-2.483,5.762-2.55,8.278s3.047,4.139,6.259-0.96
c3.212-5.099,3.742-10.927,3.94-12.153c3.808-1.093,4.802-3.709,4.802-3.709s-0.199,0-0.53,0.033
c-1.391,1.755-3.443,2.517-4.106,2.616c-0.033-0.762,0.029-1.234-0.794-2.186c-0.183-0.21-0.403-0.466-0.403-0.466
s0.407-1.156,0.999-2.283c1.026-1.954,1.026-1.192,5.033-4.206c4.007-3.013,4.868-6.722,4.868-6.722
S133.881,37.909,131.265,39.201z M116.198,51.453c-0.662-0.397-1.159-0.695-1.622-0.166c-0.464,0.53,0.298,1.226,0.927,1.557
c-0.861,1.424-3.874,6.557-6.093,5.596c0,0-0.729-0.166-0.331-1.258s2.914-7.451,6.854-9.637
C116.496,47.248,119.046,46.387,116.198,51.453z M117.755,69.964c-2.616,2.98-2.881,1.324-2.848,0.794s0.165-2.053,1.589-5.463
c1.424-3.411,3.014-6.789,3.742-8.279l1.954,0.265C122.192,57.281,121.53,64.765,117.755,69.964z M122.424,56.221
c-0.795,0.033-1.457-0.132-1.655-0.232l0.794-1.556C121.563,54.433,122.557,55.063,122.424,56.221z M132.126,40.525
c-0.43,1.093-2.881,5.729-7.219,7.483c0,0,2.352-5.231,6.292-7.814C131.696,39.863,132.557,39.433,132.126,40.525z"/>
<path d="M152.193,43.373c0.033-0.795,2.384-3.113,2.98-3.808c0.596-0.696,1.688-2.782,0.265-3.113
c-2.517-0.265-3.907,5.828-3.907,5.828l-5.265,5.563c0,0-2.086-3.08-6.491-2.549c-6.075,0.73-8.377,4.702-8.874,8.775
c-0.497,4.073,3.112,7.053,3.112,7.053l-3.874,4.503l0.86,0.066l3.643-4.172c0,0,4.305,2.848,10.133,0.1
c6.557-3.113,7.186-9.405,7.384-11.889C152.359,47.248,152.16,44.168,152.193,43.373z M154.975,37.445
c1.159,0.298-1.623,3.279-2.351,3.842C152.624,41.287,153.816,37.147,154.975,37.445z M134.577,60.493
c0,0-4.967-3.444-1.689-9.835c3.278-6.391,12.087-4.934,12.815-2.186C142.425,51.751,135.106,59.963,134.577,60.493z
 M148.485,54.4c-1.822,3.609-5.431,10.1-13.279,6.523c0,0,7.782-9.106,10.895-11.855c0.199,0.63,0.629,1.623-0.497,4.007
c-0.132,0.431,0.166,1.026,0.629,0.331s1.292-2.218,0.497-4.9c3.146-3.444,3.742-4.04,4.438-4.802
C150.836,46.817,150.385,50.632,148.485,54.4z"/>
<path d="M210.143,58.407c-0.927,0.364-1.06-0.066-0.994-0.431c0.066-0.364,2.815-4.404,3.278-5.132
c0.464-0.729,1.888-3.345,1.292-4.769c-0.993-2.252-5.331,1.688-6.49,2.716c1.093-5.001-2.251-3.213-3.775-1.458
s-6.457,7.02-6.457,7.02s-2.417,2.715-3.477,2.285c-1.821-0.695,0.066-4.04,0.596-5.066c4.106-1.026,6.755-3.278,6.59-5.066
c-0.166-1.788-2.55-1.026-3.444-0.563c-5.298,3.08-6.093,6.556-6.557,8.444c-0.463,0.695-1.788,2.086-2.914,2.053
s-0.828-1.589-0.431-2.384c0.397-0.795,9.604-17.915,9.604-17.915h-2.219c0,0-4.206,7.583-5.596,9.901
c-0.033-0.298-0.464-0.927-1.192-0.927c-3.146,0.165-5.166,2.615-7.086,4.967c-1.92,2.351-2.814,3.312-3.444,3.974
c-0.629,0.662-3.344,3.411-4.636,2.417c-1.291-0.994,0.961-4.802,0.961-4.802s2.219-0.43,4.569-2.02
c2.749-1.888,2.384-4.437,0.596-4.305c-4.106,0.729-5.696,3.51-7.153,5.431c-1.225-0.431-1.854-0.927-2.318-1.292
c0.199-0.397,2.682-5.463,0.861-5.099c-1.821,0.364-2.119,3.708-2.186,5.563c-2.206,4.891-4.305,6.226-5.298,6.756
c-0.994,0.529-1.424-0.133-1.358-0.596c0.563-2.682,5-10.266,5-10.266c-0.381,0-1.083,0-2.318,0
c-4.139,8.378-7.517,10.729-7.98,10.96c-0.309,0.153-1.523,0.365-0.927-1.026c0.596-1.391,3.411-5.729,3.974-7.186
c0.099-0.231,1.291-3.543-1.656-2.881c-2.948,0.662-4.934,4.503-4.934,4.503l0.497,0.066c1.92-2.583,2.517-2.848,3.543-3.477
c1.026-0.629,1.291-0.231,1.291,0.431s-2.119,3.411-3.278,5.199c-1.159,1.788-1.424,4.868,0.464,5.066s3.278-1.722,4.702-2.914
c0.133,1.623,1.159,3.875,3.609,2.517s4.802-5.729,5.597-7.02c0.596,0.364,0.894,0.695,2.284,1.391
c-1.722,3.014-1.026,5.729,1.358,5.928c2.384,0.198,5.066-2.649,6.292-3.742c-0.033,0.265,0.066,3.841,2.053,3.841
s3.046-1.887,4.338-3.212c0.398,5.166,4.503,2.484,5.464,1.292c2.417,5.066,7.649-1.755,8.775-2.914
c1.125-1.159,3.94-4.404,4.569-5c0.629-0.597,1.192-1.192,1.854-0.994c0.662,0.199-0.232,1.689-1.325,3.378
c-1.093,1.689-4.47,7.12-4.47,7.12s1.424,0,2.583,0c0.596-0.927,3.94-5.894,5.795-8.212c2.914-2.947,3.51-2.583,3.774-2.417
c0.265,0.165,0.133,0.96-1.06,2.384c-1.192,1.424-3.013,4.04-3.444,4.868c-0.43,0.828-0.861,3.708,1.093,3.742
c1.954,0.033,3.974-3.312,3.974-3.312s-0.199-0.099-0.464-0.166C212.329,56.354,211.07,58.042,210.143,58.407z M198.851,48.671
c0.563-0.265,1.358-0.596,0.994,0.397c-0.364,0.994-1.954,3.014-5.265,3.577C194.58,52.645,195.805,50.261,198.851,48.671z
 M176.499,49.996c1.689-1.226,2.616-1.722,3.047-1.424c0.43,0.298-1.192,3.377-5.365,4.106
C174.181,52.678,174.811,51.221,176.499,49.996z M186.234,53.506c-1.424,2.086-3.874,5.397-5.166,5.066
c0,0-0.828-0.364-0.397-1.623c0.431-1.258,2.848-5.96,5.994-8.444c0.597-0.397,1.656-0.961,1.49,0.53
C187.99,50.526,187.659,51.42,186.234,53.506z"/>
</g>
</g>
</svg>
