<svg enable-background="new 0 0 217 105" height="105" viewBox="0 0 217 105" width="217" xmlns="http://www.w3.org/2000/svg"><g fill="#0060a9"><path d="m50.831 40.964s-7.649-35.696-7.814-36.591c-.166-.894.132-1.226.132-1.226h-12.484c.43.332.132 1.192.132 1.192s-8.079 35.3-8.344 36.426c-.265 1.125-.861 1.357-.861 1.357s5.662 0 11.755 0c-.298-.265-.232-1.093-.232-1.093l.762-5.166h5.828s.596 4.206.695 5.133-.232 1.126-.232 1.126 7.053 0 11.391 0c-.43-.164-.728-1.158-.728-1.158zm-15.861-12.219 1.888-12.583 1.821 12.583z"/><path d="m70.302 21.989s6.888-.761 6.656-9.603c-.331-9.669-12.219-9.173-12.219-9.173h-13.013c.298.331.397 1.457.397 1.457s0 35.333 0 36.062-.364 1.457-.364 1.457 10.762 0 14.471 0 12.352-1.59 12.12-10.696-8.048-9.504-8.048-9.504zm-3.477-7.318c.199 4.239-3.676 3.941-3.94 3.941 0-3.875-.066-7.517-.066-7.517s3.808-.662 4.006 3.576zm-4.039 19.041v-8.014s4.404-.729 4.404 4.04-4.404 3.974-4.404 3.974z"/><path d="m92.688 16.427c-2.055-1.646-3.113-4.636.729-4.967 4.072.032 6.722 2.649 6.722 2.649v-10.299c-.298.265-.794.298-1.424.033s-2.053-.794-3.577-1.093c-4.9-.927-8.775.166-11.027 1.821-2.251 1.656-3.841 3.411-4.106 8.875s2.037 7.795 5.199 10.961c3.702 2.837 4.769 3.874 5.729 5.066 1.126 1.126 1.192 3.741-2.517 4.106-3.841.132-8.377-3.841-8.377-3.841s0 5.63 0 11.093c.397-.265 1.093 0 2.616.828 3.676 2.053 10.53 2.053 14.868-.894s5.696-10.199 4.404-14.504c-1.292-4.304-5.698-7-9.239-9.834z"/><path d="m117.589 2.353s-14.454-2.022-14.454 20.23c0 22.251 14.454 20.457 14.454 20.457s14.484 1.257 14.484-20.457c0-21.715-14.484-20.23-14.484-20.23zm0 31.548s-3.461 1.332-3.461-11.318c0-12.651 3.461-11.657 3.461-11.657s3.293-.986 3.293 11.657-3.293 11.318-3.293 11.318z"/><path d="m145.306 33.017s0-27.518 0-28.478.298-1.358.298-1.358h-11.557c.497.696.364 1.457.364 1.457s0 34.472 0 35.863-.364 1.589-.364 1.589h19.107s0-7.152 0-9.471c-.331.331-1.391.397-1.391.397h-6.457z"/><path d="m170.539 4.737v26.624s.05 2.815-2.764 2.815-3.104-2.815-3.104-2.815 0-25.696 0-26.789.364-1.391.364-1.391h-11.251c.298.166.431 1.391.431 1.391v26.789s.274 11.689 13.354 11.689 13.27-11.755 13.27-11.755 0-26.027 0-26.79c0-.761.332-1.258.332-1.258s-7.286 0-11.06 0c.362.398.428 1.49.428 1.49z"/><path d="m182.427 12.651c.563-.364 1.424-.331 1.424-.331h4.934v28.379s-.331 1.424-.331 1.424 8.146 0 11.59 0c-.364-.364-.364-1.49-.364-1.49v-28.313h5.034s1.258.331 1.258.331v-9.437h-23.544v9.437z"/><path d="m211.6 2.488c-2.075 0-3.83 1.597-3.83 3.762 0 2.185 1.755 3.78 3.83 3.78 2.056 0 3.811-1.596 3.811-3.78 0-2.165-1.756-3.762-3.811-3.762zm0 6.914c-1.726 0-3.072-1.337-3.072-3.152 0-1.786 1.346-3.132 3.072-3.132 1.706 0 3.053 1.346 3.053 3.132-.001 1.815-1.347 3.152-3.053 3.152z"/><path d="m213.336 5.322c0-.858-.509-1.237-1.536-1.237h-1.656v4.35h.658v-1.886h.759l1.146 1.886h.738l-1.236-1.916c.638-.08 1.127-.419 1.127-1.197zm-2.534.668v-1.346h.898c.458 0 .947.1.947.638 0 .668-.499.708-1.058.708z"/><path d="m177.041 102.833h11.391c-.431-.166-.729-1.159-.729-1.159s-7.649-35.697-7.814-36.591c-.166-.894.132-1.225.132-1.225h-12.484c.43.331.132 1.192.132 1.192s-8.08 35.299-8.345 36.425-.861 1.358-.861 1.358 5.662 0 11.755 0c-.298-.265-.232-1.093-.232-1.093l.762-5.166h5.828s.596 4.205.695 5.132-.23 1.127-.23 1.127zm-5.199-13.379 1.888-12.583 1.821 12.583z"/><path d="m84.107 63.063s-14.455-2.022-14.455 20.229c0 22.252 14.455 20.457 14.455 20.457s14.483 1.258 14.483-20.457c.001-21.714-14.483-20.229-14.483-20.229zm0 31.547s-3.462 1.332-3.462-11.318 3.462-11.657 3.462-11.657 3.293-.987 3.293 11.657-3.293 11.318-3.293 11.318z"/><path d="m112.158 63.879h-11.59c.364.497.397 1.159.397 1.159s0 35.829 0 36.524-.298 1.391-.298 1.391 1.225 0 11.888 0 13.643-9.438 13.643-9.438 3.443-8.576.298-19.371-14.338-10.265-14.338-10.265zm-.86 30.995v-23.18s5.331-.762 5.331 11.524c0 12.285-5.331 11.656-5.331 11.656z"/><path d="m157.591 101.927-7.55-19.968s7.352-15.994 7.716-16.723.927-1.324.927-1.324-7.152 0-12.285 0c.199.199.133 1.026.133 1.026l-5.563 14.968s0-13.941 0-14.802.364-1.159.364-1.159h-11.59c.298.166.431 1.125.431 1.125s0 35.399 0 36.425-.397 1.457-.397 1.457 7.119 0 11.656 0c-.364-.364-.397-1.556-.397-1.556v-16.225s4.934 15.563 5.199 16.358-.199 1.391-.199 1.391 9.04 0 12.186 0c-.313-.208-.631-.993-.631-.993z"/><path d="m62.517 101.611c.166-.894 7.815-36.591 7.815-36.591s.298-.994.729-1.159c-4.338 0-11.392 0-11.392 0s.331.199.231 1.126c-.099.927-.695 5.133-.695 5.133l-2.848 19.703-2.98-19.703-.761-5.166s-.066-.828.232-1.093c-6.093 0-11.756 0-11.756 0s.596.232.861 1.358c.265 1.125 8.345 36.425 8.345 36.425s.298.861-.133 1.192h12.484c0 .001-.298-.33-.132-1.225z"/></g><path d="m100.966 53.439c-5.033 3.842-7.086 5.332-7.086 5.332l6.027-11.027c-.013 0-.209 0-2.45 0-2.583 4.802-3.709 6.49-4.471 7.517s-1.258 2.053-2.781 2.881-1.424-.198-1.424-.463.563-1.292 1.622-2.782 1.656-2.152 2.384-4.105c.729-1.954-.033-3.113-.629-3.246-.596-.132-1.822 0-2.98 1.126-1.159 1.126-6.16 7.55-6.921 8.279-.762.729-1.027.761-1.921 1.126-.894.364-.894-.166-.861-.596.033-.431 1.06-2.384 2.219-3.907s2.583-2.749 3.212-4.371c.63-1.623-.265-2.285-1.589-2.02-1.325.265-1.689-.066-1.689-.066s.927-1.391 1.391-2.021c.463-.629.794-1.722.265-1.953-.53-.232-1.258.298-1.987 1.258-.729.961-.828 2.086-.861 2.947-1.623 2.616-4.702 6.424-6.358 8.411-1.655 1.986-2.947 2.483-3.609 2.285s-.431-2.053.133-3.344c.563-1.292 4.47-7.451 4.47-7.451h2.318l.331-.794h-2.251l3.212-5.696h-2.251l-3.543 5.861h-2.55l-.268.66s1.126.033 2.384 0c-4.271 7.849-6.292 9.371-7.186 10.166s-1.49 1.027-2.02.795-.265-1.06.166-1.722c.431-.663 2.947-4.272 3.377-6.523.431-2.252-.331-2.583-1.788-2.55s-3.576 2.317-4.205 2.814c.331-3.974-2.219-3.278-4.007-1.424s-5.199 6.623-6.06 7.616-1.954 1.623-2.251 1.523c-.298-.099-.232-.43.165-1.689.397-1.258 4.404-8.444 4.404-8.444-.023 0-.265 0-2.186 0-3.473 5.968-5.895 8.543-6.755 9.372-.861.828-1.623 1.159-2.086.993s.033-.927.397-1.49 2.549-3.907 3.245-4.967c.695-1.06 1.523-3.312.397-3.841-1.126-.53-2.484.331-3.841 1.192s-2.814 2.782-3.51 2.848c1.687-3.251.629-4.636-.099-4.834-.729-.199-1.987.099-3.94 1.522-1.954 1.424-7.054 6.689-8.378 7.749-1.325 1.06-7.881 5.033-11.193 1.921-3.312-3.113.265-10.266 1.225-12.054 10.63-1.689 16.16-8.113 16.723-10.397.563-2.285-1.258-3.08-2.384-2.98-10 1.424-15.96 10.1-17.517 12.484-2.583-.033-9.604-1.855-7.848-8.709 1.755-6.855 9.603-6.888 9.603-6.888s-.033-.099 0-.298c-6.722-1.192-12.218 4.272-11.325 9.669.895 5.398 5.861 6.325 9.106 7.153-3.245 9.106-.662 13.609 4.702 13.941 5.365.331 9.901-3.344 11.789-4.603-.199.563-.397 3.908 1.954 3.908s5.861-5.265 6.523-6.225c.663-.033.794-.298 1.457-.696.662-.397 3.411-2.815 3.94-3.179.53-.365 1.358-.861 1.822-.696.463.166.331.596-1.027 2.285-1.358 1.688-2.649 3.51-3.212 4.769-.563 1.258-.762 3.046.994 3.51 1.754.464 4.834-3.212 4.834-3.212s-.331 2.914 1.06 3.113 2.583-.563 5.1-3.875 4.438-5.629 5.266-6.457c.827-.828 1.92-.431 1.06 1.159-.861 1.59-4.967 8.974-4.967 8.974h2.517c3.311-5.695 5.861-9.272 7.583-10.133s1.093.198.496 1.291c-2.152 3.378-2.615 4.57-2.914 5.497s-.663 3.278 1.391 3.543c2.053.265 3.609-1.987 5.132-3.477.794 4.636 3.377 3.278 4.934 2.152 1.556-1.126 6.292-7.815 8.014-10.1 2.417-.066 1.821.828 1.291 1.688-.529.861-2.715 3.378-3.312 4.172-.596.795-2.351 3.643-.331 5.166 2.021 1.523 4.901-2.351 6.822-4.669 1.92-2.317 3.411-4.934 4.834-5.397 1.424-.463 1.259.232.928 1.026-.332.795-2.782 3.974-3.809 5.497-1.026 1.523-1.093 3.543.232 4.073s3.742-.795 3.742-.795-.066.232-1.258 2.053c-10.994 6.126-11.027 10.166-11.027 10.166s-.596 3.444 3.245 2.02c6.192-2.947 9.404-10.266 10.663-12.617 3.543-2.649 8.113-6.391 8.113-6.391s0-.097-.298-.329zm-72.255-19.371c.861-.298 2.716-.795 3.312.099.596.895-.066 2.318-.497 3.014-.43.695-6.424 7.252-14.669 7.914-.001 0 4.205-7.65 11.854-11.027zm8.775 18.014c-.629-.298-1.226-.729-1.589-.364-.365.364-.132 1.258.662 1.655-.894 1.723-3.212 5.365-5.199 5.299 0 0-1.093-.166-.563-1.325s3.113-5.994 6.292-9.206c.397-.332 1.357-.894 1.623.496.265 1.392-.928 3.014-1.226 3.445zm43.512 20.299c-2.583-.199.166-4.007.166-4.007s3.344-4.007 8.477-6.424c0 0-5.333 10.684-8.643 10.431z"/><path d="m131.265 39.201c-4.342 2.144-6.788 6.325-9.537 10.53-.96.63-2.749 1.59-3.609 2.087-.861.496-1.026.198-1.192.099 1.755-3.212 1.854-4.669.762-5.199s-2.748.397-4.636 1.523-7.417 7.616-8.146 8.312c-.729.695-2.649 2.317-2.649 2.317l.265.397c1.821-1.324 4.669-3.874 4.669-3.874s-.397 3.576 1.722 4.106c2.914.695 6.325-4.702 7.517-6.523.596.265 2.053-.497 4.305-1.755-1.259 2.285-3.478 7.054-5.199 10.729-1.722 3.675-2.483 5.762-2.55 8.278s3.047 4.139 6.259-.96 3.742-10.927 3.94-12.153c3.808-1.093 4.802-3.709 4.802-3.709s-.199 0-.53.033c-1.391 1.755-3.443 2.517-4.106 2.616-.033-.762.029-1.234-.794-2.186-.183-.21-.403-.466-.403-.466s.407-1.156.999-2.283c1.026-1.954 1.026-1.192 5.033-4.206 4.007-3.013 4.868-6.722 4.868-6.722s.826-2.283-1.79-.991zm-15.067 12.252c-.662-.397-1.159-.695-1.622-.166-.464.53.298 1.226.927 1.557-.861 1.424-3.874 6.557-6.093 5.596 0 0-.729-.166-.331-1.258s2.914-7.451 6.854-9.637c.563-.297 3.113-1.158.265 3.908zm1.557 18.511c-2.616 2.98-2.881 1.324-2.848.794s.165-2.053 1.589-5.463c1.424-3.411 3.014-6.789 3.742-8.279l1.954.265s-.662 7.484-4.437 12.683zm4.669-13.743c-.795.033-1.457-.132-1.655-.232l.794-1.556s.994.63.861 1.788zm9.702-15.696c-.43 1.093-2.881 5.729-7.219 7.483 0 0 2.352-5.231 6.292-7.814.497-.331 1.358-.761.927.331z"/><path d="m152.193 43.373c.033-.795 2.384-3.113 2.98-3.808.596-.696 1.688-2.782.265-3.113-2.517-.265-3.907 5.828-3.907 5.828l-5.265 5.563s-2.086-3.08-6.491-2.549c-6.075.73-8.377 4.702-8.874 8.775s3.112 7.053 3.112 7.053l-3.874 4.503.86.066 3.643-4.172s4.305 2.848 10.133.1c6.557-3.113 7.186-9.405 7.384-11.889.2-2.482.001-5.562.034-6.357zm2.782-5.928c1.159.298-1.623 3.279-2.351 3.842 0 0 1.192-4.14 2.351-3.842zm-20.398 23.048s-4.967-3.444-1.689-9.835 12.087-4.934 12.815-2.186c-3.278 3.279-10.597 11.491-11.126 12.021zm13.908-6.093c-1.822 3.609-5.431 10.1-13.279 6.523 0 0 7.782-9.106 10.895-11.855.199.63.629 1.623-.497 4.007-.132.431.166 1.026.629.331s1.292-2.218.497-4.9c3.146-3.444 3.742-4.04 4.438-4.802-.332 3.113-.783 6.928-2.683 10.696z"/><path d="m210.143 58.407c-.927.364-1.06-.066-.994-.431.066-.364 2.815-4.404 3.278-5.132.464-.729 1.888-3.345 1.292-4.769-.993-2.252-5.331 1.688-6.49 2.716 1.093-5.001-2.251-3.213-3.775-1.458s-6.457 7.02-6.457 7.02-2.417 2.715-3.477 2.285c-1.821-.695.066-4.04.596-5.066 4.106-1.026 6.755-3.278 6.59-5.066-.166-1.788-2.55-1.026-3.444-.563-5.298 3.08-6.093 6.556-6.557 8.444-.463.695-1.788 2.086-2.914 2.053s-.828-1.589-.431-2.384 9.604-17.915 9.604-17.915h-2.219s-4.206 7.583-5.596 9.901c-.033-.298-.464-.927-1.192-.927-3.146.165-5.166 2.615-7.086 4.967-1.92 2.351-2.814 3.312-3.444 3.974-.629.662-3.344 3.411-4.636 2.417-1.291-.994.961-4.802.961-4.802s2.219-.43 4.569-2.02c2.749-1.888 2.384-4.437.596-4.305-4.106.729-5.696 3.51-7.153 5.431-1.225-.431-1.854-.927-2.318-1.292.199-.397 2.682-5.463.861-5.099s-2.119 3.708-2.186 5.563c-2.206 4.891-4.305 6.226-5.298 6.756-.994.529-1.424-.133-1.358-.596.563-2.682 5-10.266 5-10.266-.381 0-1.083 0-2.318 0-4.139 8.378-7.517 10.729-7.98 10.96-.309.153-1.523.365-.927-1.026s3.411-5.729 3.974-7.186c.099-.231 1.291-3.543-1.656-2.881-2.948.662-4.934 4.503-4.934 4.503l.497.066c1.92-2.583 2.517-2.848 3.543-3.477s1.291-.231 1.291.431-2.119 3.411-3.278 5.199-1.424 4.868.464 5.066 3.278-1.722 4.702-2.914c.133 1.623 1.159 3.875 3.609 2.517s4.802-5.729 5.597-7.02c.596.364.894.695 2.284 1.391-1.722 3.014-1.026 5.729 1.358 5.928 2.384.198 5.066-2.649 6.292-3.742-.033.265.066 3.841 2.053 3.841s3.046-1.887 4.338-3.212c.398 5.166 4.503 2.484 5.464 1.292 2.417 5.066 7.649-1.755 8.775-2.914 1.125-1.159 3.94-4.404 4.569-5 .629-.597 1.192-1.192 1.854-.994.662.199-.232 1.689-1.325 3.378s-4.47 7.12-4.47 7.12 1.424 0 2.583 0c.596-.927 3.94-5.894 5.795-8.212 2.914-2.947 3.51-2.583 3.774-2.417.265.165.133.96-1.06 2.384-1.192 1.424-3.013 4.04-3.444 4.868-.43.828-.861 3.708 1.093 3.742 1.954.033 3.974-3.312 3.974-3.312s-.199-.099-.464-.166c-.163.298-1.422 1.986-2.349 2.351zm-11.292-9.736c.563-.265 1.358-.596.994.397-.364.994-1.954 3.014-5.265 3.577 0 0 1.225-2.384 4.271-3.974zm-22.352 1.325c1.689-1.226 2.616-1.722 3.047-1.424.43.298-1.192 3.377-5.365 4.106 0 0 .63-1.457 2.318-2.682zm9.735 3.51c-1.424 2.086-3.874 5.397-5.166 5.066 0 0-.828-.364-.397-1.623.431-1.258 2.848-5.96 5.994-8.444.597-.397 1.656-.961 1.49.53-.165 1.491-.496 2.385-1.921 4.471z"/></svg>