<svg fill="none" height="24" viewBox="0 0 129 24" width="129" xmlns="http://www.w3.org/2000/svg"><g clip-rule="evenodd" fill="#282828" fill-rule="evenodd"><path d="m8.09759 2.81445c-.84486 0-1.35339.54399-1.69263 1.25004l-6.250654 14.46341c-.1685826.1778-.15398809.36-.15398809.7116 0 .7002.67316209 1.404 1.34632209 1.404.67625 0 1.17784-.3493 1.34646-1.0579l1.34626-3.3464h4.21196c.67329 0 1.3654-.5254 1.3654-1.2311 0-.7061-.69211-1.4231-1.3654-1.4231h-3.01943l2.8657-7.05859 3.01941 7.05859 1.0194 2.6542 1.3462 3.3464c.3364.5318.8465 1.0579 1.5195 1.0579.6762 0 1.3462-.7002 1.3462-1.5772 0-.1745-.0045-.3606-.1728-.5384l-6.23154-14.46341c-.33633-.70605-.85167-1.25004-1.69264-1.25004zm33.71651 0c-5.0594 0-8.5978 4.06343-8.5978 9.00095 0 4.9374 3.5384 9.0012 8.5978 9.0012 5.0562 0 8.7696-4.0638 8.7696-9.0012 0-4.93752-3.548-9.00095-8.7696-9.00095zm41.4872.19233c-.8497 0-1.5211.70322-1.5211 1.57727v14.48225c0 .877.6714 1.5772 1.5211 1.5772.6681 0 1.3459-.7002 1.3459-1.5772v-3.5387l2.6919-2.8274 5.4032 7.2317c.3373.3545.6681.7116 1.174.7116.84 0 1.5211-.7002 1.5211-1.5772 0-.3516-.1751-.7223-.347-1.0771l-5.7308-7.2314 5.2313-5.11614c.3309-.35448.4995-.70864.4995-1.2308 0-.70637-.4995-1.40408-1.3459-1.40408-.506 0-.8335.16452-1.1741.51933l-7.9232 8.28939v-7.23145c0-.87405-.6778-1.57727-1.3459-1.57727zm-63.4114.17296c-.6733 0-1.3462.69956-1.3462 1.57717v14.30939c0 .877.6729 1.5772 1.3462 1.5772.8439 0 1.5195-.7002 1.5195-1.5772v-4.2505h3.3849c3.7083 0 6.5585-1.9255 6.5585-5.80833 0-3.53121-2.3549-5.82773-6.2316-5.82773zm32.0411 0c-.6746 0-1.346.7041-1.346 1.40431 0 .70929.6714 1.42312 1.346 1.42312h4.041v13.05913c0 .877.6941 1.5772 1.5373 1.5772.8368 0 1.5016-.7002 1.5016-1.5772v-13.05913h4.0573c.6778 0 1.3459-.71383 1.3459-1.42312 0-.70021-.6681-1.40431-1.3459-1.40431zm15.8496 0c-.8465 0-1.5211.69956-1.5211 1.57717v14.13649c0 .8747.6746 1.5769 1.5211 1.5769h9.788c.6778 0 1.3492-.527 1.3492-1.404 0-.706-.6714-1.2499-1.3492-1.2499h-8.2702v-4.7507h7.0799c.6746 0 1.346-.5439 1.346-1.2502 0-.8838-.6714-1.404-1.346-1.404h-7.0799v-4.59665h8.0983c.8465 0 1.3459-.52151 1.3459-1.2308 0-.87405-.4994-1.40431-1.3459-1.40431zm-25.9652 2.46192c3.3697 0 5.7307 2.81966 5.7307 6.17384 0 3.3534-2.361 6.1737-5.7307 6.1737-3.2043 0-5.5589-2.8203-5.5589-6.1737 0-3.35418 2.3546-6.17384 5.5589-6.17384zm-20.406.36551h3.3849c2.1911 0 3.6927 1.06151 3.6927 3.0003 0 1.93783-1.5016 3.17353-3.6927 3.17353h-3.3849z"/><path d="m128.485 7.06243c0-1.77015-.675-3.53122-2.021-4.94688-1.346-1.409307-3.039-2.11555-4.722-2.11555h-.172c-1.515 0-3.366.706243-4.55 2.11565l-4.048 4.06051c-.506.70929-.506 1.58333 0 2.11555.509.70961 1.515.70961 2.024 0l4.044-4.05403c.847-.88345 1.693-1.238 2.702-1.238.843 0 1.683.35455 2.698 1.238.84.87762 1.178 1.93848 1.178 2.82485 0 1.05177-.338 1.93879-1.178 2.82192l-10.284 10.76135-10.459-10.76135c-.84-.88313-1.178-1.94723-1.178-2.82192 0-1.0641.338-1.94723 1.178-2.82485.843-.88345 1.693-1.238 2.698-1.238.846 0 1.855.35455 2.702 1.238l.168.34541c.675.53221 1.515.53221 2.189 0 .51-.70021.51-1.58341 0-2.11578l-.334-.35157c-1.349-1.4094-3.039-2.11564271-4.725-2.11564271-1.683 0-3.37.70624271-4.722 2.11564271-1.346 1.41557-2.0207 3.17664-2.0207 4.94688 0 1.76107.6747 3.52178 2.0207 4.93748l10.959 11.2906c.34.5316.849.7093 1.355.7093h.169c.499 0 1.009-.1777 1.346-.7093l10.962-11.2906c1.346-1.4157 2.021-3.17641 2.021-4.93748z"/></g></svg>