<svg enable-background="new 0 0 300 50" viewBox="0 0 300 50" xmlns="http://www.w3.org/2000/svg"><g fill="#fff"><path d="m51.9 2.8c1.1-.1 2.4-.2 3.9-.4 1.5-.1 3-.2 4.4-.2 5.9 0 10.4 1.5 13.3 4.5s4.4 7.4 4.4 13c0 5.9-1.5 10.3-4.5 13.2s-7.5 4.3-13.4 4.3c-1.5 0-2.9-.1-4.4-.2-1.4-.1-2.7-.2-3.7-.4zm4.8 30c.4.1 1 .1 1.6.2.6 0 1.3.1 2.1.1 1.9 0 3.5-.2 5.1-.6 1.5-.4 2.8-1.1 3.9-2.1s2-2.4 2.5-4.1c.6-1.7.9-3.9.9-6.4 0-2.4-.3-4.4-.9-6-.6-1.7-1.4-3-2.5-4.1s-2.4-1.8-3.9-2.3-3.2-.7-5-.7c-.6 0-1.3 0-2 0s-1.3.1-1.9.2v25.8z"/><path d="m81 12.6c.3-.1.7-.1 1.2-.1h1.1 1.2c.4 0 .8.1 1.2.1v13.3c0 1.5.1 2.8.4 3.8s.7 1.8 1.3 2.3c.6.6 1.3 1 2.1 1.2s1.8.3 2.8.3c1.6 0 3-.2 4.1-.5v-20.4c.3-.1.7-.1 1.2-.1h1.2 1.2c.4 0 .8.1 1.2.1v23.4c-1.1.3-2.4.6-3.9.9s-3.1.4-4.7.4c-1.5 0-3-.1-4.4-.4s-2.6-.8-3.6-1.6-1.9-2-2.5-3.4c-.8-1.5-1.1-3.5-1.1-5.9z"/><path d="m107.6 16.2h-4c-.1-.5-.2-1.1-.2-1.8s.1-1.3.2-1.8h4v-1.5c0-3 .7-5.3 2.2-6.8 1.5-1.6 3.6-2.3 6.4-2.3.8 0 1.6.1 2.3.2s1.3.2 1.8.4c-.1.8-.3 1.5-.5 2.1s-.5 1.1-.7 1.7c-.3-.1-.6-.2-1-.3s-.9-.1-1.5-.1c-.7 0-1.3.1-1.8.2-.6.1-1 .4-1.4.8s-.7.9-.9 1.6-.3 1.6-.3 2.7v1.3h10.2v-1.7c0-3 .7-5.3 2.2-6.8 1.5-1.6 3.7-2.3 6.5-2.3.8 0 1.5 0 2.1.1s1.2.2 1.7.4c-.1.8-.2 1.5-.3 2-.1.6-.3 1.1-.4 1.7-.3-.1-.7-.1-1.1-.2s-.9-.1-1.5-.1c-.7 0-1.3.1-1.9.2s-1 .4-1.4.8-.7.9-.9 1.7c-.2.7-.3 1.6-.3 2.7v1.6h6.2c.1.6.1 1.3.1 1.9s0 1.2-.1 1.7h-6.2v20.5c-.3.1-.7.1-1.2.1-.4 0-.8 0-1.2 0-.3 0-.7 0-1.2 0-.4 0-.8-.1-1.2-.1v-20.6h-10.2v20.5c-.3.1-.7.1-1.2.1-.4 0-.8 0-1.2 0-.3 0-.7 0-1.2 0-.4 0-.8-.1-1.2-.1v-20.5z"/><path d="m146.7 36.8c-.3 0-.5 0-.8 0s-.5 0-.8 0-.6 0-1 0c-.3 0-.6 0-.8-.1l-8-24.2c.4-.1.8-.1 1.3-.1h1.2s.9 0 1.4 0 .9.1 1.3.1l6.7 22.5 6.9-22.5c.7-.1 1.4-.1 2.3-.1h1.2c.4 0 .9.1 1.3.1l-9.4 29.1c-.4 1.3-.9 2.4-1.4 3.3s-1 1.6-1.6 2.1-1.3.9-2 1.1-1.6.3-2.6.3c-.7 0-1.4-.1-2.1-.2s-1.3-.2-1.9-.4c0-.7.1-1.4.2-1.9.1-.6.3-1.1.6-1.7.3.1.7.2 1.2.3s1 .2 1.6.2c.4 0 .8 0 1.2-.1s.7-.2 1-.5c.3-.2.6-.6.9-1s.5-1 .8-1.8z"/><path d="m279.7 20.6h12.6l2.3-7.6c.4-.1.8-.1 1.2-.1h1.2 1.3s.8.1 1.1.1l-10.8 33c-.4.1-.8.1-1.3.1s-.9 0-1.4 0c-.4 0-.9 0-1.3 0-.5 0-.9-.1-1.3-.1l-10.7-33.1c.4-.1.8-.1 1.2-.1h1.3s.8 0 1.2 0 .8.1 1.2.1zm11.4 4.1h-10.1l5.1 16.9z"/><path d="m257.2 16c-2.7-.1-4.7-.6-5.9-1.7s-1.8-2.6-1.8-4.6c0-1.3.3-2.4 1-3.4.6-1 1.5-1.9 2.7-2.6 1.1-.7 2.5-1.3 4-1.7 1.6-.4 3.2-.6 5-.6 3.2 0 5.6.5 7.2 1.5 1.7 1 2.5 2.5 2.5 4.6 0 1.3-.3 2.4-1 3.4s-1.6 1.8-2.6 2.4c.6.4 1.1.9 1.5 1.5s.6 1.3.6 2.2c0 1.1-.3 2.1-.8 2.9s-1.2 1.6-2 2.2c1 .7 1.8 1.6 2.4 2.7s.9 2.4.9 3.8c0 1.2-.2 2.3-.6 3.3s-1.1 1.9-1.9 2.6c-.8.8-1.8 1.3-3 1.8-1.2.4-2.6.6-4.1.6-1.4 0-2.6-.2-3.8-.6-1.1-.4-2.1-.9-2.9-1.5-.6.5-1.4.9-2.5 1.2-1 .3-2.2.5-3.5.5-.1-.6-.2-1.2-.2-1.9 0-.3 0-.7 0-1.1s.1-.7.1-1.1h4.1c-.3-.5-.6-1.1-.8-1.7s-.3-1.3-.3-2.1c0-1.3.2-2.4.7-3.4s1.1-1.9 2-2.6c.8-.7 1.9-1.3 3-1.7 1.2-.4 2.4-.6 3.8-.6 1.3 0 2.4.1 3.4.4.4-.2.9-.6 1.3-1.1s.6-1.1.6-1.6c0-.6-.2-1-.6-1.4s-1.3-.6-2.7-.7zm6.2-3.6c1.4 0 2.4-.3 3.1-1.1s1-1.7 1-2.8c0-.7-.1-1.2-.4-1.7s-.7-.8-1.2-1c-.5-.3-1.1-.4-1.8-.6-.7-.1-1.5-.2-2.3-.2-2.5 0-4.4.4-5.8 1.2s-2.1 1.8-2.1 3.1c0 .9.3 1.6.9 2.1s1.7.8 3.2.8zm-2.1 11.5c-1.7 0-2.9.5-3.7 1.4s-1.2 2.1-1.2 3.5c0 1.5.4 2.7 1.2 3.6s2 1.4 3.7 1.4 2.9-.5 3.7-1.4 1.2-2.1 1.2-3.6c0-1.4-.4-2.6-1.2-3.5-.9-1-2.1-1.4-3.7-1.4z"/><path d="m243.2 23.6c-.1-2.6-.7-4.5-2-5.7s-3.2-1.8-5.6-1.8c-2.2 0-4.3.4-6.2 1.2-.2-.5-.4-1-.6-1.7s-.2-1.3-.3-2c1-.4 2.1-.8 3.3-1s2.6-.3 4-.3c2.1 0 4 .3 5.5.9s2.8 1.4 3.8 2.5 1.7 2.4 2.2 3.9.7 3.1.7 4.9c0 1.7-.2 3.4-.7 4.9-.4 1.5-1.1 2.8-2 4-.9 1.1-2.1 2-3.5 2.7s-3 1-5 1c-1.6 0-3.1-.3-4.3-.8-1.2-.6-2.3-1.3-3.1-2.3s-1.5-2.1-1.9-3.5c-.4-1.3-.6-2.8-.6-4.3 0-.4 0-.9 0-1.4s.1-.9.1-1.2zm-11.7 3.4c0 .9.1 1.7.3 2.5s.6 1.5 1 2c.4.6 1 1.1 1.7 1.4.7.4 1.5.5 2.5.5 1.9 0 3.3-.6 4.3-1.7s1.6-2.7 1.8-4.7z"/><path d="m224.1 36.6c-.3.1-.7.1-1 .1s-.7 0-1 0-.7 0-.9 0c-.3 0-.6-.1-.9-.1-.1-.5-.2-1.1-.3-1.9s-.1-1.4-.1-2c-.3.5-.7 1-1.2 1.6-.5.5-1 1-1.6 1.4s-1.3.8-2.1 1c-.8.3-1.7.4-2.6.4-2.7 0-4.7-.8-6-2.3s-1.9-3.8-1.9-6.9v-15c.3-.1.7-.1 1.2-.1h1.2 1.1c.4 0 .8.1 1.1.1v13.7c0 2.2.3 3.8 1 4.8s1.8 1.5 3.2 1.5c.9 0 1.7-.2 2.4-.5.8-.3 1.4-.8 2-1.4s1.1-1.5 1.4-2.5c.4-1 .5-2.3.5-3.7v-12c.3-.1.7-.1 1.1-.1h1.1s.7 0 1.2 0c.4 0 .8.1 1.2.1z"/><path d="m184.2 17c-.2-.4-.5-1-.6-1.6-.2-.6-.3-1.3-.3-2 1.8-.7 3.9-1.1 6.2-1.1 3.9 0 6.9 1.1 8.9 3.3s3 5.2 3 9c0 1.7-.2 3.4-.7 4.9s-1.2 2.8-2.2 3.9-2.2 2-3.6 2.6-3.1 1-5 1c-1.3 0-2.4-.1-3.4-.2-1-.2-1.9-.4-2.8-.7 0-.5.1-1.1.2-1.8s.3-1.3.6-1.8c1.5.5 3.2.8 5.2.8 2.4 0 4.1-.8 5.3-2.3 1.2-1.6 1.8-3.6 1.8-6.2 0-2.9-.7-5.1-2-6.5s-3.1-2-5.4-2c-.9 0-1.8.1-2.6.2-1 0-1.8.2-2.6.5z"/><path d="m169.9 12.9h.8s.5 0 .8 0 .6 0 1 0c.3 0 .6 0 .8.1l7.8 23.6c-.4.1-.8.1-1.2.1s-.8 0-1.2 0-.8 0-1.3 0-.9-.1-1.2-.1l-6.5-21.9-6.8 21.9c-.6.1-1.4.1-2.3.1-.3 0-.7 0-1.2 0-.4 0-.9-.1-1.3-.1l9.2-28.4c.4-1.3.9-2.3 1.3-3.2.5-.9 1-1.5 1.6-2.1.6-.5 1.2-.9 2-1.1.7-.2 1.6-.3 2.5-.3.7 0 1.4.1 2.1.2s1.3.2 1.8.4c0 .7-.1 1.3-.2 1.9s-.3 1.1-.6 1.7c-.3-.1-.7-.2-1.1-.3-.5-.1-1-.2-1.5-.2-.4 0-.8 0-1.1.1-.4.1-.7.2-1 .5-.3.2-.6.6-.9 1s-.5 1-.8 1.7z"/><path d="m3.7 2.5c-1.7 0-3 1.4-3 3 0 1.7 1.4 3 3 3 1.7 0 3-1.4 3-3s-1.4-3-3-3z"/><path d="m18.1 2.5c-1.7 0-3 1.4-3 3 0 1.7 1.4 3 3 3 1.7 0 3-1.4 3-3s-1.3-3-3-3z"/><path d="m32.5 2.5c-1.7 0-3 1.4-3 3 0 1.7 1.4 3 3 3 1.7 0 3-1.4 3-3s-1.3-3-3-3z"/><path d="m3.7 17c-1.7 0-3 1.4-3 3 0 1.7 1.4 3 3 3 1.7 0 3-1.4 3-3 0-1.7-1.4-3-3-3z"/><path d="m18.1 17c-1.7 0-3 1.4-3 3 0 1.7 1.4 3 3 3 1.7 0 3-1.4 3-3 0-1.7-1.3-3-3-3z"/><path d="m32.5 17c-1.7 0-3 1.4-3 3 0 1.7 1.4 3 3 3 1.7 0 3-1.4 3-3 0-1.7-1.3-3-3-3z"/><path d="m3.7 31.4c-1.7 0-3 1.4-3 3s1.4 3 3 3c1.7 0 3-1.4 3-3s-1.4-3-3-3z"/><path d="m18.1 31.4c-1.7 0-3 1.4-3 3s1.4 3 3 3c1.7 0 3-1.4 3-3s-1.3-3-3-3z"/><path d="m32.5 31.4c-1.7 0-3 1.4-3 3s1.4 3 3 3c1.7 0 3-1.4 3-3s-1.3-3-3-3z"/></g></svg>