<svg fill="none" height="139" viewBox="0 0 474 139" width="474" xmlns="http://www.w3.org/2000/svg"><path clip-rule="evenodd" d="m323.608 51.351c0 15.3684-9.576 35.5599-16.497 48.9-10.87 20.992-25.576 33.57-49.488 35.054-21.136 1.311-68.905 4.98-60.536-30.636 3.629-15.4181 11.693-29.0025 16.644-43.8916 16.636-33.1925 58.501-39.5199 91.761-31.2249 11.258 4.0958 17.25 9.5771 18.116 21.7983zm-55.823 1.4731c-17.095 0-19.177 23.8635-22.387 36.6747-.806 4.8417-6.227 21.0622 2.504 21.0622 20.554 4.134 22.466-18.411 25.923-33.4345 1.271-5.527 3.791-14.7999 2.651-20.473 0-4.2196-5.884-3.5474-8.691-3.8293zm-117.682 1.0312c-2.109 40.4162-30.496 37.271-64.218 37.1165-12.8154-.0529-25.921-.8836-38.5896-.8836-4.6748 4.7415 8.8596 19.1228 12.6671 21.5038 12.9971 8.097 29.305 4.62 39.7679-5.892 5.6206 0 65.9546-7.8859 45.0706 12.962-10.108 8.994-24.41 14.306-37.412 17.38-41.372 9.784-130.7396-14-100.5977-72.3189 20.6048-33.9122 65.2337-52.456 102.0707-62.00775 3.43-.68609 6.818-1.214194 10.31-1.473052 26.209-1.956898 30.931 34.214202 30.931 53.613102zm-38.442-3.2406c0-3.6554.149-7.5207-1.032-11.0466-4.045-16.2975-46.4885 18.5046-51.5502 23.5662-.6354 1.2797-.1552.8832.7363 1.3257 14.086 0 28.2048-.1476 42.2719-.1476 9.263-1.5289 9.574-4.3484 9.574-13.6978zm81.745 20.7676c-3.194 6.4317-2.481 14.869-8.985 19.7363-8.896 6.6559-31.304 6.674-26.365-9.426 4.676-15.3058 13.516-21.8155 29.605-17.8219 3.925 1.3143 4.852 3.914 5.745 7.5116zm280.141-19.884c0 4.1203-.864 8.3683-1.767 12.3724-5.317 23.5007-13.89 45.8593-21.505 68.4893-6.986 6.986-21.509 3.182-29.016-1.326-3.754-3.755 5.579-22.913 7.07-27.543 2.288-7.1109 14.785-33.3326 4.272-38.5889-3.382 0-6.072.4426-9.426 1.3255-31.463 11.0147-53.794 43.0414-76.443 65.6904-9.817 4.943-16.867 3.678-26.512-1.178-.957-.957-.493-2.478-.295-3.683 7.299-30.4834 18.842-60.7069 31.373-89.4036 1.971-5.8591 22.228-3.6881 27.248-1.1781 0 6.4893-.681 17.3802 8.69 17.3802 21.023-2.3172 72.536-47.95171 85.574-8.8374.37 2.2086.737 4.2105.737 6.4804z" fill="#fff" fill-rule="evenodd"/></svg>