<svg width="509" height="149" viewBox="0 0 509 149" fill="none" xmlns="http://www.w3.org/2000/svg">
<path fill-rule="evenodd" clip-rule="evenodd" d="M340.608 56.3509C340.608 71.7193 331.032 91.9108 324.112 105.251C313.241 126.242 298.535 138.821 274.623 140.305C253.487 141.616 205.718 145.285 214.087 109.669C217.716 94.2507 225.78 80.6664 230.731 65.7773C247.367 32.5848 289.232 26.2574 322.492 34.5524C333.75 38.6482 339.742 44.1295 340.608 56.3507L340.608 56.3509ZM284.785 57.8239C267.69 57.8239 265.608 81.6875 262.398 94.4987C261.592 99.3404 256.171 115.561 264.902 115.561C285.456 119.695 287.368 97.1498 290.825 82.1264C292.096 76.5994 294.616 67.3264 293.476 61.6534C293.476 57.4337 287.592 58.106 284.785 57.8241V57.8239ZM167.103 58.8552C164.994 99.2714 136.607 96.1262 102.885 95.9717C90.0697 95.9188 76.9641 95.0881 64.2955 95.0881C59.6207 99.8296 73.1551 114.211 76.9625 116.592C89.9596 124.689 106.268 121.212 116.73 110.7C122.351 110.7 182.685 102.814 161.801 123.662C151.693 132.655 137.392 137.968 124.389 141.042C83.0171 150.826 -6.35053 127.042 23.7914 68.723C44.3962 34.8107 89.0251 16.2669 125.862 6.71522C129.292 6.02914 132.681 5.50103 136.172 5.24218C162.381 3.28528 167.103 39.4563 167.103 58.8553L167.103 58.8552ZM128.661 55.6146C128.661 51.9592 128.81 48.0938 127.63 44.568C123.584 28.2705 81.1405 63.0726 76.0789 68.1342C75.4435 69.4139 75.9236 69.0173 76.8152 69.4599C90.9011 69.4599 105.02 69.3123 119.087 69.3123C128.351 67.7834 128.661 64.9639 128.661 55.6145V55.6146ZM210.406 76.3822C207.212 82.8138 207.926 91.2511 201.421 96.1185C192.525 102.774 170.117 102.792 175.056 86.6925C179.732 71.3867 188.572 64.877 204.661 68.8705C208.586 70.1849 209.513 72.7846 210.406 76.3821L210.406 76.3822ZM490.547 56.4982C490.547 60.6185 489.683 64.8665 488.78 68.8706C483.463 92.3713 474.89 114.73 467.275 137.36C460.289 144.346 445.766 140.542 438.259 136.034C434.505 132.279 443.838 113.121 445.33 108.491C447.617 101.38 460.114 75.1583 449.601 69.902C446.219 69.902 443.529 70.3446 440.175 71.2275C408.712 82.2422 386.381 114.269 363.732 136.918C353.915 141.861 346.865 140.596 337.22 135.74C336.263 134.783 336.727 133.262 336.925 132.057C344.224 101.573 355.767 71.35 368.298 42.6533C370.269 36.7942 390.526 38.9652 395.546 41.4752C395.546 47.9644 394.865 58.8553 404.236 58.8553C425.259 56.5382 476.772 10.9037 489.81 50.018C490.18 52.2266 490.547 54.2285 490.547 56.4984L490.547 56.4982Z" fill="#282828"/>
</svg>
