<svg fill="none" height="149" viewBox="0 0 509 149" width="509" xmlns="http://www.w3.org/2000/svg"><path clip-rule="evenodd" d="m340.608 56.3509c0 15.3684-9.576 35.5599-16.496 48.9001-10.871 20.991-25.577 33.57-49.489 35.054-21.136 1.311-68.905 4.98-60.536-30.636 3.629-15.4183 11.693-29.0026 16.644-43.8917 16.636-33.1925 58.501-39.5199 91.761-31.2249 11.258 4.0958 17.25 9.5771 18.116 21.7983zm-55.823 1.473c-17.095 0-19.177 23.8636-22.387 36.6748-.806 4.8417-6.227 21.0623 2.504 21.0623 20.554 4.134 22.466-18.4112 25.923-33.4346 1.271-5.527 3.791-14.8 2.651-20.473 0-4.2197-5.884-3.5474-8.691-3.8293zm-117.682 1.0313c-2.109 40.4162-30.496 37.271-64.218 37.1165-12.8153-.0529-25.9209-.8836-38.5895-.8836-4.6748 4.7415 8.8596 19.1229 12.667 21.5039 12.9971 8.097 29.3055 4.62 39.7675-5.892 5.621 0 65.955-7.886 45.071 12.962-10.108 8.993-24.409 14.306-37.412 17.38-41.3719 9.784-130.73953-14-100.5976-72.319 20.6048-33.9123 65.2337-52.4561 102.0706-62.00778 3.43-.68608 6.819-1.21419 10.31-1.47304 26.209-1.9569 30.931 34.21412 30.931 53.61312zm-38.442-3.2406c0-3.6554.149-7.5208-1.031-11.0466-4.046-16.2975-46.4895 18.5046-51.5511 23.5662-.6354 1.2797-.1553.8831.7363 1.3257 14.0859 0 28.2048-.1476 42.2718-.1476 9.264-1.5289 9.574-4.3484 9.574-13.6978zm81.745 20.7676c-3.194 6.4316-2.48 14.8689-8.985 19.7363-8.896 6.6555-31.304 6.6735-26.365-9.426 4.676-15.3058 13.516-21.8155 29.605-17.822 3.925 1.3144 4.852 3.9141 5.745 7.5116zm280.141-19.884c0 4.1203-.864 8.3683-1.767 12.3724-5.317 23.5007-13.89 45.8594-21.505 68.4894-6.986 6.986-21.509 3.182-29.016-1.326-3.754-3.755 5.579-22.913 7.071-27.543 2.287-7.111 14.784-33.3327 4.271-38.589-3.382 0-6.072.4426-9.426 1.3255-31.463 11.0147-53.794 43.0415-76.443 65.6905-9.817 4.943-16.867 3.678-26.512-1.178-.957-.957-.493-2.478-.295-3.683 7.299-30.484 18.842-60.707 31.373-89.4037 1.971-5.8591 22.228-3.6881 27.248-1.1781 0 6.4892-.681 17.3801 8.69 17.3801 21.023-2.3171 72.536-47.9516 85.574-8.8373.37 2.2086.737 4.2105.737 6.4804z" fill="#282828" fill-rule="evenodd"/></svg>