<?xml version="1.0" encoding="UTF-8"?>
<svg width="166px" height="59px" viewBox="0 0 166 59" version="1.1" xmlns="http://www.w3.org/2000/svg" xmlns:xlink="http://www.w3.org/1999/xlink">
    <!-- Generator: Sketch 54.1 (76490) - https://sketchapp.com -->
    <title>Page 1</title>
    <desc>Created with Sketch.</desc>
    <defs>
        <polygon id="path-1" points="115.7229 42.4846126 115.7229 0.166944541 0.13872 0.166944541 0.13872 42.4846126 115.7229 42.4846126"></polygon>
    </defs>
    <g id="Symbols" stroke="none" stroke-width="1" fill="none" fill-rule="evenodd">
        <g id="Header" transform="translate(-637.000000, -10.000000)">
            <g id="Page-1" transform="translate(637.000000, 10.000000)">
                <g id="Group-3" transform="translate(0.000000, 0.030300)" fill="#282828">
                    <path d="M38.75223,51.46113 C39.13443,50.72043 39.28113,49.86363 39.34983,48.73983 L39.35523,15.09003 L39.35823,15.09003 L3.29643,15.09003 L3.30183,48.73983 C3.30243,49.86363 3.48063,50.72973 3.86313,51.47013 L3.91773,51.44763 C5.27043,51.03453 6.48903,50.77173 8.02893,50.77173 C9.11553,50.77173 10.17183,50.90133 11.18343,51.14463 C11.85063,50.55573 12.58053,50.06883 13.41003,49.65573 C13.39923,50.12133 13.47573,50.61723 13.47903,50.63853 C13.48353,50.66763 13.50513,50.69163 13.53363,50.69913 C13.56213,50.70663 13.59273,50.69703 13.61133,50.67393 C13.81533,50.42163 14.15283,50.04003 14.35323,49.88283 C14.31333,50.32413 14.46273,50.70663 14.46993,50.72463 C14.48013,50.75013 14.50353,50.76783 14.53083,50.77113 C14.55693,50.77413 14.58513,50.76243 14.60103,50.73993 L14.81463,50.43453 C15.44763,49.65933 15.97143,49.50423 16.24473,49.43643 C16.25223,49.44243 16.26183,49.44963 16.27293,49.45803 L16.29123,49.47213 C16.38513,49.55193 16.55253,49.58883 16.81833,49.58883 C17.17203,49.58793 17.56863,49.41303 17.67843,49.11753 C17.75673,49.13583 17.82543,49.13703 17.92293,49.13703 C18.10233,49.13703 18.51333,49.10283 18.67713,48.80373 C18.75663,48.84123 18.80913,48.85233 18.90633,48.85233 C18.90963,48.85233 18.91263,48.85233 18.91503,48.85263 C18.91383,48.86553 18.91173,48.87783 18.90963,48.88983 C18.90213,48.93753 18.89313,48.99063 18.92523,49.05243 C18.85623,49.29393 18.77133,49.76343 18.78423,50.01603 C18.83013,50.93103 19.31823,51.61233 19.33893,51.64113 C19.35303,51.66033 19.37583,51.67173 19.39953,51.67173 C19.40253,51.67173 19.40553,51.67143 19.40853,51.67113 C19.43553,51.66783 19.45863,51.65043 19.46913,51.62523 C19.76523,50.89743 20.16543,50.08803 20.28663,50.05023 C20.43513,50.09553 20.63283,50.10093 20.71143,50.10123 C20.88963,50.10093 21.16743,50.02473 21.28863,49.96983 C21.73803,49.76703 21.89793,49.29483 21.89823,48.95253 C21.89823,48.89553 21.88413,48.85053 21.87033,48.80673 C21.99213,48.73113 22.07163,48.64563 22.11933,48.48213 C22.23603,48.56103 22.36443,48.59313 22.55193,48.59613 C22.61463,48.59613 22.67403,48.58953 22.72443,48.57693 C22.89813,48.72153 23.18043,48.73953 23.30013,48.74013 C23.50113,48.73863 23.64213,48.72873 23.75853,48.68433 C23.91483,48.90363 24.32013,49.07493 24.59703,49.07913 C24.74493,49.07913 24.96183,49.01943 25.07703,48.96303 C25.10403,48.96183 25.16763,48.95943 25.26333,48.95943 C25.53483,48.96003 25.91583,49.02633 26.45253,49.53753 L26.70213,49.77723 C26.71953,49.79373 26.74353,49.80123 26.76783,49.79673 C26.79153,49.79253 26.81163,49.77663 26.82183,49.75503 C26.83023,49.73673 27.02133,49.31643 27.01653,48.72243 C28.88463,49.24593 30.48303,50.06433 31.79193,51.25233 C32.80053,51.01053 33.85383,50.88273 34.93593,50.88273 C35.42283,50.88273 35.90853,50.91693 36.38913,50.97333 C36.41133,50.99343 36.43263,51.01293 36.44943,51.02793 L36.46623,51.04233 C36.47733,51.05193 36.49083,51.05793 36.50523,51.06003 C36.50613,51.06003 36.53193,51.06183 36.53283,51.06213 L36.91173,51.04563 C37.63953,51.16023 38.07123,51.27513 38.70213,51.44283 L38.75223,51.46113 Z M21.26193,58.24383 C21.03873,58.23843 20.85243,58.24233 20.77713,58.04163 C20.72163,57.90033 20.56563,57.76713 20.30103,57.63963 C19.98963,57.48903 19.52193,57.35133 18.87063,57.21573 C18.15333,57.06723 17.26413,56.93163 16.20783,56.76933 C15.37353,56.64213 14.43573,56.49723 13.39653,56.31963 C12.82023,56.22153 12.25533,56.13033 11.70483,56.04183 C10.08873,55.78233 8.63703,55.50093 7.31283,55.12953 C5.21613,54.53733 3.92013,53.79453 3.10833,52.52733 C2.47953,51.54243 2.10213,50.46513 2.10063,48.94953 L2.09313,12.21333 C2.09313,12.07323 2.14923,11.93643 2.24673,11.83773 C2.33343,11.75073 2.44803,11.69643 2.56893,11.68443 L2.86473,11.68443 L2.86473,8.21883 L2.83863,8.18883 L1.04463,6.40863 C0.90843,6.27873 0.82923,6.04833 0.82923,5.85723 L0.82863,5.84913 L0.82863,4.21383 L0.70413,4.21383 C0.65973,4.21383 0.61533,4.20933 0.57183,4.20123 C0.43053,4.17393 0.30423,4.10703 0.20463,4.00683 C0.07473,3.87603 3e-05,3.69543 3e-05,3.51123 L3e-05,0.97143 C3e-05,0.78843 0.07413,0.60843 0.20343,0.47733 C0.33633,0.34443 0.51723,0.26943 0.70233,0.26943 L1.92513,0.26943 C1.97103,0.26943 2.01753,0.27363 2.06283,0.28293 C2.20293,0.31053 2.33043,0.37923 2.42943,0.48123 C2.44893,0.50073 2.46723,0.52173 2.48403,0.54363 C2.50263,0.51933 2.52303,0.49623 2.54493,0.47433 C2.67243,0.34533 2.85393,0.26943 3.04023,0.26943 L4.50063,0.26943 L4.52943,0.27243 C4.70283,0.28653 4.85673,0.35823 4.97433,0.47703 C4.99593,0.49863 5.01603,0.52143 5.03463,0.54543 C5.05293,0.52113 5.07273,0.49833 5.09433,0.47673 C5.22483,0.34503 5.40633,0.26943 5.59233,0.26943 L6.81783,0.26943 C6.86433,0.26943 6.91173,0.27393 6.95703,0.28323 C7.09173,0.30903 7.21803,0.37623 7.31763,0.47643 C7.44783,0.60753 7.52193,0.78783 7.52193,0.97143 L7.52193,3.51123 C7.52193,3.69963 7.44903,3.87633 7.31583,4.00863 C7.18083,4.14183 7.00533,4.21383 6.81963,4.21383 L6.74313,4.21383 L6.74313,5.18823 L9.62883,5.18823 L9.62883,4.21383 L9.50403,4.21383 C9.45963,4.21383 9.41523,4.20933 9.37203,4.20123 C9.23073,4.17393 9.10443,4.10703 9.00483,4.00683 C8.87463,3.87603 8.79993,3.69543 8.79993,3.51123 L8.79993,0.97143 C8.79993,0.78843 8.87403,0.60843 9.00333,0.47733 C9.13623,0.34443 9.31743,0.26943 9.50223,0.26943 L10.72503,0.26943 C10.77093,0.26943 10.81743,0.27363 10.86303,0.28293 C11.00283,0.31053 11.13033,0.37923 11.22933,0.48123 C11.24883,0.50073 11.26713,0.52173 11.28393,0.54363 C11.30283,0.51933 11.32293,0.49623 11.34483,0.47433 C11.47233,0.34533 11.65413,0.26943 11.84043,0.26943 L13.30053,0.26943 L13.32933,0.27243 C13.50273,0.28653 13.65663,0.35823 13.77423,0.47703 C13.79583,0.49863 13.81623,0.52143 13.83453,0.54543 C13.85283,0.52113 13.87293,0.49833 13.89423,0.47673 C14.02473,0.34503 14.20653,0.26943 14.39253,0.26943 L15.61803,0.26943 C15.66453,0.26943 15.71163,0.27393 15.75693,0.28323 C15.89163,0.30903 16.01823,0.37623 16.11783,0.47643 C16.24773,0.60753 16.32213,0.78783 16.32213,0.97143 L16.32213,3.51123 C16.32213,3.69963 16.24893,3.87633 16.11603,4.00863 C15.98073,4.14183 15.80523,4.21383 15.61983,4.21383 L15.54303,4.21383 L15.54303,5.18823 L18.42873,5.18823 L18.42873,4.21383 L18.30423,4.21383 C18.25983,4.21383 18.21543,4.20933 18.17193,4.20123 C18.03063,4.17393 17.90433,4.10703 17.80473,4.00683 C17.67483,3.87603 17.60013,3.69543 17.60013,3.51123 L17.60013,0.97143 C17.60013,0.78843 17.67423,0.60843 17.80353,0.47733 C17.93643,0.34443 18.11733,0.26943 18.30213,0.26943 L19.52523,0.26943 C19.57113,0.26943 19.61763,0.27363 19.66293,0.28293 C19.80303,0.31053 19.93053,0.37923 20.02953,0.48123 C20.04903,0.50073 20.06733,0.52173 20.08413,0.54363 C20.10273,0.51933 20.12313,0.49623 20.14503,0.47433 C20.27253,0.34533 20.45403,0.26943 20.64033,0.26943 L22.10073,0.26943 L22.12953,0.27243 C22.30293,0.28653 22.45683,0.35823 22.57443,0.47703 C22.59603,0.49863 22.61613,0.52143 22.63473,0.54543 C22.65303,0.52113 22.67283,0.49833 22.69443,0.47673 C22.82493,0.34503 23.00643,0.26943 23.19243,0.26943 L24.41793,0.26943 C24.46443,0.26943 24.51183,0.27393 24.55713,0.28323 C24.69183,0.30903 24.81813,0.37623 24.91773,0.47643 C25.04793,0.60753 25.12203,0.78783 25.12203,0.97143 L25.12203,3.51123 C25.12203,3.69963 25.04913,3.87633 24.91593,4.00863 C24.78093,4.14183 24.60543,4.21383 24.41973,4.21383 L24.34323,4.21383 L24.34323,5.18823 L27.22863,5.18823 L27.22863,4.21383 L27.10413,4.21383 C27.05973,4.21383 27.01533,4.20933 26.97183,4.20123 C26.83053,4.17393 26.70423,4.10703 26.60463,4.00683 C26.47473,3.87603 26.40003,3.69543 26.40003,3.51123 L26.40003,0.97143 C26.40003,0.78843 26.47413,0.60843 26.60343,0.47733 C26.73633,0.34443 26.91723,0.26943 27.10233,0.26943 L28.32513,0.26943 C28.37103,0.26943 28.41753,0.27363 28.46283,0.28293 C28.60293,0.31053 28.73043,0.37923 28.82943,0.48123 C28.84893,0.50073 28.86723,0.52173 28.88403,0.54363 C28.90263,0.51933 28.92303,0.49623 28.94493,0.47433 C29.07243,0.34533 29.25393,0.26943 29.44023,0.26943 L30.90063,0.26943 L30.92943,0.27243 C31.10283,0.28653 31.25673,0.35823 31.37433,0.47703 C31.39593,0.49863 31.41603,0.52143 31.43463,0.54543 C31.45293,0.52113 31.47273,0.49833 31.49433,0.47673 C31.62483,0.34503 31.80633,0.26943 31.99233,0.26943 L33.21783,0.26943 C33.26433,0.26943 33.31173,0.27393 33.35703,0.28323 C33.49173,0.30903 33.61803,0.37623 33.71763,0.47643 C33.84783,0.60753 33.92193,0.78783 33.92193,0.97143 L33.92193,3.51123 C33.92193,3.69963 33.84903,3.87633 33.71583,4.00863 C33.58083,4.14183 33.40533,4.21383 33.21963,4.21383 L33.14313,4.21383 L33.14313,5.18823 L36.02883,5.18823 L36.02883,4.21383 L35.90403,4.21383 C35.85963,4.21383 35.81523,4.20933 35.77203,4.20123 C35.63073,4.17393 35.50443,4.10703 35.40483,4.00683 C35.27463,3.87603 35.19993,3.69543 35.19993,3.51123 L35.19993,0.97143 C35.19993,0.78843 35.27403,0.60843 35.40333,0.47733 C35.53623,0.34443 35.71743,0.26943 35.90223,0.26943 L37.12503,0.26943 C37.17093,0.26943 37.21743,0.27363 37.26303,0.28293 C37.40283,0.31053 37.53033,0.37923 37.62933,0.48123 C37.64883,0.50073 37.66713,0.52173 37.68393,0.54363 C37.70283,0.51933 37.72293,0.49623 37.74483,0.47433 C37.87233,0.34533 38.05413,0.26943 38.24043,0.26943 L39.70053,0.26943 L39.72933,0.27243 C39.90273,0.28653 40.05663,0.35823 40.17423,0.47703 C40.19583,0.49863 40.21623,0.52143 40.23453,0.54543 C40.25283,0.52113 40.27293,0.49833 40.29423,0.47673 C40.42473,0.34503 40.60653,0.26943 40.79253,0.26943 L42.01803,0.26943 C42.06453,0.26943 42.11163,0.27393 42.15693,0.28323 C42.29163,0.30903 42.41823,0.37623 42.51783,0.47643 C42.64773,0.60753 42.72213,0.78783 42.72213,0.97143 L42.72213,3.51123 C42.72213,3.69963 42.64893,3.87633 42.51603,4.00863 C42.38073,4.14183 42.20523,4.21383 42.01983,4.21383 L41.94303,4.21383 L41.94303,5.85183 L41.94333,5.85723 C41.94333,6.04833 41.86413,6.27873 41.72793,6.40863 L39.87633,8.24613 L39.86103,8.26443 L39.86103,11.74203 L40.10703,11.74413 C40.21623,11.76183 40.31973,11.81493 40.39773,11.89503 C40.49373,11.99043 40.55043,12.12813 40.55043,12.26883 L40.55433,12.26883 L40.54683,48.94953 C40.54503,50.46513 40.16763,51.54243 39.53913,52.52733 C38.72733,53.79453 37.43103,54.53733 35.33433,55.12953 C34.01043,55.50093 32.55843,55.78233 30.94233,56.04183 C30.39183,56.13033 29.82723,56.22153 29.25063,56.31963 C28.21173,56.49723 27.27393,56.64213 26.43963,56.76933 C25.38303,56.93163 24.49383,57.06723 23.77683,57.21573 C23.12523,57.35133 22.65753,57.48903 22.34643,57.63963 C22.08153,57.76713 21.92553,57.90033 21.87003,58.04163 C21.79473,58.24233 21.60843,58.23843 21.38553,58.24383 L21.37893,58.24383 L21.26193,58.24383 Z" id="Fill-1"></path>
                </g>
                <g id="Group-34" transform="translate(8.700000, 16.830300)" fill="#282828">
                    <path d="M2.09205,4.01073 C1.78455,3.99663 1.59165,3.95343 1.44135,3.93153 C0.97815,3.86553 0.68235,3.77103 0.58545,3.63573 C0.61425,3.61383 0.64305,3.58953 0.66135,3.58803 C0.67155,3.58803 0.69675,3.59643 0.72495,3.60633 L0.78585,3.62553 C0.84045,3.64293 0.90765,3.65853 0.99915,3.65853 C1.13745,3.65853 1.28835,3.59253 1.37925,3.48903 C1.39335,3.48903 1.40715,3.48963 1.42155,3.48963 C1.64175,3.48963 1.72785,3.45483 1.93995,3.37713 C2.01975,3.34743 2.11395,3.31293 2.23755,3.27153 C2.38575,3.22233 2.42985,3.19713 2.64645,3.17403 L2.74425,3.16593 C2.49585,3.27513 2.41065,3.46893 2.29005,3.70953 C2.21295,3.86253 2.11965,3.97893 2.09205,4.01073" id="Fill-4"></path>
                    <path d="M6.30801,31.58817 C6.30621,31.58307 6.30261,31.57917 6.30201,31.57407 C6.27981,31.40877 6.27201,31.28997 6.27291,31.14147 C6.27201,31.07277 6.27981,31.00647 6.29271,30.95577 C6.36471,30.69837 6.46191,30.46797 6.86001,30.46587 C6.90411,30.46587 6.95241,30.46887 7.00521,30.47577 C7.03761,30.47937 7.07361,30.48177 7.11141,30.48177 C7.60311,30.48057 8.54151,30.15117 9.29541,29.88537 L9.46521,29.82567 C10.10331,29.59947 10.23651,28.94187 10.23651,28.42977 C10.23651,28.29357 10.22751,28.15377 10.20831,28.01337 C10.30761,27.91617 10.37811,27.81357 10.42041,27.74577 C10.51011,27.87927 10.72461,28.06917 11.20431,28.30557 C11.20101,28.32777 11.21601,28.37907 11.23101,28.42857 C11.24601,28.48257 11.26191,28.53597 11.26521,28.57047 L11.31771,28.77387 C11.30811,28.93617 11.28651,29.11287 11.26521,29.21667 C11.19831,29.55117 11.08401,29.73807 10.86231,29.82087 C10.19001,30.07347 8.81901,30.50667 8.32431,30.56067 C8.21901,30.54597 8.12301,30.53907 8.03691,30.53907 C7.51731,30.53907 7.36791,30.79107 7.25931,31.04907 C6.92091,31.12287 6.56271,31.29627 6.30801,31.58817" id="Fill-6"></path>
                    <path d="M23.74902,27.76173 C25.21752,29.62833 27.76152,32.81883 27.94032,33.06843 L28.03032,33.19383 L27.38472,33.34713 C27.50922,33.46383 27.60432,33.55083 27.66402,33.60363 L28.71792,33.56733 C28.52322,33.29433 26.35092,30.47163 25.42722,29.27223 C25.40412,29.24253 24.55782,28.46253 23.74902,27.76173" id="Fill-8"></path>
                    <path d="M16.87539,24.14823 C16.87539,24.14823 16.23099,23.81763 15.99279,23.67183 C16.04439,23.80683 16.07379,23.90583 16.11909,24.10593 C16.89369,24.47283 17.52399,24.81543 18.09249,25.13433 C17.68089,24.70983 17.31849,24.43293 16.92009,24.01683 L16.87539,24.14823 Z" id="Fill-10"></path>
                    <path d="M11.1228,27.80097 C10.8732,27.65367 10.7265,27.52227 10.6464,27.43587 C10.5798,27.36537 10.5435,27.31137 10.5246,27.27897 C10.5138,27.26127 10.5078,27.24957 10.5042,27.24177 L10.4961,27.22137 L10.47,27.21627 L10.3971,27.22257 L10.2696,27.23517 L10.2462,27.23757 L10.2432,27.26127 C10.2426,27.26307 10.2393,27.28737 10.2282,27.33177 C10.2045,27.42417 10.1478,27.59247 10.0242,27.74757 C9.9864,26.45217 8.7954,22.70817 8.0217,20.90217 C8.0883,20.94177 8.1555,20.97957 8.2233,21.01377 C8.4039,21.10857 8.6247,21.21627 8.8701,21.33207 C9.429,22.48557 10.6902,25.49247 11.1228,27.80097" id="Fill-12"></path>
                    <path d="M25.6449609,29.00742 C25.64556,28.98102 25.35006,28.48002 24.68166,27.16632 C24.28026,26.82822 20.39406,23.13432 19.67916,22.34532 C19.31406,22.25772 18.76176,21.89592 18.49176,21.70872 C18.47946,21.79812 18.44976,21.90432 18.38346,22.00572 C18.32286,22.10052 18.27156,22.14162 18.13806,22.19472 C18.13806,22.19472 25.64496,29.00832 25.6449609,29.00742" id="Fill-14"></path>
                    <path d="M5.84349,32.50665 C5.91249,32.20605 6.01359,31.93815 6.17079,31.72605 C6.13719,31.68675 6.09069,31.36065 6.09069,31.24185 C6.09159,31.19235 6.09519,31.14525 6.09999,31.09785 C6.09699,31.08855 6.09489,31.08315 6.09369,31.08045 C6.02739,31.11195 5.03049,31.60215 5.03979,33.24525 C5.30829,32.87115 5.57109,32.63775 5.84349,32.50665" id="Fill-16"></path>
                    <path d="M16.46787,31.67901 C16.49727,31.67961 16.53117,31.68081 16.56777,31.68291 C16.58457,31.68411 16.60137,31.68531 16.62027,31.68681 C16.63827,31.68861 16.65807,31.69071 16.67787,31.69311 C16.73307,31.69851 16.79097,31.70781 16.85337,31.72041 C16.85547,31.72101 16.85667,31.72131 16.85907,31.72191 C16.89597,31.72911 16.93317,31.73841 16.97217,31.74771 C16.97667,31.74921 16.98057,31.75071 16.98477,31.75101 C17.26677,31.82661 17.59257,31.97781 17.86467,32.28291 C17.95617,31.09611 17.01867,30.72741 16.66017,30.63321 C16.67487,30.72261 16.68687,30.81621 16.69437,30.91251 C16.73247,31.38771 16.48557,31.65471 16.46787,31.67901" id="Fill-18"></path>
                    <path d="M7.20303,31.34853 C6.69963,31.47453 6.03273,31.89663 5.99673,33.25593 C6.27123,32.81253 6.67803,32.55093 7.01763,32.39973 C7.27323,32.28723 7.43043,32.24853 7.52193,32.22993 C7.50663,32.12733 7.50633,32.00163 7.49673,31.88553 C7.47633,31.62933 7.24683,31.41723 7.20303,31.34853" id="Fill-20"></path>
                    <path d="M10.66548,33.82002 L10.66548,33.82002 C10.63938,33.56022 10.57728,33.30042 10.57728,33.06462 C10.57638,32.79102 10.60488,32.53902 10.66128,32.31402 C10.68468,32.21862 10.71288,32.13492 10.74318,32.05872 C10.90818,31.64352 11.13558,31.51992 11.13768,31.51842 C11.15088,31.51602 11.16828,31.51392 11.19228,31.51362 C11.30028,31.51362 11.65698,31.54962 11.82648,32.00922 C11.87298,32.13492 11.89698,32.25042 11.89698,32.35152 C11.89758,32.47512 11.86188,32.58132 11.79138,32.66742 C11.71608,32.75982 11.60208,32.82372 11.47068,32.84742 C11.44998,32.85192 11.43288,32.85462 11.41488,32.85642 C11.04828,32.88972 10.89768,33.19032 10.66548,33.82002" id="Fill-22"></path>
                    <path d="M24.41217,26.44425 C24.27477,26.31255 24.25167,26.28915 24.07407,26.10585 C23.72667,25.74765 23.18667,25.18095 22.36557,24.36885 C21.80457,23.81175 21.15747,23.23845 20.78337,22.80405 C20.60577,22.59825 20.42247,22.43835 20.30757,22.29975 C20.33337,22.29075 20.30907,22.30725 20.32917,22.28685 C20.37807,22.23525 20.41197,22.17315 20.42757,22.10205 C20.78607,22.43925 21.29637,22.81725 21.70347,22.90905 C21.84957,22.93995 21.98277,22.95495 22.09827,22.95495 C22.38297,22.95495 22.55037,22.86405 22.64667,22.77345 L22.65207,22.79475 C23.42037,24.39555 23.92977,25.47555 24.39507,26.40405 L24.41217,26.44425 Z" id="Fill-24"></path>
                    <path d="M2.1858,1.84995 C2.1135,1.85475 1.9608,1.90335 1.9482,2.02245 C1.9479,2.05725 1.9644,2.08965 1.9956,2.11515 C2.0421,2.15385 2.0868,2.17395 2.1318,2.17395 C2.1867,2.17395 2.229,2.14905 2.2752,2.12325 C2.3298,2.09205 2.3574,2.04885 2.3574,2.00325 C2.3559,1.93335 2.2986,1.87275 2.2137,1.85325 L2.2101,1.85175 L2.1858,1.84995 Z M0.2871,4.15605 C0.1539,3.77955 -0.015,3.04785 0.4059,2.47965 C0.7575,2.00595 1.341,1.69515 1.7697,1.51815 C1.8888,1.47225 1.9971,1.43475 2.0733,1.40805 C2.1567,1.57095 2.2359,1.65735 2.2878,1.70145 C2.4156,1.80405 2.5671,1.92495 2.5632,2.05785 C2.5551,2.10195 2.4441,2.19435 2.4135,2.20275 L2.2377,2.28435 L2.163,2.31885 L2.2425,2.34075 L2.4252,2.39025 C2.4648,2.40015 2.5038,2.40615 2.5413,2.40615 C2.6379,2.40225 2.7225,2.37045 2.8023,2.30535 C2.8023,2.31345 2.802,2.32155 2.802,2.32935 C2.8029,2.59455 2.8941,2.76585 3.1695,2.90415 C3.1116,2.90265 3.0504,2.90115 2.9862,2.90115 L2.8896,2.90175 C2.8077,2.89725 2.7339,2.88705 2.6739,2.87025 C2.571,2.83095 2.5638,2.81685 2.5098,2.71365 C2.4348,2.57595 2.1828,2.37975 2.0055,2.35485 C1.9047,2.34285 1.8429,2.28015 1.8213,2.16945 C1.7922,2.03295 1.6533,1.80825 1.5399,1.74885 L1.5144,1.73625 L1.5003,1.75905 L1.4526,1.83615 L1.4331,1.86675 L1.4676,1.88055 C1.5189,1.89975 1.6632,2.11005 1.677,2.19975 L1.6848,2.24505 C1.7049,2.35755 1.7367,2.54625 1.9197,2.57415 C2.0616,2.58885 2.2482,2.68395 2.2839,2.75955 C2.3202,2.82945 2.3649,2.88465 2.5047,2.95335 C2.3475,2.97225 2.2011,3.00045 2.0688,3.03915 C1.8222,3.11025 1.7145,3.16725 1.6272,3.21255 C1.5237,3.26745 1.4607,3.30015 1.2258,3.31635 C1.0926,3.43065 0.9939,3.45645 0.8634,3.45645 C0.8004,3.45645 0.7437,3.44475 0.6966,3.43335 L0.6639,3.42495 C0.6273,3.41565 0.5955,3.40785 0.5688,3.40785 C0.4158,3.43935 0.3477,3.66045 0.315,3.92475 C0.2988,4.00605 0.291,4.08915 0.2871,4.15605 L0.2871,4.15605 Z" id="Fill-26"></path>
                    <path d="M11.91045,32.85645 C12.01755,32.71275 12.15135,32.51325 12.15405,32.31195 C12.15405,32.09475 12.08925,31.84515 12.00375,31.71165 C11.66985,31.18635 11.38125,31.22595 11.15955,31.25175 C11.07345,31.27605 10.85925,31.42335 10.63755,31.78965 C10.66845,31.35465 11.04825,30.96435 11.47785,30.96375 C11.51805,30.96375 11.55795,30.96615 11.59905,30.97425 L11.66025,30.96165 C11.71275,30.87705 11.75145,30.82755 11.79015,30.77895 C11.89695,30.64335 12.00285,30.51045 12.03135,30.20295 L12.03315,30.19065 L12.02295,30.16215 L11.90985,30.12855 L11.88045,30.13515 C11.74425,30.44625 11.69955,30.51825 11.59605,30.62895 L11.51655,30.71805 C11.49135,30.70185 11.47875,30.70515 11.42955,30.70515 C10.81485,30.70725 10.47825,31.12515 10.37565,31.48275 C10.29495,31.50165 10.21275,31.51575 10.13985,31.51575 C10.03665,31.51575 9.93915,31.48875 9.85875,31.44015 L9.82365,31.41795 L9.78915,31.39815 L9.75645,31.44525 L9.74595,31.48455 C9.69525,31.67175 9.48525,31.78425 9.18555,31.78515 C8.93775,31.78515 8.72235,31.70295 8.66505,31.62735 L8.65815,31.61775 L8.63265,31.60335 L8.55645,31.63665 L8.54565,31.64025 L8.52615,31.66125 C8.53545,31.72035 8.53725,31.75365 8.53725,31.78515 C8.53725,32.10555 8.26725,32.32065 8.01555,32.32065 C7.92945,32.32065 7.85535,32.29605 7.80225,32.25015 C7.80225,32.24115 7.77975,32.05425 7.76595,31.81125 C7.75485,31.66335 7.69215,31.54665 7.63695,31.44375 C7.59045,31.35615 7.55085,31.28325 7.55325,31.21635 C7.55325,31.19325 7.55625,31.17525 7.56225,31.15725 C7.65075,30.88725 7.73655,30.80235 8.09805,30.79815 C8.19285,30.79815 8.31165,30.80685 8.46015,30.82215 L8.73225,30.76125 C9.73605,30.51735 10.77405,30.26535 11.28105,29.92785 C11.56905,29.73915 11.59485,29.52075 11.62305,29.29095 L11.63205,29.21325 C11.65005,28.98165 11.69115,28.66305 11.72805,28.38315 C11.75505,28.17255 11.78235,27.96225 11.80305,27.77565 L11.84445,27.66675 C11.95455,27.77925 12.07485,27.89115 12.19155,27.99975 C12.50265,28.29075 12.78015,28.55115 13.26555,28.76025 C13.24605,28.87005 13.23375,29.03955 13.23375,29.18295 C13.23375,29.21835 13.23555,29.24895 13.23825,29.27415 C13.24065,29.29635 13.24095,29.31885 13.24215,29.34225 C13.24545,29.46285 13.24875,29.59065 13.38675,29.64075 C13.44465,29.65905 13.51305,29.68335 13.59225,29.71065 L13.64925,29.73015 C14.18235,29.91975 15.07515,30.23685 16.13265,30.24495 C16.21485,30.24495 16.29855,30.32505 16.36155,30.46425 C16.42635,30.60735 16.44945,30.78345 16.44945,30.96855 C16.44975,31.14135 16.41465,31.30395 16.35465,31.39875 C16.21755,31.61385 16.05255,31.73835 15.84465,31.73835 C15.72135,31.73835 15.59265,31.69515 15.49275,31.62165 C15.40695,31.55835 15.35205,31.47705 15.35295,31.41435 L15.36495,31.30065 L15.37695,31.20165 L15.28545,31.26615 L15.21975,31.34595 C15.19695,31.37505 15.05205,31.42785 14.84415,31.42785 C14.58885,31.42695 14.28045,31.36035 14.20755,31.21275 L14.18805,31.17645 L14.16915,31.14105 L14.11725,31.16475 L14.08755,31.19235 C14.01525,31.25985 13.93995,31.29105 13.84965,31.29105 C13.78485,31.29105 13.71555,31.27485 13.63995,31.24185 C13.54455,31.20285 13.52475,31.16055 13.49685,31.10025 C13.46985,31.04295 13.44135,30.98235 13.35555,30.92235 C13.31775,30.89805 13.28415,30.88635 13.25025,30.88425 C13.14645,30.88965 13.11795,30.98445 13.10355,31.03485 L13.08795,31.09215 C13.03845,31.29405 12.97035,31.57365 12.58965,31.72305 L12.55965,31.73505 L12.53025,31.74645 L12.53535,31.79505 L12.54855,31.82475 C12.59265,31.92705 12.61515,32.03085 12.61515,32.13255 C12.61425,32.42535 12.43395,32.68005 12.13155,32.81415 C12.07665,32.83785 11.99805,32.85315 11.91045,32.85645" id="Fill-28"></path>
                    <path d="M22.47345,26.75331 C22.16535,26.48451 21.85005,26.20851 21.53145,25.92951 C21.06975,25.52361 20.65005,25.15221 20.26605,24.81201 C20.11935,24.69441 20.09595,24.65211 19.92885,24.51141 C18.81105,23.51481 18.05895,22.82031 17.65725,22.41141 C17.35095,22.37211 16.63815,22.19391 15.42705,21.71331 C19.47945,26.07891 25.98195,32.47491 26.85825,33.25461 L27.52125,33.05601 C27.45915,32.97321 22.55745,26.84271 22.47345,26.75331" id="Fill-30"></path>
                    <path d="M4.87377,1.53297 C5.08557,1.54107 5.26767,1.56597 5.45847,1.63497 C5.50077,1.71927 5.52507,1.81017 5.52507,1.90647 C5.52507,2.31717 5.09967,2.65077 4.57407,2.65077 C4.04907,2.65077 3.62337,2.31717 3.62337,1.90647 C3.62337,1.86597 3.63387,1.80807 3.64137,1.76997 C3.66627,1.75047 3.68637,1.74387 3.72537,1.72677 C3.82617,1.68297 3.93027,1.64907 4.03617,1.61997 C3.80427,1.98417 4.08207,2.46627 4.66857,2.40897 C5.18127,2.35917 5.25237,2.04177 5.25237,2.04177 C5.25237,2.04177 4.74417,2.33157 4.46907,2.13027 C4.90347,2.11557 5.01297,1.76217 4.87377,1.53297 L4.87377,1.53297 Z M19.68597,18.53547 C19.61277,18.54777 19.53897,18.55317 19.46487,18.55317 C18.78267,18.54357 18.08457,18.09147 17.60217,17.69367 C17.61387,17.78247 17.62377,17.88627 17.62377,17.98857 C17.61957,18.22347 17.58387,18.45747 17.35107,18.57687 C17.28447,18.60657 17.21037,18.62127 17.12367,18.62127 C16.48017,18.59907 15.45867,17.84427 14.90877,17.36337 C14.92047,17.44167 14.93037,17.53497 14.93037,17.62827 C14.94117,17.89377 14.83677,18.19887 14.51187,18.26007 C14.44047,18.27177 14.36847,18.27807 14.29677,18.27807 C13.38597,18.25647 12.45747,17.34747 11.82117,16.55787 L11.82117,16.58157 C11.82117,16.73517 11.80947,16.91367 11.73447,17.07687 C11.67147,17.22387 11.51007,17.37147 11.26227,17.37147 C9.89847,17.34927 8.63307,15.89517 8.00007,15.02967 L7.95777,14.97357 C7.90407,14.89317 7.92147,14.78547 7.99587,14.72697 C8.02737,14.70237 8.06727,14.68797 8.10807,14.68797 C8.16087,14.68797 8.21037,14.71077 8.25087,14.75697 C8.36517,14.88297 8.77557,15.32907 9.27237,15.76737 C9.77817,16.22277 10.51737,16.75527 10.95117,16.75527 C11.01027,16.75527 11.06007,16.74537 11.10777,16.72647 C11.29677,16.66857 11.39067,16.26987 11.41977,15.91587 L11.44647,15.85977 C11.45517,15.84717 11.46447,15.83367 11.49837,15.80967 C11.51007,15.80277 11.52267,15.79527 11.53767,15.79047 L11.56587,15.78567 L11.56857,15.78477 L11.63667,15.78927 L11.63997,15.78927 C11.64867,15.79047 11.65977,15.79257 11.68347,15.80667 C11.69487,15.81267 11.71167,15.82257 11.73537,15.84717 C11.87547,15.99687 12.24777,16.38537 12.68667,16.77327 C13.16637,17.20827 13.81857,17.67687 14.13387,17.67687 C14.16777,17.67597 14.19567,17.67057 14.21877,17.66007 C14.41227,17.57457 14.45247,17.36007 14.45367,17.06607 L14.45337,16.99167 L14.45277,16.92147 C14.45277,16.89987 14.45277,16.87647 14.45697,16.82667 C14.46657,16.77867 14.49717,16.73847 14.55747,16.69317 C14.61117,16.64907 14.66607,16.64727 14.68467,16.64727 C14.72817,16.64727 14.76807,16.66227 14.81877,16.70247 C15.11517,16.94127 15.42117,17.16957 15.70287,17.36367 C16.16307,17.68917 16.74807,18.01617 16.98747,18.01617 C17.01177,18.01617 17.02557,18.01257 17.03427,18.00897 C17.11827,17.98827 17.17287,17.82027 17.17077,17.59077 C17.17077,17.51517 17.16597,17.43897 17.16117,17.36967 C17.15847,17.32047 17.15547,17.27397 17.15397,17.22387 C17.15097,17.12547 17.22897,17.04207 17.33337,17.03667 C17.36217,17.03667 17.39037,17.04507 17.44827,17.07297 C17.54277,17.12997 17.87997,17.33067 18.26517,17.53167 C18.66897,17.74797 19.19637,17.97807 19.37757,17.97807 L19.40997,17.97717 C19.47987,17.94957 19.49427,17.93307 19.50357,17.79567 C19.50417,17.66607 19.45677,17.49747 19.41417,17.34867 C19.38477,17.24397 19.35687,17.14617 19.34667,17.06607 C19.33647,16.97457 19.39737,16.88967 19.48677,16.86897 C19.50087,16.86537 19.51377,16.86387 19.52787,16.86387 C19.60287,16.86387 19.67187,16.91187 19.69797,16.98327 L19.75257,17.13507 C19.76217,17.17377 19.78527,17.23767 19.81437,17.31657 C19.88997,17.52507 20.00457,17.83917 20.00697,18.09417 C20.02047,18.25647 19.92867,18.50067 19.68597,18.53547 L19.68597,18.53547 Z M7.87587,11.49087 C7.84677,11.39907 7.89417,11.30007 7.98417,11.26497 C8.00517,11.25687 8.02737,11.25207 8.04987,11.25207 C8.12127,11.25207 8.18637,11.29497 8.22327,11.37687 C8.39697,11.74017 8.60517,12.10557 8.81127,12.40617 C9.13257,12.88737 9.61347,13.40037 10.01727,13.40037 C10.05567,13.40037 10.09347,13.39587 10.13697,13.38657 C10.17057,13.38537 10.30857,13.24767 10.40997,13.02657 C10.50177,12.84267 10.56897,12.64437 10.60767,12.51447 L10.62267,12.50607 C10.40157,12.17487 10.27227,11.94687 10.27227,11.94687 C10.22487,11.86257 10.25037,11.75637 10.33107,11.70447 C10.36077,11.68557 10.39497,11.67567 10.43037,11.67567 C10.48797,11.67567 10.54317,11.70237 10.58127,11.75367 C10.68957,11.90067 11.08197,12.42027 11.56257,12.94527 C12.07287,13.51767 12.75357,14.09637 13.08627,14.09637 C13.09827,14.09637 13.11027,14.09577 13.13007,14.09487 C13.31577,14.09487 13.60107,13.51137 13.65567,13.25697 C13.40247,12.89697 13.23627,12.60237 13.20387,12.54387 C13.15767,12.46077 13.18347,12.35727 13.26297,12.30387 C13.29327,12.28527 13.32777,12.27447 13.36347,12.27447 C13.41987,12.27447 13.47237,12.30027 13.51587,12.35487 C13.64727,12.51897 13.99617,12.94467 14.40477,13.36617 C14.91987,13.91547 15.49617,14.34597 15.73317,14.34567 C15.75177,14.34567 15.76767,14.34237 15.78777,14.33547 C15.91827,14.30787 16.03737,13.86867 16.05927,13.57107 C16.07097,13.48077 16.14777,13.41207 16.25637,13.41207 L16.25967,13.41207 C16.35807,13.42287 16.43037,13.51137 16.42137,13.61247 C16.42317,13.64997 16.42827,13.70577 16.43487,13.77087 C16.44807,13.89747 16.46427,14.05407 16.46427,14.21097 C16.46427,14.34597 16.45437,14.50317 16.39287,14.64957 C16.34577,14.77557 16.21707,14.92767 16.01307,14.94297 C15.97467,14.94627 15.93537,14.94777 15.89667,14.94807 C15.10977,14.93877 14.44617,14.24847 14.01387,13.72917 C13.99137,13.87287 13.96227,13.99857 13.92747,14.11137 C13.79637,14.52717 13.58697,14.73297 13.28757,14.74107 L13.25487,14.74107 C12.43407,14.68257 11.68887,13.88697 11.20107,13.29447 C11.11167,13.18407 11.02857,13.07517 10.94967,12.96837 C10.92837,13.07547 10.89657,13.21347 10.85247,13.35507 C10.75287,13.64037 10.62957,13.99677 10.26327,14.02677 L10.22217,14.02497 L10.22097,14.02497 C8.93007,13.87017 8.21127,12.40587 7.89777,11.54637 L7.87587,11.49087 Z M5.23737,6.16107 L4.99767,6.23547 L4.97577,6.24927 L4.95897,6.23067 C4.94787,6.21837 4.68057,5.92347 4.61637,5.23467 C4.56147,4.64517 4.47177,4.24497 4.33347,3.97527 C4.18647,3.69297 3.99327,3.53997 3.68607,3.46287 C3.66057,3.45687 3.64197,3.44937 3.61587,3.43167 C3.59967,3.42057 3.57027,3.39957 3.56457,3.33897 C3.56457,3.28347 3.60687,3.24867 3.63027,3.24057 C3.65307,3.23007 3.67107,3.22797 3.68787,3.22707 C3.91767,3.21117 4.34517,3.20967 4.38747,3.20967 L4.41027,3.20967 L4.43367,3.21867 L4.44057,3.22227 C4.82727,3.44157 4.97667,3.88287 5.03547,4.97067 C5.05227,5.27217 5.09307,5.55927 5.15877,5.82507 C5.20587,6.01887 5.24877,6.12357 5.24877,6.12357 L5.25867,6.14787 L5.23737,6.16107 Z M17.02107,12.74997 C16.31997,11.94567 14.51757,9.88767 12.93177,8.14677 C11.80827,6.91167 11.10507,5.25087 10.61787,3.94107 L10.58817,3.86127 C10.25397,2.95437 9.74787,1.58337 8.68797,0.93927 C7.54257,0.24117 6.21957,0.14637 5.07657,0.14637 C4.87467,0.14637 4.67277,0.14967 4.46847,0.15447 C2.68767,0.20727 2.45157,0.92427 2.34417,1.25127 C2.34027,1.26477 2.33787,1.27857 2.33787,1.29177 C2.33937,1.35117 2.36937,1.40967 2.43177,1.46967 L2.48277,1.51227 C2.55207,1.56687 2.61357,1.60437 2.70207,1.70397 C2.80647,1.37547 3.19047,0.87717 4.54707,0.81537 C4.64037,0.81117 4.73817,0.80847 4.84077,0.80847 C6.13557,0.81117 7.86867,1.17837 8.61567,2.18487 L8.63277,2.20797 L8.61087,2.22657 L8.45907,2.34987 L8.43567,2.36757 L8.41707,2.34567 C7.95897,1.82517 7.06197,1.51407 6.45387,1.51407 C6.24537,1.51407 6.07197,1.55157 5.96697,1.61907 L5.93307,1.64067 L5.91807,1.65027 L5.90247,1.64217 L5.86827,1.62387 C5.57367,1.46997 5.14587,1.38267 4.68177,1.38267 C4.07937,1.38267 3.51777,1.53687 3.25017,1.77447 C3.21297,1.80747 3.14577,1.87347 3.11037,1.96047 L3.09447,1.98567 L3.09057,1.98957 L3.09267,2.03337 C3.09177,2.54877 3.60777,2.79777 4.10577,2.88687 L4.13277,2.89197 L4.13037,2.91957 L4.11057,3.06117 L4.09737,3.11217 L3.90207,3.11217 C3.82257,3.11007 3.71007,3.09507 3.62367,3.07437 L3.50157,3.06327 C3.43737,3.06867 3.40077,3.06867 3.32127,3.07437 C3.26607,3.09327 3.11787,3.14307 2.98797,3.22857 C2.83707,3.32697 2.63727,3.50007 2.53527,3.76797 C2.49507,3.87507 2.43507,4.01187 2.35647,4.08537 C2.35437,4.11147 2.34717,4.09557 2.34717,4.12647 C2.34717,4.29657 2.38227,4.48857 2.44257,4.65177 L2.46417,4.71117 C2.55297,4.95327 2.64537,5.20467 2.70627,5.47287 C2.74887,5.65887 2.79357,5.95917 2.79357,6.24477 C2.79357,6.42297 2.77617,6.57027 2.74227,6.67857 C2.71947,6.78447 2.67447,6.91947 2.61867,7.09047 C2.43987,7.63137 2.14047,8.53647 2.13987,9.77037 C2.13987,10.18077 2.17347,10.59957 2.23857,11.01837 C2.51217,12.78987 4.52097,18.11367 7.63977,20.16987 L7.72017,20.22237 C7.88967,20.33157 8.03037,20.41437 8.16417,20.48367 C8.29047,20.54937 8.43447,20.62257 8.59197,20.69817 C8.09757,19.65327 7.72377,18.97017 7.56957,18.75417 L7.55307,18.73077 L7.57527,18.71277 L7.81887,18.52767 L7.84077,18.51057 L7.85967,18.53187 C8.07837,18.77517 8.63397,19.67757 9.28287,20.93637 L9.60837,21.61617 C9.71037,21.82737 9.81267,22.04067 9.91437,22.26477 C10.56417,23.69037 11.31807,25.75197 11.54787,27.47397 C11.60067,27.32247 11.61927,27.23607 11.62077,27.23397 L11.66607,27.13317 L11.67867,27.10587 L11.70537,27.11847 L11.82477,27.17127 C12.03657,27.32697 12.23577,27.49677 12.42807,27.66027 C12.80007,27.97857 13.15137,28.27887 13.50237,28.38417 C13.57347,28.18587 13.62027,27.90447 13.61967,27.67317 C13.61967,27.57537 13.61127,27.48777 13.59597,27.42147 L13.58997,27.39627 L13.61307,27.38637 L13.80087,27.30717 L13.82367,27.29787 L13.83747,27.31827 L13.86717,27.36267 C14.01147,27.57987 14.12757,27.75087 14.47317,27.85767 C14.50557,27.68697 14.52387,27.42057 14.52327,27.11847 C14.52327,26.80977 14.50707,26.53707 14.50227,26.45787 L14.48517,26.20617 L14.48007,26.13237 L14.53467,26.18157 L14.72967,26.35437 C14.74647,26.36877 14.79987,26.41377 14.88117,26.46387 C14.94237,26.50017 15.03537,26.55117 15.14067,26.58327 C15.17127,26.45517 15.18687,26.31447 15.18687,26.16327 C15.18687,25.79097 15.09297,25.41657 15.01437,25.16787 C14.92857,24.89427 14.84307,24.71697 14.84247,24.71607 L14.83017,24.69147 L14.85237,24.67737 L15.02367,24.56397 L15.04617,24.54957 L15.06357,24.56997 C15.06417,24.57057 15.08157,24.59067 15.11817,24.62427 C15.15657,24.65907 15.21207,24.70707 15.28287,24.75447 C15.39567,24.82857 15.56997,24.91947 15.77277,24.93687 C15.77907,24.86247 15.78237,24.78867 15.78237,24.71427 C15.78237,24.58467 15.77157,24.44847 15.73857,24.29217 C15.72387,24.19227 15.70017,24.03957 15.67737,23.91537 C15.59637,23.58927 15.49137,23.33667 15.44997,23.24367 C15.41337,23.16177 15.39057,23.11797 15.39057,23.11797 L15.37917,23.09547 L15.39717,23.08107 L15.55017,22.94877 L15.56937,22.93347 L15.58827,22.94787 C15.58827,22.94787 15.78117,23.09157 16.02327,23.25027 C16.23897,23.39337 16.43457,23.54127 16.58037,23.61117 L16.58097,23.60907 C16.58367,23.59767 16.58457,23.59227 16.58787,23.59227 C15.79227,22.75797 15.04767,22.05177 14.40807,21.35007 C12.89337,20.67507 10.50477,19.34877 8.30277,17.36307 C4.79607,14.19867 4.09917,11.77257 4.09917,10.25247 C4.10487,8.76687 4.88397,7.86117 5.31057,7.67097 C5.44707,7.61307 5.61117,7.58487 5.81127,7.58487 C6.07377,7.58607 6.36777,7.63197 6.65217,7.67697 C6.94227,7.72257 7.24167,7.77087 7.51587,7.77087 C7.78767,7.77087 7.99857,7.72347 8.16057,7.62537 L8.28387,7.55187 L8.31987,7.53087 L8.32857,7.57137 L8.37567,7.94397 L8.38047,7.96587 L8.36037,7.97667 L8.29257,8.01387 C8.07537,8.13417 7.80897,8.19027 7.45227,8.19087 C7.23417,8.19087 7.01037,8.17047 6.79467,8.15037 C6.58737,8.13207 6.39837,8.07567 6.21297,8.07567 C5.99397,8.07567 5.93037,8.04177 5.80227,8.09727 C5.44647,8.24607 4.76757,8.97327 4.77177,10.31667 C4.77117,11.60787 5.37147,13.73127 8.66997,16.70817 C11.96397,19.68357 14.77167,20.75217 16.49427,21.35517 C18.21687,21.95787 18.06477,21.43647 18.06477,21.43647 L16.84467,20.65077 L16.82097,20.63397 L16.83507,20.60967 L17.00157,20.34747 L17.02557,20.32797 L17.05107,20.34117 C17.13057,20.38257 17.67567,20.65227 18.24447,20.97987 C19.35087,21.61707 19.73577,21.74787 19.89357,21.76917 C19.96677,21.77877 20.01717,21.77697 20.02227,21.78087 L19.00227,20.76327 L18.98157,20.74197 L19.00287,20.72097 L19.24827,20.48487 L19.26837,20.46417 L19.28967,20.48397 C19.29357,20.48787 19.67397,20.84307 20.16567,21.24177 C20.52657,21.53607 21.16257,22.09557 21.60867,22.26147 C21.75537,22.31697 21.84777,22.32867 21.89847,22.32867 C21.93087,22.32687 21.90477,22.33287 21.92007,22.33017 L20.66847,20.88867 L20.64657,20.86287 L20.66907,20.84307 L20.94927,20.61807 L20.97327,20.59977 L20.99277,20.62137 C21.04137,20.67537 21.29397,20.97507 21.64317,21.32607 C21.87207,21.55557 22.19397,21.90507 22.54377,22.19847 C22.67157,22.31247 22.74867,22.38957 22.83897,22.45437 C22.88607,22.48887 22.93287,22.52277 22.98147,22.56057 C23.11617,22.65957 23.22777,22.75107 23.34387,22.82067 C22.73217,21.41667 20.16087,16.96287 17.02107,12.74997 L17.02107,12.74997 Z" id="Fill-32"></path>
                </g>
                <g id="Group-36" transform="translate(49.800000, 7.530300)">
                    <mask id="mask-2" fill="white">
                        <use xlink:href="#path-1"></use>
                    </mask>
                    <g id="Clip-35"></g>
                    <path d="M1.52917005,5.27880924 L1.52917005,19.6669445 L4.6929477,19.6669445 L4.6929477,13.7222668 L10.7182313,13.7222668 L10.7182313,11.2637899 L4.6929477,11.2637899 L4.6929477,7.93880064 L11.645198,7.93880064 L11.645198,5.27880924 L1.52917005,5.27880924 Z M12.4589317,12.4527254 C12.4992348,11.7810071 12.6671618,11.2234892 12.9627179,10.7801551 C13.258274,10.336821 13.6344306,9.98081558 14.0911991,9.71212824 C14.5479676,9.4434409 15.0618244,9.25200404 15.6327851,9.13781192 C16.2037457,9.0236198 16.7780562,8.96652459 17.355734,8.96652459 C17.8796743,8.96652459 18.4103239,9.00346855 18.9476986,9.07735757 C19.4850733,9.15124659 19.9754203,9.29566387 20.4187544,9.51061374 C20.8620885,9.72556362 21.224811,10.0244738 21.5069327,10.4073533 C21.7890544,10.7902327 21.9301132,11.2973725 21.9301132,11.9287877 L21.9301132,17.3495278 C21.9301132,17.8197306 21.9569815,18.2697752 22.010719,18.6996749 C22.0644564,19.1295747 22.1584956,19.4519947 22.2928393,19.6669445 L19.3910305,19.6669445 C19.337293,19.5057321 19.293632,19.3411636 19.2600461,19.173234 C19.2264601,19.0053044 19.2029503,18.8340188 19.189516,18.659372 C18.7327475,19.1295749 18.1953809,19.458712 17.5774,19.6467931 C16.9594191,19.8348742 16.3280133,19.9289134 15.6831637,19.9289134 C15.1860921,19.9289134 14.7226134,19.8684596 14.2927136,19.7475503 C13.8628139,19.626641 13.4866572,19.4385627 13.1642324,19.1833097 C12.8418076,18.9280568 12.589917,18.6056368 12.4085531,18.2160401 C12.2271891,17.8264435 12.1365085,17.3629648 12.1365085,16.8255901 C12.1365085,16.2344779 12.2406233,15.7474894 12.448856,15.36461 C12.6570886,14.9817305 12.925772,14.6761032 13.254914,14.447719 C13.5840559,14.2193347 13.9602126,14.0480491 14.3833952,13.933857 C14.8065777,13.8196649 15.2331125,13.7289843 15.6630122,13.6618124 C16.092912,13.5946406 16.5160882,13.5409039 16.9325536,13.5006008 C17.349019,13.4602977 17.7184585,13.399844 18.0408833,13.3192378 C18.3633081,13.2386316 18.6185573,13.1210826 18.8066384,12.9665874 C18.9947196,12.8120922 19.0820416,12.5870699 19.0686073,12.2915138 C19.0686073,11.9825234 19.0182292,11.7373499 18.9174714,11.5559859 C18.8167136,11.374622 18.682372,11.2335632 18.5144424,11.1328055 C18.3465128,11.0320477 18.1517174,10.9648769 17.9300503,10.931291 C17.7083833,10.897705 17.4699269,10.8809123 17.2146739,10.8809123 C16.6504305,10.8809123 16.207103,11.0018198 15.8846782,11.2436384 C15.5622534,11.4854571 15.374175,11.888482 15.3204376,12.4527254 L12.4589317,12.4527254 Z M19.0686073,14.5686277 C18.947698,14.6761026 18.7965636,14.7600662 18.6151996,14.8205208 C18.4338357,14.8809755 18.2390403,14.9313536 18.0308076,14.9716567 C17.8225749,15.0119598 17.6042697,15.0455452 17.3758855,15.0724139 C17.1475012,15.0992827 16.9191204,15.1328681 16.6907362,15.1731712 C16.4757863,15.2134743 16.2641982,15.267211 16.0559655,15.3343828 C15.8477328,15.4015546 15.6663716,15.4922352 15.5118763,15.6064274 C15.3573811,15.7206195 15.2331151,15.8650368 15.1390745,16.0396835 C15.045034,16.2143303 14.9980144,16.435994 14.9980144,16.7046814 C14.9980144,16.9599344 15.045034,17.174881 15.1390745,17.3495278 C15.2331151,17.5241746 15.3607397,17.6618748 15.5219521,17.7626325 C15.6831645,17.8633903 15.8712428,17.9339196 16.0861927,17.9742227 C16.3011425,18.0145258 16.5228063,18.0346771 16.7511905,18.0346771 C17.3154339,18.0346771 17.7520443,17.9406379 18.0610348,17.7525568 C18.3700252,17.5644757 18.598406,17.3394534 18.7461841,17.0774832 C18.8939621,16.8155131 18.9846427,16.5501883 19.0182286,16.2815009 C19.0518146,16.0128136 19.0686073,15.7978669 19.0686073,15.6366545 L19.0686073,14.5686277 Z M24.1725847,5.27880924 L24.1725847,19.6669445 L27.0340906,19.6669445 L27.0340906,5.27880924 L24.1725847,5.27880924 Z M29.3753042,5.27880924 L32.2368101,5.27880924 L32.2368101,12.9968146 L35.8439197,9.24864489 L39.2293633,9.24864489 L35.2998305,13.0774204 L39.6726952,19.6669445 L36.2066458,19.6669445 L33.3451399,15.0119596 L32.2368101,16.0799864 L32.2368101,19.6669445 L29.3753042,19.6669445 L29.3753042,5.27880924 Z M47.1081954,13.3393892 C46.9738517,12.6139334 46.7353953,12.0631326 46.3928189,11.6869703 C46.0502425,11.3108081 45.5296686,11.1227297 44.8310815,11.1227297 C44.3743131,11.1227297 43.9947979,11.1999762 43.6925246,11.3544714 C43.3902513,11.5089666 43.1484364,11.7004035 42.9670724,11.9287877 C42.7857085,12.157172 42.6580839,12.398987 42.5841949,12.6542399 C42.5103058,12.9094929 42.4666448,13.1378737 42.4532104,13.3393892 L47.1081954,13.3393892 Z M42.4532104,15.1530197 C42.4935135,16.0799911 42.7286114,16.7516994 43.1585112,17.1681647 C43.5884109,17.5846301 44.2063826,17.7928597 45.0124446,17.7928597 C45.5901224,17.7928597 46.0871865,17.6484424 46.5036519,17.3596035 C46.9201173,17.0707646 47.1753664,16.7651374 47.269407,16.4427125 L49.7883382,16.4427125 C49.3853072,17.6921087 48.7673356,18.5854807 47.9344048,19.1228554 C47.1014741,19.6602301 46.0939116,19.9289134 44.9116873,19.9289134 C44.0921909,19.9289134 43.3533118,19.7979303 42.6950278,19.5359601 C42.0367438,19.27399 41.479226,18.9011919 41.0224575,18.4175546 C40.565689,17.9339174 40.2130422,17.3562483 39.9645064,16.6845299 C39.7159706,16.0128116 39.5917045,15.2739325 39.5917045,14.4678704 C39.5917045,13.6886771 39.7193291,12.9632322 39.9745821,12.2915138 C40.2298351,11.6197955 40.5925575,11.0387678 41.0627604,10.5484134 C41.5329632,10.058059 42.0938397,9.67182675 42.7454065,9.38970504 C43.3969733,9.10758333 44.1190597,8.96652459 44.9116873,8.96652459 C45.7983556,8.96652459 46.5708201,9.1378102 47.2291041,9.48038657 C47.8873881,9.82296293 48.4281132,10.2830831 48.8512958,10.8607609 C49.2744784,11.4384387 49.5801056,12.0967128 49.7681868,12.835603 C49.9562679,13.5744932 50.0234388,14.3469577 49.9697013,15.1530197 L42.4532104,15.1530197 Z M51.6600231,9.24864489 L51.6600231,19.6669445 L54.521529,19.6669445 L54.521529,14.2059016 C54.521529,13.1445866 54.6961731,12.3821977 55.0454667,11.918712 C55.3947602,11.4552263 55.9589952,11.223487 56.7381885,11.223487 C57.4233412,11.223487 57.9002541,11.4350751 58.1689414,11.8582577 C58.4376288,12.2814402 58.5719704,12.9229216 58.5719704,13.7827211 L58.5719704,19.6669445 L61.4334763,19.6669445 L61.4334763,13.2587834 C61.4334763,12.6139338 61.3763811,12.0261891 61.262189,11.4955316 C61.1479969,10.9648741 60.9498429,10.5148295 60.6677212,10.1453844 C60.3855995,9.77593932 59.9993673,9.48710476 59.5090129,9.27887207 C59.0186585,9.07063938 58.3906112,8.96652459 57.6248523,8.96652459 C57.0203058,8.96652459 56.4292025,9.10422479 55.8515247,9.37962932 C55.2738469,9.65503384 54.8036511,10.0950028 54.4409232,10.6995493 L54.3804688,10.6995493 L54.3804688,9.24864489 L51.6600231,9.24864489 Z M71.2448325,14.4678704 C71.2448325,14.0245363 71.1978129,13.6013601 71.1037723,13.1983291 C71.0097318,12.7952981 70.8619559,12.4392927 70.6604404,12.1303022 C70.4589249,11.8213118 70.2070343,11.5761383 69.9047611,11.3947743 C69.6024878,11.2134104 69.2364068,11.1227297 68.806507,11.1227297 C68.3900417,11.1227297 68.0273192,11.2134104 67.7183287,11.3947743 C67.4093383,11.5761383 67.1540891,11.8213118 66.9525736,12.1303022 C66.7510581,12.4392927 66.6032823,12.7952981 66.5092417,13.1983291 C66.4152012,13.6013601 66.3681816,14.0245363 66.3681816,14.4678704 C66.3681816,14.8977702 66.4152012,15.3142293 66.5092417,15.7172603 C66.6032823,16.1202914 66.7510581,16.4762967 66.9525736,16.7852872 C67.1540891,17.0942776 67.4093383,17.3394512 67.7183287,17.5208151 C68.0273192,17.7021791 68.3900417,17.7928597 68.806507,17.7928597 C69.2364068,17.7928597 69.6024878,17.7021791 69.9047611,17.5208151 C70.2070343,17.3394512 70.4589249,17.0942776 70.6604404,16.7852872 C70.8619559,16.4762967 71.0097318,16.1202914 71.1037723,15.7172603 C71.1978129,15.3142293 71.2448325,14.8977702 71.2448325,14.4678704 Z M63.6074329,5.27880924 L66.4689388,5.27880924 L66.4689388,10.5181862 L66.5092417,10.5181862 C66.8585353,9.98081155 67.3320896,9.58786221 67.929919,9.33932642 C68.5277483,9.09079062 69.1490785,8.96652459 69.7939281,8.96652459 C70.3178684,8.96652459 70.8350838,9.07399792 71.3455897,9.28894779 C71.8560957,9.50389767 72.3162159,9.83303472 72.7259641,10.2763688 C73.1357123,10.719703 73.4682079,11.2872965 73.7234608,11.9791664 C73.9787138,12.6710363 74.1063384,13.4938789 74.1063384,14.447719 C74.1063384,15.4015591 73.9787138,16.2244017 73.7234608,16.9162716 C73.4682079,17.6081415 73.1357123,18.175735 72.7259641,18.6190691 C72.3162159,19.0624033 71.8560957,19.3915403 71.3455897,19.6064902 C70.8350838,19.8214401 70.3178684,19.9289134 69.7939281,19.9289134 C69.0281692,19.9289134 68.3430267,19.8080059 67.7384802,19.5661873 C67.1339337,19.3243687 66.677172,18.9146266 66.3681816,18.3369488 L66.3278787,18.3369488 L66.3278787,19.6669445 L63.6074329,19.6669445 L63.6074329,5.27880924 Z M82.896016,13.3393892 C82.7616723,12.6139334 82.5232159,12.0631326 82.1806395,11.6869703 C81.8380632,11.3108081 81.3174893,11.1227297 80.6189022,11.1227297 C80.1621337,11.1227297 79.7826185,11.1999762 79.4803452,11.3544714 C79.178072,11.5089666 78.936257,11.7004035 78.754893,11.9287877 C78.5735291,12.157172 78.4459045,12.398987 78.3720155,12.6542399 C78.2981265,12.9094929 78.2544654,13.1378737 78.2410311,13.3393892 L82.896016,13.3393892 Z M78.2410311,15.1530197 C78.2813342,16.0799911 78.5164321,16.7516994 78.9463318,17.1681647 C79.3762316,17.5846301 79.9942032,17.7928597 80.8002652,17.7928597 C81.377943,17.7928597 81.8750071,17.6484424 82.2914725,17.3596035 C82.7079379,17.0707646 82.963187,16.7651374 83.0572276,16.4427125 L85.5761589,16.4427125 C85.1731279,17.6921087 84.5551562,18.5854807 83.7222255,19.1228554 C82.8892947,19.6602301 81.8817323,19.9289134 80.699508,19.9289134 C79.8800116,19.9289134 79.1411325,19.7979303 78.4828485,19.5359601 C77.8245645,19.27399 77.2670466,18.9011919 76.8102781,18.4175546 C76.3535096,17.9339174 76.0008628,17.3562483 75.752327,16.6845299 C75.5037912,16.0128116 75.3795252,15.2739325 75.3795252,14.4678704 C75.3795252,13.6886771 75.5071497,12.9632322 75.7624027,12.2915138 C76.0176557,11.6197955 76.3803782,11.0387678 76.850581,10.5484134 C77.3207839,10.058059 77.8816603,9.67182675 78.5332271,9.38970504 C79.1847939,9.10758333 79.9068803,8.96652459 80.699508,8.96652459 C81.5861762,8.96652459 82.3586407,9.1378102 83.0169247,9.48038657 C83.6752087,9.82296293 84.2159339,10.2830831 84.6391164,10.8607609 C85.062299,11.4384387 85.3679263,12.0967128 85.5560074,12.835603 C85.7440886,13.5744932 85.8112594,14.3469577 85.7575219,15.1530197 L78.2410311,15.1530197 Z M87.4478437,9.24864489 L87.4478437,19.6669445 L90.3093496,19.6669445 L90.3093496,14.9716567 C90.3093496,14.5014538 90.3563692,14.0648435 90.4504098,13.6618124 C90.5444503,13.2587814 90.7023018,12.9061346 90.9239688,12.6038613 C91.1456359,12.3015881 91.437829,12.0631316 91.8005569,11.8884848 C92.1632848,11.7138381 92.6066123,11.626516 93.1305526,11.626516 C93.3051994,11.626516 93.4865606,11.6365916 93.6746418,11.6567432 C93.8627229,11.6768947 94.0239329,11.7004045 94.1582766,11.7272732 L94.1582766,9.06728184 C93.9298923,9.00011001 93.7216628,8.96652459 93.5335816,8.96652459 C93.1708537,8.96652459 92.8215654,9.02026125 92.4857062,9.12773619 C92.149847,9.23521113 91.8341441,9.38634549 91.5385881,9.58114382 C91.243032,9.77594214 90.9810658,10.01104 90.7526815,10.2864446 C90.5242973,10.5618491 90.342936,10.8607593 90.2085924,11.1831841 L90.1682895,11.1831841 L90.1682895,9.24864489 L87.4478437,9.24864489 Z M99.6290104,17.2084676 C100.032041,17.2084676 100.388047,17.1278626 100.697037,16.9666502 C101.006028,16.8054378 101.261277,16.5904912 101.462792,16.3218038 C101.664308,16.0531165 101.815442,15.7474892 101.9162,15.4049129 C102.016958,15.0623365 102.067336,14.7029726 102.067336,14.3268103 C102.067336,13.8969105 102.027033,13.490527 101.946427,13.1076476 C101.865821,12.7247681 101.731479,12.3855554 101.543398,12.0899993 C101.355317,11.7944433 101.106785,11.5593454 100.797794,11.3846986 C100.488804,11.2100518 100.099213,11.1227297 99.6290104,11.1227297 C99.2259794,11.1227297 98.8800496,11.2033347 98.5912107,11.3645471 C98.3023718,11.5257595 98.0605568,11.7440647 97.8657585,12.0194693 C97.6709602,12.2948738 97.5299015,12.6105767 97.4425781,12.9665874 C97.3552547,13.3225981 97.3115936,13.6953962 97.3115936,14.0849929 C97.3115936,14.4611552 97.3485376,14.8339533 97.4224266,15.2033984 C97.4963156,15.5728435 97.6239402,15.9053391 97.8053042,16.2008951 C97.9866681,16.4964512 98.2251246,16.7382662 98.5206806,16.9263473 C98.8162367,17.1144285 99.1856763,17.2084676 99.6290104,17.2084676 Z M104.787782,19.0019467 C104.787782,19.4184121 104.730686,19.895325 104.616494,20.4326996 C104.502302,20.9700743 104.257129,21.470497 103.880966,21.9339827 C103.504804,22.3974683 102.96072,22.7904177 102.248699,23.1128425 C101.536677,23.4352673 100.582852,23.5964773 99.387193,23.5964773 C98.876687,23.5964773 98.3561131,23.532665 97.8254556,23.4050385 C97.2947981,23.277412 96.8111681,23.0792581 96.3745512,22.8105707 C95.9379343,22.5418834 95.5752118,22.1959536 95.2863729,21.7727711 C94.997534,21.3495885 94.8329655,20.8424487 94.7926624,20.2513366 L97.6340168,20.2513366 C97.7683605,20.7887113 98.0303267,21.1615094 98.4199234,21.3697421 C98.80952,21.5779748 99.2595646,21.6820895 99.7700705,21.6820895 C100.576133,21.6820895 101.163877,21.4402746 101.533322,20.9566373 C101.902768,20.4730001 102.08077,19.8617456 102.067336,19.1228554 L102.067336,17.7525568 L102.027033,17.7525568 C101.718042,18.3033658 101.278074,18.7097494 100.707113,18.9717195 C100.136152,19.2336897 99.5349734,19.3646728 98.9035582,19.3646728 C98.1243649,19.3646728 97.4526566,19.2269726 96.8884132,18.9515681 C96.3241698,18.6761635 95.8606911,18.3000069 95.4979631,17.8230869 C95.1352352,17.3461668 94.8699105,16.788649 94.7019809,16.1505165 C94.5340513,15.5123841 94.4500877,14.8373173 94.4500877,14.1252958 C94.4500877,13.4535774 94.5474854,12.8053789 94.7422838,12.1806809 C94.9370821,11.5559828 95.2225581,11.005182 95.5987204,10.528262 C95.9748827,10.0513419 96.4417199,9.67182675 96.9992462,9.38970504 C97.5567724,9.10758333 98.1982538,8.96652459 98.9237096,8.96652459 C99.6088624,8.96652459 100.210041,9.09414916 100.727264,9.34940214 C101.244488,9.60465512 101.677739,10.0345484 102.027033,10.6390949 L102.067336,10.6390949 L102.067336,9.24864489 L104.787782,9.24864489 L104.787782,19.0019467 Z M109.238852,16.2815009 L106.518406,16.2815009 C106.545275,16.980088 106.703126,17.5611157 106.991965,18.0246014 C107.280804,18.488087 107.650244,18.8608851 108.100295,19.1430068 C108.550346,19.4251286 109.064203,19.626641 109.641881,19.7475503 C110.219559,19.8684596 110.810662,19.9289134 111.415209,19.9289134 C112.006321,19.9289134 112.587348,19.8718182 113.158309,19.7576261 C113.72927,19.6434339 114.236409,19.44528 114.679744,19.1631583 C115.123078,18.8810366 115.482442,18.5082385 115.757846,18.0447528 C116.033251,17.5812671 116.170951,17.0069566 116.170951,16.3218038 C116.170951,15.8381666 116.076912,15.4317831 115.888831,15.1026411 C115.700749,14.7734991 115.452217,14.4980987 115.143227,14.2764317 C114.834236,14.0547646 114.48159,13.8767619 114.085276,13.7424182 C113.688962,13.6080746 113.282578,13.4938842 112.866113,13.3998436 C112.463082,13.305803 112.066774,13.2184809 111.677177,13.1378747 C111.287581,13.0572685 110.941651,12.9665879 110.639378,12.8658302 C110.337105,12.7650724 110.091931,12.6340893 109.90385,12.4728769 C109.715769,12.3116645 109.62173,12.1034349 109.62173,11.8481819 C109.62173,11.6332321 109.675466,11.4619465 109.782941,11.33432 C109.890416,11.2066935 110.021399,11.1092958 110.175894,11.0421239 C110.33039,10.9749521 110.501675,10.9312911 110.689756,10.9111395 C110.877838,10.890988 111.052482,10.8809123 111.213694,10.8809123 C111.7242,10.8809123 112.167528,10.97831 112.54369,11.1731084 C112.919852,11.3679067 113.128082,11.7407048 113.168385,12.2915138 L115.888831,12.2915138 C115.835093,11.6466642 115.670525,11.1126561 115.39512,10.6894736 C115.119715,10.266291 114.773786,9.92707832 114.35732,9.67182534 C113.940855,9.41657236 113.467301,9.23521113 112.936643,9.12773619 C112.405986,9.02026125 111.858543,8.96652459 111.2943,8.96652459 C110.730057,8.96652459 110.179256,9.01690271 109.641881,9.11766047 C109.104506,9.21841822 108.620876,9.39306237 108.190977,9.64159817 C107.761077,9.89013396 107.415147,10.2293466 107.153177,10.6592464 C106.891207,11.0891461 106.760224,11.6399469 106.760224,12.3116653 C106.760224,12.7684338 106.854263,13.154666 107.042344,13.4703737 C107.230425,13.7860813 107.478957,14.0480475 107.787948,14.2562802 C108.096938,14.4645129 108.449585,14.63244 108.845899,14.7600665 C109.242213,14.887693 109.648596,14.9985248 110.065061,15.0925654 C111.086073,15.3075153 111.882048,15.5224619 112.453008,15.7374118 C113.023969,15.9523617 113.309445,16.2747816 113.309445,16.7046814 C113.309445,16.9599344 113.248991,17.1715225 113.128082,17.3394521 C113.007173,17.5073817 112.856038,17.6417233 112.674674,17.7424811 C112.49331,17.8432388 112.291798,17.9171267 112.070131,17.964147 C111.848464,18.0111673 111.636876,18.0346771 111.43536,18.0346771 C111.153238,18.0346771 110.881197,18.0010917 110.619226,17.9339198 C110.357256,17.866748 110.125517,17.7626332 109.924001,17.6215724 C109.722486,17.4805115 109.557917,17.2991503 109.430291,17.0774832 C109.302664,16.8558162 109.238852,16.5904914 109.238852,16.2815009 Z" id="Falkenbergs" fill="#282828" mask="url(#mask-2)"></path>
                    <path d="M1.48886715,23.5964773 L1.48886715,37.9846126 L4.35037305,37.9846126 L4.35037305,34.3976545 L5.4587028,33.3296276 L8.3202087,37.9846126 L11.7862581,37.9846126 L7.41339345,31.3950884 L11.3429262,27.5663129 L7.9574826,27.5663129 L4.35037305,31.3144826 L4.35037305,23.5964773 L1.48886715,23.5964773 Z M14.7288001,32.7855385 C14.7288001,33.2020039 14.7691026,33.6083874 14.8497088,34.0047012 C14.930315,34.401015 15.0680152,34.7570204 15.2628135,35.0727281 C15.4576118,35.3884357 15.7162195,35.6403263 16.0386443,35.8284074 C16.3610692,36.0164886 16.7640941,36.1105277 17.2477313,36.1105277 C17.7313686,36.1105277 18.1377521,36.0164886 18.4668941,35.8284074 C18.7960361,35.6403263 19.0580023,35.3884357 19.2528006,35.0727281 C19.4475989,34.7570204 19.5852991,34.401015 19.6659053,34.0047012 C19.7465115,33.6083874 19.786814,33.2020039 19.786814,32.7855385 C19.786814,32.3690731 19.7465115,31.9593311 19.6659053,31.5563 C19.5852991,31.153269 19.4475989,30.7972636 19.2528006,30.4882732 C19.0580023,30.1792827 18.7960361,29.9273921 18.4668941,29.7325938 C18.1377521,29.5377955 17.7313686,29.4403978 17.2477313,29.4403978 C16.7640941,29.4403978 16.3610692,29.5377955 16.0386443,29.7325938 C15.7162195,29.9273921 15.4576118,30.1792827 15.2628135,30.4882732 C15.0680152,30.7972636 14.930315,31.153269 14.8497088,31.5563 C14.7691026,31.9593311 14.7288001,32.3690731 14.7288001,32.7855385 Z M11.8672942,32.7855385 C11.8672942,31.9526077 11.9949188,31.1969359 12.2501717,30.5185004 C12.5054247,29.8400648 12.8681472,29.2623957 13.33835,28.7854757 C13.8085529,28.3085556 14.3727878,27.9391161 15.0310718,27.6771459 C15.6893558,27.4151758 16.4282349,27.2841926 17.2477313,27.2841926 C18.0672277,27.2841926 18.8094654,27.4151758 19.4744666,27.6771459 C20.1394677,27.9391161 20.7070612,28.3085556 21.1772641,28.7854757 C21.6474669,29.2623957 22.0101894,29.8400648 22.2654424,30.5185004 C22.5206954,31.1969359 22.6483199,31.9526077 22.6483199,32.7855385 C22.6483199,33.6184693 22.5206954,34.3707825 22.2654424,35.0425009 C22.0101894,35.7142192 21.6474669,36.2885298 21.1772641,36.7654499 C20.7070612,37.2423699 20.1394677,37.6084509 19.4744666,37.8637039 C18.8094654,38.1189569 18.0672277,38.2465814 17.2477313,38.2465814 C16.4282349,38.2465814 15.6893558,38.1189569 15.0310718,37.8637039 C14.3727878,37.6084509 13.8085529,37.2423699 13.33835,36.7654499 C12.8681472,36.2885298 12.5054247,35.7142192 12.2501717,35.0425009 C11.9949188,34.3707825 11.8672942,33.6184693 11.8672942,32.7855385 Z M24.5228351,27.5663129 L24.5228351,37.9846126 L27.384341,37.9846126 L27.384341,31.9391776 C27.384341,31.4286716 27.4582289,31.015571 27.6060069,30.6998634 C27.753785,30.3841558 27.9317877,30.1423408 28.1400204,29.9744112 C28.348253,29.8064816 28.5631997,29.6922912 28.7848668,29.6318366 C29.0065338,29.5713819 29.1845365,29.541155 29.3188802,29.541155 C29.7756487,29.541155 30.1215784,29.6184015 30.3566799,29.7728967 C30.5917813,29.9273919 30.7597084,30.132263 30.8604661,30.3875159 C30.9612239,30.6427689 31.0183191,30.9215279 31.0317534,31.2238011 C31.0451878,31.5260744 31.0519049,31.8317016 31.0519049,32.1406921 L31.0519049,37.9846126 L33.9134108,37.9846126 L33.9134108,32.180995 C33.9134108,31.8585702 33.9369206,31.5395087 33.9839409,31.2238011 C34.0309611,30.9080935 34.1250003,30.625976 34.2660612,30.3774402 C34.407122,30.1289044 34.6019174,29.9273919 34.8504532,29.7728967 C35.098989,29.6184015 35.4247675,29.541155 35.8277985,29.541155 C36.2308295,29.541155 36.549891,29.6083259 36.7849924,29.7426695 C37.0200938,29.8770132 37.1980965,30.0583744 37.3190058,30.2867587 C37.4399151,30.5151429 37.513803,30.7838262 37.5406718,31.0928167 C37.5675405,31.4018071 37.5809747,31.7309442 37.5809747,32.0802377 L37.5809747,37.9846126 L40.4424806,37.9846126 L40.4424806,31.0122109 C40.4424806,30.3404925 40.3484414,29.766182 40.1603603,29.2892619 C39.9722791,28.8123419 39.7103129,28.4261096 39.3744537,28.1305535 C39.0385946,27.8349975 38.6355696,27.6200508 38.1653667,27.4857071 C37.6951639,27.3513635 37.1846656,27.2841926 36.6338565,27.2841926 C35.9084007,27.2841926 35.2803535,27.4588368 34.749696,27.8081303 C34.2190385,28.1574239 33.7992208,28.5604489 33.4902303,29.0172173 C33.2081086,28.3723677 32.795008,27.9223232 32.2509162,27.6670702 C31.7068243,27.4118172 31.1056454,27.2841926 30.4473614,27.2841926 C29.7622087,27.2841926 29.1543127,27.4319685 28.6236552,27.7275245 C28.0929977,28.0230806 27.6395946,28.4395398 27.2634323,28.9769144 L27.2231294,28.9769144 L27.2231294,27.5663129 L24.5228351,27.5663129 Z M42.7764488,27.5663129 L42.7764488,37.9846126 L45.6379547,37.9846126 L45.6379547,31.9391776 C45.6379547,31.4286716 45.7118426,31.015571 45.8596206,30.6998634 C46.0073987,30.3841558 46.1854014,30.1423408 46.3936341,29.9744112 C46.6018667,29.8064816 46.8168134,29.6922912 47.0384805,29.6318366 C47.2601475,29.5713819 47.4381502,29.541155 47.5724939,29.541155 C48.0292624,29.541155 48.3751921,29.6184015 48.6102936,29.7728967 C48.845395,29.9273919 49.0133221,30.132263 49.1140798,30.3875159 C49.2148376,30.6427689 49.2719328,30.9215279 49.2853671,31.2238011 C49.2988015,31.5260744 49.3055186,31.8317016 49.3055186,32.1406921 L49.3055186,37.9846126 L52.1670245,37.9846126 L52.1670245,32.180995 C52.1670245,31.8585702 52.1905343,31.5395087 52.2375546,31.2238011 C52.2845748,30.9080935 52.378614,30.625976 52.5196749,30.3774402 C52.6607357,30.1289044 52.8555311,29.9273919 53.1040669,29.7728967 C53.3526027,29.6184015 53.6783812,29.541155 54.0814122,29.541155 C54.4844432,29.541155 54.8035047,29.6083259 55.0386061,29.7426695 C55.2737075,29.8770132 55.4517102,30.0583744 55.5726195,30.2867587 C55.6935288,30.5151429 55.7674167,30.7838262 55.7942855,31.0928167 C55.8211542,31.4018071 55.8345884,31.7309442 55.8345884,32.0802377 L55.8345884,37.9846126 L58.6960943,37.9846126 L58.6960943,31.0122109 C58.6960943,30.3404925 58.6020551,29.766182 58.413974,29.2892619 C58.2258928,28.8123419 57.9639266,28.4261096 57.6280674,28.1305535 C57.2922083,27.8349975 56.8891833,27.6200508 56.4189804,27.4857071 C55.9487776,27.3513635 55.4382793,27.2841926 54.8874702,27.2841926 C54.1620144,27.2841926 53.5339672,27.4588368 53.0033097,27.8081303 C52.4726522,28.1574239 52.0528345,28.5604489 51.743844,29.0172173 C51.4617223,28.3723677 51.0486217,27.9223232 50.5045299,27.6670702 C49.960438,27.4118172 49.3592591,27.2841926 48.7009751,27.2841926 C48.0158224,27.2841926 47.4079264,27.4319685 46.8772689,27.7275245 C46.3466114,28.0230806 45.8932083,28.4395398 45.517046,28.9769144 L45.4767431,28.9769144 L45.4767431,27.5663129 L42.7764488,27.5663129 Z M70.7108191,37.9846126 L70.7108191,27.5663129 L67.8493132,27.5663129 L67.8493132,33.0273559 C67.8493132,34.0886709 67.674669,34.8510598 67.3253755,35.3145455 C66.9760819,35.7780311 66.411847,36.0097705 65.6326537,36.0097705 C64.9475009,36.0097705 64.4705881,35.7981824 64.2019007,35.3749998 C63.9332134,34.9518173 63.7988717,34.3103358 63.7988717,33.4505363 L63.7988717,27.5663129 L60.9373658,27.5663129 L60.9373658,33.974474 C60.9373658,34.6193237 60.994461,35.2070684 61.1086531,35.7377259 C61.2228453,36.2683834 61.4209992,36.718428 61.7031209,37.0878731 C61.9852426,37.4573182 62.3714749,37.7427942 62.8618293,37.9443097 C63.3521837,38.1458252 63.9802309,38.2465814 64.7459899,38.2465814 C65.3505364,38.2465814 65.9416397,38.1122398 66.5193175,37.8435524 C67.0969952,37.5748651 67.567191,37.1382547 67.929919,36.5337082 L67.9903733,36.5337082 L67.9903733,37.9846126 L70.7108191,37.9846126 Z M72.9883632,27.5663129 L72.9883632,37.9846126 L75.8498691,37.9846126 L75.8498691,32.5235696 C75.8498691,31.4622546 76.0245133,30.6998657 76.3738068,30.2363801 C76.7231003,29.7728944 77.2873353,29.541155 78.0665286,29.541155 C78.7516813,29.541155 79.2285942,29.7527432 79.4972815,30.1759257 C79.7659689,30.5991083 79.9003106,31.2405897 79.9003106,32.1003892 L79.9003106,37.9846126 L82.7618165,37.9846126 L82.7618165,31.5764515 C82.7618165,30.9316019 82.7047212,30.3438571 82.5905291,29.8131996 C82.476337,29.2825421 82.2781831,28.8324976 81.9960613,28.4630525 C81.7139396,28.0936074 81.3277074,27.8047728 80.837353,27.5965401 C80.3469986,27.3883074 79.7189513,27.2841926 78.9531924,27.2841926 C78.3486459,27.2841926 77.7575426,27.4218928 77.1798648,27.6972974 C76.602187,27.9727019 76.1319912,28.4126708 75.7692633,29.0172173 L75.708809,29.0172173 L75.708809,27.5663129 L72.9883632,27.5663129 Z" id="kommun" fill="#282828" mask="url(#mask-2)"></path>
                </g>
            </g>
        </g>
    </g>
</svg>