<svg height="59" viewBox="0 0 166 59" width="166" xmlns="http://www.w3.org/2000/svg" xmlns:xlink="http://www.w3.org/1999/xlink"><mask id="a" fill="#fff"><path d="m115.7229 42.4846126v-42.31766806h-115.58418v42.31766806z" fill="#fff" fill-rule="evenodd"/></mask><g fill="#fff" fill-rule="evenodd"><path d="m38.75223 51.46113c.3822-.7407.5289-1.5975.5976-2.7213l.0054-33.6498h.003-36.0618l.0054 33.6498c.0006 1.1238.1788 1.9899.5613 2.7303l.0546-.0225c1.3527-.4131 2.5713-.6759 4.1112-.6759 1.0866 0 2.1429.1296 3.1545.3729.6672-.5889 1.3971-1.0758 2.2266-1.4889-.0108.4656.0657.9615.069.9828.0045.0291.0261.0531.0546.0606s.0591-.0021.0777-.0252c.204-.2523.5415-.6339.7419-.7911-.0399.4413.1095.8238.1167.8418.0102.0255.0336.0432.0609.0465.0261.003.0543-.0087.0702-.0312l.2136-.3054c.633-.7752 1.1568-.9303 1.4301-.9981.0075.006.0171.0132.0282.0216l.0183.0141c.0939.0798.2613.1167.5271.1167.3537-.0009.7503-.1758.8601-.4713.0783.0183.147.0195.2445.0195.1794 0 .5904-.0342.7542-.3333.0795.0375.132.0486.2292.0486.0033 0 .0063 0 .0087.0003-.0012.0129-.0033.0252-.0054.0372-.0075.0477-.0165.1008.0156.1626-.069.2415-.1539.711-.141.9636.0459.915.534 1.5963.5547 1.6251.0141.0192.0369.0306.0606.0306.003 0 .006-.0003.009-.0006.027-.0033.0501-.0207.0606-.0459.2961-.7278.6963-1.5372.8175-1.575.1485.0453.3462.0507.4248.051.1782-.0003.456-.0765.5772-.1314.4494-.2028.6093-.675.6096-1.0173 0-.057-.0141-.102-.0279-.1458.1218-.0756.2013-.1611.249-.3246.1167.0789.2451.111.4326.114.0627 0 .1221-.0066.1725-.0192.1737.1446.456.1626.5757.1632.201-.0015.342-.0114.4584-.0558.1563.2193.5616.3906.8385.3948.1479 0 .3648-.0597.48-.1161.027-.0012.0906-.0036.1863-.0036.2715.0006.6525.0669 1.1892.5781l.2496.2397c.0174.0165.0414.024.0657.0195.0237-.0042.0438-.0201.054-.0417.0084-.0183.1995-.4386.1947-1.0326 1.8681.5235 3.4665 1.3419 4.7754 2.5299 1.0086-.2418 2.0619-.3696 3.144-.3696.4869 0 .9726.0342 1.4532.0906.0222.0201.0435.0396.0603.0546l.0168.0144c.0111.0096.0246.0156.039.0177.0009 0 .0267.0018.0276.0021l.3789-.0165c.7278.1146 1.1595.2295 1.7904.3972zm-17.4903 6.7827c-.2232-.0054-.4095-.0015-.4848-.2022-.0555-.1413-.2115-.2745-.4761-.402-.3114-.1506-.7791-.2883-1.4304-.4239-.7173-.1485-1.6065-.2841-2.6628-.4464-.8343-.1272-1.7721-.2721-2.8113-.4497-.5763-.0981-1.1412-.1893-1.6917-.2778-1.6161-.2595-3.0678-.5409-4.392-.9123-2.0967-.5922-3.3927-1.335-4.2045-2.6022-.6288-.9849-1.0062-2.0622-1.0077-3.5778l-.0075-36.7362c0-.1401.0561-.2769.1536-.3756.0867-.087.2013-.1413.3222-.1533h.2958v-3.4656l-.0261-.03-1.794-1.7802c-.1362-.1299-.2154-.3603-.2154-.5514l-.0006-.0081v-1.6353h-.1245c-.0444 0-.0888-.0045-.1323-.0126-.1413-.0273-.2676-.0942-.3672-.1944-.1299-.1308-.2046-.3114-.2046-.4956v-2.5398c0-.183.0741-.363.2034-.4941.1329-.1329.3138-.2079.4989-.2079h1.2228c.0459 0 .0924.0042.1377.0135.1401.0276.2676.0963.3666.1983.0195.0195.0378.0405.0546.0624.0186-.0243.039-.0474.0609-.0693.1275-.129.309-.2049.4953-.2049h1.4604l.0288.003c.1734.0141.3273.0858.4449.2046.0216.0216.0417.0444.0603.0684.0183-.0243.0381-.0471.0597-.0687.1305-.1317.312-.2073.498-.2073h1.2255c.0465 0 .0939.0045.1392.0138.1347.0258.261.093.3606.1932.1302.1311.2043.3114.2043.495v2.5398c0 .1884-.0729.3651-.2061.4974-.135.1332-.3105.2052-.4962.2052h-.0765v.9744h2.8857v-.9744h-.1248c-.0444 0-.0888-.0045-.132-.0126-.1413-.0273-.2676-.0942-.3672-.1944-.1302-.1308-.2049-.3114-.2049-.4956v-2.5398c0-.183.0741-.363.2034-.4941.1329-.1329.3141-.2079.4989-.2079h1.2228c.0459 0 .0924.0042.138.0135.1398.0276.2673.0963.3663.1983.0195.0195.0378.0405.0546.0624.0189-.0243.039-.0474.0609-.0693.1275-.129.3093-.2049.4956-.2049h1.4601l.0288.003c.1734.0141.3273.0858.4449.2046.0216.0216.042.0444.0603.0684.0183-.0243.0384-.0471.0597-.0687.1305-.1317.3123-.2073.4983-.2073h1.2255c.0465 0 .0936.0045.1389.0138.1347.0258.2613.093.3609.1932.1299.1311.2043.3114.2043.495v2.5398c0 .1884-.0732.3651-.2061.4974-.1353.1332-.3108.2052-.4962.2052h-.0768v.9744h2.8857v-.9744h-.1245c-.0444 0-.0888-.0045-.1323-.0126-.1413-.0273-.2676-.0942-.3672-.1944-.1299-.1308-.2046-.3114-.2046-.4956v-2.5398c0-.183.0741-.363.2034-.4941.1329-.1329.3138-.2079.4986-.2079h1.2231c.0459 0 .0924.0042.1377.0135.1401.0276.2676.0963.3666.1983.0195.0195.0378.0405.0546.0624.0186-.0243.039-.0474.0609-.0693.1275-.129.309-.2049.4953-.2049h1.4604l.0288.003c.1734.0141.3273.0858.4449.2046.0216.0216.0417.0444.0603.0684.0183-.0243.0381-.0471.0597-.0687.1305-.1317.312-.2073.498-.2073h1.2255c.0465 0 .0939.0045.1392.0138.1347.0258.261.093.3606.1932.1302.1311.2043.3114.2043.495v2.5398c0 .1884-.0729.3651-.2061.4974-.135.1332-.3105.2052-.4962.2052h-.0765v.9744h2.8854v-.9744h-.1245c-.0444 0-.0888-.0045-.1323-.0126-.1413-.0273-.2676-.0942-.3672-.1944-.1299-.1308-.2046-.3114-.2046-.4956v-2.5398c0-.183.0741-.363.2034-.4941.1329-.1329.3138-.2079.4989-.2079h1.2228c.0459 0 .0924.0042.1377.0135.1401.0276.2676.0963.3666.1983.0195.0195.0378.0405.0546.0624.0186-.0243.039-.0474.0609-.0693.1275-.129.309-.2049.4953-.2049h1.4604l.0288.003c.1734.0141.3273.0858.4449.2046.0216.0216.0417.0444.0603.0684.0183-.0243.0381-.0471.0597-.0687.1305-.1317.312-.2073.498-.2073h1.2255c.0465 0 .0939.0045.1392.0138.1347.0258.261.093.3606.1932.1302.1311.2043.3114.2043.495v2.5398c0 .1884-.0729.3651-.2061.4974-.135.1332-.3105.2052-.4962.2052h-.0765v.9744h2.8857v-.9744h-.1248c-.0444 0-.0888-.0045-.132-.0126-.1413-.0273-.2676-.0942-.3672-.1944-.1302-.1308-.2049-.3114-.2049-.4956v-2.5398c0-.183.0741-.363.2034-.4941.1329-.1329.3141-.2079.4989-.2079h1.2228c.0459 0 .0924.0042.138.0135.1398.0276.2673.0963.3663.1983.0195.0195.0378.0405.0546.0624.0189-.0243.039-.0474.0609-.0693.1275-.129.3093-.2049.4956-.2049h1.4601l.0288.003c.1734.0141.3273.0858.4449.2046.0216.0216.042.0444.0603.0684.0183-.0243.0384-.0471.0597-.0687.1305-.1317.3123-.2073.4983-.2073h1.2255c.0465 0 .0936.0045.1389.0138.1347.0258.2613.093.3609.1932.1299.1311.2043.3114.2043.495v2.5398c0 .1884-.0732.3651-.2061.4974-.1353.1332-.3108.2052-.4962.2052h-.0768v1.638l.0003.0054c0 .1911-.0792.4215-.2154.5514l-1.8516 1.8375-.0153.0183v3.4776l.246.0021c.1092.0177.2127.0708.2907.1509.096.0954.1527.2331.1527.3738h.0039l-.0075 36.6807c-.0018 1.5156-.3792 2.5929-1.0077 3.5778-.8118 1.2672-2.1081 2.01-4.2048 2.6022-1.3239.3714-2.7759.6528-4.392.9123-.5505.0885-1.1151.1797-1.6917.2778-1.0389.1776-1.9767.3225-2.811.4497-1.0566.1623-1.9458.2979-2.6628.4464-.6516.1356-1.1193.2733-1.4304.4239-.2649.1275-.4209.2607-.4764.402-.0753.2007-.2616.1968-.4845.2022h-.0066z" transform="translate(0 .0303)"/><g transform="translate(8.7 16.8303)"><path d="m2.09205 4.01073c-.3075-.0141-.5004-.0573-.6507-.0792-.4632-.066-.759-.1605-.8559-.2958.0288-.0219.0576-.0462.0759-.0477.0102 0 .0354.0084.0636.0183l.0609.0192c.0546.0174.1218.033.2133.033.1383 0 .2892-.066.3801-.1695.0141 0 .0279.0006.0423.0006.2202 0 .3063-.0348.5184-.1125.0798-.0297.174-.0642.2976-.1056.1482-.0492.1923-.0744.4089-.0975l.0978-.0081c-.2484.1092-.3336.303-.4542.5436-.0771.153-.1704.2694-.198.3012"/><path d="m6.30801 31.58817c-.0018-.0051-.0054-.009-.006-.0141-.0222-.1653-.03-.2841-.0291-.4326-.0009-.0687.0069-.135.0198-.1857.072-.2574.1692-.4878.5673-.4899.0441 0 .0924.003.1452.0099.0324.0036.0684.006.1062.006.4917-.0012 1.4301-.3306 2.184-.5964l.1698-.0597c.6381-.2262.7713-.8838.7713-1.3959 0-.1362-.009-.276-.0282-.4164.0993-.0972.1698-.1998.2121-.2676.0897.1335.3042.3234.7839.5598-.0033.0222.0117.0735.0267.123.015.054.0309.1074.0342.1419l.0525.2034c-.0096.1623-.0312.339-.0525.4428-.0669.3345-.1812.5214-.4029.6042-.6723.2526-2.0433.6858-2.538.7398-.1053-.0147-.2013-.0216-.2874-.0216-.5196 0-.669.252-.7776.51-.3384.0738-.6966.2472-.9513.5391"/><path d="m23.74902 27.76173c1.4685 1.8666 4.0125 5.0571 4.1913 5.3067l.09.1254-.6456.1533c.1245.1167.2196.2037.2793.2565l1.0539-.0363c-.1947-.273-2.367-3.0957-3.2907-4.2951-.0231-.0297-.8694-.8097-1.6782-1.5105"/><path d="m16.87539 24.14823s-.6444-.3306-.8826-.4764c.0516.135.081.234.1263.4341.7746.3669 1.4049.7095 1.9734 1.0284-.4116-.4245-.774-.7014-1.1724-1.1175z"/><path d="m11.1228 27.80097c-.2496-.1473-.3963-.2787-.4764-.3651-.0666-.0705-.1029-.1245-.1218-.1569-.0108-.0177-.0168-.0294-.0204-.0372l-.0081-.0204-.0261-.0051-.0729.0063-.1275.0126-.0234.0024-.003.0237c-.0006.0018-.0039.0261-.015.0705-.0237.0924-.0804.2607-.204.4158-.0378-1.2954-1.2288-5.0394-2.0025-6.8454.0666.0396.1338.0774.2016.1116.1806.0948.4014.2025.6468.3183.5589 1.1535 1.8201 4.1604 2.2527 6.4689"/><path d="m25.6449609 29.00742c.0005991-.0264-.2949009-.5274-.9633009-1.8411-.4014-.3381-4.2876-4.032-5.0025-4.821-.3651-.0876-.9174-.4494-1.1874-.6366-.0123.0894-.042.1956-.1083.297-.0606.0948-.1119.1359-.2454.189 0 0 7.5069 6.8136 7.5069009 6.8127"/><path d="m5.84349 32.50665c.069-.3006.1701-.5685.3273-.7806-.0336-.0393-.0801-.3654-.0801-.4842.0009-.0495.0045-.0966.0093-.144-.003-.0093-.0051-.0147-.0063-.0174-.0663.0315-1.0632.5217-1.0539 2.1648.2685-.3741.5313-.6075.8037-.7386"/><path d="m16.46787 31.67901c.0294.0006.0633.0018.0999.0039.0168.0012.0336.0024.0525.0039.018.0018.0378.0039.0576.0063.0552.0054.1131.0147.1755.0273.0021.0006.0033.0009.0057.0015.0369.0072.0741.0165.1131.0258.0045.0015.0084.003.0126.0033.282.0756.6078.2268.8799.5319.0915-1.1868-.846-1.5555-1.2045-1.6497.0147.0894.0267.183.0342.2793.0381.4752-.2088.7422-.2265.7665"/><path d="m7.20303 31.34853c-.5034.126-1.1703.5481-1.2063 1.9074.2745-.4434.6813-.705 1.0209-.8562.2556-.1125.4128-.1512.5043-.1698-.0153-.1026-.0156-.2283-.0252-.3444-.0204-.2562-.2499-.4683-.2937-.537"/><path d="m10.66548 33.82002c-.0261-.2598-.0882-.5196-.0882-.7554-.0009-.2736.0276-.5256.084-.7506.0234-.0954.0516-.1791.0819-.2553.165-.4152.3924-.5388.3945-.5403.0132-.0024.0306-.0045.0546-.0048.108 0 .4647.036.6342.4956.0465.1257.0705.2412.0705.3423.0006.1236-.0351.2298-.1056.3159-.0753.0924-.1893.1563-.3207.18-.0207.0045-.0378.0072-.0558.009-.3666.0333-.5172.3339-.7494.9636"/><path d="m24.41217 26.44425c-.1374-.1317-.1605-.1551-.3381-.3384-.3474-.3582-.8874-.9249-1.7085-1.737-.561-.5571-1.2081-1.1304-1.5822-1.5648-.1776-.2058-.3609-.3657-.4758-.5043.0258-.009.0015.0075.0216-.0129.0489-.0516.0828-.1137.0984-.1848.3585.3372.8688.7152 1.2759.807.1461.0309.2793.0459.3948.0459.2847 0 .4521-.0909.5484-.1815l.0054.0213c.7683 1.6008 1.2777 2.6808 1.743 3.6093z"/><path d="m2.1858 1.84995c-.0723.0048-.225.0534-.2376.1725-.0003.0348.0162.0672.0474.0927.0465.0387.0912.0588.1362.0588.0549 0 .0972-.0249.1434-.0507.0546-.0312.0822-.0744.0822-.12-.0015-.0699-.0588-.1305-.1437-.15l-.0036-.0015zm-1.8987 2.3061c-.1332-.3765-.3021-1.1082.1188-1.6764.3516-.4737.9351-.7845 1.3638-.9615.1191-.0459.2274-.0834.3036-.1101.0834.1629.1626.2493.2145.2934.1278.1026.2793.2235.2754.3564-.0081.0441-.1191.1365-.1497.1449l-.1758.0816-.0747.0345.0795.0219.1827.0495c.0396.0099.0786.0159.1161.0159.0966-.0039.1812-.0357.261-.1008 0 .0081-.0003.0162-.0003.024.0009.2652.0921.4365.3675.5748-.0579-.0015-.1191-.003-.1833-.003l-.0966.0006c-.0819-.0045-.1557-.0147-.2157-.0315-.1029-.0393-.1101-.0534-.1641-.1566-.075-.1377-.327-.3339-.5043-.3588-.1008-.012-.1626-.0747-.1842-.1854-.0291-.1365-.168-.3612-.2814-.4206l-.0255-.0126-.0141.0228-.0477.0771-.0195.0306.0345.0138c.0513.0192.1956.2295.2094.3192l.0078.0453c.0201.1125.0519.3012.2349.3291.1419.0147.3285.1098.3642.1854.0363.0699.081.1251.2208.1938-.1572.0189-.3036.0471-.4359.0858-.2466.0711-.3543.1281-.4416.1734-.1035.0549-.1665.0876-.4014.1038-.1332.1143-.2319.1401-.3624.1401-.063 0-.1197-.0117-.1668-.0231l-.0327-.0084c-.0366-.0093-.0684-.0171-.0951-.0171-.153.0315-.2211.2526-.2538.5169-.0162.0813-.024.1644-.0279.2313z"/><path d="m11.91045 32.85645c.1071-.1437.2409-.3432.2436-.5445 0-.2172-.0648-.4668-.1503-.6003-.3339-.5253-.6225-.4857-.8442-.4599-.0861.0243-.3003.1716-.522.5379.0309-.435.4107-.8253.8403-.8259.0402 0 .0801.0024.1212.0105l.0612-.0126c.0525-.0846.0912-.1341.1299-.1827.1068-.1356.2127-.2685.2412-.576l.0018-.0123-.0102-.0285-.1131-.0336-.0294.0066c-.1362.3111-.1809.3831-.2844.4938l-.0795.0891c-.0252-.0162-.0378-.0129-.087-.0129-.6147.0021-.9513.42-1.0539.7776-.0807.0189-.1629.033-.2358.033-.1032 0-.2007-.027-.2811-.0756l-.0351-.0222-.0345-.0198-.0327.0471-.0105.0393c-.0507.1872-.2607.2997-.5604.3006-.2478 0-.4632-.0822-.5205-.1578l-.0069-.0096-.0255-.0144-.0762.0333-.0108.0036-.0195.021c.0093.0591.0111.0924.0111.1239 0 .3204-.27.5355-.5217.5355-.0861 0-.1602-.0246-.2133-.0705 0-.009-.0225-.1959-.0363-.4389-.0111-.1479-.0738-.2646-.129-.3675-.0465-.0876-.0861-.1605-.0837-.2274 0-.0231.003-.0411.009-.0591.0885-.27.1743-.3549.5358-.3591.0948 0 .2136.0087.3621.024l.2721-.0609c1.0038-.2439 2.0418-.4959 2.5488-.8334.288-.1887.3138-.4071.342-.6369l.009-.0777c.018-.2316.0591-.5502.096-.8301.027-.2106.0543-.4209.075-.6075l.0414-.1089c.1101.1125.2304.2244.3471.333.3111.291.5886.5514 1.074.7605-.0195.1098-.0318.2793-.0318.4227 0 .0354.0018.066.0045.0912.0024.0222.0027.0447.0039.0681.0033.1206.0066.2484.1446.2985.0579.0183.1263.0426.2055.0699l.057.0195c.5331.1896 1.4259.5067 2.4834.5148.0822 0 .1659.0801.2289.2193.0648.1431.0879.3192.0879.5043.0003.1728-.0348.3354-.0948.4302-.1371.2151-.3021.3396-.51.3396-.1233 0-.252-.0432-.3519-.1167-.0858-.0633-.1407-.1446-.1398-.2073l.012-.1137.012-.099-.0915.0645-.0657.0798c-.0228.0291-.1677.0819-.3756.0819-.2553-.0009-.5637-.0675-.6366-.2151l-.0195-.0363-.0189-.0354-.0519.0237-.0297.0276c-.0723.0675-.1476.0987-.2379.0987-.0648 0-.1341-.0162-.2097-.0492-.0954-.039-.1152-.0813-.1431-.1416-.027-.0573-.0555-.1179-.1413-.1779-.0378-.0243-.0714-.036-.1053-.0381-.1038.0054-.1323.1002-.1467.1506l-.0156.0573c-.0495.2019-.1176.4815-.4983.6309l-.03.012-.0294.0114.0051.0486.0132.0297c.0441.1023.0666.2061.0666.3078-.0009.2928-.1812.5475-.4836.6816-.0549.0237-.1335.039-.2211.0423"/><path d="m22.47345 26.75331c-.3081-.2688-.6234-.5448-.942-.8238-.4617-.4059-.8814-.7773-1.2654-1.1175-.1467-.1176-.1701-.1599-.3372-.3006-1.1178-.9966-1.8699-1.6911-2.2716-2.1-.3063-.0393-1.0191-.2175-2.2302-.6981 4.0524 4.3656 10.5549 10.7616 11.4312 11.5413l.663-.1986c-.0621-.0828-4.9638-6.2133-5.0478-6.3027"/><path d="m4.87377 1.53297c.2118.0081.3939.033.5847.102.0423.0843.0666.1752.0666.2715 0 .4107-.4254.7443-.951.7443-.525 0-.9507-.3336-.9507-.7443 0-.0405.0105-.0984.018-.1365.0249-.0195.045-.0261.084-.0432.1008-.0438.2049-.0777.3108-.1068-.2319.3642.0459.8463.6324.789.5127-.0498.5838-.3672.5838-.3672s-.5082.2898-.7833.0885c.4344-.0147.5439-.3681.4047-.5973zm14.8122 17.0025c-.0732.0123-.147.0177-.2211.0177-.6822-.0096-1.3803-.4617-1.8627-.8595.0117.0888.0216.1926.0216.2949-.0042.2349-.0399.4689-.2727.5883-.0666.0297-.1407.0444-.2274.0444-.6435-.0222-1.665-.777-2.2149-1.2579.0117.0783.0216.1716.0216.2649.0108.2655-.0936.5706-.4185.6318-.0714.0117-.1434.018-.2151.018-.9108-.0216-1.8393-.9306-2.4756-1.7202v.0237c0 .1536-.0117.3321-.0867.4953-.063.147-.2244.2946-.4722.2946-1.3638-.0222-2.6292-1.4763-3.2622-2.3418l-.0423-.0561c-.0537-.0804-.0363-.1881.0381-.2466.0315-.0246.0714-.039.1122-.039.0528 0 .1023.0228.1428.069.1143.126.5247.5721 1.0215 1.0104.5058.4554 1.245.9879 1.6788.9879.0591 0 .1089-.0099.1566-.0288.189-.0579.2829-.4566.312-.8106l.0267-.0561c.0087-.0126.018-.0261.0519-.0501.0117-.0069.0243-.0144.0393-.0192l.0282-.0048.0027-.0009.0681.0045h.0033c.0087.0012.0198.0033.0435.0174.0114.006.0282.0159.0519.0405.1401.1497.5124.5382.9513.9261.4797.435 1.1319.9036 1.4472.9036.0339-.0009.0618-.0063.0849-.0168.1935-.0855.2337-.3.2349-.594l-.0003-.0744-.0006-.0702c0-.0216 0-.045.0042-.0948.0096-.048.0402-.0882.1005-.1335.0537-.0441.1086-.0459.1272-.0459.0435 0 .0834.015.1341.0552.2964.2388.6024.4671.8841.6612.4602.3255 1.0452.6525 1.2846.6525.0243 0 .0381-.0036.0468-.0072.084-.0207.1386-.1887.1365-.4182 0-.0756-.0048-.1518-.0096-.2211-.0027-.0492-.0057-.0957-.0072-.1458-.003-.0984.075-.1818.1794-.1872.0288 0 .057.0084.1149.0363.0945.057.4317.2577.8169.4587.4038.2163.9312.4464 1.1124.4464l.0324-.0009c.0699-.0276.0843-.0441.0936-.1815.0006-.1296-.0468-.2982-.0894-.447-.0294-.1047-.0573-.2025-.0675-.2826-.0102-.0915.0507-.1764.1401-.1971.0141-.0036.027-.0051.0411-.0051.075 0 .144.048.1701.1194l.0546.1518c.0096.0387.0327.1026.0618.1815.0756.2085.1902.5226.1926.7776.0135.1623-.0783.4065-.321.4413zm-11.8101-7.0446c-.0291-.0918.0183-.1908.1083-.2259.021-.0081.0432-.0129.0657-.0129.0714 0 .1365.0429.1734.1248.1737.3633.3819.7287.588 1.0293.3213.4812.8022.9942 1.206.9942.0384 0 .0762-.0045.1197-.0138.0336-.0012.1716-.1389.273-.36.0918-.1839.159-.3822.1977-.5121l.015-.0084c-.2211-.3312-.3504-.5592-.3504-.5592-.0474-.0843-.0219-.1905.0588-.2424.0297-.0189.0639-.0288.0993-.0288.0576 0 .1128.0267.1509.078.1083.147.5007.6666.9813 1.1916.5103.5724 1.191 1.1511 1.5237 1.1511.012 0 .024-.0006.0438-.0015.1857 0 .471-.5835.5256-.8379-.2532-.36-.4194-.6546-.4518-.7131-.0462-.0831-.0204-.1866.0591-.24.0303-.0186.0648-.0294.1005-.0294.0564 0 .1089.0258.1524.0804.1314.1641.4803.5898.8889 1.0113.5151.5493 1.0914.9798 1.3284.9795.0186 0 .0345-.0033.0546-.0102.1305-.0276.2496-.4668.2715-.7644.0117-.0903.0885-.159.1971-.159h.0033c.0984.0108.1707.0993.1617.2004.0018.0375.0069.0933.0135.1584.0132.1266.0294.2832.0294.4401 0 .135-.0099.2922-.0714.4386-.0471.126-.1758.2781-.3798.2934-.0384.0033-.0777.0048-.1164.0051-.7869-.0093-1.4505-.6996-1.8828-1.2189-.0225.1437-.0516.2694-.0864.3822-.1311.4158-.3405.6216-.6399.6297h-.0327c-.8208-.0585-1.566-.8541-2.0538-1.4466-.0894-.1104-.1725-.2193-.2514-.3261-.0213.1071-.0531.2451-.0972.3867-.0996.2853-.2229.6417-.5892.6717l-.0411-.0018h-.0012c-1.2909-.1548-2.0097-1.6191-2.3232-2.4786zm-2.6385-5.3298-.2397.0744-.0219.0138-.0168-.0186c-.0111-.0123-.2784-.3072-.3426-.996-.0549-.5895-.1446-.9897-.2829-1.2594-.147-.2823-.3402-.4353-.6474-.5124-.0255-.006-.0441-.0135-.0702-.0312-.0162-.0111-.0456-.0321-.0513-.0927 0-.0555.0423-.0903.0657-.0984.0228-.0105.0408-.0126.0576-.0135.2298-.0159.6573-.0174.6996-.0174h.0228l.0234.009.0069.0036c.3867.2193.5361.6606.5949 1.7484.0168.3015.0576.5886.1233.8544.0471.1938.09.2985.09.2985l.0099.0243zm11.7837 6.5889c-.7011-.8043-2.5035-2.8623-4.0893-4.6032-1.1235-1.2351-1.8267-2.8959-2.3139-4.2057l-.0297-.0798c-.3342-.9069-.8403-2.2779-1.9002-2.922-1.1454-.6981-2.4684-.7929-3.6114-.7929-.2019 0-.4038.0033-.6081.0081-1.7808.0528-2.0169.7698-2.1243 1.0968-.0039.0135-.0063.0273-.0063.0405.0015.0594.0315.1179.0939.1779l.051.0426c.0693.0546.1308.0921.2193.1917.1044-.3285.4884-.8268 1.845-.8886.0933-.0042.1911-.0069.2937-.0069 1.2948.0027 3.0279.3699 3.7749 1.3764l.0171.0231-.0219.0186-.1518.1233-.0234.0177-.0186-.0219c-.4581-.5205-1.3551-.8316-1.9632-.8316-.2085 0-.3819.0375-.4869.105l-.0339.0216-.015.0096-.0156-.0081-.0342-.0183c-.2946-.1539-.7224-.2412-1.1865-.2412-.6024 0-1.164.1542-1.4316.3918-.0372.033-.1044.099-.1398.186l-.0159.0252-.0039.0039.0021.0438c-.0009.5154.5151.7644 1.0131.8535l.027.0051-.0024.0276-.0198.1416-.0132.051h-.1953c-.0795-.0021-.192-.0171-.2784-.0378l-.1221-.0111c-.0642.0054-.1008.0054-.1803.0111-.0552.0189-.2034.0687-.3333.1542-.1509.0984-.3507.2715-.4527.5394-.0402.1071-.1002.2439-.1788.3174-.0021.0261-.0093.0102-.0093.0411 0 .1701.0351.3621.0954.5253l.0216.0594c.0888.2421.1812.4935.2421.7617.0426.186.0873.4863.0873.7719 0 .1782-.0174.3255-.0513.4338-.0228.1059-.0678.2409-.1236.4119-.1788.5409-.4782 1.446-.4788 2.6799 0 .4104.0336.8292.0987 1.248.2736 1.7715 2.2824 7.0953 5.4012 9.1515l.0804.0525c.1695.1092.3102.192.444.2613.1263.0657.2703.1389.4278.2145-.4944-1.0449-.8682-1.728-1.0224-1.944l-.0165-.0234.0222-.018.2436-.1851.0219-.0171.0189.0213c.2187.2433.7743 1.1457 1.4232 2.4045l.3255.6798c.102.2112.2043.4245.306.6486.6498 1.4256 1.4037 3.4872 1.6335 5.2092.0528-.1515.0714-.2379.0729-.24l.0453-.1008.0126-.0273.0267.0126.1194.0528c.2118.1557.411.3255.6033.489.372.3183.7233.6186 1.0743.7239.0711-.1983.1179-.4797.1173-.711 0-.0978-.0084-.1854-.0237-.2517l-.006-.0252.0231-.0099.1878-.0792.0228-.0093.0138.0204.0297.0444c.1443.2172.2604.3882.606.495.0324-.1707.0507-.4371.0501-.7392 0-.3087-.0162-.5814-.021-.6606l-.0171-.2517-.0051-.0738.0546.0492.195.1728c.0168.0144.0702.0594.1515.1095.0612.0363.1542.0873.2595.1194.0306-.1281.0462-.2688.0462-.42 0-.3723-.0939-.7467-.1725-.9954-.0858-.2736-.1713-.4509-.1719-.4518l-.0123-.0246.0222-.0141.1713-.1134.0225-.0144.0174.0204c.0006.0006.018.0207.0546.0543.0384.0348.0939.0828.1647.1302.1128.0741.2871.165.4899.1824.0063-.0744.0096-.1482.0096-.2226 0-.1296-.0108-.2658-.0438-.4221-.0147-.0999-.0384-.2526-.0612-.3768-.081-.3261-.186-.5787-.2274-.6717-.0366-.0819-.0594-.1257-.0594-.1257l-.0114-.0225.018-.0144.153-.1323.0192-.0153.0189.0144s.1929.1437.435.3024c.2157.1431.4113.291.5571.3609l.0006-.0021c.0027-.0114.0036-.0168.0069-.0168-.7956-.8343-1.5402-1.5405-2.1798-2.2422-1.5147-.675-3.9033-2.0013-6.1053-3.987-3.5067-3.1644-4.2036-5.5905-4.2036-7.1106.0057-1.4856.7848-2.3913 1.2114-2.5815.1365-.0579.3006-.0861.5007-.0861.2625.0012.5565.0471.8409.0921.2901.0456.5895.0939.8637.0939.2718 0 .4827-.0474.6447-.1455l.1233-.0735.036-.021.0087.0405.0471.3726.0048.0219-.0201.0108-.0678.0372c-.2172.1203-.4836.1764-.8403.177-.2181 0-.4419-.0204-.6576-.0405-.2073-.0183-.3963-.0747-.5817-.0747-.219 0-.2826-.0339-.4107.0216-.3558.1488-1.0347.876-1.0305 2.2194-.0006 1.2912.5997 3.4146 3.8982 6.3915 3.294 2.9754 6.1017 4.044 7.8243 4.647 1.7226.6027 1.5705.0813 1.5705.0813l-1.2201-.7857-.0237-.0168.0141-.0243.1665-.2622.024-.0195.0255.0132c.0795.0414.6246.3111 1.1934.6387 1.1064.6372 1.4913.768 1.6491.7893.0732.0096.1236.0078.1287.0117l-1.02-1.0176-.0207-.0213.0213-.021.2454-.2361.0201-.0207.0213.0198c.0039.0039.3843.3591.876.7578.3609.2943.9969.8538 1.443 1.0197.1467.0555.2391.0672.2898.0672.0324-.0018.0063.0042.0216.0015l-1.2516-1.4415-.0219-.0258.0225-.0198.2802-.225.024-.0183.0195.0216c.0486.054.3012.3537.6504.7047.2289.2295.5508.579.9006.8724.1278.114.2049.1911.2952.2559.0471.0345.0939.0684.1425.1062.1347.099.2463.1905.3624.2601-.6117-1.404-3.183-5.8578-6.3228-10.0707z"/></g><g transform="translate(49.8 7.5303)"><path d="m1.52917005 5.27880924v14.38813526h3.16377765v-5.9446777h6.0252836v-2.4584769h-6.0252836v-3.32498926h6.9522503v-2.6599914zm10.92976165 7.17391616c.0403031-.6717183.2082301-1.2292362.5037862-1.6725703s.6717127-.79933952 1.1284812-1.06802686.9706253-.4601242 1.541586-.57431632c.5709606-.11419212 1.1452711-.17128733 1.7229489-.17128733.5239403 0 1.0545899.03694396 1.5919646.11083298s1.0277217.2183063 1.4710558.43325617c.4433341.21494988.8060566.51386006 1.0881783.89673956.2821217.3828794.4231805.8900192.4231805 1.5214344v5.4207401c0 .4702028.0268683.9202474.0806058 1.3501471.0537374.4298998.1477766.7523198.2821203.9672696h-2.9018088c-.0537375-.1612124-.0973985-.3257809-.1309844-.4937105-.033586-.1679296-.0570958-.3392152-.0705301-.513862-.4567685.4702029-.9941351.79934-1.612116.9874211s-1.2493867.2821203-1.8942363.2821203c-.4970716 0-.9605503-.0604538-1.3904501-.1813631-.4298997-.1209093-.8060564-.3089876-1.1284812-.5642406-.3224248-.2552529-.5743154-.5776729-.7556793-.9672696-.181364-.3895966-.2720446-.8530753-.2720446-1.39045 0-.5911122.1041148-1.0781007.3123475-1.4609801.2082326-.3828795.476916-.6885068.806058-.916891.3291419-.2283843.7052986-.3996699 1.1284812-.513862.4231825-.1141921.8497173-.2048727 1.279617-.2720446.4298998-.0671718.853076-.1209085 1.2695414-.1612116s.7859049-.1007568 1.1083297-.181363.577674-.1981552.7657551-.3526504c.1880812-.1544952.2754032-.3795175.2619689-.6750736 0-.3089904-.0503781-.5541639-.1511359-.7355279-.1007578-.1813639-.2350994-.3224227-.403029-.4231804-.1679296-.1007578-.362725-.1679286-.5843921-.2015145-.221667-.033586-.4601234-.0503787-.7153764-.0503787-.5642434 0-1.0075709.1209075-1.3299957.3627261-.3224248.2418187-.5105032.6448436-.5642406 1.209087zm6.6096756 2.1159023c-.1209093.1074749-.2720437.1914385-.4534077.2518931-.1813639.0604547-.3761593.1108328-.584392.1511359s-.4265379.0738885-.6549221.1007572c-.2283843.0268688-.4567651.0604542-.6851493.1007573-.2149499.0403031-.426538.0940398-.6347707.1612116s-.3895939.1578524-.5440892.2720446c-.1544952.1141921-.2787612.2586094-.3728018.4332561-.0940405.1746468-.1410601.3963105-.1410601.6649979 0 .255253.0470196.4701996.1410601.6448464.0940406.1746468.2216652.312347.3828776.4131047.1612124.1007578.3492907.1712871.5642406.2115902.2149498.0403031.4366136.0604544.6649978.0604544.5642434 0 1.0008538-.0940392 1.3098443-.2821203.3089904-.1880811.5373712-.4131034.6851493-.6750736.147778-.2619701.2384586-.5272949.2720445-.7959823.033586-.2686873.0503787-.483634.0503787-.6448464zm5.1039774-9.28981846v14.38813526h2.8615059v-14.38813526zm5.2027195 0h2.8615059v7.71800536l3.6071096-3.74816971h3.3854436l-3.9295328 3.82877551 4.3728647 6.5895241h-3.4660494l-2.8615059-4.6549849-1.1083298 1.0680268v3.5869581h-2.8615059zm17.7328912 8.06057996c-.1343437-.7254558-.3728001-1.2762566-.7153765-1.6524189-.3425764-.3761622-.8631503-.5642406-1.5617374-.5642406-.4567684 0-.8362836.0772465-1.1385569.2317417s-.5440882.3459321-.7254522.5743163c-.1813639.2283843-.3089885.4701993-.3828775.7254522-.0738891.255253-.1175501.4836338-.1309845.6851493zm-4.654985 1.8136305c.0403031.9269714.275401 1.5986797.7053008 2.015145.4298997.4164654 1.0478714.624695 1.8539334.624695.5776778 0 1.0747419-.1444173 1.4912073-.4332562s.6717145-.5944661.7657551-.916891h2.5189312c-.403031 1.2493962-1.0210026 2.1427682-1.8539334 2.6801429-.8329307.5373747-1.8404932.806058-3.0227175.806058-.8194964 0-1.5583755-.1309831-2.2166595-.3929533-.658284-.2619701-1.2158018-.6347682-1.6725703-1.1184055-.4567685-.4836372-.8094153-1.0613063-1.0579511-1.7330247-.2485358-.6717183-.3728019-1.4105974-.3728019-2.2166595 0-.7791933.1276246-1.5046382.3828776-2.1763566.255253-.6717183.6179754-1.252746 1.0881783-1.7431004.4702028-.4903544 1.0310793-.87658665 1.6826461-1.15870836s1.3736532-.42318045 2.1662808-.42318045c.8866683 0 1.6591328.17128561 2.3174168.51386198.658284.34257636 1.1990091.80269653 1.6221917 1.38037433s.7288098 1.2359519.916891 1.9748421c.1880811.7388902.255252 1.5113547.2015145 2.3174167zm9.2068127-5.90437481v10.41829961h2.8615059v-5.4610429c0-1.061315.1746441-1.8237039.5239377-2.2871896.3492935-.4634857.9135285-.695225 1.6927218-.695225.6851527 0 1.1620656.2115881 1.4307529.6347707.2686874.4231825.403029 1.0646639.403029 1.9244634v5.8842234h2.8615059v-6.4081611c0-.6448496-.0570952-1.2325943-.1712873-1.7632518s-.3123461-.9807021-.5944678-1.3501472c-.2821217-.36944508-.6683539-.65827964-1.1587083-.86651233s-1.1184017-.31234748-1.8841606-.31234748c-.6045465 0-1.1956498.1377002-1.7733276.41310473-.5776778.27540452-1.0478736.71537348-1.4106015 1.31991998h-.0604544v-1.45090441zm19.5848094 5.21922551c0-.4433341-.0470196-.8665103-.1410602-1.2695413-.0940405-.403031-.2418164-.7590364-.4433319-1.0680269-.2015155-.3089904-.4534061-.5541639-.7556793-.7355279-.3022733-.1813639-.6683543-.2720446-1.0982541-.2720446-.4164653 0-.7791878.0906807-1.0881783.2720446-.3089904.181364-.5642396.4265375-.7657551.7355279-.2015155.3089905-.3492913.6649959-.4433319 1.0680269-.0940405.403031-.1410601.8262072-.1410601 1.2695413 0 .4298998.0470196.8463589.1410601 1.2493899.0940406.4030311.2418164.7590364.4433319 1.0680269.2015155.3089904.4567647.554164.7657551.7355279.3089905.181364.671713.2720446 1.0881783.2720446.4298998 0 .7959808-.0906806 1.0982541-.2720446.3022732-.1813639.5541638-.4265375.7556793-.7355279.2015155-.3089905.3492914-.6649958.4433319-1.0680269.0940406-.403031.1410602-.8194901.1410602-1.2493899zm-7.6373996-9.18906116h2.8615059v5.23937696h.0403029c.3492936-.53737465.8228479-.93032399 1.4206773-1.17885978.5978293-.2485358 1.2191595-.37280183 1.8640091-.37280183.5239403 0 1.0411557.10747333 1.5516616.3224232.510506.21494988.9706262.54408693 1.3803744.98742101.4097482.4433342.7422438 1.0109277.9974967 1.7027976.255253.6918699.3828776 1.5147125.3828776 2.4685526s-.1276246 1.7766827-.3828776 2.4685526c-.2552529.6918699-.5877485 1.2594634-.9974967 1.7027975-.4097482.4433342-.8698684.7724712-1.3803744.9874211-.5105059.2149499-1.0277213.3224232-1.5516616.3224232-.7657589 0-1.4509014-.1209075-2.0554479-.3627261s-1.0613082-.6515607-1.3702986-1.2292385h-.0403029v1.3299957h-2.7204458zm19.2885831 8.06057996c-.1343437-.7254558-.3728001-1.2762566-.7153765-1.6524189-.3425763-.3761622-.8631502-.5642406-1.5617373-.5642406-.4567685 0-.8362837.0772465-1.138557.2317417-.3022732.1544952-.5440882.3459321-.7254522.5743163-.1813639.2283843-.3089885.4701993-.3828775.7254522-.073889.255253-.1175501.4836338-.1309844.6851493zm-4.6549849 1.8136305c.0403031.9269714.275401 1.5986797.7053007 2.015145.4298998.4164654 1.0478714.624695 1.8539334.624695.5776778 0 1.0747419-.1444173 1.4912073-.4332562s.6717145-.5944661.7657551-.916891h2.5189313c-.403031 1.2493962-1.0210027 2.1427682-1.8539334 2.6801429-.8329308.5373747-1.8404932.806058-3.0227175.806058-.8194964 0-1.5583755-.1309831-2.2166595-.3929533-.658284-.2619701-1.2158019-.6347682-1.6725704-1.1184055-.4567685-.4836372-.8094153-1.0613063-1.0579511-1.7330247-.2485358-.6717183-.3728018-1.4105974-.3728018-2.2166595 0-.7791933.1276245-1.5046382.3828775-2.1763566.255253-.6717183.6179755-1.252746 1.0881783-1.7431004.4702029-.4903544 1.0310793-.87658665 1.6826461-1.15870836s1.3736532-.42318045 2.1662809-.42318045c.8866682 0 1.6591327.17128561 2.3174167.51386198.658284.34257636 1.1990092.80269653 1.6221917 1.38037433.4231826.5776778.7288099 1.2359519.916891 1.9748421.1880812.7388902.255252 1.5113547.2015145 2.3174167zm9.2068126-5.90437481v10.41829961h2.8615059v-4.6952878c0-.4702029.0470196-.9068132.1410602-1.3098443.0940405-.403031.251892-.7556778.473559-1.0579511.2216671-.3022732.5138602-.5407297.8765881-.7153765.3627279-.1746467.8060554-.2619688 1.3299957-.2619688.1746468 0 .356008.0100756.5440892.0302272.1880811.0201515.3492911.0436613.4836348.07053v-2.65999136c-.2283843-.06717183-.4366138-.10075725-.624695-.10075725-.3627279 0-.7120162.05373666-1.0478754.1612116s-.6515621.2586093-.9471181.45340763c-.2955561.19479832-.5575223.42989618-.7859066.70530078-.2283842.2754045-.4097455.5743147-.5440891.8967395h-.0403029v-1.93453921zm12.1811667 7.95982271c.4030306 0 .7590366-.080605 1.0680266-.2418174.308991-.1612124.56424-.376159.765755-.6448464.201516-.2686873.35265-.5743146.453408-.9168909.100758-.3425764.151136-.7019403.151136-1.0781026 0-.4298998-.040303-.8362833-.120909-1.2191627-.080606-.3828795-.214948-.7220922-.403029-1.0176483-.188081-.295556-.436613-.5306539-.745604-.7053007-.30899-.1746468-.698581-.2619689-1.1687836-.2619689-.403031 0-.7489608.080605-1.0377997.2418174s-.5306539.3795176-.7254522.6549222c-.1947983.2754045-.335857.5911074-.4231804.9471181s-.1309845.7288088-.1309845 1.1184055c0 .3761623.036944.7489604.110833 1.1184055s.2015136.7019407.3828776.9974967c.1813639.2955561.4198204.5373711.7153764.7254522.2955561.1880812.6649957.2821203 1.1083298.2821203zm5.1587716 1.7934791c0 .4164654-.057096.8933783-.171288 1.4307529-.114192.5373747-.359365 1.0377974-.735528 1.5012831-.376162.4634856-.920246.856435-1.632267 1.1788598-.712022.3224248-1.665847.4836348-2.861506.4836348-.510506 0-1.0310799-.0638123-1.5617374-.1914388s-1.0142875-.3257804-1.4509044-.5944678c-.4366169-.2686873-.7993394-.6146171-1.0881783-1.0377996-.2888389-.4231826-.4534074-.9303224-.4937105-1.5214345h2.8413544c.1343437.5373747.3963099.9101728.7859066 1.1184055.3895966.2082327.8396412.3123474 1.3501471.3123474.8060625 0 1.3938065-.2418149 1.7632515-.7254522.369446-.4836372.547448-1.0948917.534014-1.8337819v-1.3702986h-.040303c-.308991.550809-.748959.9571926-1.31992 1.2191627-.570961.2619702-1.1721396.3929533-1.8035548.3929533-.7791933 0-1.4509016-.1377002-2.015145-.4131047-.5642434-.2754046-1.0277221-.6515612-1.3904501-1.1284812-.3627279-.4769201-.6280526-1.0344379-.7959822-1.6725704-.1679296-.6381324-.2518932-1.3131992-.2518932-2.0252207 0-.6717184.0973977-1.3199169.2921961-1.9446149.1947983-.6246981.4802743-1.1754989.8564366-1.6524189.3761623-.4769201.8429995-.85643525 1.4005258-1.13855696.5575262-.28212171 1.1990076-.42318045 1.9244634-.42318045.6851528 0 1.2863314.12762457 1.8035544.38287755.517224.25525298.950475.68514626 1.299769 1.28969276h.040303v-1.39045001h2.720446zm4.45107-2.7204458h-2.720446c.026869.6985871.18472 1.2796148.473559 1.7431005.288839.4634856.658279.8362837 1.10833 1.1184054.450051.2821218.963908.4836342 1.541586.6045435s1.168781.1813631 1.773328.1813631c.591112 0 1.172139-.0570952 1.7431-.1712873.570961-.1141922 1.0781-.3123461 1.521435-.5944678.443334-.2821217.802698-.6549198 1.078102-1.1184055.275405-.4634857.413105-1.0377962.413105-1.722949 0-.4836372-.094039-.8900207-.28212-1.2191627-.188082-.329142-.436614-.6045424-.745604-.8262094-.308991-.2216671-.661637-.3996698-1.057951-.5340135-.396314-.1343436-.802698-.248534-1.219163-.3425746-.403031-.0940406-.799339-.1813627-1.188936-.2619689-.389596-.0806062-.735526-.1712868-1.037799-.2720445-.302273-.1007578-.547447-.2317409-.735528-.3929533s-.28212-.369442-.28212-.624695c0-.2149498.053736-.3862354.161211-.5138619s.238458-.2250242.392953-.2921961c.154496-.0671718.325781-.1108328.513862-.1309844.188082-.0201515.362726-.0302272.523938-.0302272.510506 0 .953834.0973977 1.329996.2921961.376162.1947983.584392.5675964.624695 1.1184054h2.720446c-.053738-.6448496-.218306-1.1788577-.493711-1.6020402-.275405-.4231826-.621334-.76239528-1.0378-1.01764826-.416465-.25525298-.890019-.43661421-1.420677-.54408915-.530657-.10747494-1.0781-.1612116-1.642343-.1612116s-1.115044.05037812-1.652419.15113588c-.537375.10075775-1.021005.2754019-1.450904.5239377-.4299.24853579-.77583.58774843-1.0378 1.01764823-.26197.4298997-.392953.9807005-.392953 1.6524189 0 .4567685.094039.8430007.28212 1.1587084.188081.3157076.436613.5776738.745604.7859065.30899.2082327.661637.3761598 1.057951.5037863s.802697.2384583 1.219162.3324989c1.021012.2149499 1.816987.4298965 2.387947.6448464.570961.2149499.856437.5373698.856437.9672696 0 .255253-.060454.4668411-.181363.6347707s-.272044.3022712-.453408.403029c-.181364.1007577-.382876.1746456-.604543.2216659s-.433255.0705301-.634771.0705301c-.282122 0-.554163-.0335854-.816134-.1007573-.26197-.0671718-.493709-.1712866-.695225-.3123474-.201515-.1410609-.366084-.3224221-.49371-.5440892-.127627-.221667-.191439-.4869918-.191439-.7959823z" mask="url(#a)"/><path d="m1.48886715 23.5964773v14.3881353h2.8615059v-3.5869581l1.10832975-1.0680269 2.8615059 4.654985h3.4660494l-4.37286465-6.5895242 3.92953275-3.8287755h-3.3854436l-3.60710955 3.7481697v-7.7180053zm13.23993295 9.1890612c0 .4164654.0403025.8228489.1209087 1.2191627s.2183064.7523192.4131047 1.0680269c.1947983.3157076.453406.5675982.7758308.7556793.3224249.1880812.7254498.2821203 1.209087.2821203.4836373 0 .8900208-.0940391 1.2191628-.2821203.329142-.1880811.5911082-.4399717.7859065-.7556793.1947983-.3157077.3324985-.6717131.4131047-1.0680269s.1209087-.8026973.1209087-1.2191627-.0403025-.8262074-.1209087-1.2292385c-.0806062-.403031-.2183064-.7590364-.4131047-1.0680268-.1947983-.3089905-.4567645-.5608811-.7859065-.7556794s-.7355255-.292196-1.2191628-.292196c-.4836372 0-.8866621.0973977-1.209087.292196-.3224248.1947983-.5810325.4466889-.7758308.7556794-.1947983.3089904-.3324985.6649958-.4131047 1.0680268-.0806062.4030311-.1209087.8127731-.1209087 1.2292385zm-2.8615059 0c0-.8329308.1276246-1.5886026.3828775-2.2670381.255253-.6784356.6179755-1.2561047 1.0881783-1.7330247.4702029-.4769201 1.0344378-.8463596 1.6927218-1.1083298.658284-.2619701 1.3971631-.3929533 2.2166595-.3929533s1.5617341.1309832 2.2267353.3929533c.6650011.2619702 1.2325946.6314097 1.7027975 1.1083298.4702028.47692.8329253 1.0545891 1.0881783 1.7330247.255253.6784355.3828775 1.4341073.3828775 2.2670381s-.1276245 1.585244-.3828775 2.2569624c-.255253.6717183-.6179755 1.2460289-1.0881783 1.722949-.4702029.47692-1.0377964.843001-1.7027975 1.098254-.6650012.255253-1.4072389.3828775-2.2267353.3828775s-1.5583755-.1276245-2.2166595-.3828775-1.2225189-.621334-1.6927218-1.098254c-.4702028-.4769201-.8329253-1.0512307-1.0881783-1.722949-.2552529-.6717184-.3828775-1.4240316-.3828775-2.2569624zm12.6555409-5.2192256v10.4182997h2.8615059v-6.045435c0-.510506.0738879-.9236066.2216659-1.2393142.1477781-.3157076.3257808-.5575226.5340135-.7254522.2082326-.1679296.4231793-.28212.6448464-.3425746.221667-.0604547.3996697-.0906816.5340134-.0906816.4567685 0 .8026982.0772465 1.0377997.2317417.2351014.1544952.4030285.3593663.5037862.6146192.1007578.255253.157853.534012.1712873.8362852.0134344.3022733.0201515.6079005.0201515.916891v5.8439205h2.8615059v-5.8036176c0-.3224248.0235098-.6414863.0705301-.9571939.0470202-.3157076.1410594-.5978251.2821203-.8463609.1410608-.2485358.3358562-.4500483.584392-.6045435s.5743143-.2317417.9773453-.2317417.7220925.0671709.9571939.2015145c.2351014.1343437.4131041.3157049.5340134.5440892.1209093.2283842.1947972.4970675.221666.806058.0268687.3089904.0403029.6381275.0403029.987421v5.9043749h2.8615059v-6.9724017c0-.6717184-.0940392-1.2460289-.2821203-1.722949-.1880812-.47692-.4500474-.8631523-.7859066-1.1587084-.3358591-.295556-.7388841-.5105027-1.209087-.6448464-.4702028-.1343436-.9807011-.2015145-1.5315102-.2015145-.7254558 0-1.353503.1746442-1.8841605.5239377-.5306575.3492936-.9504752.7523186-1.2594657 1.209087-.2821217-.6448496-.6952223-1.0948941-1.2393141-1.3501471-.5440919-.255253-1.1452708-.3828776-1.8035548-.3828776-.6851527 0-1.2930487.1477759-1.8237062.4433319-.5306575.2955561-.9840606.7120153-1.3602229 1.2493899h-.0403029v-1.4106015zm18.2536137 0v10.4182997h2.8615059v-6.045435c0-.510506.0738879-.9236066.2216659-1.2393142.1477781-.3157076.3257808-.5575226.5340135-.7254522.2082326-.1679296.4231793-.28212.6448464-.3425746.221667-.0604547.3996697-.0906816.5340134-.0906816.4567685 0 .8026982.0772465 1.0377997.2317417.2351014.1544952.4030285.3593663.5037862.6146192.1007578.255253.157853.534012.1712873.8362852.0134344.3022733.0201515.6079005.0201515.916891v5.8439205h2.8615059v-5.8036176c0-.3224248.0235098-.6414863.0705301-.9571939.0470202-.3157076.1410594-.5978251.2821203-.8463609.1410608-.2485358.3358562-.4500483.584392-.6045435s.5743143-.2317417.9773453-.2317417.7220925.0671709.9571939.2015145c.2351014.1343437.4131041.3157049.5340134.5440892.1209093.2283842.1947972.4970675.221666.806058.0268687.3089904.0403029.6381275.0403029.987421v5.9043749h2.8615059v-6.9724017c0-.6717184-.0940392-1.2460289-.2821203-1.722949-.1880812-.47692-.4500474-.8631523-.7859066-1.1587084-.3358591-.295556-.7388841-.5105027-1.209087-.6448464-.4702028-.1343436-.9807011-.2015145-1.5315102-.2015145-.7254558 0-1.353503.1746442-1.8841605.5239377-.5306575.3492936-.9504752.7523186-1.2594657 1.209087-.2821217-.6448496-.6952223-1.0948941-1.2393141-1.3501471-.5440919-.255253-1.1452708-.3828776-1.8035548-.3828776-.6851527 0-1.2930487.1477759-1.8237062.4433319-.5306575.2955561-.9840606.7120153-1.3602229 1.2493899h-.0403029v-1.4106015zm27.9343703 10.4182997v-10.4182997h-2.8615059v5.461043c0 1.061315-.1746442 1.8237039-.5239377 2.2871896-.3492936.4634856-.9135285.695225-1.6927218.695225-.6851528 0-1.1620656-.2115881-1.430753-.6347707-.2686873-.4231825-.403029-1.064664-.403029-1.9244635v-5.8842234h-2.8615059v6.4081611c0 .6448497.0570952 1.2325944.1712873 1.7632519.1141922.5306575.3123461.9807021.5944678 1.3501472s.668354.6549211 1.1587084.8564366 1.1184016.3022717 1.8841606.3022717c.6045465 0 1.1956498-.1343416 1.7733276-.403029.5776777-.2686873 1.0478735-.7052977 1.4106015-1.3098442h.0604543v1.4509044zm2.2775441-10.4182997v10.4182997h2.8615059v-5.461043c0-1.061315.1746442-1.8237039.5239377-2.2871895.3492935-.4634857.9135285-.6952251 1.6927218-.6952251.6851527 0 1.1620656.2115882 1.4307529.6347707.2686874.4231826.4030291 1.064664.4030291 1.9244635v5.8842234h2.8615059v-6.4081611c0-.6448496-.0570953-1.2325944-.1712874-1.7632519s-.312346-.980702-.5944678-1.3501471c-.2821217-.3694451-.6683539-.6582797-1.1587083-.8665124s-1.1184017-.3123475-1.8841606-.3123475c-.6045465 0-1.1956498.1377002-1.7733276.4131048-.5776778.2754045-1.0478736.7153734-1.4106015 1.3199199h-.0604543v-1.4509044z" mask="url(#a)"/></g></g></svg>