<svg enable-background="new 0 0 583.5 329.69" viewBox="0 0 583.5 329.69" xmlns="http://www.w3.org/2000/svg"><g fill="#fff"><path d="m167.74 9.11c-.33-.27-.69-.41-1.08-.41h-164.62c-.38 0-.75.14-1.08.41-.1.09-.2.2-.29.31-.26.33-.39.7-.39 1.1v201.28c0 .4.13.77.4 1.11.08.1.18.21.29.3.33.27.69.4 1.08.4h50.87c.38 0 .75-.14 1.08-.41.11-.09.2-.18.28-.28.27-.35.41-.73.41-1.12l-.4-161.98c0-.74.6-1.34 1.33-1.34h111.04c.38 0 .75-.14 1.08-.41.11-.09.2-.19.29-.3.25-.33.39-.7.39-1.1v-36.15c0-.4-.13-.77-.4-1.11-.07-.11-.17-.21-.28-.3z"/><path d="m160.37 130.43c0 .4-.13.77-.4 1.11-.08.11-.18.21-.28.29-.33.27-.69.41-1.08.41h-89.53c-.38 0-.75-.14-1.08-.4-.11-.09-.2-.19-.29-.3-.26-.34-.39-.71-.39-1.1v-34.96c0-.4.13-.77.4-1.11.08-.1.18-.2.28-.29.33-.27.7-.41 1.08-.41h89.52c.39 0 .75.14 1.09.41.1.08.19.17.28.29.26.34.39.71.39 1.1v34.96z"/><path d="m348.97 114.5c-.68-.32-2.93-1.2-4.65-1.87-1.46-.56-3.01-1.1-4.92-1.69l-5.08-1.58c-1.14-.35-1.28-1.9-.22-2.46l4.74-2.48c1.6-.84 3.1-1.65 4.56-2.52.32-.2 3.45-2.22 4.38-2.86 2.25-1.55 4.18-3.24 6.08-5.31 8.14-8.89 12.81-21.58 12.81-34.81 0-13.56-4.56-26.32-12.19-34.13-13.49-14.44-34.93-15.49-46.45-16.06l-.51-.03h-109.58c-.38 0-.75.14-1.08.41-.1.08-.2.19-.29.3-.26.33-.39.7-.39 1.1v201.28c0 .4.13.77.4 1.11.08.1.18.21.29.3.33.27.69.4 1.08.4h50.21c.35 0 .68-.11.99-.34l.51-.53c.17-.26.27-.6.27-.94l-.43-164.07c0-.74.6-1.34 1.33-1.34h38.42c10.77.58 22.15 7.15 22.15 23.85 0 14.35-8.57 22.59-23.52 22.59h-20.68c-.38 0-.75.14-1.08.41-.11.09-.21.19-.29.3-.26.33-.39.7-.39 1.1v33.75c0 .39.13.77.4 1.11.08.1.18.2.28.29.33.27.69.41 1.08.41h23.71c17.11.88 25.72 9.14 25.72 24.55 0 6.14-2.2 12.21-5.88 16.23-5.5 6.72-12.5 7.1-18.13 7.41l-.42.01h-25c-.38 0-.75.14-1.08.41-.11.09-.2.18-.29.3-.26.33-.39.71-.39 1.1v31.61c0 .36.11.7.33 1.02l.51.52c.25.17.59.27.92.27l44.84-.02c14.79-.59 33.31-1.32 46.74-16.25 8.51-9.3 13.39-24.18 13.39-40.84 0-14.03-3.91-25.01-11.96-33.58-3.48-3.8-7.04-6.47-11.24-8.43z"/><path d="m461.81 160.35c-15.46-17.21-15.46-40.68-15.46-50.7 0-9.93 0-36.3 16.15-52.65 4.77-4.96 15.45-13.33 33.22-13.33 12.66 0 24 4.46 31.11 12.22 1.72 1.88 3.16 3.86 4.39 6.06.17.31.45.56.79.71l.27.12c.07.01.59.08.95-.04l43.9-13.74c.39-.12.72-.37.96-.73.12-.17.21-.39.26-.65.09-.42.04-.82-.15-1.18-2.96-5.65-6.64-10.8-11.27-15.73-17.88-19.22-46.25-30.71-75.88-30.71-68.86 0-100.23 58.24-100.23 112.36 0 70.87 47.28 95.26 56.76 99.43 10.54 4.79 25.72 7.22 38.55 7.22 13.22 0 33.44-5.16 41.75-8.11.53-.19.87-.69.87-1.25v-38.19c0-.92-.9-1.54-1.77-1.25-9.17 3.11-22.61 5.43-26.27 5.43-6.06-.01-25.51-.01-38.9-15.29z"/><path d="m582.9 94.32c-.33-.27-.7-.41-1.08-.41h-97.07c-.38 0-.75.14-1.08.41-.11.09-.2.18-.28.29-.26.34-.4.71-.4 1.11v34.29c0 .4.13.77.4 1.11.09.11.18.21.28.29.34.27.7.41 1.09.41h58.53c.74 0 1.33.6 1.33 1.33v78c0 .39.14.77.4 1.11.08.1.18.2.28.29.33.27.7.41 1.08.41h35.44c.38 0 .75-.14 1.08-.41.11-.09.21-.19.29-.3.26-.34.39-.71.39-1.1v-115.43c0-.39-.13-.77-.4-1.11-.08-.11-.18-.2-.28-.29z"/><path d="m0 265.7h40.22v8.13h-31.54v20.06h29.37v8.13h-29.37v27.66h-8.68z"/><path d="m71.13 265.7h7.86l27.38 63.99h-10.12l-6.42-15.82h-30.45l-6.33 15.82h-10.12zm15.54 40.58-11.93-29.37h-.18l-12.11 29.37z"/><path d="m116.5 265.7h8.68v55.85h29.37v8.13h-38.05z"/><path d="m165.13 265.7h8.68v27.66h.72l28.29-27.66h12.11l-30.91 29.55 32.98 34.44h-12.65l-29.82-31.99h-.72v31.99h-8.68z"/><path d="m225.5 265.7h41.3v8.13h-32.63v19.07h30.37v8.13h-30.37v20.52h34.25v8.13h-42.92z"/><path d="m282.53 265.7h11.39l35.25 52.6h.18v-52.6h8.68v63.99h-11.03l-35.61-52.6h-.18v52.6h-8.68z"/><path d="m356.29 265.7h22.23c11.12 0 19.43 5.15 19.43 16 0 7.32-4.52 11.93-11.03 14.1v.18c7.68.54 13.83 7.32 13.83 15.91 0 11.48-10.03 17.8-22.5 17.8h-21.96zm8.67 26.57h11.84c6.6 0 11.93-2.62 11.93-9.58 0-5.06-3.16-9.4-10.12-9.4h-13.65zm0 29.82h12.74c5.24 0 13.83-1.81 13.83-10.85 0-7.59-5.33-11.39-13.74-11.39h-12.83z"/><path d="m415.03 265.7h41.3v8.13h-32.63v19.07h30.37v8.13h-30.37v20.52h34.25v8.13h-42.93v-63.98z"/><path d="m471.97 265.7h22.5c16.36 0 20.52 9.85 20.52 17.89 0 8.13-6.06 15.82-15.73 16.9l18.17 29.19h-10.85l-16.27-28.2h-9.67v28.2h-8.68v-63.98zm8.68 28.2h11.39c6.87 0 13.74-1.63 13.74-10.3 0-8.68-6.87-10.3-13.74-10.3h-11.39z"/><path d="m583.5 293.9v31.54c-6.24 3.8-16.45 5.88-24.22 5.88-21.69 0-34.25-15.46-34.25-33.62 0-18.98 13.83-33.62 33.35-33.62 11.75 0 18.89 3.16 23.86 8.31l-6.15 6.6c-5.24-5.06-11.3-6.78-17.71-6.78-14.64 0-24.13 11.48-24.13 25.49 0 14.46 10.76 25.49 24.85 25.49 6.06 0 11.84-1.17 15.73-3.34v-17.8h-14.19v-8.13h22.86z"/></g></svg>