<?xml version="1.0" encoding="utf-8"?>
<!-- Generator: Adobe Illustrator 24.0.1, SVG Export Plug-In . SVG Version: 6.00 Build 0)  -->
<svg version="1.1" id="Lager_1" xmlns="http://www.w3.org/2000/svg" xmlns:xlink="http://www.w3.org/1999/xlink" x="0px" y="0px"
	 viewBox="0 0 583.5 329.69" style="enable-background:new 0 0 583.5 329.69;" xml:space="preserve">
<style type="text/css">
	.st0{fill:#282828;}
</style>
<g>
	<g>
		<path class="st0" d="M167.74,9.11c-0.33-0.27-0.69-0.41-1.08-0.41H2.04c-0.38,0-0.75,0.14-1.08,0.41C0.86,9.2,0.76,9.31,0.67,9.42
			c-0.26,0.33-0.39,0.7-0.39,1.1v201.28c0,0.4,0.13,0.77,0.4,1.11c0.08,0.1,0.18,0.21,0.29,0.3c0.33,0.27,0.69,0.4,1.08,0.4h50.87
			c0.38,0,0.75-0.14,1.08-0.41c0.11-0.09,0.2-0.18,0.28-0.28c0.27-0.35,0.41-0.73,0.41-1.12L54.29,49.82c0-0.74,0.6-1.34,1.33-1.34
			h111.04c0.38,0,0.75-0.14,1.08-0.41c0.11-0.09,0.2-0.19,0.29-0.3c0.25-0.33,0.39-0.7,0.39-1.1V10.52c0-0.4-0.13-0.77-0.4-1.11
			C167.95,9.3,167.85,9.2,167.74,9.11z"/>
		<path class="st0" d="M160.37,130.43c0,0.4-0.13,0.77-0.4,1.11c-0.08,0.11-0.18,0.21-0.28,0.29c-0.33,0.27-0.69,0.41-1.08,0.41
			H69.08c-0.38,0-0.75-0.14-1.08-0.4c-0.11-0.09-0.2-0.19-0.29-0.3c-0.26-0.34-0.39-0.71-0.39-1.1V95.48c0-0.4,0.13-0.77,0.4-1.11
			c0.08-0.1,0.18-0.2,0.28-0.29c0.33-0.27,0.7-0.41,1.08-0.41h89.52c0.39,0,0.75,0.14,1.09,0.41c0.1,0.08,0.19,0.17,0.28,0.29
			c0.26,0.34,0.39,0.71,0.39,1.1V130.43z"/>
		<path class="st0" d="M348.97,114.5c-0.68-0.32-2.93-1.2-4.65-1.87c-1.46-0.56-3.01-1.1-4.92-1.69l-5.08-1.58
			c-1.14-0.35-1.28-1.9-0.22-2.46l4.74-2.48c1.6-0.84,3.1-1.65,4.56-2.52c0.32-0.2,3.45-2.22,4.38-2.86
			c2.25-1.55,4.18-3.24,6.08-5.31c8.14-8.89,12.81-21.58,12.81-34.81c0-13.56-4.56-26.32-12.19-34.13
			C340.99,10.35,319.55,9.3,308.03,8.73l-0.51-0.03l-109.58,0c-0.38,0-0.75,0.14-1.08,0.41c-0.1,0.08-0.2,0.19-0.29,0.3
			c-0.26,0.33-0.39,0.7-0.39,1.1v201.28c0,0.4,0.13,0.77,0.4,1.11c0.08,0.1,0.18,0.21,0.29,0.3c0.33,0.27,0.69,0.4,1.08,0.4h50.21
			c0.35,0,0.68-0.11,0.99-0.34l0.51-0.53c0.17-0.26,0.27-0.6,0.27-0.94L249.5,47.72c0-0.74,0.6-1.34,1.33-1.34h38.42
			c10.77,0.58,22.15,7.15,22.15,23.85c0,14.35-8.57,22.59-23.52,22.59H267.2c-0.38,0-0.75,0.14-1.08,0.41
			c-0.11,0.09-0.21,0.19-0.29,0.3c-0.26,0.33-0.39,0.7-0.39,1.1v33.75c0,0.39,0.13,0.77,0.4,1.11c0.08,0.1,0.18,0.2,0.28,0.29
			c0.33,0.27,0.69,0.41,1.08,0.41h23.71c17.11,0.88,25.72,9.14,25.72,24.55c0,6.14-2.2,12.21-5.88,16.23
			c-5.5,6.72-12.5,7.1-18.13,7.41l-0.42,0.01l-25,0c-0.38,0-0.75,0.14-1.08,0.41c-0.11,0.09-0.2,0.18-0.29,0.3
			c-0.26,0.33-0.39,0.71-0.39,1.1v31.61c0,0.36,0.11,0.7,0.33,1.02l0.51,0.52c0.25,0.17,0.59,0.27,0.92,0.27l44.84-0.02
			c14.79-0.59,33.31-1.32,46.74-16.25c8.51-9.3,13.39-24.18,13.39-40.84c0-14.03-3.91-25.01-11.96-33.58
			C356.73,119.13,353.17,116.46,348.97,114.5z"/>
		<path class="st0" d="M461.81,160.35c-15.46-17.21-15.46-40.68-15.46-50.7c0-9.93,0-36.3,16.15-52.65
			c4.77-4.96,15.45-13.33,33.22-13.33c12.66,0,24,4.46,31.11,12.22c1.72,1.88,3.16,3.86,4.39,6.06c0.17,0.31,0.45,0.56,0.79,0.71
			l0.27,0.12c0.07,0.01,0.59,0.08,0.95-0.04l43.9-13.74c0.39-0.12,0.72-0.37,0.96-0.73c0.12-0.17,0.21-0.39,0.26-0.65
			c0.09-0.42,0.04-0.82-0.15-1.18c-2.96-5.65-6.64-10.8-11.27-15.73C549.05,11.49,520.68,0,491.05,0
			c-68.86,0-100.23,58.24-100.23,112.36c0,70.87,47.28,95.26,56.76,99.43c10.54,4.79,25.72,7.22,38.55,7.22
			c13.22,0,33.44-5.16,41.75-8.11c0.53-0.19,0.87-0.69,0.87-1.25v-38.19c0-0.92-0.9-1.54-1.77-1.25
			c-9.17,3.11-22.61,5.43-26.27,5.43C494.65,175.63,475.2,175.63,461.81,160.35z"/>
		<path class="st0" d="M582.9,94.32c-0.33-0.27-0.7-0.41-1.08-0.41h-97.07c-0.38,0-0.75,0.14-1.08,0.41
			c-0.11,0.09-0.2,0.18-0.28,0.29c-0.26,0.34-0.4,0.71-0.4,1.11v34.29c0,0.4,0.13,0.77,0.4,1.11c0.09,0.11,0.18,0.21,0.28,0.29
			c0.34,0.27,0.7,0.41,1.09,0.41h58.53c0.74,0,1.33,0.6,1.33,1.33v78c0,0.39,0.14,0.77,0.4,1.11c0.08,0.1,0.18,0.2,0.28,0.29
			c0.33,0.27,0.7,0.41,1.08,0.41h35.44c0.38,0,0.75-0.14,1.08-0.41c0.11-0.09,0.21-0.19,0.29-0.3c0.26-0.34,0.39-0.71,0.39-1.1
			V95.72c0-0.39-0.13-0.77-0.4-1.11C583.1,94.5,583,94.41,582.9,94.32z"/>
	</g>
	<g>
		<g>
			<path class="st0" d="M0,265.7h40.22v8.13H8.68v20.06h29.37v8.13H8.68v27.66H0V265.7z"/>
			<path class="st0" d="M71.13,265.7h7.86l27.38,63.99H96.25l-6.42-15.82H59.38l-6.33,15.82H42.93L71.13,265.7z M86.67,306.28
				l-11.93-29.37h-0.18l-12.11,29.37H86.67z"/>
			<path class="st0" d="M116.5,265.7h8.68v55.85h29.37v8.13H116.5V265.7z"/>
			<path class="st0" d="M165.13,265.7h8.68v27.66h0.72l28.29-27.66h12.11l-30.91,29.55L217,329.69h-12.65l-29.82-31.99h-0.72v31.99
				h-8.68V265.7z"/>
			<path class="st0" d="M225.5,265.7h41.3v8.13h-32.63v19.07h30.37v8.13h-30.37v20.52h34.25v8.13H225.5V265.7z"/>
			<path class="st0" d="M282.53,265.7h11.39l35.25,52.6h0.18v-52.6h8.68v63.99H327l-35.61-52.6h-0.18v52.6h-8.68V265.7z"/>
			<path class="st0" d="M356.29,265.7h22.23c11.12,0,19.43,5.15,19.43,16c0,7.32-4.52,11.93-11.03,14.1v0.18
				c7.68,0.54,13.83,7.32,13.83,15.91c0,11.48-10.03,17.8-22.5,17.8h-21.96V265.7z M364.96,292.27h11.84
				c6.6,0,11.93-2.62,11.93-9.58c0-5.06-3.16-9.4-10.12-9.4h-13.65V292.27z M364.96,322.09h12.74c5.24,0,13.83-1.81,13.83-10.85
				c0-7.59-5.33-11.39-13.74-11.39h-12.83V322.09z"/>
			<path class="st0" d="M415.03,265.7h41.3v8.13h-32.63v19.07h30.37v8.13h-30.37v20.52h34.25v8.13h-42.93V265.7z"/>
			<path class="st0" d="M471.97,265.7h22.5c16.36,0,20.52,9.85,20.52,17.89c0,8.13-6.06,15.82-15.73,16.9l18.17,29.19h-10.85
				l-16.27-28.2h-9.67v28.2h-8.68V265.7z M480.65,293.9h11.39c6.87,0,13.74-1.63,13.74-10.3c0-8.68-6.87-10.3-13.74-10.3h-11.39
				V293.9z"/>
			<path class="st0" d="M583.5,293.9v31.54c-6.24,3.8-16.45,5.88-24.22,5.88c-21.69,0-34.25-15.46-34.25-33.62
				c0-18.98,13.83-33.62,33.35-33.62c11.75,0,18.89,3.16,23.86,8.31l-6.15,6.6c-5.24-5.06-11.3-6.78-17.71-6.78
				c-14.64,0-24.13,11.48-24.13,25.49c0,14.46,10.76,25.49,24.85,25.49c6.06,0,11.84-1.17,15.73-3.34v-17.8h-14.19v-8.13H583.5z"/>
		</g>
	</g>
</g>
</svg>
