<svg fill="none" height="25" viewBox="0 0 161 25" width="161" xmlns="http://www.w3.org/2000/svg"><g fill="#fff"><path d="m11.981.878976v2.088104h-9.09251v6.62115h7.77091v2.08807h-7.77091v8.141h-2.577089v-18.938324zm4.9427 5.550664v13.38766h-2.3524v-13.38766zm.5287-4.20265c0 .22908-.0463.44273-.1388.64097s-.2159.37445-.37.52864c-.1542.15418-.3326.27533-.5353.36343-.2026.08811-.4185.13216-.6476.13216-.229 0-.4427-.04405-.6409-.13216-.1983-.0881-.3745-.20925-.5287-.36343-.1541-.15419-.2753-.3304-.3634-.52864s-.1322-.41189-.1322-.64097c0-.22907.0441-.44713.1322-.65418s.2093-.38767.3634-.54185c.1542-.154187.3304-.275331.5287-.363438.1982-.088106.4119-.132158.6409-.132158.2291 0 .445.044052.6476.132158.2027.088107.3811.209251.5353.363438.1541.15418.2775.3348.37.54185s.1388.42511.1388.65418zm3.0264 17.59031v-13.38766h1.348c.2555 0 .4317.04845.5287.14537.0969.09692.1629.26432.1982.5022l.1586 2.08811c.4581-.93393 1.0242-1.66299 1.6982-2.18723.674-.52423 1.4648-.78634 2.3723-.78634.37 0 .7048.04185 1.0044.12555.2995.0837.5771.20044.8326.35022l-.304 1.75771c-.0617.22027-.1982.3304-.4097.3304-.1233 0-.3128-.04185-.5683-.12555s-.6123-.12555-1.0705-.12555c-.8193 0-1.5044.23788-2.055.71365-.5507.47578-1.011 1.16742-1.3811 2.07492v8.5242zm17.7225-11.18061c-.1058.19383-.2688.29074-.489.29074-.1322 0-.282-.04845-.4494-.14537s-.3722-.20485-.6145-.32379-.5308-.22907-.8656-.33039c-.3348-.10133-.7313-.15199-1.1895-.15199-.3964 0-.7533.05066-1.0704.15199-.3172.10132-.5882.24008-.8128.41629-.2247.17622-.3965.38106-.5154.61454-.119.23348-.1785.48678-.1785.75991 0 .34358.0992.62998.2974.85908.1982.229.4604.4273.7863.5947.326.1674.6961.3149 1.1102.4427s.8392.2643 1.2753.4097.8612.3062 1.2753.4824.7842.3964 1.1102.6608c.326.2643.5881.5881.7863.9713.1983.3833.2974.8436.2974 1.3811 0 .6167-.1102 1.1872-.3304 1.7114-.2203.5243-.5463.978-.978 1.3613-.4317.3832-.9603.685-1.5859.9053-.6256.2202-1.348.3304-2.1674.3304-.9339 0-1.7797-.152-2.5374-.456-.7578-.304-1.4009-.6938-1.9296-1.1696l.5551-.8987c.0705-.1145.1542-.2026.2511-.2643s.2247-.0925.3833-.0925.326.0617.5022.185c.1762.1234.3898.2599.6409.4097s.5551.2864.9119.4097c.3569.1234.804.185 1.3414.185.4582 0 .8591-.0594 1.2027-.1784.3436-.1189.6299-.2797.859-.4824.2291-.2026.3987-.4361.5088-.7004.1102-.2643.1652-.5463.1652-.8458 0-.3701-.0991-.6762-.2973-.9185-.1983-.2423-.4604-.4494-.7864-.6212s-.6982-.3216-1.1167-.4493c-.4185-.1278-.8458-.2621-1.282-.4031-.4361-.141-.8634-.3018-1.2819-.4824s-.7907-.4075-1.1167-.6806-.5881-.6101-.7864-1.011c-.1982-.4009-.2973-.8877-.2973-1.4604 0-.51097.1057-1.00215.3171-1.47352.2115-.47137.5199-.88546.9252-1.24229.4052-.35683.903-.64097 1.4934-.85243.5903-.21145 1.2643-.31718 2.022-.31718.881 0 1.6718.13877 2.3722.4163.7005.27754 1.3062.65859 1.8172 1.14317zm7.2687 11.39211c-1.0573 0-1.87-.2952-2.4383-.8855s-.8525-1.4405-.8525-2.5507v-8.1938h-1.6123c-.141 0-.2599-.04185-.3568-.12555s-.1454-.21366-.1454-.38987v-.93832l2.1938-.27754.5419-4.13656c.0176-.13216.0749-.24009.1718-.32379s.2203-.12555.37-.12555h1.1895v4.61233h3.8326v1.70485h-3.8326v8.0352c0 .5639.1365.9824.4097 1.2555.2731.2732.6255.4097 1.0572.4097.2467 0 .4604-.033.641-.0991s.337-.1387.4692-.218c.1321-.0793.2445-.152.337-.2181s.174-.0991.2445-.0991c.1233 0 .2334.0749.3304.2246l.6872 1.1234c-.4053.3789-.8943.6762-1.467.8921-.5727.2158-1.163.3238-1.7709.3238zm12.8987-7.2952v7.0837h-2.5507v-18.938324h5.5903c1.1983 0 2.2401.138764 3.1256.416304.8854.27753 1.6189.6718 2.2004 1.18282.5815.51101 1.0154 1.12774 1.3018 1.85022.2863.72247.4295 1.52863.4295 2.4185 0 .88106-.1542 1.68722-.4626 2.4185-.3083.73128-.7599 1.36128-1.3546 1.88988s-1.3326.9405-2.2137 1.2357c-.881.2951-1.8898.4427-3.0264.4427zm0-2.0352h3.0396c.7313 0 1.3767-.097 1.9361-.2908.5595-.1938 1.0287-.46475 1.4075-.81277.3789-.34801.6652-.76431.8591-1.24889.1938-.48459.2907-1.01762.2907-1.59912 0-1.20706-.3722-2.14978-1.1167-2.8282-.7445-.67841-1.8701-1.01762-3.3767-1.01762h-3.0396zm12.37 9.1189v-13.38766h1.348c.2555 0 .4317.04845.5287.14537.0969.09692.163.26432.1982.5022l.1586 2.08811c.4581-.93393 1.0242-1.66299 1.6982-2.18723.674-.52423 1.4648-.78634 2.3723-.78634.37 0 .7048.04185 1.0044.12555.2995.0837.5771.20044.8326.35022l-.304 1.75771c-.0617.22027-.1982.3304-.4097.3304-.1233 0-.3127-.04185-.5683-.12555-.2555-.0837-.6123-.12555-1.0704-.12555-.8194 0-1.5044.23788-2.0551.71365-.5507.47578-1.011 1.16742-1.3811 2.07492v8.5242zm12.674-13.38766v13.38766h-2.3524v-13.38766zm.5287-4.20265c0 .22908-.0463.44273-.1388.64097s-.2159.37445-.3701.52864c-.1541.15418-.3325.27533-.5352.36343-.2026.08811-.4185.13216-.6476.13216-.229 0-.4427-.04405-.6409-.13216-.1983-.0881-.3745-.20925-.5287-.36343-.1542-.15419-.2753-.3304-.3634-.52864s-.1322-.41189-.1322-.64097c0-.22907.0441-.44713.1322-.65418s.2092-.38767.3634-.54185c.1542-.154187.3304-.275331.5287-.363438.1982-.088106.4119-.132158.6409-.132158.2291 0 .445.044052.6476.132158.2027.088107.3811.209251.5352.363438.1542.15418.2776.3348.3701.54185s.1388.42511.1388.65418zm3.0264 17.59031v-13.38766h1.4009c.3348 0 .5462.16299.6343.48898l.1851 1.45375c.5815-.64318 1.2312-1.163 1.9493-1.55947.7181-.39648 1.5484-.59472 2.4912-.59472.7313 0 1.3766.12115 1.9361.36344s1.0264.5859 1.4009 1.03084c.3744.44493.6586.98017.8524 1.60572.1938.62556.2908 1.31722.2908 2.07492v8.5242h-2.3525v-8.5242c0-1.0132-.2312-1.79958-.6938-2.35906-.4626-.55947-1.1696-.8392-2.1211-.8392-.6961 0-1.3459.16739-1.9494.5022-.6035.3348-1.1608.78854-1.6718 1.36123v9.85903zm23.2332-11.00881c-.07.09692-.141.17181-.211.22467-.071.05287-.172.0793-.304.0793s-.275-.05507-.43-.1652c-.154-.11013-.35-.23128-.588-.36344s-.526-.2533-.865-.36343c-.34-.11014-.756-.1652-1.249-.1652-.652 0-1.229.11674-1.732.35022-.502.23348-.922.57048-1.262 1.01101-.339.44053-.594.97358-.766 1.59908-.172.6256-.258 1.326-.258 2.1014 0 .8105.093 1.5308.278 2.1608.185.6299.445 1.1585.779 1.5859.335.4273.743.7533 1.223.9779.48.2247 1.02.337 1.619.337.572 0 1.044-.0682 1.414-.2048s.678-.2886.925-.456.449-.3193.608-.4559c.158-.1366.317-.2049.476-.2049.202 0 .352.0749.449.2247l.661.8591c-.582.7136-1.309 1.2356-2.181 1.566s-1.793.4956-2.762.4956c-.837 0-1.614-.1542-2.333-.4625-.718-.3084-1.341-.7555-1.87-1.3414-.528-.5859-.945-1.3062-1.248-2.1608-.304-.8547-.456-1.8282-.456-2.9207 0-.9956.138-1.9163.416-2.7622.277-.84577.683-1.57484 1.216-2.18718s1.191-1.0903 1.975-1.43392c.785-.34361 1.683-.51542 2.697-.51542.933 0 1.762.15198 2.484.45595.723.30397 1.361.73348 1.916 1.28855zm5.234-2.37885v13.38766h-2.353v-13.38766zm.528-4.20265c0 .22908-.046.44273-.138.64097-.093.19824-.216.37445-.37.52864-.155.15418-.333.27533-.536.36343-.202.08811-.418.13216-.647.13216s-.443-.04405-.641-.13216c-.198-.0881-.375-.20925-.529-.36343-.154-.15419-.275-.3304-.363-.52864s-.132-.41189-.132-.64097c0-.22907.044-.44713.132-.65418s.209-.38767.363-.54185c.154-.154187.331-.275331.529-.363438.198-.088106.412-.132158.641-.132158s.445.044052.647.132158c.203.088107.381.209251.536.363438.154.15418.277.3348.37.54185.092.20705.138.42511.138.65418zm3.027 22.12331v-17.92066h1.401c.334 0 .546.16299.634.48898l.198 1.58591c.573-.69604 1.227-1.25551 1.963-1.67842s1.584-.63436 2.544-.63436c.766 0 1.462.14758 2.088.44273.626.29516 1.159.73128 1.599 1.30837.441.5771.78 1.29295 1.018 2.14755.238.8547.357 1.837.357 2.9472 0 .9868-.133 1.9052-.397 2.7555-.264.8502-.643 1.5859-1.136 2.207-.494.6212-1.1 1.1102-1.818 1.467s-1.526.5352-2.425.5352c-.828 0-1.535-.1365-2.121-.4097-.586-.2731-1.103-.6608-1.553-1.163v5.9207zm5.96-16.25546c-.766 0-1.438.17621-2.015.52863s-1.108.85022-1.593 1.49343v6.4757c.432.5815.906.9912 1.421 1.2291s1.09.3568 1.725.3568c1.242 0 2.198-.4449 2.867-1.3348.67-.8898 1.005-2.1585 1.005-3.8061 0-.8723-.077-1.6212-.231-2.2467-.155-.6256-.377-1.13879-.668-1.53968-.291-.40088-.647-.69383-1.07-.87885s-.903-.27753-1.441-.27753zm10.652-7.744498v19.466958h-2.352v-19.466958zm8.855 5.867838c.802 0 1.542.13436 2.22.40309.678.26872 1.264.65638 1.758 1.16299.493.50661.879 1.13216 1.156 1.87665.278.74449.416 1.59249.416 2.54409 0 .37-.039.6167-.119.7401-.079.1233-.229.185-.449.185h-8.907c.017.8458.132 1.5815.343 2.207.212.6256.502 1.1476.873 1.5661.37.4185.81.7313 1.321.9383.511.2071 1.084.3106 1.718.3106.59 0 1.099-.0683 1.527-.2048.427-.1366.795-.2842 1.103-.4428s.566-.3061.773-.4427.386-.2049.536-.2049c.193 0 .343.0749.449.2247l.661.8591c-.291.3524-.639.6585-1.044.9185-.406.2599-.84.4735-1.302.6409-.463.1674-.941.293-1.434.3767-.494.0837-.982.1255-1.467.1255-.925 0-1.778-.1564-2.557-.4691-.78-.3128-1.454-.771-2.022-1.3745-.569-.6035-1.011-1.3502-1.329-2.2401-.317-.8898-.475-1.9119-.475-3.0661 0-.9339.143-1.8061.429-2.6167.287-.81057.698-1.51321 1.236-2.10792.537-.59472 1.194-1.06168 1.969-1.40089s1.648-.50881 2.617-.50881zm.053 1.73128c-1.137 0-2.031.32819-2.683.98458s-1.057 1.56606-1.216 2.72906h7.282c0-.5462-.075-1.0462-.225-1.5-.15-.45373-.37-.8458-.661-1.17619-.29-.3304-.645-.58591-1.063-.76652-.419-.18062-.897-.27093-1.434-.27093z"/><path d="m156.933 7.26232c1.642 0 2.973-1.33131 2.973-2.97357 0-1.64225-1.331-2.97356-2.973-2.97356-1.643 0-2.974 1.33131-2.974 2.97356 0 1.64226 1.331 2.97357 2.974 2.97357z" stroke="#fff"/><path clip-rule="evenodd" d="m157.754 3.24093c-.516-.51612-1.353-.51612-1.869 0-.516.51611-.516 1.35289 0 1.869s1.353.51611 1.869 0" fill-rule="evenodd"/></g><path d="m157.754 3.24093c-.516-.51612-1.353-.51612-1.869 0-.516.51611-.516 1.35289 0 1.869s1.353.51611 1.869 0" stroke="#fff" stroke-linecap="round"/></svg>