<?xml version="1.0" encoding="utf-8"?>
<!-- Generator: Adobe Illustrator 24.0.1, SVG Export Plug-In . SVG Version: 6.00 Build 0)  -->
<svg version="1.1" id="Lager_2" xmlns="http://www.w3.org/2000/svg" xmlns:xlink="http://www.w3.org/1999/xlink" x="0px" y="0px"
	 viewBox="0 0 413.55 273.89" style="enable-background:new 0 0 413.55 273.89;" xml:space="preserve">
<style type="text/css">
	.st0{fill:#282828;}
</style>
<g>
	<polygon class="st0" points="9.63,50.2 67.09,50.2 67.09,99 73.11,99 73.11,4.42 67.09,4.42 67.09,44.56 9.63,44.56 9.63,4.42 
		3.61,4.42 3.61,99 9.63,99 	"/>
	<path class="st0" d="M144.15,98.87h0.21l12.82-31.48h42.02l12.82,31.48h0.06v0.01h19.52v-0.06h8.55c13.98,0,25.1-2.5,35.46-12.49
		c9.49-9.11,14.49-21.48,14.49-34.46c0-13.49-5.12-26.1-14.98-35.34c-10.37-9.61-21.23-11.86-34.96-11.86h-16.98v88.56h-7.2
		L178.25,0l-37.87,93.36H94.66V50.08h38.14v-5.65H94.66V10.06h39.14V4.42H88.64V99h55.51V98.87z M229.15,10.29h10.86
		c11.74,0,21.48,2.12,30.47,10.24c8.86,8.12,13.61,19.35,13.61,31.34c0,11.24-4.5,21.97-12.49,29.97
		c-8.99,8.86-19.23,11.36-31.59,11.36h-10.86V10.29z M178.25,15.48l18.66,46.2h-37.44L178.25,15.48z"/>
	<path class="st0" d="M384.09,212.03c15.23,0,29.46-11.73,29.46-27.33c0-8.49-3.62-14.23-10.74-18.72l-17.97-9.36
		c-7.61-3.62-16.98-7.74-16.98-17.6c0-9.86,7.61-17.98,17.73-17.98c8.86,0,14.85,4.37,19.09,11.11l4.24-3.5
		c-4.49-8.11-13.48-13.23-22.96-13.23c-14.1,0-24.09,9.86-24.09,23.84c0,7.49,3.49,12.99,9.73,16.85l16.98,8.99
		c8.11,4,18.97,8.49,18.97,19.09c0,12.49-10.86,22.22-23.21,22.22c-11.36,0-18.72-6.99-22.72-16.98l-0.06,0.03v-0.02h-14.74
		c4.79-7.61,7.27-16.45,7.27-25.6c0-13.48-5.12-26.09-14.98-35.32c-10.36-9.61-21.22-11.86-34.95-11.86h-16.98v94.12h16.98
		c13.98,0,25.09-2.5,35.45-12.48c1.09-1.04,2.11-2.13,3.07-3.26h15.05C362.66,205.35,372.19,212.03,384.09,212.03z M335.62,193.81
		c-8.98,8.86-19.22,11.36-31.58,11.36h-10.86v-82.88h10.86c11.73,0,21.47,2.12,30.45,10.23c8.86,8.11,13.6,19.35,13.6,31.33
		C348.1,175.09,343.61,185.82,335.62,193.81z"/>
	<path class="st0" d="M39.6,160.2c7.59-4.3,11.01-10.76,11.01-19.49c0-7.59-2.15-14.68-7.97-19.74c-5.7-5.06-12.53-5.57-19.75-5.57
		H3.79v95.41h24.42c8.48,0,15.56-1.14,22.27-6.83c5.95-5.06,8.86-12.02,8.86-19.74C59.34,172.1,51.37,162.6,39.6,160.2z M9.86,121.1
		h10.5c5.57,0,11.52,0,16.33,3.04c5.44,3.41,7.84,9.49,7.84,15.69c0,6.58-1.64,11.39-7.09,15.31c-5.44,3.92-10.63,3.54-17.09,3.54
		H9.86V121.1z M43.91,201.45c-5.83,3.92-12.78,3.67-19.49,3.67H9.86v-40.74h13.42c6.33,0,14.3,0.13,20.12,3.04
		c6.45,3.16,9.87,10.12,9.87,17.08C53.27,191.58,49.73,197.53,43.91,201.45z"/>
	<path class="st0" d="M15.31,248.14c2.31-1.31,3.34-3.27,3.34-5.92c0-2.31-0.65-4.46-2.42-6c-1.73-1.54-3.8-1.69-6-1.69h-5.8v28.98
		h7.42c2.57,0,4.73-0.35,6.76-2.08c1.81-1.54,2.69-3.65,2.69-6C21.31,251.75,18.88,248.87,15.31,248.14z M6.28,236.27h3.19
		c1.69,0,3.5,0,4.96,0.92c1.65,1.04,2.38,2.88,2.38,4.77c0,2-0.5,3.46-2.15,4.65c-1.65,1.19-3.23,1.08-5.19,1.08H6.28V236.27z
		 M16.62,260.67c-1.77,1.19-3.88,1.11-5.92,1.11H6.28v-12.38h4.07c1.92,0,4.34,0.04,6.11,0.92c1.96,0.96,3,3.07,3,5.19
		C19.46,257.67,18.38,259.48,16.62,260.67z"/>
	<polygon class="st0" points="32.14,261.82 24.57,245.76 22.76,245.76 31.3,263.82 27.03,273.89 28.8,273.89 40.71,245.76 
		38.94,245.76 	"/>
	<path class="st0" d="M55.58,254.6c0-4.03,3.15-7.61,7.34-7.61c2.54,0,4.57,1.04,6.26,2.88v-2.31c-1.77-1.5-3.88-2.19-6.19-2.19
		c-5.23,0-9.15,4.07-9.15,9.22c0,5.19,3.84,9.3,9.11,9.3c2.38,0,4.65-0.88,6.46-2.46v-2.34c-1.61,1.96-4,3.19-6.53,3.19
		C58.69,262.29,55.58,258.63,55.58,254.6z"/>
	<path class="st0" d="M77.25,248.07h-0.08v-2.31h-1.73v17.75h1.73v-9.07c0-2.61-0.23-7.46,3.65-7.46c0.46,0,0.81,0.12,1.23,0.35
		l0.92-1.54c-0.61-0.27-1.19-0.42-1.88-0.42C79.22,245.38,77.95,246.45,77.25,248.07z"/>
	<path class="st0" d="M94.55,245.38c-5.19,0-8.61,4.27-8.61,9.22c0,5.04,3.34,9.3,8.61,9.3c3.5,0,6.34-1.73,7.96-4.8l-1.46-0.85
		c-1.27,2.38-3.5,4.04-6.26,4.04c-4.11,0-7.23-3-7.11-7.49h15.41C103.12,249.68,99.93,245.38,94.55,245.38z M94.59,246.99
		c3.65,0,6.34,2.92,6.76,6.19H87.67C87.98,249.83,90.97,246.99,94.59,246.99z"/>
	<path class="st0" d="M122.68,248.83h-0.08c-1.5-2.23-4.11-3.46-6.84-3.46c-5.34,0-8.69,3.96-8.69,9.15c0,5.19,3.38,9.38,8.76,9.38
		c2.61,0,5.46-1.31,6.76-3.57h0.08v3.19h1.73v-17.75h-1.73V248.83z M115.8,262.29c-4.3,0-6.99-3.69-6.99-7.76
		c0-3.84,2.81-7.53,6.88-7.53c4.3,0,7.11,3.23,7.11,7.34C122.79,258.6,120.34,262.29,115.8,262.29z"/>
	<polygon class="st0" points="133.78,239.42 132.05,239.42 132.05,245.76 130.09,245.76 130.09,247.37 132.05,247.37 132.05,263.51 
		133.78,263.51 133.78,247.37 136.9,247.37 136.9,245.76 133.78,245.76 	"/>
	<path class="st0" d="M148.92,245.38c-5.15,0-9.22,4.19-9.22,9.3c0,5.03,4.11,9.22,9.22,9.22c5.23,0,9.34-4,9.34-9.26
		S154.15,245.38,148.92,245.38z M148.81,262.29c-4.19,0-7.38-3.57-7.38-7.61c0-4.11,3.15-7.69,7.38-7.69c4.38,0,7.72,3.31,7.72,7.69
		C156.53,258.98,153.15,262.29,148.81,262.29z"/>
	<path class="st0" d="M165.03,248.07h-0.08v-2.31h-1.73v17.75h1.73v-9.07c0-2.61-0.23-7.46,3.65-7.46c0.46,0,0.81,0.12,1.23,0.35
		l0.92-1.54c-0.61-0.27-1.19-0.42-1.88-0.42C166.99,245.38,165.72,246.45,165.03,248.07z"/>
	<path class="st0" d="M175.98,249.76c0-1.54,1.54-2.77,3.04-2.77c1.38,0,2.54,0.77,3.11,2l1.5-0.77c-0.77-1.65-2.73-2.84-4.53-2.84
		c-2.58,0-4.84,1.81-4.84,4.5c0,3,2.77,4.03,5.19,4.92c1.77,0.61,3.46,1.31,3.46,3.5c0,2.23-1.77,4-4,4c-2.34,0-3.77-1.5-4.42-3.61
		l-1.69,0.54c0.73,2.88,3.15,4.69,6.11,4.69c3.19,0,5.73-2.27,5.73-5.53C184.63,251.95,175.98,254.02,175.98,249.76z"/>
	<rect x="193.43" y="250.37" class="st0" width="19.22" height="1.73"/>
	<path class="st0" d="M224.36,233.46c-0.65,1.15-0.69,3.04-0.69,4.34v7.96h-1.96v1.61h1.96v16.14h1.73v-16.14h4.46v-1.61h-4.46
		v-7.61c0-2.23,0.04-5.23,3.04-5.23c0.5,0,0.96,0.15,1.42,0.23v-1.58c-0.5-0.19-1-0.27-1.54-0.27
		C226.7,231.31,225.17,232.04,224.36,233.46z"/>
	<path class="st0" d="M240.39,245.38c-5.15,0-9.22,4.19-9.22,9.3c0,5.03,4.11,9.22,9.22,9.22c5.23,0,9.34-4,9.34-9.26
		S245.61,245.38,240.39,245.38z M240.27,262.29c-4.19,0-7.38-3.57-7.38-7.61c0-4.11,3.15-7.69,7.38-7.69c4.38,0,7.72,3.31,7.72,7.69
		C248,258.98,244.61,262.29,240.27,262.29z"/>
	<path class="st0" d="M255.72,248.07h-0.08v-2.31h-1.73v17.75h1.73v-9.07c0-2.61-0.23-7.46,3.65-7.46c0.46,0,0.81,0.12,1.23,0.35
		l0.92-1.54c-0.61-0.27-1.19-0.42-1.88-0.42C257.68,245.38,256.41,246.45,255.72,248.07z"/>
	<path class="st0" d="M276.51,254.6c0-4.03,3.15-7.61,7.34-7.61c2.54,0,4.57,1.04,6.26,2.88v-2.31c-1.77-1.5-3.88-2.19-6.19-2.19
		c-5.23,0-9.15,4.07-9.15,9.22c0,5.19,3.84,9.3,9.11,9.3c2.38,0,4.65-0.88,6.46-2.46v-2.34c-1.61,1.96-4,3.19-6.53,3.19
		C279.62,262.29,276.51,258.63,276.51,254.6z"/>
	<path class="st0" d="M298.18,248.07h-0.08v-2.31h-1.73v17.75h1.73v-9.07c0-2.61-0.23-7.46,3.65-7.46c0.46,0,0.81,0.12,1.23,0.35
		l0.92-1.54c-0.61-0.27-1.19-0.42-1.88-0.42C300.14,245.38,298.87,246.45,298.18,248.07z"/>
	<path class="st0" d="M315.48,245.38c-5.19,0-8.61,4.27-8.61,9.22c0,5.04,3.34,9.3,8.61,9.3c3.5,0,6.34-1.73,7.96-4.8l-1.46-0.85
		c-1.27,2.38-3.5,4.04-6.27,4.04c-4.11,0-7.22-3-7.11-7.49h15.41C324.05,249.68,320.86,245.38,315.48,245.38z M315.51,246.99
		c3.65,0,6.34,2.92,6.76,6.19H308.6C308.9,249.83,311.9,246.99,315.51,246.99z"/>
	<path class="st0" d="M343.61,248.83h-0.08c-1.5-2.23-4.11-3.46-6.84-3.46c-5.34,0-8.69,3.96-8.69,9.15c0,5.19,3.38,9.38,8.76,9.38
		c2.61,0,5.46-1.31,6.76-3.57h0.08v3.19h1.73v-17.75h-1.73V248.83z M336.73,262.29c-4.3,0-6.99-3.69-6.99-7.76
		c0-3.84,2.81-7.53,6.88-7.53c4.3,0,7.11,3.23,7.11,7.34C343.72,258.6,341.26,262.29,336.73,262.29z"/>
	<polygon class="st0" points="354.71,239.42 352.98,239.42 352.98,245.76 351.02,245.76 351.02,247.37 352.98,247.37 352.98,263.51 
		354.71,263.51 354.71,247.37 357.82,247.37 357.82,245.76 354.71,245.76 	"/>
	<path class="st0" d="M369.85,245.38c-5.15,0-9.22,4.19-9.22,9.3c0,5.03,4.11,9.22,9.22,9.22c5.23,0,9.34-4,9.34-9.26
		S375.08,245.38,369.85,245.38z M369.74,262.29c-4.19,0-7.38-3.57-7.38-7.61c0-4.11,3.15-7.69,7.38-7.69c4.38,0,7.72,3.31,7.72,7.69
		C377.46,258.98,374.08,262.29,369.74,262.29z"/>
	<path class="st0" d="M385.95,248.07h-0.08v-2.31h-1.73v17.75h1.73v-9.07c0-2.61-0.23-7.46,3.65-7.46c0.46,0,0.81,0.12,1.23,0.35
		l0.92-1.54c-0.61-0.27-1.19-0.42-1.88-0.42C387.91,245.38,386.65,246.45,385.95,248.07z"/>
	<path class="st0" d="M396.91,249.76c0-1.54,1.54-2.77,3.04-2.77c1.38,0,2.54,0.77,3.11,2l1.5-0.77c-0.77-1.65-2.73-2.84-4.53-2.84
		c-2.58,0-4.84,1.81-4.84,4.5c0,3,2.77,4.03,5.19,4.92c1.77,0.61,3.46,1.31,3.46,3.5c0,2.23-1.77,4-4,4c-2.34,0-3.77-1.5-4.42-3.61
		l-1.69,0.54c0.73,2.88,3.15,4.69,6.11,4.69c3.19,0,5.73-2.27,5.73-5.53C405.55,251.95,396.91,254.02,396.91,249.76z"/>
	<path class="st0" d="M276.01,115.96h-5.91v81.34l-71.29-81.52v89.44H190l-36.85-91.12l-36.96,91.12h-6.77l-26.78-38.71
		c15.53,0.25,26.83-8.2,26.83-24.47c0-7.95-2.73-15.4-9.44-20.12c-6.33-4.6-13.79-4.72-21.36-4.72H66.99v93.65h5.96v-44.34h2.98
		l30.5,44.26v0.04h0.03l0.03,0.04h6.83l-0.03-0.04h0.63l-0.02,0.04h6.09l12.54-30.8h41.11l12.4,30.46v0.3h0.12l0.02,0.04h6.09
		l-0.02-0.04h6.55v0.03h5.46v-0.03v-5.59v-73.53l71.75,82.89V115.96z M72.95,160.93V122.8h3.85c5.47,0,11.8-0.25,16.77,2.11
		c6.71,2.98,9.94,9.94,9.94,16.89c0,5.59-2.11,11.18-6.58,14.78c-4.72,4.1-10.56,4.35-16.39,4.35H72.95z M134.77,174.46l18.38-45.21
		l18.26,45.21H134.77z"/>
</g>
</svg>
