<svg enable-background="new 0 0 413.55 273.89" viewBox="0 0 413.55 273.89" xmlns="http://www.w3.org/2000/svg"><g fill="#fff"><path d="m9.63 50.2h57.46v48.8h6.02v-94.58h-6.02v40.14h-57.46v-40.14h-6.02v94.58h6.02z"/><path d="m144.15 98.87h.21l12.82-31.48h42.02l12.82 31.48h.06v.01h19.52v-.06h8.55c13.98 0 25.1-2.5 35.46-12.49 9.49-9.11 14.49-21.48 14.49-34.46 0-13.49-5.12-26.1-14.98-35.34-10.37-9.61-21.23-11.86-34.96-11.86h-16.98v88.56h-7.2l-37.73-93.23-37.87 93.36h-45.72v-43.28h38.14v-5.65h-38.14v-34.37h39.14v-5.64h-45.16v94.58h55.51zm85-88.58h10.86c11.74 0 21.48 2.12 30.47 10.24 8.86 8.12 13.61 19.35 13.61 31.34 0 11.24-4.5 21.97-12.49 29.97-8.99 8.86-19.23 11.36-31.59 11.36h-10.86zm-50.9 5.19 18.66 46.2h-37.44z"/><path d="m384.09 212.03c15.23 0 29.46-11.73 29.46-27.33 0-8.49-3.62-14.23-10.74-18.72l-17.97-9.36c-7.61-3.62-16.98-7.74-16.98-17.6s7.61-17.98 17.73-17.98c8.86 0 14.85 4.37 19.09 11.11l4.24-3.5c-4.49-8.11-13.48-13.23-22.96-13.23-14.1 0-24.09 9.86-24.09 23.84 0 7.49 3.49 12.99 9.73 16.85l16.98 8.99c8.11 4 18.97 8.49 18.97 19.09 0 12.49-10.86 22.22-23.21 22.22-11.36 0-18.72-6.99-22.72-16.98l-.06.03v-.02h-14.74c4.79-7.61 7.27-16.45 7.27-25.6 0-13.48-5.12-26.09-14.98-35.32-10.36-9.61-21.22-11.86-34.95-11.86h-16.98v94.12h16.98c13.98 0 25.09-2.5 35.45-12.48 1.09-1.04 2.11-2.13 3.07-3.26h15.05c4.93 10.31 14.46 16.99 26.36 16.99zm-48.47-18.22c-8.98 8.86-19.22 11.36-31.58 11.36h-10.86v-82.88h10.86c11.73 0 21.47 2.12 30.45 10.23 8.86 8.11 13.6 19.35 13.6 31.33.01 11.24-4.48 21.97-12.47 29.96z"/><path d="m39.6 160.2c7.59-4.3 11.01-10.76 11.01-19.49 0-7.59-2.15-14.68-7.97-19.74-5.7-5.06-12.53-5.57-19.75-5.57h-19.1v95.41h24.42c8.48 0 15.56-1.14 22.27-6.83 5.95-5.06 8.86-12.02 8.86-19.74 0-12.14-7.97-21.64-19.74-24.04zm-29.74-39.1h10.5c5.57 0 11.52 0 16.33 3.04 5.44 3.41 7.84 9.49 7.84 15.69 0 6.58-1.64 11.39-7.09 15.31-5.44 3.92-10.63 3.54-17.09 3.54h-10.49zm34.05 80.35c-5.83 3.92-12.78 3.67-19.49 3.67h-14.56v-40.74h13.42c6.33 0 14.3.13 20.12 3.04 6.45 3.16 9.87 10.12 9.87 17.08 0 7.08-3.54 13.03-9.36 16.95z"/><path d="m15.31 248.14c2.31-1.31 3.34-3.27 3.34-5.92 0-2.31-.65-4.46-2.42-6-1.73-1.54-3.8-1.69-6-1.69h-5.8v28.98h7.42c2.57 0 4.73-.35 6.76-2.08 1.81-1.54 2.69-3.65 2.69-6 .01-3.68-2.42-6.56-5.99-7.29zm-9.03-11.87h3.19c1.69 0 3.5 0 4.96.92 1.65 1.04 2.38 2.88 2.38 4.77 0 2-.5 3.46-2.15 4.65s-3.23 1.08-5.19 1.08h-3.19zm10.34 24.4c-1.77 1.19-3.88 1.11-5.92 1.11h-4.42v-12.38h4.07c1.92 0 4.34.04 6.11.92 1.96.96 3 3.07 3 5.19 0 2.16-1.08 3.97-2.84 5.16z"/><path d="m32.14 261.82-7.57-16.06h-1.81l8.54 18.06-4.27 10.07h1.77l11.91-28.13h-1.77z"/><path d="m55.58 254.6c0-4.03 3.15-7.61 7.34-7.61 2.54 0 4.57 1.04 6.26 2.88v-2.31c-1.77-1.5-3.88-2.19-6.19-2.19-5.23 0-9.15 4.07-9.15 9.22 0 5.19 3.84 9.3 9.11 9.3 2.38 0 4.65-.88 6.46-2.46v-2.34c-1.61 1.96-4 3.19-6.53 3.19-4.19.01-7.3-3.65-7.3-7.68z"/><path d="m77.25 248.07h-.08v-2.31h-1.73v17.75h1.73v-9.07c0-2.61-.23-7.46 3.65-7.46.46 0 .81.12 1.23.35l.92-1.54c-.61-.27-1.19-.42-1.88-.42-1.87.01-3.14 1.08-3.84 2.7z"/><path d="m94.55 245.38c-5.19 0-8.61 4.27-8.61 9.22 0 5.04 3.34 9.3 8.61 9.3 3.5 0 6.34-1.73 7.96-4.8l-1.46-.85c-1.27 2.38-3.5 4.04-6.26 4.04-4.11 0-7.23-3-7.11-7.49h15.41c.03-5.12-3.16-9.42-8.54-9.42zm.04 1.61c3.65 0 6.34 2.92 6.76 6.19h-13.68c.31-3.35 3.3-6.19 6.92-6.19z"/><path d="m122.68 248.83h-.08c-1.5-2.23-4.11-3.46-6.84-3.46-5.34 0-8.69 3.96-8.69 9.15s3.38 9.38 8.76 9.38c2.61 0 5.46-1.31 6.76-3.57h.08v3.19h1.73v-17.75h-1.73v3.06zm-6.88 13.46c-4.3 0-6.99-3.69-6.99-7.76 0-3.84 2.81-7.53 6.88-7.53 4.3 0 7.11 3.23 7.11 7.34-.01 4.26-2.46 7.95-7 7.95z"/><path d="m133.78 239.42h-1.73v6.34h-1.96v1.61h1.96v16.14h1.73v-16.14h3.12v-1.61h-3.12z"/><path d="m148.92 245.38c-5.15 0-9.22 4.19-9.22 9.3 0 5.03 4.11 9.22 9.22 9.22 5.23 0 9.34-4 9.34-9.26s-4.11-9.26-9.34-9.26zm-.11 16.91c-4.19 0-7.38-3.57-7.38-7.61 0-4.11 3.15-7.69 7.38-7.69 4.38 0 7.72 3.31 7.72 7.69 0 4.3-3.38 7.61-7.72 7.61z"/><path d="m165.03 248.07h-.08v-2.31h-1.73v17.75h1.73v-9.07c0-2.61-.23-7.46 3.65-7.46.46 0 .81.12 1.23.35l.92-1.54c-.61-.27-1.19-.42-1.88-.42-1.88.01-3.15 1.08-3.84 2.7z"/><path d="m175.98 249.76c0-1.54 1.54-2.77 3.04-2.77 1.38 0 2.54.77 3.11 2l1.5-.77c-.77-1.65-2.73-2.84-4.53-2.84-2.58 0-4.84 1.81-4.84 4.5 0 3 2.77 4.03 5.19 4.92 1.77.61 3.46 1.31 3.46 3.5 0 2.23-1.77 4-4 4-2.34 0-3.77-1.5-4.42-3.61l-1.69.54c.73 2.88 3.15 4.69 6.11 4.69 3.19 0 5.73-2.27 5.73-5.53-.01-6.44-8.66-4.37-8.66-8.63z"/><path d="m193.43 250.37h19.22v1.73h-19.22z"/><path d="m224.36 233.46c-.65 1.15-.69 3.04-.69 4.34v7.96h-1.96v1.61h1.96v16.14h1.73v-16.14h4.46v-1.61h-4.46v-7.61c0-2.23.04-5.23 3.04-5.23.5 0 .96.15 1.42.23v-1.58c-.5-.19-1-.27-1.54-.27-1.62.01-3.15.74-3.96 2.16z"/><path d="m240.39 245.38c-5.15 0-9.22 4.19-9.22 9.3 0 5.03 4.11 9.22 9.22 9.22 5.23 0 9.34-4 9.34-9.26s-4.12-9.26-9.34-9.26zm-.12 16.91c-4.19 0-7.38-3.57-7.38-7.61 0-4.11 3.15-7.69 7.38-7.69 4.38 0 7.72 3.31 7.72 7.69.01 4.3-3.38 7.61-7.72 7.61z"/><path d="m255.72 248.07h-.08v-2.31h-1.73v17.75h1.73v-9.07c0-2.61-.23-7.46 3.65-7.46.46 0 .81.12 1.23.35l.92-1.54c-.61-.27-1.19-.42-1.88-.42-1.88.01-3.15 1.08-3.84 2.7z"/><path d="m276.51 254.6c0-4.03 3.15-7.61 7.34-7.61 2.54 0 4.57 1.04 6.26 2.88v-2.31c-1.77-1.5-3.88-2.19-6.19-2.19-5.23 0-9.15 4.07-9.15 9.22 0 5.19 3.84 9.3 9.11 9.3 2.38 0 4.65-.88 6.46-2.46v-2.34c-1.61 1.96-4 3.19-6.53 3.19-4.19.01-7.3-3.65-7.3-7.68z"/><path d="m298.18 248.07h-.08v-2.31h-1.73v17.75h1.73v-9.07c0-2.61-.23-7.46 3.65-7.46.46 0 .81.12 1.23.35l.92-1.54c-.61-.27-1.19-.42-1.88-.42-1.88.01-3.15 1.08-3.84 2.7z"/><path d="m315.48 245.38c-5.19 0-8.61 4.27-8.61 9.22 0 5.04 3.34 9.3 8.61 9.3 3.5 0 6.34-1.73 7.96-4.8l-1.46-.85c-1.27 2.38-3.5 4.04-6.27 4.04-4.11 0-7.22-3-7.11-7.49h15.41c.04-5.12-3.15-9.42-8.53-9.42zm.03 1.61c3.65 0 6.34 2.92 6.76 6.19h-13.67c.3-3.35 3.3-6.19 6.91-6.19z"/><path d="m343.61 248.83h-.08c-1.5-2.23-4.11-3.46-6.84-3.46-5.34 0-8.69 3.96-8.69 9.15s3.38 9.38 8.76 9.38c2.61 0 5.46-1.31 6.76-3.57h.08v3.19h1.73v-17.75h-1.73v3.06zm-6.88 13.46c-4.3 0-6.99-3.69-6.99-7.76 0-3.84 2.81-7.53 6.88-7.53 4.3 0 7.11 3.23 7.11 7.34-.01 4.26-2.47 7.95-7 7.95z"/><path d="m354.71 239.42h-1.73v6.34h-1.96v1.61h1.96v16.14h1.73v-16.14h3.11v-1.61h-3.11z"/><path d="m369.85 245.38c-5.15 0-9.22 4.19-9.22 9.3 0 5.03 4.11 9.22 9.22 9.22 5.23 0 9.34-4 9.34-9.26s-4.11-9.26-9.34-9.26zm-.11 16.91c-4.19 0-7.38-3.57-7.38-7.61 0-4.11 3.15-7.69 7.38-7.69 4.38 0 7.72 3.31 7.72 7.69 0 4.3-3.38 7.61-7.72 7.61z"/><path d="m385.95 248.07h-.08v-2.31h-1.73v17.75h1.73v-9.07c0-2.61-.23-7.46 3.65-7.46.46 0 .81.12 1.23.35l.92-1.54c-.61-.27-1.19-.42-1.88-.42-1.88.01-3.14 1.08-3.84 2.7z"/><path d="m396.91 249.76c0-1.54 1.54-2.77 3.04-2.77 1.38 0 2.54.77 3.11 2l1.5-.77c-.77-1.65-2.73-2.84-4.53-2.84-2.58 0-4.84 1.81-4.84 4.5 0 3 2.77 4.03 5.19 4.92 1.77.61 3.46 1.31 3.46 3.5 0 2.23-1.77 4-4 4-2.34 0-3.77-1.5-4.42-3.61l-1.69.54c.73 2.88 3.15 4.69 6.11 4.69 3.19 0 5.73-2.27 5.73-5.53-.02-6.44-8.66-4.37-8.66-8.63z"/><path d="m276.01 115.96h-5.91v81.34l-71.29-81.52v89.44h-8.81l-36.85-91.12-36.96 91.12h-6.77l-26.78-38.71c15.53.25 26.83-8.2 26.83-24.47 0-7.95-2.73-15.4-9.44-20.12-6.33-4.6-13.79-4.72-21.36-4.72h-11.68v93.65h5.96v-44.34h2.98l30.5 44.26v.04h.03l.03.04h6.83l-.03-.04h.63l-.02.04h6.09l12.54-30.8h41.11l12.4 30.46v.3h.12l.02.04h6.09l-.02-.04h6.55v.03h5.46v-.03-5.59-73.53l71.75 82.89zm-203.06 44.97v-38.13h3.85c5.47 0 11.8-.25 16.77 2.11 6.71 2.98 9.94 9.94 9.94 16.89 0 5.59-2.11 11.18-6.58 14.78-4.72 4.1-10.56 4.35-16.39 4.35zm61.82 13.53 18.38-45.21 18.26 45.21z"/></g></svg>