<svg clip-rule="evenodd" fill-rule="evenodd" stroke-linejoin="round" stroke-miterlimit="2" viewBox="0 0 162 32" xmlns="http://www.w3.org/2000/svg"><path d="m15.918 0c-8.816 0-15.918 7.184-15.918 16s7.184 16 16 16 16-7.184 16-16-7.265-16-16.082-16zm8.817 24.327s-3.429-1.225-8.817-1.225c-5.387 0-8.816 1.225-8.816 1.225v-16.654h.245s1.469 14.694 8.571 14.694 8.572-14.694 8.572-14.694h.245zm114.694-1.062-.409-1.306h-.245c-.408 0-.734-.245-.734-.98v-9.795c0-1.307 0-2.286-.163-2.939l-2.286.49c.163.816.245 1.551.245 3.02v9.388c0 1.551.898 2.449 2.204 2.449.571-.082.979-.163 1.388-.327zm-10.939 0-1.225-14.204h-3.183l-2.858 10.449-2.857-10.367h-3.265l-1.388 14.204h2.123l.979-11.918 3.347 11.918h1.715l3.346-11.673.98 11.673h2.286zm-71.021.082v-14.204h-2.285v5.714h-5.306v-5.714h-2.286v14.204h2.286v-6.612h5.306v6.612zm4.245-6.286c0-1.796.817-2.775 2.041-2.775 1.306 0 2.041 1.061 2.041 2.775zm36.327 1.306-.082 2.449c-.408.735-1.224 1.143-2.041 1.143-.979 0-1.551-.571-1.551-1.632 0-.653.164-1.062.572-1.388.408-.408 1.224-.653 2.612-.653.163.081.327.081.49.081zm49.877-1.306h4c0-1.714-.734-2.775-1.959-2.775-1.306 0-1.959.979-2.041 2.775zm-79.755 1.143v.408h-6.367v.164c0 .734.082 1.469.408 1.959.49.653 1.306 1.061 2.286 1.061.979 0 1.877-.327 2.694-.98l.898 1.307c-1.062.897-2.368 1.387-3.837 1.387-3.02 0-4.898-2.122-4.898-5.469 0-1.796.49-3.102 1.306-4s1.878-1.388 3.265-1.388c1.143 0 2.204.408 2.939 1.143.816.816 1.306 2.122 1.306 4.408zm7.429-5.388c-.245-.081-.49-.163-.898-.163-1.143 0-1.959.653-2.694 1.633v-.163c0-.654-.163-.98-.408-1.388l-2.123.571c.245.653.327 1.388.327 2.612v7.429h2.286v-6.939c.081-.571.245-.816.653-1.143.408-.408.898-.49 1.387-.49.194 0 .337.052.509.113.046.017.093.034.145.051zm14.53 2.858v7.428h-2.04v-7.265c0-1.061-.327-1.47-1.143-1.47-.653 0-1.47.408-2.368 1.307v7.51h-2.204v-7.102c0-1.143-.326-1.633-1.224-1.633-.653 0-1.388.327-2.286 1.061v7.674h-2.204v-7.51c0-1.47-.082-1.878-.408-2.531l2.041-.49c.163.327.326.816.408 1.306.735-.734 1.877-1.306 2.857-1.306 1.143 0 2.041.572 2.531 1.551.898-.979 2.122-1.551 3.265-1.551.735 0 1.551.245 1.959.653.571.49.816 1.225.816 2.368zm11.021 6.612c-.735-.49-.98-.898-.98-2.123v-.326l.082-3.102v-.653c0-.991-.071-1.341-.147-1.715l-.016-.081c-.409-1.143-1.551-1.715-3.184-1.715-.98 0-1.878.164-2.857.572-.572.245-1.143.49-1.715.816l.98 1.551c.408-.326.735-.49 1.306-.734.735-.327 1.388-.49 1.959-.49.653 0 .98.163 1.225.49.245.326.326.653.326 1.387v.735h-.734c-3.511 0-5.388 1.224-5.388 3.673 0 .817.245 1.715.816 2.205.653.571 1.388.816 2.694.816.898 0 1.633-.245 2.286-.653.151-.101.24-.202.363-.341v-.001c.076-.086.165-.187.29-.311.245.653.816 1.143 1.469 1.387zm10.041-6.694v7.837h-2.368v-6.858c0-1.469-.326-1.877-1.224-1.877-.735 0-1.714.49-2.449 1.224v7.511h-2.204v-7.674c0-1.224 0-1.714-.327-2.449l2.041-.571c.245.408.408.898.408 1.387 1.225-.979 2.123-1.387 3.266-1.387 1.714 0 2.857.898 2.857 2.857zm21.877-2.939v10.531h-2.285v-10.204zm-1.143-4.245c.898 0 1.551.653 1.551 1.469 0 .817-.653 1.47-1.632 1.47-.735 0-1.47-.653-1.47-1.47 0-.816.735-1.469 1.551-1.469zm12.735 14.857-.408-1.306c-.327.082-.572 0-.735-.163-.163-.245-.245-.653-.245-1.633v-8.979c0-1.307 0-2.286-.163-2.939l-2.286.49c.164.816.245 1.551.245 3.02v8.98c0 1.143.245 1.714.49 2.122.327.49.98.735 1.714.735.49-.082.898-.163 1.388-.327zm9.633-5.061v.408h-6.531v.164c0 .734.163 1.469.49 1.959.49.653 1.306 1.061 2.286 1.061.979 0 1.877-.327 2.693-.98l.898 1.307c-1.061.897-2.449 1.387-3.836 1.387-3.021 0-4.898-2.122-4.898-5.469 0-1.796.49-3.102 1.306-4 .898-.898 1.959-1.388 3.265-1.388 1.225 0 2.286.408 3.021 1.143.816.816 1.306 2.122 1.306 4.408zm7.51-5.388c-.245-.081-.49-.163-.898-.163-1.143 0-2.041.653-2.694 1.633v-.163c0-.654-.163-.98-.408-1.388l-2.041.571c.245.653.327 1.388.327 2.612v7.429h2.285v-6.939c.082-.571.245-.816.653-1.143.409-.408.898-.49 1.388-.49.194 0 .337.052.509.113.025.009.051.019.078.028.022.008.044.015.066.023z" fill="#fff"/></svg>