<svg fill="none" height="32" viewBox="0 0 162 32" width="162" xmlns="http://www.w3.org/2000/svg"><path clip-rule="evenodd" d="m15.9184 0c-8.81636 0-15.9184 7.18367-15.9184 16 0 8.8163 7.18367 16 16 16 8.8163 0 16-7.1837 16-16 0-8.81633-7.2653-16-16.0816-16zm8.8163 24.3265s-3.4286-1.2244-8.8163-1.2244c-5.3878 0-8.81634 1.2244-8.81634 1.2244v-16.65301h.2449s1.46939 14.69391 8.57144 14.69391c7.102 0 8.5714-14.69391 8.5714-14.69391h.2449zm114.6943-1.0613-.409-1.3061h-.245c-.408 0-.734-.2449-.734-.9796v-9.7959c0-1.30612 0-2.28571-.163-2.93878l-2.286.4898c.163.81633.245 1.55098.245 3.02038v9.3878c0 1.551.898 2.449 2.204 2.449.571-.0817.979-.1633 1.388-.3266zm-10.939.0001-1.225-14.20408h-3.183l-2.858 10.44898-2.857-10.36735h-3.265l-1.388 14.20405h2.123l.979-11.9183 3.347 11.9183h1.715l3.346-11.6734.98 11.6734h2.286zm-71.0206-.0001v-14.12241h-2.2857v5.71431h-5.3062v-5.71431h-2.2857v14.20411h2.2857v-6.6123h5.3062v6.6123h2.2857zm4.2449-6.2039c0-1.796.8163-2.7755 2.0408-2.7755 1.3061 0 2.0408 1.0612 2.0408 2.7755zm36.3265 1.306-.0816 2.449c-.4082.7347-1.2245 1.1429-2.0409 1.1429-.9795 0-1.551-.5715-1.551-1.6327 0-.653.1633-1.0612.5715-1.3877.4081-.4082 1.2244-.6531 2.6122-.6531.1633.0816.3265.0816.4898.0816zm49.8772-1.306h4c0-1.7143-.734-2.7755-1.959-2.7755-1.306 0-1.959.9795-2.041 2.7755zm-79.7548 1.1428v.4082h-6.3673v.1632c0 .7347.0816 1.4694.4082 1.9592.4898.6531 1.3061 1.0612 2.2857 1.0612s1.8775-.3265 2.6939-.9796l.8979 1.3062c-1.0612.8979-2.3673 1.3877-3.8367 1.3877-3.0204 0-4.898-2.1224-4.898-5.4694 0-1.7959.4898-3.102 1.3061-4 .8164-.8979 1.8776-1.3877 3.2653-1.3877 1.1429 0 2.2041.4081 2.9388 1.1428.8163.8164 1.3061 2.1225 1.3061 4.4082zm7.4286-5.3878c-.2449-.0816-.4898-.1632-.898-.1632-1.1428 0-1.9591.653-2.6938 1.6326v-.1632c0-.6531-.1633-.9796-.4082-1.3878l-2.1224.5714c.2449.6531.3265 1.3878.3265 2.6123v7.4286h2.2857v-6.9388c.0816-.5714.2449-.8163.6531-1.1429.4081-.4081.8979-.4898 1.3877-.4898.1938 0 .3365.0511.5089.1129.0455.0163.0931.0334.1442.0504zm14.5306 2.8572v7.4286h-2.0408v-7.2653c0-1.0613-.3265-1.4694-1.1428-1.4694-.6531 0-1.4694.4081-2.3674 1.3061v7.5102h-2.2041v-7.102c0-1.1429-.3265-1.6327-1.2245-1.6327-.653 0-1.3877.3265-2.2857 1.0612v7.6735h-2.2041v-7.5102c0-1.4694-.0816-1.8776-.4081-2.5306l2.0408-.4898c.1633.3265.3265.8163.4082 1.3061.7347-.7347 1.8775-1.3061 2.8571-1.3061 1.1429 0 2.0408.5714 2.5306 1.551.898-.9796 2.1225-1.551 3.2653-1.551.7347 0 1.551.2449 1.9592.653.5714.4898.8163 1.2245.8163 2.3674zm11.0206 6.6122c-.735-.4898-.98-.898-.98-2.1225v-.3265l.082-3.102v-.6531c0-.9902-.071-1.3407-.147-1.7148l-.016-.0811c-.4086-1.1429-1.5514-1.7143-3.1841-1.7143-.9796 0-1.8775.1633-2.8571.5714-.5714.2449-1.1429.4898-1.7143.8164l.9796 1.551c.4082-.3266.7347-.4898 1.3061-.7347.7347-.3266 1.3878-.4898 1.9592-.4898.6531 0 .9796.1632 1.2245.4898.2449.3265.3265.653.3265 1.3877v.7347h-.7347c-3.5102 0-5.3877 1.2245-5.3877 3.6735 0 .8163.2449 1.7143.8163 2.2041.6531.5714 1.3877.8163 2.6939.8163.8979 0 1.6326-.2449 2.2857-.6531.1513-.1009.2403-.2018.3633-.3412l.0001-.0001c.076-.0862.165-.1871.2896-.3117.2449.653.8164 1.1428 1.4694 1.3877zm10.041-6.6939v7.6735.1632h-2.368v-6.8571c0-1.4694-.326-1.8776-1.224-1.8776-.735 0-1.714.4898-2.449 1.2245v7.5102h-2.204v-7.6734c0-1.2245 0-1.7143-.327-2.449l2.041-.5714c.245.4081.408.8979.408 1.3877 1.225-.9796 2.123-1.3877 3.266-1.3877 1.714 0 2.857.8979 2.857 2.8571zm21.877-2.9387v10.5306h-2.285v-10.2041zm-1.143-4.24502c.898 0 1.551.65306 1.551 1.46939s-.653 1.46943-1.632 1.46943c-.735 0-1.47-.6531-1.47-1.46943s.735-1.46939 1.551-1.46939zm12.735 14.85712-.408-1.3061c-.327.0816-.572 0-.735-.1633-.163-.2449-.245-.653-.245-1.6326v-8.9796c0-1.30612 0-2.28571-.163-2.93878l-2.286.4898c.164.81633.245 1.55098.245 3.02038v8.9796c0 1.1429.245 1.7143.49 2.1225.327.4898.98.7347 1.714.7347.49-.0817.898-.1633 1.388-.3266zm9.633-5.0611v.4082h-6.531v.1632c0 .7347.163 1.4694.49 1.9592.49.6531 1.306 1.0612 2.286 1.0612.979 0 1.877-.3265 2.693-.9796l.898 1.3062c-1.061.8979-2.449 1.3877-3.836 1.3877-3.021 0-4.898-2.1224-4.898-5.4694 0-1.7959.49-3.102 1.306-4 .898-.8979 1.959-1.3877 3.265-1.3877 1.225 0 2.286.4081 3.021 1.1428.816.8164 1.306 2.1225 1.306 4.4082zm7.51-5.3878c-.245-.0816-.49-.1632-.898-.1632-1.143 0-2.041.653-2.694 1.6326v-.1632c0-.6531-.163-.9796-.408-1.3878l-2.041.5714c.245.6531.327 1.3878.327 2.6123v7.4286h2.285v-6.9388c.082-.5714.245-.8163.653-1.1429.409-.4081.898-.4898 1.388-.4898.194 0 .337.0511.509.1129.025.0091.051.0184.078.0278.022.0075.044.015.066.0226z" fill="#282828" fill-rule="evenodd"/></svg>