<svg fill="none" height="18" viewBox="0 0 146 18" width="146" xmlns="http://www.w3.org/2000/svg" xmlns:xlink="http://www.w3.org/1999/xlink"><clipPath id="a"><path d="m0 0h145.364v18h-145.364z"/></clipPath><g clip-path="url(#a)" fill="#000"><path d="m44.1641 9.96916h5.4v-2.63077h-5.4v-4.2923h5.8154v-2.769235h-9.5538v17.446145h9.6923v-2.6308h-5.9539z"/><path d="m33.9179.276855h-6.6462v17.446145h3.7385v-7.0615h2.6308c3.2307 0 4.8461-1.70772 4.8461-5.12311 0-3.50769-1.5231-5.261535-4.5692-5.261535zm-.9692 7.753845h-1.9385v-4.98461h1.8c1.2923 0 1.9385.87692 1.9385 2.63077 0 1.56923-.6 2.35384-1.8 2.35384z"/><path d="m59.805 9.13839c2.2154-.36923 3.3231-1.8 3.3231-4.2923 0-3.04616-1.3846-4.569235-4.1538-4.569235h-6.6462v17.446145h3.6v-7.2h.9693c1.6615 0 2.5384.8769 2.6307 2.6308.0923 2.7692.1846 4.2923.2769 4.5692h3.6c-.2769-.5538-.4153-2.2615-.4153-5.1231 0-2.0307-1.0616-3.18458-3.1847-3.46151zm-2.2102-1.24615h-1.6615v-4.84615h1.6615c1.2 0 1.8.73846 1.8 2.21538 0 1.75385-.6051 2.63077-1.8 2.63077z"/><path d="m19.3846 7.61532-2.6307-7.338465h-3.8769l4.5692 11.353845v6.0923h3.5949v-6.0923l4.8461-11.353845h-3.7385z"/><path d="m106.744.276855-4.847 17.446145h3.6l.965-3.8769h4.984l.969 3.8769h3.877l-4.707-17.446145zm.548 10.938445 1.662-7.47691 1.8 7.47691z"/><path d="m127.508 12.323-4.57-12.046145h-4.984v17.446145h3.461v-12.73845l4.708 12.73845h4.846v-17.446145h-3.461z"/><path d="m139.831.276855h-6.093v17.446145h5.954c3.785 0 5.677-2.9538 5.677-8.86153-.005-5.72308-1.851-8.584615-5.538-8.584615zm-.693 14.815345h-1.8v-12.04611h1.939c1.661 0 2.492 1.98461 2.492 5.95384 0 4.06157-.882 6.09227-2.631 6.09227z"/><path d="m85.9025 7.89231c-2.4461-1.38462-3.6666-2.53846-3.6666-3.46154 0-1.2.6461-1.8 1.9384-1.8 1.1077 0 1.6616.87692 1.6616 2.63077h3.4615c.2769-3.50769-1.3846-5.26154-4.9846-5.26154-3.7846 0-5.6769 1.66154-5.6769 4.98462 0 1.84615 1.2 3.50769 3.6 4.98461 2.4 1.47697 3.6 2.63077 3.6 3.46157 0 1.2923-.6 1.9384-1.8 1.9384-1.3847 0-2.077-1.0154-2.077-3.0461h-3.6c-.2769 3.7846 1.4308 5.6769 5.1231 5.6769 4.0615 0 6.0923-1.6615 6.0923-4.9846 0-2.0308-1.2256-3.73848-3.6718-5.12309z"/><path d="m95.3898.276855h-3.6v17.446145h9.1332v-2.9077h-5.5332z"/><path d="m76.1436.276855h-3.6v17.446145h3.6z"/><path d="m7.75385 7.33839h-4.15385v-7.061535h-3.6v17.446145h3.6v-7.75384h4.15385v7.75384h3.59995v-17.446145h-3.59995z"/></g></svg>