<svg fill="none" height="26" viewBox="0 0 52 26" width="52" xmlns="http://www.w3.org/2000/svg"><path clip-rule="evenodd" d="m37.4429 0 14.5571 25.5493h-7.3667l-1.6023-2.7694h-7.332l2.5614-4.5009h2.2072l-3.0247-5.331-3.1682 5.539c-.4978.8666-.9966 1.6274-1.4945 2.2851-2.4199 3.1855-6.3363 5.2279-10.6773 5.2279-7.2964 0-13.24075-5.7816-13.24075-12.8787 0-7.097 5.94435-12.880559 13.24075-12.880559 2.4912 0 4.7339.658667 6.6916 1.766069l-3.1325 5.5043c-1.0798-.63215-2.3079-.96644-3.5591-.96874-3.7373 0-6.7629 2.94282-6.7629 6.57703 0 3.6362 3.0256 6.579 6.7629 6.579 2.028 0 3.7016-.8311 4.9111-2.0434.5344-.5191 1.1392-1.3848 1.3173-1.6958zm-37.4429 25.5493v-24.855967h6.47785v24.856967h-6.47785z" fill="#282828" fill-rule="evenodd"/></svg>