<svg viewBox="0 0 54 27" xmlns="http://www.w3.org/2000/svg"><path d="m38.883 0 15.117 26.532h-7.65l-1.664-2.876h-7.614l2.66-4.674h2.292l-3.141-5.536-3.29 5.752c-.517.9-1.035 1.69-1.552 2.373-2.513 3.308-6.58 5.429-11.088 5.429-7.577 0-13.75-6.004-13.75-13.374s6.173-13.376 13.75-13.376c2.587 0 4.916.684 6.949 1.834l-3.253 5.716a7.342 7.342 0 0 0 -3.696-1.006c-3.881 0-7.023 3.056-7.023 6.83 0 3.776 3.142 6.832 7.023 6.832 2.106 0 3.844-.863 5.1-2.122.555-.539 1.183-1.438 1.368-1.761zm-38.883 26.532v-25.812h6.727v25.813h-6.727z" fill="#e3000b" fill-rule="evenodd"/></svg>