<svg height="340mm" viewBox="0 0 825 340" width="825mm" xmlns="http://www.w3.org/2000/svg"><g stroke-width="1.171426" transform="translate(0 43)"><path d="m822.09929 293.97727h-817.3038328v-331.982109h817.4209828v331.982109z" fill="#0058a3"/><path d="m20.726849 127.98623c0 80.24266 164.585331 146.89678 392.779071 146.89678 228.19378 0 392.66199-66.65412 392.66199-146.89678 0-80.242687-164.58535-146.896807-392.66199-146.896807-228.07659 0-392.779071 66.65412-392.779071 146.896807z" fill="#ffdb00"/><path d="m281.13482 64.143513c-1.75714 3.51428-1.75714 6.911412-1.75714 10.425692v43.928465s23.54566-30.574227 28.93422-37.837078c4.09999-5.388546 9.13712-13.002799 9.13712-16.517079h76.84553c-5.27143 3.51428-11.12853 9.83996-15.93138 15.697092-4.21712 5.154291-28.11423 34.322805-28.11423 34.322805s35.49419 54.00272 40.06275 60.91414c2.57714 3.74857 5.38858 7.26285 8.66857 10.42569h-88.44265c0-3.51428-3.39714-10.65999-7.1457-16.28283-3.74857-5.62283-24.01423-36.43136-24.01423-36.43136v42.2885c0 3.51428 0 6.91141 1.75714 10.42569h-73.68269c1.75714-3.51428 1.75714-6.91141 1.75714-10.42569v-100.508345c0-3.51428 0-6.911412-1.75714-10.425692zm272.82509 0h-142.21111c1.75712 3.51428 1.75712 6.911412 1.75712 10.425692v100.508345c0 3.51428 0 6.91141-1.75712 10.42569h142.21111v-33.61993c-3.51428 1.75712-6.91141 1.75712-10.42569 1.75712h-59.85986v-15.93139h57.517v-25.65423h-57.517v-16.048528h59.85986c3.51428 0 6.91141 0 10.42569 1.640011zm197.03381 110.934037c1.17143 3.86568 3.16288 7.37999 5.73999 10.42569h-77.07981c.35151-3.51428-.93714-6.91141-2.34286-10.42569 0 0-1.17142-2.81144-2.81143-6.91142l-.70285-1.75715h-44.39701l-.70288 1.8743s-1.28858 3.39713-2.46 6.91141c-1.17143 3.51428-2.46 6.91142-1.99142 10.42569h-60.79699c2.45997-3.04573 4.33427-6.56001 5.5057-10.42569l36.43133-100.508339c1.28857-3.514279 2.57714-6.911412 2.10856-10.425691h102.73408c-.93717 3.514279.93713 6.911412 2.22571 10.425691 3.04569 7.614253 35.96274 93.596929 38.53988 100.391199m-86.91981-34.32277-10.77709-28.11424c-.93713-2.57714-1.75716-5.27143-2.34285-7.96569-.46859 2.69426-1.17143 5.38855-2.10856 7.96569-.35151 1.17143-4.92 13.47139-10.19144 28.11424zm-493.28741-66.185575c0-3.51428 0-6.911412 1.75714-10.425692h-80.125527c1.75714 3.51428 1.75714 6.911412 1.75714 10.425692v100.508345c0 3.51428 0 6.91141-1.75714 10.42569h80.125527c-1.75714-3.51428-1.75714-6.91141-1.75714-10.42569zm555.60731-.820025c-.23422 8.785717 6.67712 16.165714 15.57994 16.39997 8.78568.234218 16.16568-6.67712 16.39997-15.579945 0-.234219 0-.585732 0-.820025.1173-8.668533-6.67712-15.814238-15.34569-15.931384-.23422 0-.35151 0-.58569 0-8.55143-.351513-15.69713 6.325717-15.93139 14.877104-.23422.351513-.23422.702878-.11729 1.05428m28.69993 0c.23421 7.028558-5.38859 13.002837-12.41715 13.119983-7.02855.234219-13.0028-5.388546-13.11994-12.417105 0-.234218 0-.468585 0-.819987-.23422-6.794303 5.03711-12.534289 11.83141-12.768544h.93713c6.91141-.117295 12.6514 5.388546 12.76855 12.299958zm-4.92 9.605704h-3.16284l-3.74857-6.794266h-4.09998v6.794266h-2.81144v-19.211371h7.14571c3.39713.117295 5.97428 2.811401 5.97428 6.208534 0 2.342853-1.28858 4.45145-3.39717 5.622877zm-7.14571-9.605704c1.87427.117295 3.51428-1.288536 3.51428-3.16284 0-1.874267-1.28857-3.514279-3.16284-3.514279-.11729 0-.23422 0-.35151 0h-3.86568v6.794265h3.86568" fill="#0058a3"/></g></svg>