<svg fill="none" height="24" viewBox="0 0 89 24" width="89" xmlns="http://www.w3.org/2000/svg"><g fill="#282828"><path d="m19.668 4.73291-11.77127 15.04419h5.26877l11.5577-15.04419z"/><path d="m60.3384 2.81488h-4.0532v4.43652h-5.5393v-4.43652h-4.0572v4.43652h-3.7529v3.5344h3.7529v12.8258h4.0572v-12.8258h5.5393v12.8258h4.0532v-12.8258h3.7522v-3.5344h-3.7522zm-22.9067 10.76052h-6.973c.1296-1.8835 1.7128-3.334 3.5998-3.2994 1.9959 0 3.2685 1.4688 3.3906 3.2994zm4.114 7.5173-2.4798-2.4577c-1.1167 1.1941-2.6627 1.8952-4.297 1.9481-2.3479.0882-4.3431-1.7006-4.5106-4.0442h11.6493c.5142-5.8706-3.1772-9.675-7.9276-9.675-4.8722 0-8.0494 3.9526-8.0494 8.6291 0 5.1204 3.8135 8.507 8.6552 8.507 2.7238 0 5.3865-1.0762 6.973-2.9071h-.0131zm28.3846 2.5191v-23.102216h-4.053v23.098316zm-65.08859 0v-15.76323h-4.053005v15.76323zm19.88179 0v-3.8351h-16.82671v3.8351zm0-18.87935v-3.830946h-16.52171v3.835376zm-24.7235-1.91757c.00022117 1.55485 1.26091 2.81532 2.81576 2.8151 1.55441-.00022 2.81466-1.26047 2.81488-2.8151-.00022-1.55463-1.26091-2.81510115-2.81576-2.81487997-1.55463.00044235-2.81488 1.26046997-2.81488 2.81487997zm83.9414 10.76052h-6.9729c.1318-1.8839 1.7163-3.3342 3.604-3.2994 1.9961 0 3.2687 1.4688 3.3866 3.2994zm4.118 7.5173-2.4835-2.4577c-1.1154 1.1965-2.6623 1.8977-4.2974 1.9481-2.346.086-4.3388-1.7024-4.506-4.0442h11.6492c.514-5.8706-3.1771-9.675-7.9277-9.675-4.8723 0-8.0494 3.9526-8.0494 8.6291 0 5.1204 3.8216 8.507 8.6552 8.507 2.7235 0 5.3864-1.0762 6.9729-2.9071h-.0133z"/></g></svg>