<?xml version="1.0" encoding="utf-8"?>
<!-- Generator: Adobe Illustrator 24.0.1, SVG Export Plug-In . SVG Version: 6.00 Build 0)  -->
<svg version="1.1" id="Layer_1" xmlns="http://www.w3.org/2000/svg" xmlns:xlink="http://www.w3.org/1999/xlink" x="0px" y="0px"
	 viewBox="0 0 356.84 110.74" style="enable-background:new 0 0 356.84 110.74;" xml:space="preserve">
<style type="text/css">
	.st0{fill:#FFFFFF;}
</style>
<g>
	<path class="st0" d="M108.54,69.93l3.15-4.52c1.54,1.2,3.03,1.72,4.51,1.72c4.63,0,6.97-3.89,6.97-11.32V39.11h-5.14v-5.14h15.66
		v5.14h-4.63v16.69c0,10.46-4.51,16.58-12.86,16.58C113.52,72.38,110.89,71.58,108.54,69.93z"/>
	<path class="st0" d="M153.53,72.15v-5.09h3.89l-2.23-7.32h-11.95l-2.17,7.32h4.52v5.09h-14.63v-5.09h4.57l9.77-31.21
		c0.4-1.26,1.43-2.06,2.8-2.06h4.97l10.46,33.27h4.23v5.09H153.53z M140.44,27.45c0-2,1.6-3.49,3.66-3.49c2,0,3.72,1.49,3.72,3.49
		S146.1,31,144.1,31C142.04,31,140.44,29.45,140.44,27.45z M152.56,51.29c-1.08-3.49-2.23-8.97-3.31-12.46h-0.17
		c-1.09,3.54-2.23,8.97-3.32,12.52l-1.03,3.77h8.97L152.56,51.29z M150.5,27.45c0-2,1.6-3.49,3.66-3.49c2,0,3.71,1.49,3.71,3.49
		S156.16,31,154.16,31C152.1,31,150.5,29.45,150.5,27.45z"/>
	<path class="st0" d="M196.23,72.15c-1.43,0-2.29-0.52-2.8-1.77l-6.69-14.86c-3.66-0.91-5.14-4.23-5.14-5.09h6.23
		c5.49,0,5.95-1.89,5.95-5.2c0-6-0.17-6.12-5.95-6.12h-6.92v27.95h5.2v5.09h-15.66v-5.09h4.57V39.11h-4.57v-5.14h16.98
		c11.89,0,12.29,4.17,12.29,10v1.83c0,2.69-0.23,8.4-6.97,9.6l5.54,11.66h3.09v5.09H196.23z"/>
	<path class="st0" d="M220.8,72.15h-16.12v-5.09h4.92V39.11h-4.92v-5.14h25.49l0.46,10.06h-5.77l-0.28-4.92h-9.15v10.57h11.32v5.15
		h-11.32v12.23h5.37V72.15z"/>
	<path class="st0" d="M248.47,72.15v-5.09h3.89l-2.23-7.32h-11.95L236,67.07h4.52v5.09h-14.63v-5.09h4.57l9.77-31.21
		c0.4-1.26,1.43-2.06,2.8-2.06h4.97l10.46,33.27h4.23v5.09H248.47z M235.38,27.45c0-2,1.6-3.49,3.66-3.49c2,0,3.72,1.49,3.72,3.49
		S241.03,31,239.03,31C236.98,31,235.38,29.45,235.38,27.45z M247.49,51.29c-1.08-3.49-2.23-8.97-3.31-12.46h-0.17
		c-1.09,3.54-2.23,8.97-3.32,12.52l-1.03,3.77h8.97L247.49,51.29z M245.44,27.45c0-2,1.6-3.49,3.66-3.49c2,0,3.71,1.49,3.71,3.49
		S251.1,31,249.09,31C247.04,31,245.44,29.45,245.44,27.45z"/>
	<path class="st0" d="M284.59,62.09h5.66l-0.46,10.06h-24.81v-5.09h4.86V39.06h-4.86v-5.08h15.6v5.08h-4.86v28.01h8.57L284.59,62.09
		z"/>
	<path class="st0" d="M312.37,62.09h5.66l-0.46,10.06h-24.81v-5.09h4.86V39.06h-4.86v-5.08h15.61v5.08h-4.86v28.01h8.57
		L312.37,62.09z"/>
	<path class="st0" d="M342.6,72.15v-5.09h3.89l-2.23-7.32h-11.94l-2.17,7.32h4.52v5.09h-14.63v-5.09h4.57l9.77-31.21
		c0.4-1.26,1.43-2.06,2.8-2.06h4.97l10.46,33.27h4.23v5.09H342.6z M341.63,51.29c-1.09-3.49-2.23-8.97-3.32-12.46h-0.17
		c-1.09,3.54-2.23,8.97-3.32,12.52l-1.03,3.77h8.97L341.63,51.29z"/>
</g>
<path class="st0" d="M0,0v63.77c0,25.94,21.04,46.97,47.01,46.97C72.96,110.74,94,89.71,94,63.77V0H0z M90.88,63.21
	c0,24.21-19.64,43.84-43.87,43.84c-24.24,0-43.88-19.63-43.88-43.84V3.68h87.75V63.21z"/>
<g>
	<path class="st0" d="M48.43,29.11c0.87,0.21,2.47,0.43,2.68,0c0.09-0.6-0.06-0.9-0.64-1.08c-1.52-2.8-5.63-3.45-8.22-5.4
		l-0.22,2.16c2.16,1.95-0.87,4.11,1.3,6.27c1.3-1.29,5.3,0.34,6.93-0.65C50.17,29.73,48.36,30.64,48.43,29.11z M43.37,25.77
		l-0.21-0.65c0.21-0.22,1.08-1.08,1.51-0.43C44.66,25.33,44.01,25.77,43.37,25.77z"/>
	<g>
		<path class="st0" d="M72.88,85.17c-0.36,0-0.35-0.04-0.42-0.09c-0.33,0.5-0.61,1.17-0.79,1.69c0.66,0.65,1.52-0.11,2.84,0.08
			c1.32,0.2,1.71-0.8,1.88-1.62L72.88,85.17z"/>
		<path class="st0" d="M78.25,78.09c-0.95-3.86,2.86-8.74-1.17-12.12c-1.03,0.93-1.67-0.36-3.04,0.64c0.42,0.81,0.66,1.09,1.09,1.85
			c1.98,3.48,1.59,7.78,1.08,11.68c-0.15,1.77-1.8,2.85-3.12,4.18c0,0,3.41,0.06,3.43,0.06c0.03-0.15,0.07-0.28,0.12-0.36
			c0.21-0.32,0.7-0.35,1.15-0.25c0.23,0.06,0.23,0.2,0.37,0.19c0.07-0.01,0.16-0.12,0.22-0.27C78.86,82.55,78.53,79.21,78.25,78.09z
			"/>
	</g>
	<g>
		<path class="st0" d="M14.82,75.57c-0.03,0.02-0.06,0.04-0.1,0.05c-0.02,0.01-0.05,0.01-0.07,0.02c0.1,0.7,0.19,1.35,0.3,2.06
			l0.88-0.38c2.09-0.88,1.7-2.24,1.45-3.54L14.82,75.57z"/>
		<path class="st0" d="M14.21,58.14c1.32-1.04,3.26,0.5,4.77,0.5c-0.92-1.24-0.3-2.34-0.54-3.09c-0.23-0.71-0.55-1.33-0.55-1.33
			c-1.29-0.44-4.17-0.99-6.15,0.19c-0.91,0.54-0.87,1.68-0.65,2.59c2.06,6.34,2.57,11.62,3.42,17.75l2.4-1.75
			c0.06-0.05,0.14-0.07,0.21-0.07c-0.03-0.26-0.04-0.52-0.01-0.78c0.21-0.43,1.08-0.21,0.85-0.87
			C14.74,67.36,14.7,64.02,14.21,58.14z"/>
	</g>
	<path class="st0" d="M35.15,71.48c0.13-1.45,0.45-2.67,0.84-3.66c-0.26-1.72-2.16-0.69-2.79-1.82c-3.28-0.39-1.18,2.15-0.76,3.55
		c1.09,3.27,0.9,7.56,0.67,10.8c-0.03,1.05-1.3,2.6-2.37,3.75c0,0,3.18,0.27,3.18,0.26c0.2-0.35,0.47-0.58,0.92-0.58
		c0.07,0,0.19,0.01,0.21-0.1c0.01-0.07,0.01-0.11,0-0.24C34.63,78.28,35.04,72.9,35.15,71.48z"/>
	<path class="st0" d="M36.62,21.11c0,0.43-0.43,1.08,0.22,1.29c0.58-0.35,0.77-1.24,0.57-1.75c-0.16-0.4,0-0.43,0-0.43
		c0.86,0,2.02-0.19,2.69,0.45c2.59,2.38,0.22,4.33,1.95,6.71c-1.83,1.98,1.06,3.96,0.29,5.1c-0.1,0.15-0.2,0.32-0.26,0.45
		c-1.45,3.33-0.1,5.95-2.99,5.79c0.09,1.81-3.37,3.44-1.81,4.66c0.5-1.13,1.52-2.61,2.44-2.81c1.07,0,1.66,2.16,3.18,1.51
		c1.52,1.73,3.69-1.08,6.06,0.65c1.95-0.23,3.24-1.51,5.62,0c2.39-1.3,4.33-1.3,6.27-0.23c3.47-0.43,4.55,1.09,7.36,0
		c3.25,2.16,4.98-0.21,7.79,2.82c1.9,0.58,1.86,1.29,2.4,1.96c0.54,0.67,0.68,0.51,1.12,1.14c0.32,0.46,0.24,1.36,0.65,2.31
		c0.64,1.5,1.16,3.35,0.36,4.53c-0.19,0.59,0.53,1.55-0.37,2.06c-0.4,0.23-0.79,0.06-0.79,0.06c0-0.87,0.52-2.11-0.34-2.76
		c-0.86,0.65-0.25,1.41-0.73,2.78c-0.51,1.78,0.6,2.18,0.52,3.69C78.78,62.04,78,61.81,78,62.74c0,1.04-0.56,0.69-0.91,1.17
		c0.65,0.86-0.43,1.08-0.86,1.52c-2.82-0.88-2.82,1.73-4.97,0.43c-0.44-0.43-1.08-0.87-1.74-1.51c-0.86,0.86-1.51,2.16-2.6,1.94
		c-2.81-1.94-4.33,1.94-8-1.52c-2.38,2.17-4.55-0.86-6.72,0.44c-0.57,0.31-1.29,1.07-4.22,0.04c-1.08,0-2.75,0.66-4.05-0.43
		c-3.25,1.52-3.62-1.13-6.22,0.6c-1.23,0.69-2.22,0.55-3.18,0.34c-0.87-0.19-0.65-0.85-1.82-0.81c-1.95,0.06-1.94-0.64-3.65-0.19
		c-2.17-2.8-5.19-0.64-6.28-3.88c-0.88-1.31-3.89-1.95-3.47-4.54c0.21-2.38-2.81-4.32-1.52-6.06c-1.51-2.8-0.64-4.53,0.66-7.13
		c-0.66-1.08-1.27-2.45,0.21-4.11c2.16-2.32-0.32-3.52,3.89-7.14c-0.33-1.71,0.89-4.35,3.03-4.97l0,0c0.44-1.52,2.46-4.01,3.89-3.89
		c0.84,0.07,1.05-1.02,1.3-1.08c0.36-0.07,0.86,1.08,0.86,1.08c0.87-0.87,0.65-2.38,0.87-3.46c0.21-1.08,0.64-1.51,1.73-1.08
		C35.34,19.16,36.41,19.82,36.62,21.11z"/>
	<path class="st0" d="M30.94,65.73c-1.24,0.96,0.41,3.51,0.41,3.51l-15.5,16.16l-2.99-2.87l15.88-16.6
		C28.73,65.94,29.57,65.32,30.94,65.73z"/>
	<path class="st0" d="M82.35,35.86c-1.1,0.42-2.4,0.2-3.33-0.67l-7.79-7.48l4.95-5.18l3.7,3.55c0.91,0.88,1.19,2.16,0.81,3.29
		l0.48,0.46l5.38-5.6l-0.48-0.47c-1.12,0.43-2.41,0.2-3.33-0.67l-3.7-3.55l3.56-3.69c0.86-0.91,2.17-1.18,3.27-0.81l0.47-0.48
		l-5.6-5.37l-0.47,0.48c0.42,1.11,0.2,2.4-0.68,3.32l-3.55,3.7l-3.71-3.54c-0.9-0.88-1.18-2.17-0.8-3.29l-0.49-0.46l-5.38,5.61
		l0.48,0.46c1.12-0.43,2.41-0.21,3.32,0.67l3.71,3.54l-4.96,5.17l-7.63-7.31c-0.91-0.87-1.19-2.16-0.81-3.29l-0.48-0.46l-5.39,5.61
		l0.49,0.46c1.1-0.42,2.4-0.2,3.31,0.67l7.64,7.31L52.79,40.9c0,0,1.48-0.06,1.94,0.71c1.73-1.36,3.98-0.87,3.98-0.87l9.64-10.05
		l7.8,7.48c0.91,0.88,1.19,2.16,0.81,3.29l0.48,0.46l5.39-5.61L82.35,35.86z"/>
	<path class="st0" d="M49.83,85.32c-0.04,0-0.07-0.01-0.1-0.01c0,0-0.01,0-0.01,0c-0.03-0.01-0.06-0.02-0.09-0.04
		c-0.31,0.6-0.54,1.06-0.66,1.57c0,0,0.62,0.25,1.22,0.11c1.04-0.24,1.45,0,2.11-0.11c0.39-0.07,0.89-0.91,1.23-1.62l-3.68,0.1
		C49.84,85.32,49.83,85.32,49.83,85.32z"/>
	<g>
		<path class="st0" d="M66.27,67.39c-0.19-1.23-2.34-0.59-2.82-0.21c-0.3,0.24-0.35,0.5-0.29,1.1c0.48,4.78-3.63,7.65-6.95,10.08
			c-1.22,0.89-2.57,1.78-2.93,3.07c-1.04,0.66-2.26,1.8-3.15,3.03c0,0,2.82,0,3.62,0c0.71,0,1.01,0.34,1.45,0.2
			c0.12-0.04,0.2-0.06,0.16-0.39c-0.17-1.53,1.09-3.47,1.61-3.91c3.03-3.03,5.32-5.35,8.22-7.57C66.91,71.7,66.49,69.53,66.27,67.39
			z"/>
	</g>
	<path class="st0" d="M30.33,84.92c-0.1-0.01-0.18-0.05-0.25-0.11c-0.46,0.54-1.01,1.27-1.35,1.96c0,0,0.35,0.18,1.39,0.05
		c1.27-0.17,1.34,0.18,2.32-0.07c0.31-0.08,0.89-0.81,1.14-1.56L30.33,84.92z"/>
</g>
</svg>
