<svg enable-background="new 0 0 356.84 110.74" viewBox="0 0 356.84 110.74" xmlns="http://www.w3.org/2000/svg"><g fill="#282828"><path d="m108.54 69.93 3.15-4.52c1.54 1.2 3.03 1.72 4.51 1.72 4.63 0 6.97-3.89 6.97-11.32v-16.7h-5.14v-5.14h15.66v5.14h-4.63v16.69c0 10.46-4.51 16.58-12.86 16.58-2.68 0-5.31-.8-7.66-2.45z"/><path d="m153.53 72.15v-5.09h3.89l-2.23-7.32h-11.95l-2.17 7.32h4.52v5.09h-14.63v-5.09h4.57l9.77-31.21c.4-1.26 1.43-2.06 2.8-2.06h4.97l10.46 33.27h4.23v5.09zm-13.09-44.7c0-2 1.6-3.49 3.66-3.49 2 0 3.72 1.49 3.72 3.49s-1.72 3.55-3.72 3.55c-2.06 0-3.66-1.55-3.66-3.55zm12.12 23.84c-1.08-3.49-2.23-8.97-3.31-12.46h-.17c-1.09 3.54-2.23 8.97-3.32 12.52l-1.03 3.77h8.97zm-2.06-23.84c0-2 1.6-3.49 3.66-3.49 2 0 3.71 1.49 3.71 3.49s-1.71 3.55-3.71 3.55c-2.06 0-3.66-1.55-3.66-3.55z"/><path d="m196.23 72.15c-1.43 0-2.29-.52-2.8-1.77l-6.69-14.86c-3.66-.91-5.14-4.23-5.14-5.09h6.23c5.49 0 5.95-1.89 5.95-5.2 0-6-.17-6.12-5.95-6.12h-6.92v27.95h5.2v5.09h-15.66v-5.09h4.57v-27.95h-4.57v-5.14h16.98c11.89 0 12.29 4.17 12.29 10v1.83c0 2.69-.23 8.4-6.97 9.6l5.54 11.66h3.09v5.09z"/><path d="m220.8 72.15h-16.12v-5.09h4.92v-27.95h-4.92v-5.14h25.49l.46 10.06h-5.77l-.28-4.92h-9.15v10.57h11.32v5.15h-11.32v12.23h5.37z"/><path d="m248.47 72.15v-5.09h3.89l-2.23-7.32h-11.95l-2.18 7.33h4.52v5.09h-14.63v-5.09h4.57l9.77-31.21c.4-1.26 1.43-2.06 2.8-2.06h4.97l10.46 33.27h4.23v5.09h-14.22zm-13.09-44.7c0-2 1.6-3.49 3.66-3.49 2 0 3.72 1.49 3.72 3.49s-1.73 3.55-3.73 3.55c-2.05 0-3.65-1.55-3.65-3.55zm12.11 23.84c-1.08-3.49-2.23-8.97-3.31-12.46h-.17c-1.09 3.54-2.23 8.97-3.32 12.52l-1.03 3.77h8.97zm-2.05-23.84c0-2 1.6-3.49 3.66-3.49 2 0 3.71 1.49 3.71 3.49s-1.71 3.55-3.72 3.55c-2.05 0-3.65-1.55-3.65-3.55z"/><path d="m284.59 62.09h5.66l-.46 10.06h-24.81v-5.09h4.86v-28h-4.86v-5.08h15.6v5.08h-4.86v28.01h8.57z"/><path d="m312.37 62.09h5.66l-.46 10.06h-24.81v-5.09h4.86v-28h-4.86v-5.08h15.61v5.08h-4.86v28.01h8.57z"/><path d="m342.6 72.15v-5.09h3.89l-2.23-7.32h-11.94l-2.17 7.32h4.52v5.09h-14.63v-5.09h4.57l9.77-31.21c.4-1.26 1.43-2.06 2.8-2.06h4.97l10.46 33.27h4.23v5.09zm-.97-20.86c-1.09-3.49-2.23-8.97-3.32-12.46h-.17c-1.09 3.54-2.23 8.97-3.32 12.52l-1.03 3.77h8.97z"/><path d="m0 0v63.77c0 25.94 21.04 46.97 47.01 46.97 25.95 0 46.99-21.03 46.99-46.97v-63.77zm90.88 63.21c0 24.21-19.64 43.84-43.87 43.84-24.24 0-43.88-19.63-43.88-43.84v-59.53h87.75z"/><path d="m48.43 29.11c.87.21 2.47.43 2.68 0 .09-.6-.06-.9-.64-1.08-1.52-2.8-5.63-3.45-8.22-5.4l-.22 2.16c2.16 1.95-.87 4.11 1.3 6.27 1.3-1.29 5.3.34 6.93-.65-.09-.68-1.9.23-1.83-1.3zm-5.06-3.34-.21-.65c.21-.22 1.08-1.08 1.51-.43-.01.64-.66 1.08-1.3 1.08z"/><path d="m72.88 85.17c-.36 0-.35-.04-.42-.09-.33.5-.61 1.17-.79 1.69.66.65 1.52-.11 2.84.08 1.32.2 1.71-.8 1.88-1.62z"/><path d="m78.25 78.09c-.95-3.86 2.86-8.74-1.17-12.12-1.03.93-1.67-.36-3.04.64.42.81.66 1.09 1.09 1.85 1.98 3.48 1.59 7.78 1.08 11.68-.15 1.77-1.8 2.85-3.12 4.18 0 0 3.41.06 3.43.06.03-.15.07-.28.12-.36.21-.32.7-.35 1.15-.25.23.06.23.2.37.19.07-.01.16-.12.22-.27.48-1.14.15-4.48-.13-5.6z"/><path d="m14.82 75.57c-.03.02-.06.04-.1.05-.02.01-.05.01-.07.02.1.7.19 1.35.3 2.06l.88-.38c2.09-.88 1.7-2.24 1.45-3.54z"/><path d="m14.21 58.14c1.32-1.04 3.26.5 4.77.5-.92-1.24-.3-2.34-.54-3.09-.23-.71-.55-1.33-.55-1.33-1.29-.44-4.17-.99-6.15.19-.91.54-.87 1.68-.65 2.59 2.06 6.34 2.57 11.62 3.42 17.75l2.4-1.75c.06-.05.14-.07.21-.07-.03-.26-.04-.52-.01-.78.21-.43 1.08-.21.85-.87-3.22-3.92-3.26-7.26-3.75-13.14z"/><path d="m35.15 71.48c.13-1.45.45-2.67.84-3.66-.26-1.72-2.16-.69-2.79-1.82-3.28-.39-1.18 2.15-.76 3.55 1.09 3.27.9 7.56.67 10.8-.03 1.05-1.3 2.6-2.37 3.75 0 0 3.18.27 3.18.26.2-.35.47-.58.92-.58.07 0 .19.01.21-.1.01-.07.01-.11 0-.24-.42-5.16-.01-10.54.1-11.96z"/><path d="m36.62 21.11c0 .43-.43 1.08.22 1.29.58-.35.77-1.24.57-1.75-.16-.4 0-.43 0-.43.86 0 2.02-.19 2.69.45 2.59 2.38.22 4.33 1.95 6.71-1.83 1.98 1.06 3.96.29 5.1-.1.15-.2.32-.26.45-1.45 3.33-.1 5.95-2.99 5.79.09 1.81-3.37 3.44-1.81 4.66.5-1.13 1.52-2.61 2.44-2.81 1.07 0 1.66 2.16 3.18 1.51 1.52 1.73 3.69-1.08 6.06.65 1.95-.23 3.24-1.51 5.62 0 2.39-1.3 4.33-1.3 6.27-.23 3.47-.43 4.55 1.09 7.36 0 3.25 2.16 4.98-.21 7.79 2.82 1.9.58 1.86 1.29 2.4 1.96s.68.51 1.12 1.14c.32.46.24 1.36.65 2.31.64 1.5 1.16 3.35.36 4.53-.19.59.53 1.55-.37 2.06-.4.23-.79.06-.79.06 0-.87.52-2.11-.34-2.76-.86.65-.25 1.41-.73 2.78-.51 1.78.6 2.18.52 3.69-.04.95-.82.72-.82 1.65 0 1.04-.56.69-.91 1.17.65.86-.43 1.08-.86 1.52-2.82-.88-2.82 1.73-4.97.43-.44-.43-1.08-.87-1.74-1.51-.86.86-1.51 2.16-2.6 1.94-2.81-1.94-4.33 1.94-8-1.52-2.38 2.17-4.55-.86-6.72.44-.57.31-1.29 1.07-4.22.04-1.08 0-2.75.66-4.05-.43-3.25 1.52-3.62-1.13-6.22.6-1.23.69-2.22.55-3.18.34-.87-.19-.65-.85-1.82-.81-1.95.06-1.94-.64-3.65-.19-2.17-2.8-5.19-.64-6.28-3.88-.88-1.31-3.89-1.95-3.47-4.54.21-2.38-2.81-4.32-1.52-6.06-1.51-2.8-.64-4.53.66-7.13-.66-1.08-1.27-2.45.21-4.11 2.16-2.32-.32-3.52 3.89-7.14-.33-1.71.89-4.35 3.03-4.97.44-1.52 2.46-4.01 3.89-3.89.84.07 1.05-1.02 1.3-1.08.36-.07.86 1.08.86 1.08.87-.87.65-2.38.87-3.46.21-1.08.64-1.51 1.73-1.08 1.11.66 2.18 1.32 2.39 2.61z"/><path d="m30.94 65.73c-1.24.96.41 3.51.41 3.51l-15.5 16.16-2.99-2.87 15.88-16.6c-.01.01.83-.61 2.2-.2z"/><path d="m82.35 35.86c-1.1.42-2.4.2-3.33-.67l-7.79-7.48 4.95-5.18 3.7 3.55c.91.88 1.19 2.16.81 3.29l.48.46 5.38-5.6-.48-.47c-1.12.43-2.41.2-3.33-.67l-3.7-3.55 3.56-3.69c.86-.91 2.17-1.18 3.27-.81l.47-.48-5.6-5.37-.47.48c.42 1.11.2 2.4-.68 3.32l-3.55 3.7-3.71-3.54c-.9-.88-1.18-2.17-.8-3.29l-.49-.46-5.38 5.61.48.46c1.12-.43 2.41-.21 3.32.67l3.71 3.54-4.96 5.17-7.63-7.31c-.91-.87-1.19-2.16-.81-3.29l-.48-.46-5.39 5.61.49.46c1.1-.42 2.4-.2 3.31.67l7.64 7.31-12.55 13.06s1.48-.06 1.94.71c1.73-1.36 3.98-.87 3.98-.87l9.64-10.05 7.8 7.48c.91.88 1.19 2.16.81 3.29l.48.46 5.39-5.61z"/><path d="m49.83 85.32c-.04 0-.07-.01-.1-.01h-.01c-.03-.01-.06-.02-.09-.04-.31.6-.54 1.06-.66 1.57 0 0 .62.25 1.22.11 1.04-.24 1.45 0 2.11-.11.39-.07.89-.91 1.23-1.62l-3.68.1c-.01 0-.02 0-.02 0z"/><path d="m66.27 67.39c-.19-1.23-2.34-.59-2.82-.21-.3.24-.35.5-.29 1.1.48 4.78-3.63 7.65-6.95 10.08-1.22.89-2.57 1.78-2.93 3.07-1.04.66-2.26 1.8-3.15 3.03h3.62c.71 0 1.01.34 1.45.2.12-.04.2-.06.16-.39-.17-1.53 1.09-3.47 1.61-3.91 3.03-3.03 5.32-5.35 8.22-7.57 1.72-1.09 1.3-3.26 1.08-5.4z"/><path d="m30.33 84.92c-.1-.01-.18-.05-.25-.11-.46.54-1.01 1.27-1.35 1.96 0 0 .35.18 1.39.05 1.27-.17 1.34.18 2.32-.07.31-.08.89-.81 1.14-1.56z"/></g></svg>