<svg height="38" viewBox="0 0 102 38" width="102" xmlns="http://www.w3.org/2000/svg" xmlns:xlink="http://www.w3.org/1999/xlink"><mask id="a" fill="#fff"><path d="m20.2844806 19.3042049v-19.28560753h-20.26191474v19.28560753z" fill="#fff" fill-rule="evenodd"/></mask><g fill="#fff" fill-rule="evenodd" transform="translate(.174603 .818182)"><path d="m9.34584016 22.4816268c-.66552184 0-1.1922884-.1601634-1.58025304-.4818178-.38796463-.3203742-.58159727-.8127179-.58159727-1.4796387v-17.97471575l-7.18398985 1.16319981v17.35634654c0 1.1501136.13297382 2.182025.39957421 3.0957814.26594763.9138039.65647663 1.6949442 1.17228637 2.3421884.51511036.6472916 1.14967336 1.1435231 1.90359575 1.488837.75396902.3452664 1.61317012.5172832 2.57760331.5172832 1.87328966 0 3.58068842-.4227878 5.12154356-1.2708763l-.2659477-5.1924617c-.5319419.2901243-1.05348645.4358739-1.56281534.4358739"/><path d="m21.5758263 22.507851c-.4500698 0-.8215867-.1477119-1.1137937-.4431358-.2928221-.2954238-.4389493-.7372378-.4389493-1.3280856v-11.06390233h-7.3246706v11.42466123c0 1.1215533.1349594 2.139864.4055407 3.0548849.2699661.9163427.6663265 1.6966809 1.1897911 2.3411562.522802.6457028 1.1668404 1.1424662 1.9320678 1.4914704.7652273.3503261 1.6372108.5241909 2.616045.5241909 1.6542464 0 3.1617978-.4209483 4.5232221-1.265347l-.3714696-5.1698704c-.4953086.288862-.9676665.4339775-1.4177835.4339775"/><path d="m13.8770471 6.52009337c.3633169.35077.794207.62414231 1.2934102.82151365.4978221.19607095 1.0345605.29475662 1.6095245.29475662.5272189 0 1.0345605-.09603672 1.5214821-.28676159.4862311-.1893763.9171212-.45475358 1.2926703-.79218248.3755985-.33872929.6746962-.741467.8973425-1.2082613.222597-.46674614.3339201-.98420775.3339201-1.54968772 0-.45475358-.0962795-.90550965-.2902195-1.35496533-.1932494-.44940751-.4657125-.85484234-.817389-1.21760489-.3524165-.36271439-.7771411-.65747101-1.2756538-.88552208-.4985126-.22670251-1.0530074-.34137825-1.6621527-.34137825-.5278601 0-1.0379638.09333959-1.5310015.27736983-.4923965.18403023-.9259994.44545816-1.3015979.78418745-.3755984.33738073-.677409.74016661-.9054808 1.20691274-.2287624.46814286-.3434889.97756128-.3434889 1.53100053 0 .54149487.1058482 1.04291826.3168542 1.50301792.2110059.46144822.4985126.86688306.8617802 1.2176049"/><path d="m43.3814378 12.3053055c-.6000038-.8386996-1.3371932-1.4864012-2.2114265-1.9456564-.8748936-.45797938-1.8842846-.68692183-3.02756-.68692183-1.4240128 0-2.6658505.35591213-3.7255602 1.06768923-1.0596625.7117771-1.9260674 1.7978007-2.5986018 3.2567004v-3.7814015h-6.9294004v18.2933755h7.265644v-9.8067697c.0561664-.2904663.1795815-.6372113.3701981-1.0415581.1906638-.4029765.4400877-.7929111.7482717-1.1671104.308184-.3729233.6698934-.689568 1.0851283-.9499339.4146219-.2590901.8683857-.3886115 1.3619988-.3886115.4034923 0 .7456308.081134 1.0263683.2446778.2801244.162268.5125239.3912104.6980002.6869219.1847689.2957114.3192663.6490246.4034923 1.0585693.0842259.4108206.1260088.8569867.1260088 1.3398213v10.0239933h7.2323498v-9.2651046c0-1.4353675-.1540684-2.7411664-.4622524-3.9174911-.3088442-1.1749544-.762608-2.1824429-1.362659-3.0211897"/><path d="m60.7778055 19.4424265c-.0222711.4735995-.1263449.9248683-.3116067 1.3550893-.1859237.4315038-.4327503.8104119-.7424183 1.1379595-.3089588.3275952-.6690324.5881034-1.0788496.7814771-.4104792.1947517-.8464922.2920562-1.307377.2920562-.3934094 0-.7953773-.0828609-1.2058565-.2459695-.4104792-.1644865-.7810027-.4025691-1.1128946-.7183337-.3312772-.3157647-.6016516-.7038425-.8091845-1.1643287-.2081949-.461769-.3122687-.989342-.3122687-1.584002 0-.4959776.0870986-.9695771.2612011-1.4181852.1748119-.4486557.4137419-.8433378.7168373-1.1827634.3038048-.3394256.666479-.6091036 1.0880702-.8104119.4215911-.1999779.8792132-.2999431 1.3740957-.2999431.4386609 0 .8602521.0947389 1.2648207.2828388.4052305.1881475.7646422.4447122 1.0795115.7722598.3149167.3275951.5702072.7078335.7672902 1.138007.1963737.430221.3063581.8880465.3286292 1.373524zm0-5.4215925c-.1682392-.6551903-.4294404-1.2485199-.7836507-1.7826971-.3541157-.5340823-.7790167-.9919553-1.2732846-1.3734765-.4949298-.3828516-1.0539778-.6762381-1.6779005-.88277265-.6245374-.20653459-1.2903071-.30916048-1.9986331-.30916048-1.0683997 0-2.1028016.22758241-3.1031112.68146443-1.0009715.4552123-1.8860481 1.1011852-2.6559389 1.9379188-.7705528.8367335-1.3885176 1.837906-1.855313 3.0022347-.4667481 1.1642812-.6998148 2.4562271-.6998148 3.8757426 0 1.3577025.2245555 2.6141094.674281 3.7652772.4497729 1.1524507 1.0572878 2.1510101 1.82193 2.9930175.7639802.8432902 1.6523667 1.5010936 2.6644502 1.9746931 1.0114687.4723166 2.0739578.7091163 3.1868997.7091163 2.7999684 0 4.8680156-1.0314376 6.2061277-3.0929826-.1237443.848564-.275623 1.6353149-.4549742 2.3562618-.1800604.7222772-.4386136 1.345872-.7757541 1.8733975-.3371878.5275731-.7816648.943303-1.3322488 1.2471896-.5511987.3026038-1.259572.4539295-2.1250254.4539295-.4497255 0-1.2373009-.0723608-2.3613547-.2184126l-.5394248 5.5676443c.674281.1210606 1.3152262.2118085 1.9227411.2736691.6068529.0604827 1.1803227.0907479 1.7197475.0907479 1.855313 0 3.4572742-.3091605 4.8065454-.9288118 1.349224-.618321 2.4621659-1.4998108 3.3393932-2.6469877.8765653-1.145894 1.5260218-2.5404182 1.9476129-4.1836202.4215911-1.6445323.6323867-3.4850516.6323867-5.5229356v-14.20855383h-7.2856866z"/><path d="m71.7818512 6.52009337c.3632654.35077.7941529.62414231 1.293353.82151365.4978191.19607095 1.0345542.29475662 1.6095641.29475662.5271664 0 1.0345542-.09603672 1.5214728-.28676159.4861788-.1893763.9170663-.45475358 1.2926625-.79218248.3755962-.33872929.6746921-.741467.8972877-1.2082613.222645-.46674614.3339674-.98420775.3339674-1.54968772 0-.45475358-.0962789-.90550965-.2902177-1.35496533-.1932483-.44940751-.465759-.85484234-.8174334-1.21760489-.352365-.36271439-.7771364-.65747101-1.2755967-.88552208-.4985096-.22670251-1.0530011-.34137825-1.6621426-.34137825-.5278569 0-1.0379575.09333959-1.5310416.27736983-.4923442.18403023-.9259444.44545816-1.3015406.78418745-.3755962.33738073-.6774049.74016661-.9055247 1.20691274-.2287117.46814286-.3434868.97756128-.3434868 1.53100053 0 .54149487.1058476 1.04291826.3168523 1.50301792.2110046.46144822.4985096.86688306.8618243 1.2176049"/><path d="m79.4805882 22.507851c-.4501171 0-.8215867-.1477119-1.1137937-.4431358-.2928221-.2954238-.4389493-.7372378-.4389493-1.3280856v-11.06390233h-7.3246706v11.42466123c0 1.1215533.1349594 2.139864.4055407 3.0548849.2699188.9163427.6662792 1.6966809 1.1897438 2.3411562.5228493.6457028 1.1668404 1.1424662 1.9321151 1.4914704.76518.3503261 1.6372108.5241909 2.616045.5241909 1.6542464 0 3.1617978-.4209483 4.5232221-1.265347l-.3715169-5.1698704c-.4953086.288862-.9676665.4339775-1.4177362.4339775"/><path d="m13.2354629 11.4221234c-.1886346.5106056-.4405808.9367774-.7552125 1.2771812-.3153058.3404037-.6699466.5963736-1.0645483.7665755-.3952757.1702019-.7985436.2559699-1.2111517.2559699-.41198228 0-.81857222-.085768-1.21919209-.2559699-.40061988-.1702019-.75521252-.4261718-1.06450011-.7665755-.30866171-.3404038-.55791169-.7665756-.74659445-1.2771812-.18930866-.5106057-.28328895-1.1069793-.28328895-1.78778685 0-.68080752.09398029-1.27718119.28328895-1.78778683.18868276-.51189217.43793274-.93410909.74659445-1.26922383.30928759-.33382821.66388023-.58584326 1.06450011-.75733166.40061987-.17020188.80720981-.25468338 1.21919209-.25468338.4126081 0 .815876.0844815 1.2111517.25468338.3946017.1714884.7492425.42350345 1.0645483.75733166.3146317.33511474.5665779.75733166.7552125 1.26922383.1886346.51060564.2832889 1.10697931.2832889 1.78778683 0 .68080755-.0946543 1.27718115-.2832889 1.78778685m6.3104972-5.6747461c-.4926262-1.17950094-1.1845272-2.1928025-2.0777251-3.03723636-.892572-.84572038-1.9577462-1.50541944-3.1935966-1.98043135-1.2364764-.47363009-2.5989498-.71111222-4.0867946-.71111222-1.36242531 0-2.64762504.20712978-3.85545472.62010282-1.20782969.41425956-2.26900775 1.02778683-3.18488227 1.84320251-.91587452.81536802-1.65178064 1.81809153-2.20637027 3.01083887-.55526367 1.19141316-.86190326 2.57151598-.91857068 4.14159498 0 1.43551845.24265403 2.74567275.72926202 3.93179685.48660799 1.1861718 1.17648687 2.2047148 2.0690589 3.0557718.89319793.8522959 1.96039419 1.511995 3.20288874 1.9803837 1.24182051.4683887 2.61830437.701916 4.12945158.701916.8011916 0 1.6057534-.0791448 2.4123373-.2374821.8072098-.1570032 1.588421-.4037292 2.3443076-.7388439.7552606-.3338282 1.4591499-.7626207 2.111764-1.2864251.6525661-.5224702 1.219144-1.1399524 1.7004078-1.8511122.4806379-.7124941.8612292-1.5291963 1.1418701-2.4541091.2799669-.9248652.4206004-1.9592753.4206004-3.10189595 0-1.41174169-.2466502-2.70607649-.7385542-3.88695925" mask="url(#a)" transform="translate(81.269841 9.672727)"/></g></svg>