<svg fill="none" height="24" viewBox="0 0 96 24" width="96" xmlns="http://www.w3.org/2000/svg" xmlns:xlink="http://www.w3.org/1999/xlink"><clipPath id="a"><path d="m0 0h95.5529v24h-95.5529z"/></clipPath><g clip-path="url(#a)"><path d="m10.5159 16.9378-1.65038-1.6504-1.7336-1.7485c-1.59395-1.5939-.46645-3.1003-.05199-3.5162-.61283.5658-1.25761 1.096-1.93117 1.588-.74276 1.0072-2.90419 3.2503-1.0874 6.1293l.21689.2153s2.25353 2.9666 6.23765-1.0175z" fill="#263138"/><path d="m12.7859 6.82153 1.643 1.6504 1.7321 1.74997c1.5939 1.5939.465 3.1002.052 3.5177.9151-.8587 1.2998-.9953 1.6474-1.4291 0 0 3.1924-3.41668 1.3756-6.29116l-.2971-.2971s-2.258-2.79574-6.153 1.09929z" fill="#263138"/><g fill="#000"><path d="m20.9547 7.73648-2.0114-2.01138c1.6802 2.78088-.0609 4.825-1.0012 6.003-.1188.1495-.2421.2951-.3699.4367l-.4248.4694.0237-.0237-.0237.0237-3.7703 3.7703c-.6581.6581-1.2374 1.2329-1.7484 1.7365l-3.58756 3.5861c.79544.7063 1.6599 1.3309 2.58036 1.8643 2.6531 1.5048 5.4964-1.6341 5.4964-1.6341l5.1503-5.1993.1055-.104c4.3882-4.3986-.419-8.91752-.419-8.91752z"/><path d="m12.4173.265093c-2.85514-1.072542-5.30327 1.443917-5.30327 1.443917l-5.15029 5.1993-.10547.10399c-4.40455 4.4046.40258 8.9324.40258 8.9324l2.01139 2.0114c-1.68012-2.7809.0609-4.825 1.00123-6.003.11885-.1495.24214-.2951.3699-.4367l.42486-.4694-.02377.0237.02377-.0237 3.77024-3.77028c.58533-.58529 1.10823-1.10373 1.57613-1.56276l3.7673-3.77172c-.2956-.3179-1.1038-1.05323-2.7646-1.677147z"/><path d="m31.2404 4.03024v16.06286c0 .1285.051.2516.1418.3425.0908.0908.214.1418.3424.1418h12.4784c.1284 0 .2516-.051.3424-.1418.0908-.0909.1418-.214.1418-.3425v-2.4035c0-.1903-.0755-.3728-.2101-.5074-.1346-.1345-.3171-.2101-.5074-.2101h-8.0589c-.1284 0-.2516-.0511-.3424-.1419s-.1419-.214-.1419-.3424v-12.56749c0-.12843-.051-.25161-.1418-.34243s-.214-.14184-.3424-.14184h-3.1092c-.1574.00039-.3081.06317-.4192.17456s-.1735.26231-.1735.41964z"/><path d="m43.0368 4.24265 6.309 11.44735c.1324.2408.2018.5111.2021.7859v3.5192c0 .154.0612.3018.1701.4107s.2566.1701.4107.1701h3.2206c.154 0 .3018-.0612.4107-.1701s.1701-.2567.1701-.4107v-3.5237c.0001-.2718.068-.5394.1976-.7784l6.2748-11.54097c.0398-.07368.0599-.15643.0582-.24017s-.0252-.1656-.068-.23759-.1035-.13165-.1763-.17315c-.0727-.0415-.155-.06342-.2387-.06362h-3.6083c-.0904.00013-.1789.02552-.2555.0733-.0767.04777-.1384.11603-.1783.19707l-3.4657 7.03393c-.7532 1.5004-.6997 1.4484-1.4603-.049l-3.5058-6.91957c-.0407-.07992-.1029-.14697-.1794-.19366-.0766-.04669-.1647-.07119-.2544-.07077l-3.6113.01783c-.0837.00057-.1658.02285-.2384.06464-.0725.04178-.133.10166-.1755.17379s-.0655.15404-.0669.23774c-.0014.08371.0189.16634.0589.23985z"/><path d="m75.4107 5.20222-.5779 2.32187c-.0208.08369-.0585.16227-.1107.23095-.0521.06868-.1177.12603-.1928.16855-.075.04253-.1579.06934-.2437.0788-.0857.00947-.1725.00139-.255-.02373-1.0547-.32236-3.2681-.90617-5.4667-.90617-3.0423 0-2.6085 2.26244-1.0264 2.68433 1.582.42188 4.816.81108 6.5021 1.94158 1.686 1.1305 2.3471 2.8863 1.582 5.4697-.765 2.5833-4.66 4.507-11.5097 2.8863-.8151-.181-1.6182-.4117-2.4051-.6907-.1308-.0447-.2397-.1373-.3048-.2592s-.0814-.2639-.0458-.3974l.6893-2.5596c.0194-.0719.0533-.139.0997-.1973.0464-.0582.1043-.1063.17-.1412.0657-.035.1379-.0561.2122-.062.0742-.0059.1488.0035.2193.0276 1.1587.3952 3.9143 1.2553 5.8856 1.2419 2.5565-.0163 2.8225-.8779 2.7823-1.5196-.0401-.6418-.4872-1.1989-2.3649-1.5702-1.8777-.3714-4.7982-.777-6.2941-2.3293-1.4959-1.5524-1.4855-5.34789 1.2344-6.97304 2.6086-1.55385 6.2734-1.21813 8.6755-.74276 1.0487.20797 1.8256.41446 2.3084.55707.1574.04612.2908.15141.3723.29377.0814.14237.1045.31074.0645.46978z"/><path d="m87.7791 3.52222h-2.8225c-.1531.00049-.3028.04538-.431.12922-.1281.08384-.2292.20305-.291.34317l-6.9982 15.89499c-.0324.0739-.0459.1547-.0391.2351.0067.0804.0334.1579.0777.2253.0443.0675.1047.1228.1758.1609.0711.0382.1506.058.2312.0576h3.4687c.0963-.0009.1901-.0305.2695-.085s.1407-.1315.1762-.221l.9106-2.3085c.0354-.0895.0968-.1665.1761-.221.0794-.0545.1733-.0841.2695-.085h6.8527c.0967.0011.1907.0312.2702.0863.0794.055.1405.1326.1755.2227l.8913 2.304c.035.0901.0961.1677.1755.2227.0794.0551.1735.0851.2701.0863h3.4672c.0807.0004.1602-.0194.2313-.0576.0711-.0381.1315-.0935.1758-.1609.0443-.0675.071-.1449.0777-.2253.0068-.0804-.0067-.1612-.0391-.2351l-6.9953-15.89649c-.0621-.14081-.1638-.26049-.2929-.34438-.129-.0839-.2796-.12838-.4335-.12801zm-3.4509 10.05548 1.5821-3.797c.0372-.08743.0993-.16199.1785-.2144.0792-.05242.1722-.08036.2672-.08036s.1879.02794.2671.08036c.0793.05241.1413.12697.1785.2144l1.6059 3.794c.0308.0735.043.1535.0354.2329-.0075.0794-.0345.1557-.0786.2221s-.1039.1209-.1741.1587-.1487.0576-.2284.0578h-3.1864c-.0794-.0004-.1574-.0203-.2273-.0579s-.1294-.0918-.1735-.1578c-.044-.066-.0711-.1418-.0789-.2208-.0079-.079.0038-.1586.034-.232z"/></g></g></svg>