<svg height="33" viewBox="0 0 45 33" width="45" xmlns="http://www.w3.org/2000/svg" xmlns:xlink="http://www.w3.org/1999/xlink"><defs><path id="a" d="m.0045302.05436242h44.9262332v32.26107378h-44.9262332z"/><mask id="b" fill="#fff"><use fill="#fff" fill-rule="evenodd" xlink:href="#a"/></mask></defs><g fill="none" fill-rule="evenodd"><use fill="#fff" xlink:href="#a"/><path d="m1.09540268 31.2813423h42.73920302v-30.13437082h-42.73920302zm-1.09540268 1.0340939h44.9307634v-32.26107378h-44.9307634z" fill="#000" mask="url(#b)"/><path d="m8.31035235 25.9124542.197-.3498871m-.086.5.197-.3502633" stroke="#1a1919" stroke-width=".01"/><path d="m37.788599 26.6909648h-13.7429698s-13.5789765-16.5649833-13.6604446-16.514396v13.9207802c0 1.7236661 2.2576258 2.4540856 2.2576258 2.4540856.0005285-.0027182.0590436.1395302.0601007.1395302h-5.66184566c.00151006-.0050588.05670302-.1353776.05753355-.1362081.00120806-.001057 1.36608222-.3902768 1.36608222-2.4589933 0-4.0361074-.01291108-11.8740352-.00770134-15.94109897.00128355-1.14863255-1.20729866-2.17374161-2.48526846-2.55699664l-.06206376-.14519296h5.29746645l12.734245 15.91414427-.0014346-13.1157634c0-1.26430369-.9638758-2.22682047-2.226896-2.655l-.0621392-.14338087h14.9485318v4.24774329c-.0632718-.03027684-.1364345-.0584396-.1364345-.0584396s-.4943205-1.50485738-1.6338171-2.1038255c-.3855957-.2024245-2.6008641-.1328104-7.4432718-.1328104v6.67434568h7.3793204c1.2664178 0 1.5858725-1.1856292 1.6005957-1.1915185.0145721-.0063423.0495302-.0209144.1374161-.0597232 0 0 .0070973 3.1265185.0070973 4.621787-.0767114-.032089-.1383222-.0588927-.1383222-.0588927s-.3377265-1.3862416-1.6078439-1.3862416h-7.3782634v8.7608054c4.7439513 0 7.6811828.1951007 8.9990939-.4819379 1.0165017-.5334312 1.7275923-2.5048994 1.7275923-2.5048994s.0694631-.0274832.1420218-.0618372c-.1616527 1.7141527-.3030705 3.2001342-.4660067 4.9739346zm-35.59749162 3.5562835h40.54854862v-28.06618286h-40.54854862z" fill="#000"/></g></svg>