<svg fill="none" height="24" viewBox="0 0 176 24" width="176" xmlns="http://www.w3.org/2000/svg" xmlns:xlink="http://www.w3.org/1999/xlink"><clipPath id="a"><path d="m0 0h175.636v24h-175.636z"/></clipPath><g clip-path="url(#a)"><path clip-rule="evenodd" d="m44.4649 11.6835h-1.5797l-.117 1.7841c0 3.8561 2.4573 6.6187 7.3133 8.2302l.5266-1.4388c-4.154-1.4389-6.2017-3.6835-6.2017-6.7914zm-6.7867.9208v5.9281h-1.6382c-2.6913-.8633-3.9785-2.3597-3.9785-4.4317 0-.6906.3511-1.2086.9361-1.7266.6436-.4029 1.2872-.6331 2.0478-.6331.351 0 .7605.2302 1.3456.7482l.8776.6907zm-4.037-9.84171c1.0531 1.15108 1.8722 2.47482 2.4573 3.85612.4095.92086.8191 2.41726 1.4041 4.48919l.117.3453-.117-.1151c-.8776-.7482-1.6381-1.0935-2.3987-1.0935-1.1702 0-2.2233.3453-3.1009 1.036-.9946.7482-1.4626 1.7266-1.4626 2.8777 0 2.8777 1.7552 4.8345 5.207 5.9856l.1171.0575h3.4518v-8.3453l-.234-1.036c-.5851-2.18701-1.0531-3.74096-1.4627-4.71938-.6435-1.4964-1.5211-2.93525-2.6912-4.25899zm8.3664.97842-.117 3.45323 1.5797.05756.117-3.39568zm-25.4503 9.55399c.3511 2.4172.7021 4.1438 1.1702 5.1223.819 1.669 2.0477 2.5323 3.8614 2.5323 1.7552 0 3.1008-.8057 4.0369-2.3597.5851-.9208 1.1702-2.5899 1.7552-4.8921l.4681-1.669-1.5212-.4029-.468 1.6691c-.5266 2.1295-1.0532 3.6259-1.5212 4.4316-.7021 1.0935-1.5797 1.6691-2.7498 1.6691-1.1116 0-1.9307-.5756-2.3988-1.7266-.4095-.8058-.7606-2.3597-1.0531-4.5468l-.351-2.3597-1.5212.2878zm-6.0846-10.01442c-1.05316.7482-1.98926 2.07194-2.80835 4.02877-.52656 1.15108-1.17013 3.05035-1.98922 5.69785-.40955 1.4388-.81909 2.705-1.22864 3.741l-1.17013-6.96403c-.81909-5.1223-1.40415-8.34532-1.75519-9.78417l-1.52117.28777c.292532 1.43885.877597 4.66187 1.69669 9.72663.81909 5.0647 1.40415 8.1727 1.69668 9.4388l.46806 1.8993.99461-1.669c.58506-.9785 1.40415-3.0504 2.39876-6.2734 1.28714-4.31657 2.45727-7.07916 3.4519-8.23024 1.0531 2.82014 1.5797 7.48204 1.5797 14.10074h1.5796c0-8-.7606-13.29499-2.2232-15.76981l-.4681-.7482zm100.5143 10.99282-2.341-.4604c.293-1.036.644-2.072.937-3.0504.409.9784.819 2.187 1.404 3.5108zm-12.3451-3.7986v1.7266c-.8776-.0575-2.0477-.1726-3.5104-.5179l-1.6967-.3454c.5851-.4028 1.4627-.6906 2.6913-.8633zm-2.6913-1.49638c-3.2764.46043-4.9146 1.78418-4.9146 3.85608 0 2.3022 1.2872 3.9137 3.8615 4.8346 1.4626.518 3.8029.9208 7.0205 1.151l.117-1.5539c-3.0421-.1727-5.2653-.518-6.611-1.036-1.8722-.6906-2.8083-1.7842-2.8083-3.3957 0-.518.234-.9784.7021-1.3813l-.234 1.3813 1.7552.4029c1.8137.4029 3.3933.5756 4.622.5756h.819v-4.89214h-4.2709zm-16.9669 13.29498c2.5743 0 4.6805-.518 6.3772-1.4964 1.9307-1.1511 2.9253-2.7051 2.9253-4.7194 0-1.9569-.234-4.3166-.8191-7.07918-.5265-2.76259-.7605-5.06475-.7605-6.79137h-1.5797c0 1.89928.234 4.20144.8191 7.07914.5265 2.76261.7606 5.06471.7606 6.79141 0 1.4964-.8191 2.6474-2.4573 3.5107-1.4627.7482-3.2179 1.1511-5.2656 1.1511-1.2286 0-2.3988-.4604-3.3349-1.4388-.819-.8058-1.4041-1.7842-1.8137-3.0504l-1.5211.4604c.5265 1.6691 1.4041 3.0504 2.6328 4.0288 1.2286 1.036 2.5743 1.554 4.0369 1.554zm-13.515-8.2878c-1.3456-3.0503-4.0954-4.6043-8.3664-4.6043-1.7552 0-2.8083 1.2086-3.2179 3.5683l-1.9892-.3453-.2925 1.4964 2.1647.4029-.0585.2302-.351 2.3022v4.7194h.7606l.585.1151c.4096.1727.8191.2878 1.1117.2878 1.2286 0 2.6913-.5756 4.2709-1.7266l1.2287-.8634-.8191-1.2661-1.3457.9784c-1.3456.9784-2.3987 1.4388-3.3348 1.4388l-.5266-.1726-.351-.1151v-3.0504l.351-2.3597v-.1727l7.4303.6907 1.5797.1151c.351 0 .5851-.1151.8191-.4029h.8191zm-2.6913-.1726-7.3133-.6331c.234-1.4964.8191-2.3022 1.6382-2.3022 3.1593 0 5.3241.9784 6.4942 2.9928zm93.4936-.9209c.468-.2878 1.345-.6907 2.633-1.0935l.643-.2303-.526-1.4388-.644.2302c-1.463.4604-2.457.9784-3.101 1.3813-1.053.7482-1.58 1.6691-1.58 2.7626 0 1.7842.82 3.1655 2.575 4.2014 1.521.9209 3.335 1.3813 5.441 1.3813v-1.5539c-1.697 0-3.16-.3453-4.33-.9784-1.404-.7482-2.047-1.7267-2.047-3.0504-.059-.6331.234-1.1511.936-1.6115zm-20.595 10.0719 1.171 1.036c1.93-2.0719 3.276-3.2806 4.154-3.5108.526-.1727.936-.4604 1.228-.9784.351-.518 1.112-2.0144 2.34-4.4892l.586-1.0935h-1.288c-2.749 0-4.973-.2303-6.669-.8058 1.228-1.2086 3.042-1.7842 5.382-1.7842l1.463.1151 1.112.1727.117-1.554-.995-.11507-1.755-.17266c-3.277 0-5.734 1.09353-7.372 3.22303l-.644.8058.995.4028c2.106.8058 4.505 1.2662 7.021 1.2662-1.112 2.2446-1.814 3.3957-2.048 3.5108-1.053.2878-2.633 1.6115-4.798 3.9712zm-19.014-.6906-.995-2.0144-2.047-4.1439 4.914.2302v-1.5539l-5.617-.2878c-1.053-2.4173-1.872-4.54677-2.398-6.33094l-.585-2.18705-.878 2.07194c-.761 1.72662-1.346 3.56835-1.814 5.41005l-1.872-.4604-.409 1.4964 1.93.4604c-.468 1.8993-.76 3.9137-.936 5.9281l1.58.1151c.175-2.0144.468-3.9137.877-5.6978l3.277.5755.175.0575c.702 1.4964 1.522 3.2231 2.458 5.0648l1.053 2.0144zm4.154-11.1079c1.053.4604 1.755 1.2662 2.165 2.4172.234.6907.468 1.9569.643 3.741.176 1.6116.293 2.7626.41 3.3957l.585 2.7626.936-2.6475c.585-1.5539 1.463-3.6259 2.691-6.1007l.527-1.0935.702-.3453c.585 1.4388 1.17 3.5108 1.696 6.2158l.469 2.4173 1.521-.3454-.468-2.4172c-.644-2.9928-1.288-5.4101-2.107-7.3094l-.292-.7482-2.691 1.3238-.761 1.5539-1.58 3.3957-.058-.2878c-.176-2.0144-.41-3.3957-.761-4.3165-.585-1.4389-1.579-2.4748-2.984-3.10794zm52.948 1.4964c.176.7482.234 1.8993.234 3.5108v.6906l-.234.4604-.292.3454c-3.628-.4605-5.5-1.6691-5.5-3.741 0-1.2087.585-2.3022 1.814-3.0504.819-.518 1.521-.6331 2.106-.4029.936.3453 1.58 1.0935 1.872 2.1871zm-1.17-3.68348c-1.17-.51799-2.399-.34533-3.627.46043-1.697 1.09355-2.575 2.58995-2.575 4.37415 0 3.0503 2.458 4.892 7.489 5.41l.761.0576.117-.7482.234-.4029c.409-.4604.643-.9784.643-1.3813v-.3453c0-2.0144-.117-3.4533-.351-4.3166-.468-1.4388-1.404-2.47479-2.691-3.10788z" fill="#282828" fill-rule="evenodd"/></g></svg>