<svg enable-background="new 0 0 688.9 140.1" viewBox="0 0 688.9 140.1" xmlns="http://www.w3.org/2000/svg"><g fill="#fff"><path d="m72 56c-15.4 0-28-12.6-28-28s12.5-28 28-28 28 12.6 28 28-12.6 28-28 28zm0-41c-7.2 0-13.1 5.9-13.1 13.1s5.9 13 13.1 13 13-5.9 13-13.1-5.8-13-13-13z"/><path d="m219.9 125.7-16.9-29.2h-12.6v29.2h-16.6v-84.1h33.7c7.8 0 14.4 2.8 19.8 8.2s8.2 12 8.2 19.7c0 10.5-6.5 20.1-16.2 24.5l18.6 31.7zm-29.5-68.6v24.9h17.1c6.2 0 11.4-5.6 11.4-12.5s-5.2-12.4-11.4-12.4z"/><path d="m254.5 102c2 7.6 7.7 11.3 16.9 11.3 5.9 0 10.5-2 13.5-6l12.5 7.2c-5.9 8.5-14.7 12.9-26.2 12.9-10 0-17.9-3-23.9-9s-9-13.6-9-22.7c0-9 3-16.6 8.9-22.6 5.9-6.1 13.6-9.1 22.8-9.1 8.8 0 16.1 3 21.8 9.1 5.8 6.1 8.7 13.6 8.7 22.6 0 2-.2 4.1-.6 6.4zm30.4-12c-1.8-8.2-7.8-12.1-14.9-12.1-8.3 0-13.9 4.4-15.7 12.1z"/><path d="m353.9 41.6h15.5v84.1h-15.5v-7.1c-4.6 5.9-11.1 8.8-19.5 8.8-8 0-15-3-20.8-9.1-5.7-6.1-8.5-13.7-8.5-22.6s2.9-16.3 8.5-22.5c5.8-6.1 12.7-9.3 20.8-9.3 8.4 0 14.9 2.9 19.5 8.8zm-16.6 71c4.8 0 8.8-1.6 11.9-4.7 3.1-3.2 4.7-7.3 4.7-12.3s-1.6-9-4.7-12.1c-3.1-3.2-7.1-4.8-11.9-4.8s-8.8 1.6-12 4.8c-3.1 3.1-4.7 7.2-4.7 12.1s1.6 9 4.7 12.3c3.2 3.1 7.2 4.7 12 4.7z"/><path d="m440.5 125.7-16.9-29.2h-12.6v29.2h-16.6v-84.1h33.6c7.8 0 14.4 2.8 19.8 8.2s8.2 12 8.2 19.7c0 10.5-6.5 20.1-16.2 24.5l18.6 31.7zm-29.6-68.6v24.9h17.1c6.2 0 11.4-5.6 11.4-12.5s-5.2-12.4-11.4-12.4z"/><path d="m490.5 127.4c-8.9 0-16.5-3-22.6-9.1s-9.1-13.7-9.1-22.6 3-16.3 9.1-22.5 13.7-9.3 22.6-9.3 16.5 3.1 22.6 9.3 9.2 13.6 9.2 22.5-3.1 16.5-9.2 22.6-13.7 9.1-22.6 9.1zm0-15.2c4.7 0 8.5-1.6 11.7-4.7 3.1-3.1 4.7-7.1 4.7-11.9s-1.6-8.8-4.7-11.9-7-4.7-11.7-4.7-8.5 1.6-11.7 4.7c-3 3.1-4.6 7.1-4.6 11.9s1.6 8.8 4.6 11.9c3.2 3.2 7.1 4.7 11.7 4.7z"/><path d="m568 65.6h17.1l-22.8 60.1h-17.7l-22.8-60.1h17.1l14.5 42.1z"/><path d="m600.8 102c2 7.6 7.7 11.3 16.9 11.3 5.9 0 10.5-2 13.5-6l12.5 7.2c-5.9 8.5-14.7 12.9-26.2 12.9-10 0-17.9-3-23.9-9s-9-13.6-9-22.7c0-9 3-16.6 8.9-22.6 5.9-6.1 13.6-9.1 22.8-9.1 8.8 0 16.1 3 21.8 9.1 5.8 6.1 8.7 13.6 8.7 22.6 0 2-.2 4.1-.6 6.4zm30.5-12c-1.8-8.2-7.8-12.1-14.9-12.1-8.3 0-13.9 4.4-15.7 12.1z"/><path d="m670.7 75.9c2.9-7.7 10.1-11.5 18.3-11.5v17.3c-4.7-.6-9 .4-12.7 2.9s-5.5 6.6-5.5 12.4v28.7h-15.5v-60.1h15.5v10.3z"/><path d="m35.5 100.3 8.9-8.9c.6-.6 1.2-1.1 1.8-1.7l7.3 7.3c.2.2.4.4.7.7l-.7.6c-.4.3-.8.7-1.1 1.1l-8.9 8.9c-.2-.2-.3-.4-.5-.6z"/><path d="m106.5 100.3 8.9-8.9c.6-.6 1.2-1.1 1.8-1.7l7.3 7.3c.2.2.4.4.6.7l-.7.6c-.4.3-.8.7-1.1 1.1l-8.9 8.9c-.2-.2-.4-.4-.5-.6z"/><path d="m115.4 91.4-8.9 8.9h.1l-7.3 7.3c-.2.2-.4.5-.6.7-3.4 4-3.2 10.1.6 13.9 1.9 1.9 4.5 3 7.3 3s5.4-1.1 7.3-3 3-4.5 3-7.3c0-2.5-.9-4.8-2.5-6.7l8.9-8.9c.4-.4.8-.7 1.1-1.1l.7-.6c4.4 4.7 6.7 10.8 6.7 17.2 0 6.8-2.6 13.1-7.4 17.9s-11.1 7.4-17.9 7.4-13.1-2.6-17.9-7.4c-9.6-9.6-9.9-25.1-.8-35 .2-.3.5-.5.8-.8l7.2-7.2c-2.9-2.6-6.1-4.7-9.6-6.2-4.8-2.1-9.9-3.2-15.3-3.2-5.3 0-10.4 1.1-15.2 3.2-3.5 1.5-6.7 3.6-9.7 6.2-.6.5-1.2 1.1-1.8 1.7l-8.9 8.9h.1l-7.3 7.3c-.2.2-.4.5-.6.7-3.4 4-3.2 10.1.6 13.9 1.9 1.9 4.5 3 7.3 3s5.4-1.1 7.3-3 3-4.5 3-7.3c0-2.5-.9-4.8-2.5-6.7l8.9-8.9c.3-.4.7-.7 1.1-1.1l.7-.6c4.3 4.7 6.7 10.8 6.7 17.2 0 6.8-2.6 13.1-7.4 17.9s-11.1 7.4-17.9 7.4-13.1-2.6-17.9-7.4c-9.6-9.6-9.9-25.1-.8-35 .2-.3.5-.5.8-.8l7.2-7.2c-2.9-2.6-6.2-4.7-9.6-6.2-4.8-2.1-9.9-3.2-15.3-3.2v-14.9c9.4 0 18.4 2.4 26.4 7.1 3.2 1.9 6.3 4.1 9.1 6.7 0 0 .1-.1.1-.1 2.8-2.6 5.9-4.8 9.2-6.7 7.9-4.6 16.9-7 26.2-7 9.4 0 18.4 2.4 26.4 7.1 3.2 1.9 6.3 4.1 9.1 6.7 0 0 .1-.1.1-.1 2.8-2.6 5.9-4.8 9.1-6.7 7.9-4.6 16.9-7 26.2-7v15c-5.3 0-10.4 1.1-15.1 3.2-3.5 1.5-6.7 3.6-9.7 6.2-.2.4-.8 1-1.4 1.6z"/></g></svg>