<svg fill="none" height="32" viewBox="0 0 107 32" width="107" xmlns="http://www.w3.org/2000/svg"><path d="m16.0003 0c-8.83654 0-16.0003 7.16357-16.0003 16.0001 0 8.8369 7.16376 15.9999 16.0003 15.9999 8.8375 0 16.0005-7.163 16.0005-15.9999 0-8.83596-7.163-15.99933575-16.0007-15.99933575zm7.3376 23.0767c-.2866.47-.9018.6191-1.3718.3306-3.7567-2.2947-8.486-2.8144-14.05547-1.5419-.5367.1223-1.07168-.214-1.19396-.7509-.12285-.5369.21208-1.0719.75012-1.1941 6.09491-1.3925 11.32301-.793 15.54061 1.7845.47.2885.619.9018.3305 1.3718zm1.9584-4.3566c-.3611.5869-1.1292.7723-1.7157.4112-4.3009-2.6436-10.8569-3.4092-15.94396-1.865-.65974.1993-1.35655-.1726-1.55679-.8312-.1987-.6597.1733-1.3552.8319-1.5558 5.81085-1.7631 13.03475-.9091 17.97375 2.126.5866.3611.7719 1.1292.4108 1.715zm.1682-4.5366c-5.1569-3.063-13.665-3.3446-18.58848-1.8503-.79063.2398-1.62672-.2065-1.86632-.9972-.23959-.791.20635-1.6265.99755-1.86686 5.65185-1.71576 15.04745-1.38426 20.98455 2.14026.7127.4221.9458 1.3405.5235 2.0507-.4203.7112-1.3412.9456-2.0501.5234zm18.067.5869c-2.7628-.6588-3.2538-1.1212-3.2538-2.0927 0-.9179.8636-1.5356 2.1494-1.5356 1.2458 0 2.48.4691 3.7755 1.4347.0382.0292.0879.0409.1356.0332.0497-.0072.0917-.0338.1204-.0737l1.3489-1.9015c.0554-.0783.0401-.1863-.0344-.2461-1.5419-1.23673-3.2767-1.83801-5.3058-1.83801-2.9826 0-5.0671 1.79011-5.0671 4.35131 0 2.7465 1.7979 3.7191 4.9047 4.4697 2.6424.609 3.0895 1.1191 3.0895 2.0309 0 1.0107-.9019 1.6393-2.3539 1.6393-1.6126 0-2.9291-.5445-4.4003-1.817-.0363-.0325-.0859-.0459-.1318-.044-.0497.0039-.0936.0268-.1242.0631l-1.5132 1.7998c-.0631.0764-.0554.1872.0172.2522 1.7119 1.5285 3.8174 2.3348 6.0911 2.3348 3.2137 0 5.2906-1.7559 5.2906-4.4747.0057-2.2941-1.368-3.5647-4.7327-4.3832zm12.0103-2.7246c-1.3929 0-2.5354.5488-3.4793 1.6732v-1.2656c0-.1-.0802-.1813-.1796-.1813h-2.4743c-.0993 0-.1796.0813-.1796.1813v14.0625c0 .0993.0803.1815.1796.1815h2.4743c.0994 0 .1796-.0822.1796-.1815v-4.4384c.9439 1.0565 2.0864 1.5743 3.4793 1.5743 2.5889 0 5.2103-1.9928 5.2103-5.8024.0038-3.8104-2.6176-5.8038-5.2084-5.8038zm2.3329 5.8036c0 1.9391-1.1942 3.2938-2.9061 3.2938-1.6909 0-2.9672-1.4158-2.9672-3.2938 0-1.8782 1.2763-3.2936 2.9672-3.2936 1.6833-.0002 2.9061 1.3847 2.9061 3.2934zm9.5933-5.8036c-3.3341 0-5.9459 2.5672-5.9459 5.8451 0 3.2427 2.5946 5.782 5.9058 5.782 3.3455 0 5.965-2.5584 5.965-5.8235 0-3.254-2.6023-5.8032-5.9249-5.8032zm0 9.1165c-1.7731 0-3.1105-1.4254-3.1105-3.3138 0-1.8971 1.2916-3.2737 3.0704-3.2737 1.7845 0 3.1296 1.4247 3.1296 3.3151 0 1.8967-1.2992 3.2724-3.0895 3.2724zm13.044-8.8902h-2.7227v-2.78309c0-.09973-.0803-.18113-.1796-.18113h-2.4743c-.0993 0-.1815.0814-.1815.18113v2.78309h-1.1884c-.0994 0-.1796.0813-.1796.1813v2.1259c0 .0998.0802.1814.1796.1814h1.1884v5.5017c0 2.222 1.1063 3.3493 3.2901 3.3493.8866 0 1.6222-.1834 2.3157-.577.0573-.0306.0917-.0917.0917-.1567v-2.0253c0-.0611-.0324-.1203-.0859-.1528-.0535-.0344-.1204-.0363-.1758-.0077-.4758.2389-.9362.3497-1.4521.3497-.7929 0-1.1483-.3611-1.1483-1.1674v-5.1129h2.7227c.0993 0 .1796-.0814.1796-.1813v-2.1258c.0038-.0999-.0765-.1813-.1777-.1813zm9.4844.0108v-.3418c0-1.0055.3859-1.454 1.2495-1.454.5159 0 .9305.1024 1.3948.2572.0573.018.1166.009.1624-.0252.0478-.0342.0745-.0891.0745-.1471v-2.08455c0-.07967-.0496-.15017-.128-.17367-.4891-.14579-1.1158-.29539-2.0558-.29539-2.2833 0-3.4927 1.28663-3.4927 3.71941v.5236h-1.1884c-.0994 0-.1815.0813-.1815.1811v2.1368c0 .0998.0821.1814.1815.1814h1.1884v8.4842c0 .1012.0822.1815.1815.1815h2.4724c.1013 0 .1815-.0803.1815-.1815v-8.4837h2.31l3.5385 8.4837c-.4013.8903-.7968 1.068-1.3356 1.068-.4356 0-.896-.1299-1.3642-.3878-.0439-.023-.0974-.0268-.1433-.0134-.0477.0172-.0878.0516-.107.0974l-.8387 1.84c-.0401.0879-.0058.1891.0783.235.8751.4738 1.6642.6763 2.6405.6763 1.8266 0 2.8373-.8521 3.7258-3.141l4.2912-11.0888c.023-.0558.015-.1189-.019-.1684-.033-.0491-.088-.0787-.147-.0787h-2.576c-.078 0-.1468.0491-.1717.1215l-2.6386 7.5345-2.8888-7.5394c-.0268-.0702-.0937-.1166-.1682-.1166h-4.2263zm-5.4988-.0108h-2.4743c-.0994 0-.1815.0813-.1815.1813v10.7915c0 .1012.0821.1815.1815.1815h2.4743c.0993 0 .1815-.0803.1815-.1815v-10.7908c0-.0999-.0803-.1813-.1815-.1813zm-1.2229-4.91403c-.9801 0-1.7749.7933-1.7749 1.77327 0 .98056.7948 1.77476 1.7749 1.77476.9802 0 1.7731-.7942 1.7731-1.77476 0-.97978-.7948-1.77327-1.7731-1.77327zm21.6703 8.38393c-.978 0-1.74-.7863-1.74-1.741 0-.9548.772-1.75 1.75-1.75s1.74.7861 1.74 1.7401c0 .9547-.772 1.7509-1.75 1.7509zm.01-3.3179c-.892 0-1.567.7089-1.567 1.5769 0 .8676.671 1.5669 1.557 1.5669.893 0 1.567-.7083 1.567-1.5768 0-.8677-.671-1.567-1.557-1.567zm.386 1.746.493.6893h-.417l-.443-.6324h-.38v.6324h-.348v-1.8273h.814c.426 0 .705.2172.705.5829.002.2996-.172.4827-.422.5551zm-.294-.8245h-.453v.578h.453c.225 0 .361-.1106.361-.2893 0-.188-.136-.2887-.361-.2887z" fill="#282828"/></svg>