<svg fill="none" height="32" viewBox="0 0 137 32" width="137" xmlns="http://www.w3.org/2000/svg"><path d="m25.2084 0h-25.2084v23.4666l12.6042 8.5334 12.3352-8.5334z" fill="#282828"/><path d="m17.3362 6.87619v-.00534h-7.98691c-3.43518 0-3.43518 3.62475-3.43518 3.62475 0 2.7671 1.79383 3.4159 2.46576 3.5627h-2.59081v2.6425c0 1.9277 1.38163 2.2915 2.21922 2.3346v.0253h.62134v-4.9607l.01211-3.0123c0-1.7518 2.23847-1.65668 2.23847-1.65668h5.8325v2.39738h-5.5222v2.5623h5.5133l-.0021.4532c0 1.7525-2.2381 1.6563-2.2381 1.6563h-3.2731v2.5605h4.8061c3.4341 0 3.4341-3.6261 3.4341-3.6261 0-3.0159-1.9655-3.4915-2.4494-3.567l2.5738-.0057v-2.64678c-.0018-1.92993-1.3831-2.29332-2.2189-2.33893z" fill="#fff"/><path d="m131.169 15.2228-.762-2.7201h.959v-2.0255h-4.976v2.0255h.849l1.838 6.0772h.749zm-8.387 3.3571h4.283v-2.0261h-1.158v-8.82555h-4.552v2.02541h1.425zm-.482-2.0261h-1.428v-8.82555h-4.601v2.02541h1.477v8.82624h4.553zm-7.042 2.1708c.728.0065 1.436-.2379 2.006-.6922v-1.4786h-.52c-.632 0-.965-.2494-.965-.969v-2.1124c0-.7211.333-.9697.965-.9697h.52v-1.4782c-.569-.4556-1.278-.7004-2.006-.6926-1.737 0-2.692.8679-2.692 3.0675v2.2573c0 2.1997.955 3.0679 2.692 3.0679zm-6.829-.1447h3.776v-2.0261h-.651v-3.443c0-1.9826-.839-2.7789-2.605-2.7789-.7-.0129-1.383.216-1.933.648v1.522h.453c.632 0 .96.2494.96.9698zm-.482 0v-2.0261h-1.414v-6.0766h-3.993v2.0255h.868v4.0511h-.868v2.0261zm-10.3078-3.242h4.2638v-1.9378c0-2.1975-1.271-3.0675-3.7597-3.0675h-.5041v2.0254h.5309c.7257 0 1.0128.2494 1.0128 1.2302v.1732h-1.5437zm4.2638 2.9086v-2.097c-1.151.3466-2.3438.5315-3.5452.5493-.9113 0-1.2006-.3181-1.2006-1.2298v-5.1371c-2.0112 0-3.1979 1.2587-3.1979 3.0675v2.2573c0 2.1558 1.2013 3.0672 4.2973 3.0672 1.2307-.0033 2.4564-.1635 3.6464-.4767zm-12.3718-8.49284h3.1252v-2.02541h-3.1252zm0 .72354v6.0766h-.8683v2.0261h4.8478v-2.0261h-.855v-6.0766zm-2.889 2.6044h2.4066v-2.6044h-.6605c-.6385-.001-1.2568.2236-1.7458.6342zm-4.4606 5.4983h5.151v-2.0261h-1.1721v-6.0766h-3.1252v6.0766h-.8551zm-4.4566-8.82624h2.3105v1.98944h2.517v-4.01485h-4.8275zm0 4.78654h3.3233v-2.3158h-3.3233zm-.4824-6.81195h-4.3109v2.02541h.8825v6.80014h-1.0278v2.0261h6.1931v-2.0261h-1.7365zm-6.3181 5.35335h2.407v-2.6044h-.6609c-.6385-.001-1.2568.2236-1.7457.6342zm-4.4612 5.4983h5.151v-2.0261h-1.1722v-6.0766h-3.9788v2.0255h.855v4.0511h-.855zm-4.9002-3.242h4.2635v-1.9378c0-2.1975-1.2712-3.0675-3.7572-3.0675h-.5038v2.0254h.5305c.7232 0 1.0104.2494 1.0104 1.2302v.1732h-1.5427zm4.2635 2.9086v-2.097c-1.1504.3466-2.3435.5315-3.5449.5493-.9117 0-1.201-.3181-1.201-1.2298v-5.1371c-2.0111 0-3.1975 1.2587-3.1975 3.0675v2.2573c0 2.1558 1.2006 3.0672 4.2973 3.0672 1.2307-.0033 2.456-.1635 3.6461-.4767zm63.6404 1.0563h-75.7604v2.0254h75.7604c1.837 0 2.72-.6056 3.255-1.9823l2.676-6.844h.725v-2.0247h-4.276v2.0255h.931l-2.4 6.0192c-.161.4197-.362.7816-.911.7816zm-81.905 0h-18.7909v2.0254h18.7912zm-14.3439-2.749c-.6216.0019-1.2408-.0758-1.8426-.2312v-1.6495h-2.6044v3.5018c1.4507.3833 2.9466.5682 4.447.5497zm.4824-6.85786c.5039-.00156 1.0062.05681 1.4963.17386v1.6927h2.5901v-3.38463c-1.3277-.38612-2.7026-.58577-4.0853-.59319zm9.0817.78126v2.0255h1.413v6.0772h3.9935v-2.0261h-.8679v-6.0766zm.4774 6.0766c-.6295 0-.9598-.2494-.9598-.969v-5.1076h-3.7643v2.0255h.6391v3.4437c0 1.9823.839 2.7789 2.6044 2.7789.7.0125 1.383-.2166 1.9338-.6488v-1.5227zm5.6526-4.0511h-.8682v-2.0255h3.9938v8.8263h1.1864v2.0254h-5.1802v-2.0254h.8682zm5.6142 6.2219c1.7361 0 2.6909-.8682 2.6909-3.0672v-2.2573c0-2.1996-.9548-3.0675-2.6909-3.0675-.7285-.0075-1.4372.2369-2.0062.6919v1.4782h.5202c.6345 0 .9648.2493.9648.9697v2.1124c0 .7211-.3303.969-.9648.969h-.5202v1.4786c.5695.454 1.2779.6984 2.0062.6922zm-20.8259 0c3.1252 0 4.489-1.1433 4.489-2.8794v-1.0129c0-1.5768-.7667-2.3008-2.6043-2.7924l-2.9361-.796c-.5066-.1303-.6804-.3901-.6804-.7667 0-.47771.311-.767 1.2494-.767v-2.12695c-3.1662 0-4.4178 1.11406-4.4178 3.02405v.8102c0 1.5775.7667 2.3008 2.6044 2.7928l2.8794.7813c.564.1446.6655.3619.6655.8105 0 .477-.2822.7517-1.2491.7517z" fill="#282828"/></svg>