<svg fill="none" height="20" viewBox="0 0 125 20" width="125" xmlns="http://www.w3.org/2000/svg"><g fill="#fff"><path d="m1.33416 5.81347c0 3.36039 2.24155 4.61383 5.60963 5.45583 3.20661.769 3.86411 1.7648 3.86411 3.0297 0 1.3996-1.25346 2.3762-3.05284 2.3762-1.94165 0-3.59109-.6998-5.34818-2.2647-.05768.0731-1.676356 2.0686-1.734028 2.1378 1.972408 1.8109 4.394658 2.7721 7.009148 2.7721 3.5949 0 6.0095-2.1377 6.0095-5.3251 0-2.7875-1.6687-4.45233-5.41354-5.39817-3.395-.84202-4.06016-1.75709-4.06016-3.06049 0-1.13423.96505-2.28 2.81058-2.28 1.51871 0 3.02202.58826 4.59072 1.7917.05-.07305 1.4995-2.18772 1.5457-2.26077-1.7687-1.46104-3.76031-2.172336-6.08644-2.172336-3.32963 0-5.7442 2.183876-5.7442 5.198236z"/><path d="m23.2805 5.84424c-.0192.06536-2.8721 9.26606-2.8721 9.26606s-2.5837-9.14687-2.603-9.21608c-.0692 0-2.7798 0-2.9028 0 .0384.12304 4.0947 13.20708 4.114 13.27238h2.5453c.0192-.0653 2.9182-9.18146 2.9182-9.18146s2.8721 9.11616 2.8952 9.18146h2.5453c.0192-.0653 4.1216-13.14934 4.1601-13.27238-.1231 0-2.7606 0-2.8298 0-.0193.06921-2.6491 9.21228-2.6491 9.21228s-2.876-9.1969-2.8952-9.26226c-.0692 0-2.3569 0-2.4261 0z"/><path d="m35.4686 12.4803v.05c0 3.9602 2.7414 6.8361 6.517 6.8361 2.3992 0 3.7295-.7074 4.7869-1.3726-.0231-.0692-.7421-2.2108-.7805-2.3146-1.1958.8305-2.3838 1.1881-3.9602 1.1881-2.0339 0-3.4296-1.2342-3.7295-3.2989l-.0077-.0538h9.4122c0-.0077 0-.0193 0-.0193l.0423-.7882c0-3.52952-1.8802-7.08601-6.0826-7.08601-3.5295 0-6.1979 2.949-6.1979 6.85921zm2.8106-.9343c.2768-2.14927 1.5995-3.53726 3.3681-3.53726 1.8148 0 3.0797 1.35339 3.295 3.53726l.0039.0538h-6.6708z"/><path d="m60.2987.615234v6.405516l-.0769-.06152c-1.2073-.94968-2.3415-1.33801-3.9064-1.33801-2.9259 0-5.8864 2.3492-5.8864 6.83618v.0499c0 4.487 3.122 6.8362 6.2055 6.8362 2.7645 0 6.1287-.5345 6.5055-.596 0-.0807 0-18.036145 0-18.132266-.0961 0-2.7491 0-2.8413 0zm-7.013 11.888266v-.0461c0-2.48766 1.5687-4.29474 3.7295-4.29474 2.0031 0 3.3335 1.33801 3.3335 1.88014v6.5285l-.0385.0077c-.0115.0039-1.1573.2192-3.2912.2192-2.13.0038-3.7333-1.8455-3.7333-4.2947z"/><path d="m66.9119.615234v18.132266c.3768.0615 3.741.596 6.5054.596 3.0836 0 6.2056-2.3492 6.2056-6.8362v-.0499c0-4.48698-2.9644-6.83618-5.8903-6.83618-1.5687 0-2.6991.38833-3.9063 1.33801l-.0769.06152s0-6.313239 0-6.405516c-.0923 0-2.7453 0-2.8375 0zm2.8259 15.963766-.0384-.0077v-6.5285c0-.54213 1.3265-1.88014 3.3296-1.88014 2.1608 0 3.7295 1.80708 3.7295 4.29474v.0499c0 2.4492-1.6033 4.2947-3.7295 4.2947-2.1339 0-3.2796-.2191-3.2912-.223z"/><path d="m83.1102 6.77842c.027.0769.7421 2.25693.769 2.34921 1.1381-.4883 2.1954-.81127 3.6295-.81127 2.0609 0 3.199 1.02658 3.199 2.88744v.3153l-.0616-.0192c-1.0035-.3307-1.9839-.5498-3.5218-.5498-3.2182 0-5.1368 1.6071-5.1368 4.2985v.05c0 2.7798 2.3377 4.0486 4.5062 4.0486 3.1336 0 6.6208-.5383 7.0015-.5998 0-.0807 0-7.4936 0-7.4936 0-3.63335-1.9263-5.55578-5.5712-5.55578-2.0416-.00384-3.4065.43063-4.8138 1.0804zm1.6879 8.36638v-.05c0-1.3188 1.115-2.1069 2.9798-2.1069 1.0304 0 2.107.1922 2.949.5305l.0307.0116v3.3757l-.0384.0077c-.0115.0039-1.2957.2423-3.3989.2423-1.511-.0039-2.5222-.8113-2.5222-2.0109z"/><path d="m97.0747 6.21704v12.84946h2.8375c0-.0961 0-10.68481 0-10.68481l.0384-.00769c.0116 0 1.2114-.20762 2.8914-.20762 1.746 0 2.784 1.27649 2.784 3.41042v7.4897h2.837c0-.0961 0-8.3933 0-8.3933 0-3.11815-1.726-5.05211-4.506-5.05211-3.16 0-6.5055.53444-6.8823.59595z"/><path d="m112.1.615234v18.451366h2.838c0-.0922 0-3.7641 0-3.7641l1.845-1.9916s3.845 5.7135 3.872 5.7557h3.276c-.096-.1461-5.229-7.8204-5.229-7.8204s4.891-5.19435 5.041-5.34815c-.208 0-3.388 0-3.43 0-.027.03076-5.375 5.95565-5.375 5.95565s0-11.142345 0-11.238466c-.096 0-2.749 0-2.838 0z"/></g></svg>