<svg width="870" height="222" viewBox="0 0 870 222" fill="none" xmlns="http://www.w3.org/2000/svg">
<path d="M255.939 90.2676H338.049V120.304H255.939V140.452C255.939 157.044 261.828 160.822 296.901 160.822C320.605 160.822 340.567 158.933 355.678 156.192C356.715 164.155 361.159 179.081 364.085 186.007C343.715 191.466 320.197 194.618 290.605 194.618C233.273 194.618 212.495 184.34 212.495 146.97V22.0094H356.085V56.2311H255.939V90.2676Z" fill="#282828"/>
<path d="M419.529 121.971V45.972C419.529 30.4167 408.825 22.0094 393.9 22.0094H376.048V124.897C376.048 174.044 396.826 194.618 448.084 194.618C481.454 194.618 505.379 190.418 519.675 184.118C516.305 176.97 511.676 159.563 510.861 154.081C499.935 157.859 479.158 160.822 459.602 160.822C424.344 160.822 419.529 144.23 419.529 121.971Z" fill="#282828"/>
<path d="M48.2755 22.0094C32.7572 22.0094 20.7944 34.1944 20.7944 49.3053V58.12H87.9786V191.677H131.422V58.12H166.903C182.459 58.12 194.421 45.972 194.421 30.8241V22.0094H48.2755Z" fill="#282828"/>
<path d="M587.082 194.618C617.304 194.618 634.526 183.488 660.784 136.859C679.673 103.082 690.377 82.8973 694.154 74.9345C696.895 69.2679 698.562 67.7865 702.339 67.7865C705.932 67.7865 707.598 69.2679 709.895 74.7123C714.117 84.7862 724.598 107.045 730.672 118.823H712.858C701.71 119.23 689.525 126.156 686.821 139.6L684.932 149.674H706.339C730.265 149.674 742.042 154.526 766.19 176.563C782.56 191.677 794.523 199.447 819.93 199.447C832.522 199.447 841.967 196.507 848.485 193.566V193.359C833.152 188.107 815.3 176.34 799.967 155.97C777.708 126.378 758.19 88.3787 741.413 52.6756C731.339 31.4537 719.154 22.0094 702.747 22.0094C685.34 22.0094 673.155 30.8241 663.488 48.8979C655.71 63.3791 649.007 77.2308 641.674 90.8972C633.896 105.156 625.933 119.045 616.896 133.711C602.822 156.6 597.156 158.304 588.971 158.304C579.934 158.304 572.786 151.785 572.786 133.711V45.972C572.786 30.4167 562.082 22.0094 546.971 22.0094H529.342V138.563C529.342 173.637 550.119 194.618 587.082 194.618Z" fill="#282828"/>
</svg>
