<?xml version="1.0" encoding="UTF-8" standalone="no"?>
<!-- Created with Inkscape (http://www.inkscape.org/) -->
<svg
   xmlns:svg="http://www.w3.org/2000/svg"
   xmlns="http://www.w3.org/2000/svg"
   version="1.0"
   width="869.27948"
   height="221.45668"
   id="svg1882">
  <defs
     id="defs1884" />
  <g
     transform="translate(-421.8795,-104.786)"
     id="layer1">
    <g
       transform="translate(714.1621,-82.62574)"
       id="g13520">
      <path
         d="M -36.343745,277.67929 L 45.766083,277.67929 L 45.766083,307.71586 L -36.343745,307.71586 L -36.343745,327.86368 C -36.343745,344.45602 -30.454954,348.23372 4.6185715,348.23372 C 28.321899,348.23372 48.284561,346.34489 63.395424,343.60419 C 64.432456,351.567 68.876832,366.49271 71.802692,373.41853 C 51.432648,378.87769 27.914477,382.02951 -1.6776413,382.02951 C -59.01008,382.02951 -79.787508,371.75189 -79.787508,334.38212 L -79.787508,209.4211 L 63.802807,209.4211 L 63.802807,243.64279 L -36.343745,243.64279 L -36.343745,277.67929"
         style="fill:#c40075;fill-rule:nonzero;stroke:none"
         id="path13436" />
      <path
         d="M 127.24626,309.3825 L 127.24626,233.38369 C 127.24626,217.82837 116.54274,209.4211 101.61704,209.4211 L 83.765469,209.4211 L 83.765469,312.30836 C 83.765469,361.45576 104.54294,382.02951 155.80139,382.02951 C 189.17124,382.02951 213.09676,377.82957 227.39285,371.52966 C 224.02254,364.38162 219.39297,346.9745 218.57816,341.49309 C 207.65242,345.27083 186.87495,348.23372 167.31971,348.23372 C 132.06099,348.23372 127.24626,331.64141 127.24626,309.3825"
         style="fill:#c40075;fill-rule:nonzero;stroke:none"
         id="path13438" />
      <path
         d="M -244.00716,209.4211 C -259.52545,209.4211 -271.48823,221.60611 -271.48823,236.71697 L -271.48823,245.53166 L -204.30407,245.53166 L -204.30407,379.08879 L -160.8603,379.08879 L -160.8603,245.53166 L -125.3794,245.53166 C -109.82408,245.53166 -97.861302,233.38369 -97.861302,218.23579 L -97.861302,209.4211 L -244.00716,209.4211"
         style="fill:#c40075;fill-rule:nonzero;stroke:none"
         id="path13440" />
      <path
         d="M 294.7992,382.02951 C 325.02093,382.02951 342.24289,370.90006 368.50176,324.27114 C 387.39032,290.4939 398.09388,270.30905 401.87158,262.3462 C 404.61228,256.67963 406.27892,255.19815 410.05666,255.19815 C 413.6492,255.19815 415.31584,256.67963 417.61209,262.12397 C 421.83424,272.19788 432.31557,294.45679 438.38952,306.23441 L 420.57502,306.23441 C 409.42701,306.64179 397.24204,313.56762 394.53837,327.01184 L 392.6495,337.08575 L 414.05658,337.08575 C 437.98213,337.08575 449.75972,341.93755 473.9075,363.97423 C 490.27762,379.08879 502.24039,386.85906 527.64739,386.85906 C 540.23978,386.85906 549.68408,383.91838 556.20252,380.97766 L 556.20252,380.77025 C 540.86943,375.5185 523.01782,363.75201 507.68473,343.38196 C 485.42582,313.78984 465.90761,275.79042 449.13011,240.08728 C 439.0562,218.8654 426.87119,209.4211 410.46404,209.4211 C 393.05693,209.4211 380.87192,218.23579 371.2054,236.30955 C 363.42774,250.7908 356.72414,264.64245 349.39094,278.3089 C 341.61328,292.56796 333.65042,306.4566 324.61355,321.12305 C 310.53968,344.01157 304.87311,345.71524 296.68807,345.71524 C 287.65115,345.71524 280.50314,339.19684 280.50314,321.12305 L 280.50314,233.38369 C 280.50314,217.82837 269.79959,209.4211 254.68872,209.4211 L 237.05938,209.4211 L 237.05938,325.97481 C 237.05938,361.04833 257.83681,382.02951 294.7992,382.02951"
         style="fill:#c40075;fill-rule:nonzero;stroke:none"
         id="path13442" />
    </g>
  </g>
</svg>
