<svg enable-background="new 0 0 726.93 283.46" viewBox="0 0 726.93 283.46" xmlns="http://www.w3.org/2000/svg"><g fill="#282828"><path d="m163.8 164.04c-70.19 33.72-124.54 43.02-148.61 17.95 8.08 16.07 18.88 32.3 31.2 46.93 29.31 24.94 79.4 15.49 140.41-19.9 36.11-20.94 63.17-48.25 75.51-76.24 4.76-20.07 7.47-41.63 7.47-64.35 0-2.76-.11-5.43-.32-8-3.83 33.98-48.14 75.98-105.66 103.61"/><path d="m152.7 135.16c66.27-31.96 112.58-77.32 105.47-107.73-14.15-19.78-39.52-27.43-66.59-27.43-86.01 0-191.58 56.69-191.58 129.03 0 7.9 1.48 16.6 4.19 25.72 20.19 24.87 79.42 13.73 148.51-19.59"/><path d="m149.89 245.28c-45.17 18.32-70.73 13.42-85.85 2.46 22.2 21.15 47.01 35.73 68.9 35.73 39.74 0 93.91-47.4 120.61-121.26-15.06 27.08-46.24 59.86-103.66 83.07"/><path d="m152.7 135.16c-69.09 33.32-128.32 44.46-148.51 19.58 2.61 8.8 6.35 17.99 11 27.24 24.08 25.07 78.42 15.78 148.61-17.95 57.52-27.63 101.83-69.63 105.66-103.62-1.13-13.53-5.15-24.4-11.29-32.99 7.11 30.42-39.2 75.78-105.47 107.74"/><path d="m186.8 209.02c-61.01 35.39-111.11 44.84-140.41 19.9 5.61 6.66 11.53 12.99 17.65 18.82 15.12 10.96 40.68 15.86 85.85-2.46 57.42-23.21 88.6-55.99 103.65-83.07 3.4-9.4 6.35-19.22 8.77-29.43-12.34 27.99-39.4 55.29-75.51 76.24"/><path d="m330.99 105.76c-3.67 0-7.33-2.75-11-8.25-2.4-3.81-3.6-6.7-3.6-8.67 0-3.39 2.22-6.52 6.66-9.41s9.27-4.34 14.49-4.34h86.51c5.5 0 8.25 2.54 8.25 7.61 0 5.79-1.55 11.07-4.65 15.86-3.1 4.8-6.49 7.19-10.15 7.19h-28.13v95.61c0 5.78-1.55 11.07-4.65 15.86s-6.49 7.19-10.15 7.19c-3.67 0-7.33-2.75-11-8.25-2.4-3.81-3.6-6.7-3.6-8.67v-101.73z"/><path d="m439.07 180.22c1.55 6.63 4.93 11.95 10.15 15.97 5.21 4.02 11.49 6.03 18.82 6.03 6.2 0 13.61-2.11 22.21-6.34 3.95-1.97 7.61-2.96 11-2.96 4.51 0 6.77 2.05 6.77 6.13 0 3.67-.81 7.19-2.43 10.58-1.62 3.38-3.7 5.85-6.24 7.4-4.79 2.96-10.12 5.25-15.97 6.88-5.85 1.62-11.67 2.43-17.45 2.43-10.15 0-19.43-2.68-27.81-8.04-8.39-5.36-14.91-12.27-19.56-20.73s-6.98-17.48-6.98-27.07c0-10.71 2.54-20.41 7.62-29.08s11.7-15.37 19.88-20.09 17.13-7.09 26.86-7.09c9.45 0 17.94 2.22 25.49 6.66 7.54 4.44 13.36 10.33 17.45 17.66s6.13 15.37 6.13 24.11c0 4.52-1.16 8.57-3.49 12.16-2.33 3.6-4.9 5.39-7.72 5.39zm26.23-42.73c-6.77 0-12.55 1.94-17.35 5.82-4.79 3.88-7.76 9.06-8.88 15.55h49.92c-.29-6.06-2.68-11.14-7.19-15.23-4.52-4.09-10.02-6.14-16.5-6.14z"/><path d="m554.13 224.42c-6.34 0-11.84-2.5-16.5-7.51-4.65-5-6.98-10.89-6.98-17.66v-112.31c0-3.1 2.15-6.06 6.45-8.88s8.91-4.23 13.85-4.23c5.21 0 7.83 2.4 7.83 7.19v109.14c0 1.84.39 3.35 1.16 4.55s2.14 2.22 4.12 3.07c2.25.99 3.39 2.96 3.39 5.92 0 5.22-1.41 9.98-4.23 14.28s-5.85 6.44-9.09 6.44z"/><path d="m596.85 102.59c-3.67 0-7.48-2.89-11.42-8.67-2.68-4.09-4.02-7.26-4.02-9.52 0-3.52 2.39-6.84 7.19-9.94 4.79-3.1 9.94-4.65 15.44-4.65 5.92 0 8.88 2.68 8.88 8.04 0 4.23-.81 8.29-2.43 12.16-1.62 3.88-3.67 6.95-6.13 9.2-2.47 2.26-4.97 3.38-7.51 3.38zm0 121.83c-3.25 0-6.77-2.68-10.58-8.04-2.25-3.66-3.38-6.41-3.38-8.25v-78.89c0-3.1 2.15-6.06 6.45-8.89 4.3-2.82 8.91-4.23 13.85-4.23 5.21 0 7.83 2.4 7.83 7.19v78.89c0 3.81-.74 7.48-2.22 11-1.48 3.53-3.31 6.28-5.5 8.25-2.18 1.99-4.33 2.97-6.45 2.97z"/><path d="m679.13 224.42c-10.16 0-19.36-2.54-27.61-7.61-8.25-5.08-14.66-11.74-19.25-19.99s-6.88-17.24-6.88-26.97c0-10.43 2.61-19.95 7.83-28.55 5.21-8.6 11.98-15.26 20.3-19.99 8.32-4.72 17.27-7.09 26.86-7.09 8.18 0 16.14 2.26 23.9 6.77 4.93-3.24 9.87-4.86 14.8-4.86 5.21 0 7.83 2.4 7.83 7.19v78.89c0 3.81-.74 7.48-2.22 11-1.48 3.53-3.31 6.28-5.5 8.25s-4.34 2.96-6.45 2.96c-3.25 0-6.77-2.68-10.57-8.04-1.41-2.25-2.4-4.23-2.96-5.92-1.13 3.11-2.64 5.79-4.55 8.04-1.9 2.26-3.91 3.74-6.03 4.44-2.94.99-6.12 1.48-9.5 1.48zm1.9-26.22c6.34 0 12.27-1.76 17.77-5.29v-48.01c-5.22-2.96-11.07-4.45-17.55-4.45-8.04 0-14.77 2.72-20.2 8.14-5.43 5.43-8.14 12.23-8.14 20.41s2.71 15.09 8.14 20.73c5.42 5.65 12.09 8.47 19.98 8.47z"/></g></svg>