<svg height="221.45668" width="869.27948" xmlns="http://www.w3.org/2000/svg"><g fill="#c40075" transform="translate(292.2826 -187.41174)"><path d="m-36.343745 277.67929h82.109828v30.03657h-82.109828v20.14782c0 16.59234 5.888791 20.37004 40.9623165 20.37004 23.7033275 0 43.6659895-1.88883 58.7768525-4.62953 1.037032 7.96281 5.481408 22.88852 8.407268 29.81434-20.370044 5.45916-43.888215 8.61098-73.4803333 8.61098-57.3324387 0-78.1098667-10.27762-78.1098667-47.64739v-124.96102h143.590315v34.22169h-100.146552z"/><path d="m127.24626 309.3825v-75.99881c0-15.55532-10.70352-23.96259-25.62922-23.96259h-17.851571v102.88726c0 49.1474 20.777471 69.72115 72.035921 69.72115 33.36985 0 57.29537-4.19994 71.59146-10.49985-3.37031-7.14804-7.99988-24.55516-8.81469-30.03657-10.92574 3.77774-31.70321 6.74063-51.25845 6.74063-35.25872 0-40.07345-16.59231-40.07345-38.85122"/><path d="m-244.00716 209.4211c-15.51829 0-27.48107 12.18501-27.48107 27.29587v8.81469h67.18416v133.55713h43.44377v-133.55713h35.4809c15.55532 0 27.518098-12.14797 27.518098-27.29587v-8.81469z"/><path d="m294.7992 382.02951c30.22173 0 47.44369-11.12945 73.70256-57.75837 18.88856-33.77724 29.59212-53.96209 33.36982-61.92494 2.7407-5.66657 4.40734-7.14805 8.18508-7.14805 3.59254 0 5.25918 1.48148 7.55543 6.92582 4.22215 10.07391 14.70348 32.33282 20.77743 44.11044h-17.8145c-11.14801.40738-23.33298 7.33321-26.03665 20.77743l-1.88887 10.07391h21.40708c23.92555 0 35.70314 4.8518 59.85092 26.88848 16.37012 15.11456 28.33289 22.88483 53.73989 22.88483 12.59239 0 22.03669-2.94068 28.55513-5.8814v-.20741c-15.33309-5.25175-33.1847-17.01824-48.51779-37.38829-22.25891-29.59212-41.77712-67.59154-58.55462-103.29468-10.07391-21.22188-22.25892-30.66618-38.66607-30.66618-17.40711 0-29.59212 8.81469-39.25864 26.88845-7.77766 14.48125-14.48126 28.3329-21.81446 41.99935-7.77766 14.25906-15.74052 28.1477-24.77739 42.81415-14.07387 22.88852-19.74044 24.59219-27.92548 24.59219-9.03692 0-16.18493-6.5184-16.18493-24.59219v-87.73936c0-15.55532-10.70355-23.96259-25.81442-23.96259h-17.62934v116.55371c0 35.07352 20.77743 56.0547 57.73982 56.0547"/></g></svg>