<svg enable-background="new 0 0 726.9 283.5" viewBox="0 0 726.9 283.5" xmlns="http://www.w3.org/2000/svg"><g fill="#282828"><path d="m163.8 164c-70.2 33.7-124.5 43-148.6 17.9 8.1 16.1 18.9 32.3 31.2 46.9 29.3 24.9 79.4 15.5 140.4-19.9 36.1-20.9 63.2-48.2 75.5-76.2 4.8-20.1 7.5-41.6 7.5-64.3 0-2.8-.1-5.4-.3-8-3.9 34-48.2 76-105.7 103.6"/><path d="m152.7 135.2c66.3-32 112.6-77.3 105.5-107.7-14.2-19.9-39.6-27.5-66.6-27.5-86 0-191.6 56.7-191.6 129 0 7.9 1.5 16.6 4.2 25.7 20.2 24.9 79.4 13.8 148.5-19.5"/><path d="m149.9 245.3c-45.2 18.3-70.7 13.4-85.8 2.5 22.2 21.2 47 35.7 68.9 35.7 39.7 0 93.9-47.4 120.6-121.3-15.1 27.1-46.3 59.9-103.7 83.1"/><path d="m331 105.8c-3.7 0-7.3-2.8-11-8.2-2.4-3.8-3.6-6.7-3.6-8.7 0-3.4 2.2-6.5 6.7-9.4s9.3-4.3 14.5-4.3h86.4c5.5 0 8.2 2.5 8.2 7.6 0 5.8-1.5 11.1-4.6 15.9s-6.5 7.2-10.1 7.2h-28.1v95.6c0 5.8-1.5 11.1-4.6 15.9s-6.5 7.2-10.1 7.2c-3.7 0-7.3-2.8-11-8.2-2.4-3.8-3.6-6.7-3.6-8.7v-101.9z"/><path d="m439.1 180.2c1.5 6.6 4.9 11.9 10.1 16 5.2 4 11.5 6 18.8 6 6.2 0 13.6-2.1 22.2-6.3 4-2 7.6-3 11-3 4.5 0 6.8 2.1 6.8 6.1 0 3.7-.8 7.2-2.4 10.6s-3.7 5.9-6.2 7.4c-4.8 3-10.1 5.2-16 6.9-5.9 1.6-11.7 2.4-17.5 2.4-10.1 0-19.4-2.7-27.8-8-8.4-5.4-14.9-12.3-19.6-20.7s-7-17.5-7-27.1c0-10.7 2.5-20.4 7.6-29.1s11.7-15.4 19.9-20.1 17.1-7.1 26.9-7.1c9.5 0 17.9 2.2 25.5 6.7 7.5 4.4 13.4 10.3 17.5 17.7s6.1 15.4 6.1 24.1c0 4.5-1.2 8.6-3.5 12.2s-4.9 5.4-7.7 5.4zm26.2-42.7c-6.8 0-12.5 1.9-17.4 5.8-4.8 3.9-7.8 9.1-8.9 15.6h50c-.3-6.1-2.7-11.1-7.2-15.2-4.5-4.2-10-6.2-16.5-6.2z"/><path d="m554.1 224.4c-6.3 0-11.8-2.5-16.5-7.5s-7-10.9-7-17.7v-112.3c0-3.1 2.2-6.1 6.5-8.9s8.9-4.2 13.8-4.2c5.2 0 7.8 2.4 7.8 7.2v109.1c0 1.8.4 3.4 1.2 4.6s2.1 2.2 4.1 3.1c2.2 1 3.4 3 3.4 5.9 0 5.2-1.4 10-4.2 14.3s-5.8 6.4-9.1 6.4z"/><path d="m596.8 102.6c-3.7 0-7.5-2.9-11.4-8.7-2.7-4.1-4-7.3-4-9.5 0-3.5 2.4-6.8 7.2-9.9s9.9-4.7 15.4-4.7c5.9 0 8.9 2.7 8.9 8 0 4.2-.8 8.3-2.4 12.2s-3.7 6.9-6.1 9.2c-2.5 2.3-5 3.4-7.6 3.4zm0 121.8c-3.2 0-6.8-2.7-10.6-8-2.2-3.7-3.4-6.4-3.4-8.2v-78.9c0-3.1 2.2-6.1 6.5-8.9s8.9-4.2 13.8-4.2c5.2 0 7.8 2.4 7.8 7.2v78.9c0 3.8-.7 7.5-2.2 11s-3.3 6.3-5.5 8.2c-2.1 1.9-4.2 2.9-6.4 2.9z"/><path d="m679.1 224.4c-10.2 0-19.4-2.5-27.6-7.6s-14.7-11.7-19.2-20-6.9-17.2-6.9-27c0-10.4 2.6-19.9 7.8-28.6 5.2-8.6 12-15.3 20.3-20s17.3-7.1 26.9-7.1c8.2 0 16.1 2.3 23.9 6.8 4.9-3.2 9.9-4.9 14.8-4.9 5.2 0 7.8 2.4 7.8 7.2v78.9c0 3.8-.7 7.5-2.2 11s-3.3 6.3-5.5 8.2-4.3 3-6.5 3c-3.2 0-6.8-2.7-10.6-8-1.4-2.2-2.4-4.2-3-5.9-1.1 3.1-2.6 5.8-4.5 8-1.9 2.3-3.9 3.7-6 4.4-2.9 1.1-6.1 1.6-9.5 1.6zm1.9-26.2c6.3 0 12.3-1.8 17.8-5.3v-48c-5.2-3-11.1-4.4-17.5-4.4-8 0-14.8 2.7-20.2 8.1s-8.1 12.2-8.1 20.4 2.7 15.1 8.1 20.7c5.4 5.7 12 8.5 19.9 8.5z"/></g></svg>