<svg enable-background="new 0 0 492 126.7" viewBox="0 0 492 126.7" xmlns="http://www.w3.org/2000/svg"><g fill="#282828"><path d="m175.2 118.3c-13.9 0-21.3-7.2-21.3-20.6v-39.2h-4.9c-4.8-.1-8.7-4.1-8.6-8.9.1-4.7 3.9-8.4 8.6-8.4h4.8v-11.7c.4-5.5 5.2-9.6 10.7-9.2 4.9.4 8.8 4.3 9.2 9.2v11.7h7.8c4.8.2 8.5 4.2 8.4 8.9-.2 4.5-3.8 8.2-8.4 8.4h-7.8v34c0 5.9 3.7 8.2 6.9 8.2h1.7c5.6 0 8.7 3.7 8.7 8.6s-2.9 9-15.8 9z"/><path d="m237.5 118.3c-24.8 0-39.7-18.1-39.7-39.6 0-21.3 15-39.4 39.7-39.4 24.9 0 39.9 18.1 39.9 39.4-.1 21.5-15 39.6-39.9 39.6zm0-61.4c-12.3 0-19.2 10.1-19.2 21.8 0 11.8 6.9 22 19.2 22s19.3-10.1 19.3-22c0-11.6-7-21.8-19.3-21.8z"/><path d="m347.3 117.4h-1.6c-1.6 0-8.6-1.2-8.6-8.7-5.1 6.1-14 9.7-23.8 9.7-12 0-26.2-8.1-26.2-24.9 0-17.6 14.2-24.3 26.2-24.3 10 0 18.8 3.3 23.8 9.2v-10.3c0-7.6-6.5-12.6-16.5-12.6-6-.1-11.8 1.6-16.8 4.8-1.1.7-2.3 1-3.6 1.1-4.1-.1-7.5-3.5-7.5-7.6 0-1.4.4-2.7 1.1-3.9 4.7-7.5 21.5-10.6 30.2-10.6 17.1 0 32.9 6.8 32.9 28.5v39.7c0 5.4-4.3 9.8-9.6 9.9zm-10.2-28.4c-3.3-4.4-9.5-6.5-15.9-6.5-7.8 0-14.2 4-14.2 11.4 0 7 6.4 11.1 14.2 11.1 6.4 0 12.6-2.2 15.9-6.5z"/><path d="m403.7 118.3c-9.8 0-25.5-3.3-30.2-10-.9-1.2-1.4-2.7-1.4-4.2.1-4.5 3.7-8.1 8.2-8.2 1.4 0 2.8.4 4 1.1 5.9 3.4 13.7 6.1 20.2 6.1 8.6 0 12.6-3.4 12.6-8.1 0-12.5-44.7-2.3-44.7-31.9 0-12.6 11.1-23.7 30.8-23.7 9.8 0 23.2 3.1 27.4 9.2.8 1.1 1.2 2.5 1.2 3.9-.2 4.2-3.6 7.5-7.7 7.5-1.3 0-2.6-.3-3.7-.9-5.2-3-11-4.5-17-4.5-7.2 0-11.8 3.3-11.8 7.5 0 11.2 44.5 1.9 44.5 32.2.1 13.5-11.6 24-32.4 24z"/><path d="m476.1 118.3c-13.9 0-21.3-7.2-21.3-20.6v-39.2h-4.8c-4.8-.1-8.7-4.1-8.6-8.9.1-4.7 3.9-8.4 8.6-8.4h4.8v-11.7c.4-5.5 5.2-9.6 10.7-9.2 4.9.4 8.8 4.3 9.2 9.2v11.7h7.8c4.8.2 8.5 4.2 8.4 8.9-.2 4.5-3.8 8.2-8.4 8.4h-7.7v34c0 5.9 3.7 8.2 6.9 8.2h1.7c5.6 0 8.7 3.7 8.7 8.6-.2 4.9-3.1 9-16 9z"/><path d="m127.7 87.3c.1-8.3-.2-16.7-1-24.9-.6-5.6-2.5-12.8-8.4-14.2.8.2 1.6.2 2.3-.1 6.9-3.7 6.4-12.7 3.9-19.3-3.2-8.6-10.9-14.7-18.4-18.7-27.2-14.5-63.6-13.3-89.9 3.2-6.9 4.3-14.8 12.7-11.3 22 .9 2.3 2.3 4.4 4.1 6.2.8.8 2.6 2.8 2.6 2.8-3.6 4.9-6.1 9.2-7.8 15.2-5 17.8-4.1 29.2-2.8 43.5.8 8.8 3.7 22 13.8 23.5 8.2 1.1 17-1.6 25.2-2.6 9-1.1 18.1-2.8 27.2-2.5 12.8.3 25.5 3.4 38.4 3.6 6.8.1 18 .7 20.1-8.4 1.9-8.6 2-17.6 2-26.4 0-1 0-1.9 0-2.9zm-14.7 15c-3.2 7.3-12.2 6.5-18.5 6-9.4-.8-18.7-3.1-28.2-3.4-8.4-.2-16.7 1.4-24.8 3.2-6.1 1.4-14.6 4.9-20.1.2-6.1-5.3-7.2-14.3-7.3-21.9.1-6.9.8-13.7 2-20.4.8-4.2 2-8.2 3.6-12.1 2.2-5.7 5.4-9.1 5.6-8.9-1.6-1.7-3.6-2.7-4.7-5-4.2-8.9 6.3-16.4 12-19 20-9.1 48-8.2 66.9 3.5 5.8 3.6 17.2 16.1 6.6 22.4 6.6 3.2 8.3 12.7 9 19.5 1.1 10.9.8 21.9-1 32.7-.3.9-.6 2-1.1 3.2z"/></g></svg>