<svg fill="none" height="18" viewBox="0 0 131 18" width="131" xmlns="http://www.w3.org/2000/svg"><g clip-rule="evenodd" fill="#282828" fill-rule="evenodd"><path d="m0 .772461v2.388799h3.91821l7.66779 14.38004h9.4357l7.6678-14.40391 3.9176-.0247.0085-2.340229h-11.7218v2.348409h3.1216l-5.4146 10.22313-5.8558-10.18748 4.2712-.01913-.0076-2.364929z"/><path d="m75.6208.772461v2.388799h3.9171l7.668 14.38004h9.436l7.6681-14.40391 3.918-.0247.007-2.340229h-11.7198v2.348409h3.1203l-5.4145 10.22313-5.8564-10.18748 4.2724-.01913-.008-2.364929z"/><path d="m56.3414.77238v2.3888h3.9176l.0065 11.74012h-4.1301v2.6167l4.1329.0234h19.5611v-7.80565h-2.548c-.1397 4.13275-3.7248 5.17105-5.2349 5.17105-1.3837 0-4.0647-.0054-4.0647-.0054v-11.74496l3.8586-.0193-.0052-2.364923h-15.4938z"/><path d="m42.9792 15.3938c-2.3476 0-4.2497-2.8121-4.2497-6.28268 0-3.47142 1.9021-6.28559 4.2497-6.28559 2.3469 0 4.2497 2.81417 4.2497 6.28559 0 3.47058-1.9028 6.28268-4.2497 6.28268zm.1727-15.103273c-6.6593 0-12.0575 3.965313-12.0575 8.854773 0 4.8898 5.398 8.8546 12.0575 8.8546 6.6588 0 12.0578-3.9648 12.0578-8.8546 0-4.88946-5.399-8.854773-12.0578-8.854773z"/><path d="m118.6 15.3492c-2.346 0-4.248-2.8586-4.248-6.38665 0-3.5267 1.902-6.38601 4.248-6.38601 2.347 0 4.249 2.85931 4.249 6.38601 0 3.52785-1.902 6.38665-4.249 6.38665zm.174-15.3492c-6.661 0-12.057 4.02991-12.057 8.99918 0 4.96912 5.396 8.99822 12.057 8.99822 6.658 0 12.057-4.0291 12.057-8.99822 0-4.96927-5.399-8.99918-12.057-8.99918z"/></g></svg>